<svg width="197" height="238" viewBox="0 0 197 238" fill="none" xmlns="http://www.w3.org/2000/svg">
<path d="M58.3154 7.5862C83.121 -5.85644 117.86 2.94284 148.017 33.9522C190.008 77.1352 207.445 147.314 186.904 190.389C181.72 201.242 174.611 209.352 166.193 214.746L142.039 228.047C150.256 222.676 157.21 214.662 162.296 204.004C182.862 160.933 165.425 90.7546 123.408 47.5676C93.6389 16.9544 59.4165 7.96274 34.666 20.69L58.3154 7.5862Z" fill="#FF90E8"/>
<path d="M142.002 228.004C117.047 244.332 80.4146 236.214 48.8043 203.734C6.80933 160.543 -10.6296 90.3702 9.91711 47.2972C15.4104 35.7833 23.0746 27.3618 32.1628 22.0181L34.5487 20.6937L34.6355 20.6495C59.3761 7.94522 93.6084 16.9139 123.378 47.5271C165.37 90.7101 182.809 160.883 162.265 203.964C157.225 214.641 150.243 222.643 142.002 228.004ZM93.9067 74.513C82.7808 63.7416 58.8673 53.8617 44.9427 83.0223C31.4449 111.281 43.1407 145.384 66.2753 169.176C88.5346 192.064 112.85 197.011 123.779 174.134C134.707 151.258 119.592 127.028 111.067 116.251L136.384 142.286L145.254 123.709L105.1 82.4177L84.8734 124.774L92.7164 132.878L102.357 112.691C110.889 124.813 117.915 140.074 111.922 152.628C105.288 166.536 89.212 163.395 74.8079 148.582C60.4039 133.77 52.9488 112.65 59.5897 98.7255C65.7963 85.7201 77.5362 89.7637 83.8697 95.5607L93.9067 74.513Z" fill="#FF90E8"/>
<path d="M44.9635 83.0381C58.8882 53.8775 82.8016 63.7574 93.9275 74.5288L83.8562 95.6093C77.5292 89.7812 65.795 85.74 59.5762 98.774C52.9426 112.681 60.4297 133.774 74.8337 148.587C89.2377 163.399 105.308 166.538 111.948 152.633C117.941 140.078 110.915 124.818 102.383 112.696L92.7422 132.882L84.8992 124.778L105.125 82.4221L145.28 123.713L136.41 142.291L111.093 116.256C119.618 127.032 134.725 151.265 123.805 174.139C112.884 197.012 88.5578 192.074 66.301 169.18C43.1615 145.4 31.4658 111.297 44.9635 83.0381Z" fill="black"/>
<path d="M166.179 214.712C174.587 209.342 181.697 201.232 186.89 190.356C207.454 147.29 190.02 77.1061 148.003 33.9191C117.847 2.9097 83.1073 -5.88958 58.3016 7.55306L32 21.9999" stroke="black" stroke-width="2" stroke-miterlimit="10"/>
<path d="M34.5886 20.7107C33.7804 21.1241 32.9797 21.5678 32.2027 22.0352C23.126 27.3837 15.4503 35.8003 9.95703 47.3143" stroke="black" stroke-width="2" stroke-miterlimit="10"/>
<path d="M9.95778 47.3145C-10.6062 90.3801 6.82788 160.564 48.845 203.751C80.4406 236.265 117.088 244.349 142.043 228.021C150.26 222.65 157.214 214.637 162.3 203.979C182.866 160.908 165.43 90.729 123.413 47.542C93.6434 16.9288 59.4209 7.93713 34.6704 20.6643" stroke="black" stroke-width="2" stroke-miterlimit="10"/>
<path d="M166.221 214.777L166.478 214.636" stroke="black" stroke-width="2" stroke-miterlimit="10"/>
<path d="M135.684 231.509L166.18 214.713" stroke="black" stroke-width="2" stroke-miterlimit="10"/>
</svg>
