<svg width="166" height="141" viewBox="0 0 166 141" fill="none" xmlns="http://www.w3.org/2000/svg">
<path d="M161.383 20.9624C169.436 29.4019 161.775 49.7849 139.248 74.3455C108.362 108.062 61.0583 137.146 33.8119 139.192C26.1459 139.763 20.8691 138.138 17.9243 134.756L17.8987 134.771L3.94043 119.22L3.97028 119.203C6.94159 122.441 12.1581 123.988 19.6561 123.427C46.9097 121.394 94.2129 92.3099 125.093 58.5807C147.48 34.142 155.204 13.8917 147.364 5.34423L147.394 5.32758L161.442 20.9182L161.383 20.9624Z" fill="#FF90E8"/>
<path d="M147.37 5.33538C155.2 13.8658 147.486 34.1332 125.098 58.5718C94.2117 92.2883 46.9084 121.373 19.662 123.418C12.1511 123.986 6.94743 122.432 3.97613 119.194C-3.85386 110.664 3.86003 90.3966 26.248 65.9579C57.1347 32.2415 104.438 3.15718 131.684 1.11184C139.185 0.554874 144.399 2.09737 147.37 5.33538ZM108.713 51.5153C116.452 42.7719 124.332 27.8236 105.88 29.195C87.99 30.5325 64.8164 46.2996 47.809 64.8776C31.4373 82.7497 26.7942 96.4821 41.2761 95.4002C55.7581 94.3183 72.6041 79.6782 80.1963 72.2566L61.5822 92.578L73.3448 91.7032L102.876 59.4678L76.0665 61.4651L70.2858 67.7719L83.0545 66.8062C74.5722 74.6172 64.1048 82.5784 56.1557 83.173C47.3523 83.8299 50.365 74.7806 60.9227 63.2059C71.4804 51.6313 85.8772 41.7503 94.6635 41.1029C102.898 40.489 99.5617 47.5909 95.3518 52.4814L108.713 51.5153Z" fill="#FF90E8"/>
<path d="M105.88 29.1948C124.333 27.8234 116.453 42.7717 108.713 51.5151L95.3688 52.5111C99.5787 47.6205 102.903 40.4974 94.6806 41.1326C85.8772 41.7895 71.533 51.6746 60.9397 63.2355C50.3464 74.7965 47.3575 83.8382 56.1727 83.2026C64.1219 82.608 74.5797 74.6298 83.0716 66.8358L70.3029 67.8016L76.0836 61.4947L102.893 59.4974L73.3619 91.7329L61.5992 92.6076L80.2133 72.2863C72.6083 79.715 55.7709 94.3503 41.2932 95.4299C26.8155 96.5094 31.4544 82.7793 47.826 64.9072C64.8168 46.2995 87.9905 30.5323 105.88 29.1948Z" fill="black"/>
<path d="M160.777 20.3558C160.988 20.5451 161.191 20.7392 161.382 20.9404C169.439 29.3776 161.769 49.7436 139.247 74.3236C108.368 108.053 61.0645 137.137 33.8109 139.17C26.1364 139.745 20.862 138.125 17.9234 134.735L3.7334 118.91" stroke="black" stroke-width="2" stroke-miterlimit="10"/>
<path d="M131.685 1.11178C104.431 3.14433 57.1277 32.2287 26.2481 65.9579C3.86016 90.3965 -3.86323 110.647 3.97624 119.194C6.94755 122.432 12.164 123.979 19.6621 123.418C46.9156 121.385 94.2189 92.301 125.098 58.5717C147.486 34.1331 155.21 13.8828 147.37 5.33532C144.399 2.0973 139.185 0.554812 131.685 1.11178Z" stroke="black" stroke-width="2" stroke-miterlimit="10"/>
<path d="M147.12 5.00562L147.393 5.30579L161.441 20.8964" stroke="black" stroke-width="2" stroke-miterlimit="10"/>
</svg>
