<svg width="181" height="148" viewBox="0 0 181 148" fill="none" xmlns="http://www.w3.org/2000/svg">
<path d="M175.976 47.2859C185.406 66.3732 177.783 92.3178 153.542 114.175C119.785 144.61 66.3707 155.76 34.4743 139.046C26.4378 134.828 20.5252 129.236 16.6977 122.736L7.35547 104.143C11.1714 110.493 17.0162 115.964 24.908 120.102C56.8005 136.836 110.215 125.685 143.976 95.2315C167.907 73.655 175.661 48.1055 166.768 29.0803L175.976 47.2859Z" fill="#FF90E8"/>
<path d="M7.38984 104.118C-4.21215 84.8355 2.95184 57.4439 28.3425 34.5325C62.1058 4.09535 115.516 -7.0575 147.41 9.6615C155.936 14.1314 162.068 20.1502 165.839 27.1552L166.77 28.992L166.8 29.0587C175.676 48.0759 167.939 73.6335 144.008 95.2099C110.251 125.645 56.841 136.798 24.9403 120.081C17.0325 115.977 11.1977 110.484 7.38984 104.118ZM124.498 72.2193C132.937 64.1363 141.067 46.3856 119.475 35.0558C98.5508 24.0737 72.5027 31.9223 53.9039 48.6899C36.0114 64.8231 31.5897 83.0176 48.5286 91.9093C65.4676 100.801 84.1685 90.0927 92.537 83.9715L72.1848 102.32L85.9406 109.538L118.219 80.4343L86.8562 63.9774L80.5218 69.6608L95.4691 77.5051C86.0857 83.5936 74.3787 88.4568 65.0827 83.5805C54.7846 78.1827 57.6103 66.1498 69.1896 55.71C80.7689 45.2702 96.9064 40.2497 107.217 45.6535C116.847 50.7037 113.464 59.4411 108.913 64.0519L124.498 72.2193Z" fill="#FF90E8"/>
<path d="M166.755 29.022L165.824 27.1853C166.159 27.7865 166.468 28.3966 166.755 29.022Z" fill="#FF90E8"/>
<path d="M119.462 35.0708C141.054 46.4006 132.923 64.1513 124.485 72.2342L108.876 64.0401C113.45 59.435 116.831 50.7019 107.18 45.6417C96.882 40.2439 80.764 45.2892 69.1847 55.729C57.6054 66.1688 54.7817 78.1975 65.0778 83.5995C74.3738 88.4759 86.0809 83.6127 95.4643 77.5241L80.5169 69.6798L86.8513 63.9964L118.214 80.4533L85.9357 109.557L72.1799 102.339L92.5321 83.9904C84.1636 90.1117 65.4605 100.814 48.5238 91.9282C31.587 83.0428 36.0023 64.8401 53.8991 48.7089C72.4894 31.9373 98.5374 24.0887 119.462 35.0708Z" fill="black"/>
<path d="M16.7236 122.727C20.5341 129.219 26.4468 134.811 34.5002 139.037C66.3886 155.769 119.807 144.62 153.568 114.166C177.809 92.3089 185.432 66.3643 176.002 47.277" stroke="black" stroke-width="2" stroke-miterlimit="10"/>
<path d="M166.755 29.0217C166.466 28.4005 166.154 27.7841 165.824 27.185C162.049 20.1885 155.921 14.1611 147.396 9.69122" stroke="black" stroke-width="2" stroke-miterlimit="10"/>
<path d="M147.395 9.6911C115.506 -7.04067 62.0879 4.10815 28.3271 34.5621C2.9109 57.4614 -4.22756 84.8651 7.37442 104.147C11.1903 110.496 17.0352 115.968 24.9269 120.106C56.8195 136.84 110.234 125.689 143.995 95.2353C167.926 73.6588 175.68 48.1093 166.787 29.0841" stroke="black" stroke-width="2" stroke-miterlimit="10"/>
<path d="M165.771 27.0769L165.823 27.1852L166.754 29.022L166.785 29.0887L175.976 47.2864" stroke="black" stroke-width="2" stroke-miterlimit="10"/>
<path d="M4.92578 99.2528L16.7232 122.727" stroke="black" stroke-width="2" stroke-miterlimit="10"/>
</svg>
