<svg width="255" height="257" viewBox="0 0 255 257" fill="none" xmlns="http://www.w3.org/2000/svg">
<path d="M196.443 230.926L167.4 247.47C156.141 252.44 144.055 255.281 131.758 255.848C69.9773 258.926 11.926 207.633 2.34868 141.517C-3.94818 98.0149 12.2494 58.8237 41.6414 36.1763L41.6018 36.1104L75.4293 15.4272L75.4953 15.5393C40.9022 36.8487 21.0016 79.2168 27.8727 126.634C37.45 192.757 95.5013 244.043 157.282 240.965C170.888 240.341 184.218 236.924 196.443 230.926V230.926Z" fill="#FF90E8"/>
<path d="M251.953 115.475C258.686 161.956 239.696 203.586 206.364 225.278L196.463 230.92C184.239 236.918 170.908 240.335 157.302 240.958C95.5219 244.036 37.4706 192.75 27.8933 126.627C21.0222 79.2104 40.9227 36.8421 75.5159 15.5328C89.7231 6.82848 105.913 1.87278 122.564 1.13106C184.325 -1.94044 242.376 49.3522 251.953 115.475ZM210.984 173.583L201.829 110.36L141.059 113.386L142.854 125.757L171.81 124.314C170.781 139.592 165.249 155.095 147.23 155.991C127.283 156.986 111.726 139.072 108.439 116.398C105.152 93.7241 115.337 74.524 135.29 73.5551C153.949 72.6257 163.764 86.6715 165.797 96.2617L196.041 94.7523C192.912 77.6152 174.378 48.0801 132.544 50.163C92.0039 52.1799 75.0473 82.7828 80.3211 119.206C85.3968 154.251 108.789 181.466 141.6 179.845C174.411 178.223 178.714 149.617 178.563 135.09L184.338 174.947L210.984 173.583Z" fill="#FF90E8"/>
<path d="M201.829 110.36L210.984 173.583L184.324 174.901L178.549 135.044C178.714 149.545 174.423 178.164 141.586 179.799C108.748 181.433 85.3828 154.218 80.3071 119.16C75.0267 82.7366 91.9898 52.1337 132.53 50.1168C174.364 48.034 192.898 77.5626 196.027 94.7063L165.783 96.2157C163.75 86.6255 153.936 72.5796 135.276 73.509C115.323 74.5042 105.138 93.6978 108.425 116.352C111.712 139.006 127.269 156.94 147.216 155.945C165.235 155.049 170.767 139.546 171.796 124.268L142.84 125.711L141.045 113.34L201.829 110.36Z" fill="black"/>
<path d="M196.442 230.926L206.343 225.284C203.159 227.361 199.853 229.245 196.442 230.926Z" fill="#FF90E8"/>
<path d="M206.364 225.278C239.696 203.586 258.686 161.956 251.953 115.475C242.376 49.3523 184.325 -1.94038 122.544 1.13771" stroke="black" stroke-width="2" stroke-miterlimit="10"/>
<path d="M122.544 1.1376C105.892 1.87933 89.7026 6.83503 75.4954 15.5393C40.9022 36.8487 21.0017 79.2168 27.8728 126.634C37.4501 192.757 95.5014 244.043 157.282 240.965C170.888 240.341 184.219 236.924 196.443 230.926C199.853 229.245 203.159 227.361 206.343 225.284" stroke="black" stroke-width="2" stroke-miterlimit="10"/>
<path d="M41.2988 36.295L41.5958 36.1105L75.4233 15.4273L80.2483 12.4745" stroke="black" stroke-width="2" stroke-miterlimit="10"/>
<path d="M41.6414 36.1763C12.2494 58.8237 -3.94818 98.0479 2.34868 141.517C11.926 207.633 69.9773 258.926 131.758 255.848C144.055 255.281 156.141 252.44 167.4 247.47L196.443 230.926L206.343 225.284L207.003 224.902" stroke="black" stroke-width="2" stroke-miterlimit="10"/>
</svg>
