<svg width="1519" height="532" viewBox="0 0 1519 532" fill="none" xmlns="http://www.w3.org/2000/svg">
<path d="M0.00976562 59.1899H810.19C810.19 59.1899 841.38 80.8299 864.08 84.4699C886.78 88.1099 911.17 93.3299 924.08 101.28C936.99 109.23 962.3 121.19 974.38 123.4C986.46 125.61 1121.96 155 1153.11 154.4C1184.26 153.8 1198.11 152.28 1212.92 157.59C1227.73 162.9 1246.31 171.8 1260.09 177.44C1273.87 183.08 1316.41 186.78 1330.93 188.84C1345.45 190.9 1352.34 188.84 1369.56 200.6C1386.78 212.36 1406.17 221.29 1424.39 220.17C1442.61 219.05 1461.2 213.53 1479.66 214.97C1498.12 216.41 1518.03 219.5 1518.03 219.5V531.96H0.00976562V59.1899Z" fill="#23A094"/>
<path d="M1518 345.27H0V462.26H1518V345.27Z" fill="#FFC900"/>
<path d="M1 345L1517 345M1517 462H1" stroke="black" stroke-width="2" stroke-linecap="square" stroke-linejoin="round"/>
<path d="M810.189 59.1899L1518.01 59V219.49C1518.01 219.49 1510.26 219.26 1481.37 215.76C1458.26 212.96 1418.19 225.94 1394.66 215.76C1380.51 209.65 1364.32 195.7 1355.53 193.39C1331.32 187 1282.97 190.21 1263.81 181.39C1244.65 172.57 1234.27 160.76 1193.68 157.57C1153.09 154.38 1102.07 159.88 1061.89 151.86C1021.71 143.84 958.509 129.1 929.669 112.2C900.829 95.2999 918.009 93.2999 896.259 90.8799C845.649 85.2299 810.189 59.1899 810.189 59.1899Z" fill="#90A8ED"/>
<path d="M1517 59L810 59C810 59 845.419 85.1157 895.97 90.7822C917.695 93.2092 900.535 95.215 929.342 112.164C958.148 129.113 1021.27 143.896 1061.41 151.94C1101.54 159.983 1152.5 154.467 1193.05 157.666C1233.59 160.865 1243.96 172.71 1263.09 181.555C1282.23 190.401 1330.53 187.182 1354.71 193.59C1363.49 195.907 1379.66 209.898 1393.79 216.025C1417.3 226.235 1457.32 213.217 1480.4 216.025C1509.26 219.536 1517 219.766 1517 219.766" stroke="black" stroke-width="2" stroke-linecap="square" stroke-linejoin="round"/>
<path d="M1160.51 245.87L1369.34 243.87L1374.7 281.49L1404.7 284.7V295.57C1404.7 295.57 1163.26 304.57 1164.3 295.57C1165.34 286.57 1160.51 245.87 1160.51 245.87Z" fill="#98282A" stroke="black" stroke-width="2" stroke-linecap="round" stroke-linejoin="round"/>
<path d="M810 59H0" stroke="black" stroke-width="2" stroke-miterlimit="10"/>
<path d="M161.379 97.3C160.459 94.63 157.639 85.2 153.559 81.36C151.82 79.7481 149.732 78.5595 147.458 77.8865C145.184 77.2135 142.786 77.0744 140.449 77.48C136.369 78.05 129.659 79.21 124.749 81.66C122.275 82.8515 120.215 84.7577 118.835 87.1322C117.455 89.5066 116.82 92.2403 117.009 94.98C117.179 99.77 118.079 112.57 123.559 124.35C127.019 131.78 129.919 134.05 134.239 135C136.365 135.357 138.533 135.391 140.669 135.1H141.029C143.49 134.804 145.929 134.346 148.329 133.73C149.479 133.43 150.819 133.12 152.229 132.73C152.889 132.54 153.579 132.34 154.229 132.11C154.879 131.88 155.849 131.51 156.639 131.11L156.739 131.06C158.045 130.46 159.249 129.66 160.309 128.69C161.868 127.268 163.096 125.523 163.908 123.576C164.72 121.629 165.096 119.528 165.009 117.42C165.009 112.38 162.309 100.01 161.379 97.3Z" fill="#FF7051" stroke="black" stroke-width="2" stroke-linecap="round" stroke-linejoin="round"/>
<path d="M132.029 126.88C132.344 126.88 132.599 126.625 132.599 126.31C132.599 125.995 132.344 125.74 132.029 125.74C131.714 125.74 131.459 125.995 131.459 126.31C131.459 126.625 131.714 126.88 132.029 126.88Z" fill="#E2442F" stroke="black" stroke-width="2" stroke-linecap="round" stroke-linejoin="round"/>
<path d="M137.289 125.74C137.603 125.74 137.859 125.485 137.859 125.17C137.859 124.855 137.603 124.6 137.289 124.6C136.974 124.6 136.719 124.855 136.719 125.17C136.719 125.485 136.974 125.74 137.289 125.74Z" fill="#E2442F" stroke="black" stroke-width="2" stroke-linecap="round" stroke-linejoin="round"/>
<path d="M137.859 128.04C136.409 130.28 133.469 129.5 133.469 129.5" stroke="black" stroke-width="2" stroke-linecap="round" stroke-linejoin="round"/>
<path d="M156.619 143.1C156.619 143.1 157.719 146.01 159.179 149.9" stroke="#5000FF" stroke-width="2" stroke-linecap="round" stroke-linejoin="round"/>
<path d="M138.01 160.65C137.76 161.65 136.35 166.57 132.47 167.33C128.59 168.09 104.47 172.49 104.47 172.49H104.35L101.35 171.49L101.86 169.22L102.22 167.74L102.3 167.41L102.89 164.94L103.31 163.2L103.54 163L107.98 159.23L110.91 159.04L112.26 158.95H112.44L128.64 156.67C129.02 155.78 129.44 154.8 129.89 153.77L135.77 156.96C136.257 158.33 137.019 159.586 138.01 160.65V160.65Z" fill="#FF90E8" stroke="black" stroke-width="2" stroke-linecap="round" stroke-linejoin="round"/>
<path d="M136.38 151.3C135.57 153.4 135.19 155.38 135.72 156.91L129.84 153.72C130.75 151.64 131.77 149.35 132.84 147.14L137.3 149.26C136.94 149.93 136.64 150.61 136.38 151.3Z" fill="#F1F333" stroke="black" stroke-width="2" stroke-linecap="round" stroke-linejoin="round"/>
<path d="M203.879 284.17C203.879 284.17 198.319 288.96 192.739 293.64C188.249 297.41 183.809 298.85 181.859 298.72C179.909 298.59 176.949 296.54 178.149 293.16C179.349 289.78 185.679 283.4 186.819 282.1C187.959 280.8 188.549 279.89 187.819 278.69C187.089 277.49 183.989 272.99 183.989 272.99C183.989 272.99 182.709 271.05 180.839 268.19C181.874 267.889 182.974 267.889 184.009 268.19C184.092 268.225 184.17 268.272 184.239 268.33L185.109 269.33L191.749 265.7C191.819 265.88 191.889 266.02 191.929 266.13C192.489 267.3 203.879 284.17 203.879 284.17Z" fill="black" stroke="black" stroke-width="2" stroke-linecap="round" stroke-linejoin="round"/>
<path d="M192.598 264.63L185.288 268.63L184.338 267.53C184.262 267.462 184.174 267.408 184.078 267.37L191.788 262.71C192.128 263.5 192.408 264.16 192.598 264.63Z" fill="#FFC900" stroke="black" stroke-width="2" stroke-linecap="round" stroke-linejoin="round"/>
<path d="M173.629 160.01L164.429 163.8C164.209 163.2 163.969 162.56 163.709 161.91L160.879 154.39L170.009 150.3C171.209 153.49 172.519 157.04 173.629 160.01Z" fill="#F1F333" stroke="black" stroke-width="2" stroke-linecap="round" stroke-linejoin="round"/>
<path d="M177.009 173.96C176.779 175.31 175.009 183.41 175.009 183.41L171.389 200.51L170.819 200.27L163.819 197.35L161.439 196.35C161.439 196.35 162.539 193.86 163.809 190.35C164.199 189.29 164.609 188.11 164.999 186.89C166.029 183.81 166.828 180.658 167.389 177.46C167.951 174.611 167.601 171.658 166.389 169.02C166.109 168.33 165.389 166.37 164.389 163.82L173.589 160.03L175.589 165.5C177.329 170.15 177.219 172.6 177.009 173.96Z" fill="#FF90E8" stroke="black" stroke-width="2" stroke-linecap="round" stroke-linejoin="round"/>
<path d="M170.009 150.3L160.869 154.38L159.169 149.89L136.379 151.3C136.639 150.63 136.939 149.95 137.269 149.3L132.809 147.18C134.879 142.77 137.009 138.67 138.399 137.18C138.579 136.98 139.609 136.08 140.669 135.18H141.029L140.169 135.78C141.729 140.05 146.459 139.55 148.509 138.36C149.52 137.788 150.383 136.987 151.029 136.022C151.675 135.056 152.086 133.953 152.229 132.8C152.889 132.61 153.579 132.41 154.229 132.18C154.879 131.95 155.849 131.58 156.639 131.18C159.36 131.611 161.863 132.929 163.759 134.93C165.269 136.59 166.009 139.81 166.759 141.84C167.149 142.62 168.469 146.16 170.009 150.3Z" fill="#FF90E8" stroke="black" stroke-width="2" stroke-linecap="round" stroke-linejoin="round"/>
<path d="M139.62 145.02C138.8 146.36 137.97 147.8 137.27 149.24" stroke="black" stroke-width="2" stroke-linecap="round" stroke-linejoin="round"/>
<path d="M155.248 284.15L155.008 305.49C148.208 305.58 141.578 305.55 131.528 301.26C126.528 299.12 121.618 294.58 121.898 290.26C122.178 285.94 127.758 286.33 131.498 287.62C133.892 288.384 136.23 289.309 138.498 290.39C141.708 291.96 142.908 291.29 142.908 291.29L142.728 282.55C143.968 281.27 145.128 281.15 146.018 282.17C146.488 282.759 146.829 283.441 147.018 284.17L155.248 284.15Z" fill="black" stroke="black" stroke-width="2" stroke-linecap="round" stroke-linejoin="round"/>
<path d="M152.488 282.72V284.89H143.428C143.215 284.096 142.837 283.357 142.318 282.72H152.488Z" fill="#FFC900" stroke="black" stroke-width="2" stroke-linecap="round" stroke-linejoin="round"/>
<path d="M152.23 132.68C152.087 133.833 151.676 134.936 151.03 135.902C150.384 136.867 149.521 137.668 148.51 138.24C146.46 139.43 141.73 139.93 140.17 135.66L141.03 135.06C143.491 134.763 145.929 134.306 148.33 133.69C149.48 133.39 150.82 133.08 152.23 132.68Z" fill="#E2442F" stroke="black" stroke-width="2" stroke-linecap="round" stroke-linejoin="round"/>
<path d="M149.499 182.01V199.82L144.969 198.24L145.329 191.41L145.959 179.36L149.499 182.01Z" fill="#F1F333" stroke="black" stroke-width="2" stroke-linecap="round" stroke-linejoin="round"/>
<path d="M141.009 180.78L135.759 182.28C134.999 182.489 134.325 182.932 133.831 183.546C133.338 184.16 133.05 184.913 133.009 185.7L132.629 193.37L135.059 193L140.679 192.13L145.319 191.42L145.949 179.36L141.009 180.78ZM138.839 190.78C138.742 190.782 138.646 190.755 138.564 190.702C138.482 190.65 138.418 190.574 138.379 190.485C138.341 190.395 138.329 190.296 138.347 190.201C138.365 190.105 138.411 190.017 138.479 189.947C138.547 189.878 138.634 189.83 138.73 189.81C138.825 189.791 138.924 189.8 139.014 189.836C139.104 189.873 139.181 189.936 139.236 190.017C139.29 190.098 139.319 190.193 139.319 190.29C139.326 190.358 139.319 190.427 139.297 190.491C139.276 190.556 139.24 190.616 139.194 190.666C139.148 190.716 139.091 190.756 139.028 190.782C138.965 190.809 138.897 190.822 138.829 190.82L138.839 190.78Z" fill="#F1F333" stroke="black" stroke-width="2" stroke-linecap="round" stroke-linejoin="round"/>
<path d="M139.31 190.3C139.31 190.395 139.281 190.488 139.229 190.567C139.176 190.646 139.101 190.707 139.013 190.743C138.926 190.78 138.829 190.789 138.736 190.771C138.643 190.752 138.557 190.706 138.49 190.639C138.423 190.572 138.377 190.487 138.359 190.394C138.34 190.3 138.35 190.204 138.386 190.116C138.422 190.029 138.484 189.954 138.563 189.901C138.642 189.848 138.735 189.82 138.83 189.82C138.957 189.82 139.079 189.871 139.169 189.961C139.259 190.051 139.31 190.173 139.31 190.3Z" stroke="#5000FF" stroke-width="2" stroke-linecap="round" stroke-linejoin="round"/>
<path d="M139.31 190.3C139.31 190.395 139.281 190.488 139.229 190.567C139.176 190.646 139.101 190.707 139.013 190.743C138.926 190.78 138.829 190.789 138.736 190.771C138.643 190.752 138.557 190.706 138.49 190.639C138.423 190.572 138.377 190.487 138.359 190.394C138.34 190.3 138.35 190.204 138.386 190.116C138.422 190.029 138.484 189.954 138.563 189.901C138.642 189.848 138.735 189.82 138.83 189.82C138.957 189.82 139.079 189.871 139.169 189.961C139.259 190.051 139.31 190.173 139.31 190.3Z" fill="black" stroke="black" stroke-width="2" stroke-linecap="round" stroke-linejoin="round"/>
<path d="M96.8086 143.39H109.859L113.549 167.83H104.609L98.8386 158.21L96.8086 143.39Z" fill="black" stroke="black" stroke-width="2" stroke-linecap="round" stroke-linejoin="round"/>
<path d="M108.398 143.39L112.248 167.83" stroke="white" stroke-width="2" stroke-miterlimit="10"/>
<path d="M113.549 143.67L118.519 138.46" stroke="black" stroke-width="2" stroke-linecap="round" stroke-linejoin="round"/>
<path d="M110.068 139.45L113.548 132.5" stroke="black" stroke-width="2" stroke-linecap="round" stroke-linejoin="round"/>
<path d="M105.488 138.46L105.908 131.71" stroke="black" stroke-width="2" stroke-linecap="round" stroke-linejoin="round"/>
<path d="M99.5183 139.11L97.7383 132.21" stroke="black" stroke-width="2" stroke-linecap="round" stroke-linejoin="round"/>
<path d="M94.1395 140.86L89.3496 135.42" stroke="black" stroke-width="2" stroke-linecap="round" stroke-linejoin="round"/>
<path d="M155.76 188.04L155.62 191.36L149.5 192.09V188.84L155.76 188.04Z" fill="#FFC900" stroke="black" stroke-width="2" stroke-linecap="round" stroke-linejoin="round"/>
<path d="M149.5 190.39L152.2 190.08" stroke="black" stroke-width="2" stroke-linecap="round" stroke-linejoin="round"/>
<path d="M160.349 189.04C160.349 189.083 160.341 189.125 160.324 189.165C160.307 189.204 160.283 189.24 160.252 189.27C160.221 189.3 160.185 189.323 160.145 189.339C160.105 189.354 160.062 189.361 160.019 189.36C159.954 189.36 159.889 189.34 159.835 189.304C159.781 189.267 159.738 189.215 159.714 189.154C159.689 189.093 159.683 189.026 159.697 188.962C159.71 188.898 159.743 188.839 159.79 188.793C159.837 188.747 159.897 188.717 159.961 188.705C160.026 188.694 160.093 188.702 160.153 188.728C160.213 188.755 160.264 188.798 160.299 188.854C160.334 188.91 160.351 188.974 160.349 189.04Z" stroke="#5000FF" stroke-width="2" stroke-miterlimit="10" stroke-linecap="round"/>
<path d="M162.708 188.83C162.708 188.915 162.675 188.996 162.615 189.056C162.555 189.116 162.473 189.15 162.388 189.15C162.303 189.15 162.222 189.116 162.162 189.056C162.102 188.996 162.068 188.915 162.068 188.83C162.068 188.745 162.102 188.664 162.162 188.604C162.222 188.544 162.303 188.51 162.388 188.51C162.473 188.51 162.555 188.544 162.615 188.604C162.675 188.664 162.708 188.745 162.708 188.83V188.83Z" stroke="#5000FF" stroke-width="2" stroke-miterlimit="10" stroke-linecap="round"/>
<path d="M170.839 200.3L168.199 205.03C165.687 203.799 163.385 202.179 161.379 200.23L163.829 197.38L170.839 200.3Z" fill="#98282A" stroke="black" stroke-width="2" stroke-linecap="round" stroke-linejoin="round"/>
<path d="M759.058 91.87C755.898 94.65 750.138 96.37 750.908 97.66C754.223 102.279 756.035 107.806 756.098 113.49C756.073 118.404 754.876 123.241 752.608 127.6C749.418 133.27 742.668 138.79 734.188 141.6C731.119 142.608 727.898 143.075 724.668 142.98H723.668C720.098 142.683 716.573 141.985 713.158 140.9C711.902 140.508 710.667 140.051 709.458 139.53L709.138 139.4C708.318 139.04 707.528 138.66 706.758 138.26C692.988 131.03 686.988 116.69 690.008 103.83C693.468 89.11 704.728 86.55 705.958 84.07C706.598 82.3 700.348 77.31 700.958 66.67C702.108 47.58 718.498 37.79 734.958 39C757.878 40.68 766.758 58.56 768.028 66.59C770.078 79.3 762.208 89.09 759.058 91.87Z" fill="#FF90E8" stroke="black" stroke-width="2" stroke-linecap="round" stroke-linejoin="round"/>
<path d="M732.93 126.95C735.93 129.72 740.82 129.08 740.82 129.08" stroke="black" stroke-width="2" stroke-linecap="round" stroke-linejoin="round"/>
<path d="M740.809 120.91C741.24 120.91 741.589 120.561 741.589 120.13C741.589 119.699 741.24 119.35 740.809 119.35C740.379 119.35 740.029 119.699 740.029 120.13C740.029 120.561 740.379 120.91 740.809 120.91Z" fill="black" stroke="black" stroke-width="2" stroke-linecap="round" stroke-linejoin="round"/>
<path d="M796.179 116.14V122.88L785.579 143.89L781.159 146.56L762.089 146.72L760.799 143.2L773.679 116.14H796.179Z" fill="black" stroke="black" stroke-width="2" stroke-linecap="round" stroke-linejoin="round"/>
<path d="M762.789 145.19L779.499 144.79" stroke="white" stroke-width="2" stroke-linecap="round" stroke-linejoin="round"/>
<path d="M775.179 120.91L766.789 138.27L781.009 138.43L788.919 120.91H775.179Z" fill="white" stroke="white" stroke-width="2" stroke-miterlimit="10"/>
<path d="M795.119 120.33L788.279 135.1" stroke="white" stroke-width="2" stroke-linecap="round" stroke-linejoin="round"/>
<path d="M788.55 138.02C788.292 140.651 787.596 143.219 786.49 145.62C784.14 151.38 782.13 153.86 781.76 157.33C781.35 161.19 781.12 174.69 780.2 184.04C779.54 180.36 769.67 174.53 762.34 171.86L768.34 158.74C768.34 158.74 764.99 151.96 769 147.67C771.381 147.788 773.762 147.424 776 146.6C777.234 146.179 778.394 145.569 779.44 144.79C780.251 144.26 780.907 143.524 781.343 142.659C781.778 141.793 781.977 140.827 781.92 139.86C781.858 139.069 781.662 138.295 781.34 137.57C780.5 135.46 779.12 133.04 779.82 130.57C780.82 128.51 783.03 128.68 784.82 129.89C785.621 130.44 786.302 131.148 786.82 131.97C788.041 133.744 788.649 135.869 788.55 138.02V138.02Z" fill="#FF90E8" stroke="black" stroke-width="2" stroke-linecap="round" stroke-linejoin="round"/>
<path d="M780.2 184.04C780.009 186.593 779.601 189.126 778.98 191.61C776.98 198.2 773.25 207.11 766.11 206.61C758.97 206.11 746.22 194.61 737.85 186.35C734.04 182.61 731.17 179.54 730.21 178.51C727.15 175.22 717.41 165.22 717.35 160.51C717.29 155.8 718.5 147.28 722.87 144.35C723.247 144.171 723.673 144.126 724.08 144.22C726.15 144.51 729.75 146.74 732.63 150.12C736.22 154.31 759.13 178.81 759.13 178.81L762.34 171.81C769.67 174.53 779.54 180.36 780.2 184.04Z" fill="#23A094" stroke="black" stroke-width="2" stroke-linecap="round" stroke-linejoin="round"/>
<path d="M737.849 186.3L736.749 244C723.189 241.64 712.429 245.84 706.039 245.22C700.039 244.65 695.169 241.71 688.919 242.33C688.489 242.33 688.049 242.43 687.609 242.51C683.009 243.33 678.609 245.23 674.459 243.76C674.909 241.49 684.559 195.44 686.699 186.53C687.409 183.53 688.279 180.46 689.279 177.3C693.479 163.94 700.029 149.71 707.429 141.45C709.689 146.38 716.859 146.88 723.799 143.38L724.079 144.22C723.673 144.126 723.246 144.171 722.869 144.35C718.499 147.28 717.289 155.85 717.349 160.51C717.409 165.17 727.149 175.17 730.209 178.51C731.169 179.51 734.009 182.58 737.849 186.3Z" fill="white" stroke="black" stroke-width="2" stroke-linecap="round" stroke-linejoin="round"/>
<path d="M709.419 139.44C708.759 140.07 708.099 140.75 707.419 141.44C700.019 149.7 693.469 163.93 689.269 177.29C677.409 188.38 668.879 203.29 663.689 214.69C662.169 213.07 656.099 208.55 649.959 208.69C649.959 208.61 650.029 208.53 650.069 208.44C664.349 176.04 679.909 160.44 692.279 150.25C696.801 146.392 701.742 143.055 707.009 140.3C707.809 139.88 708.509 139.57 709.089 139.3L709.419 139.44Z" fill="#23A094" stroke="black" stroke-width="2" stroke-linecap="round" stroke-linejoin="round"/>
<path d="M663.699 214.72C661.699 219.01 660.249 222.78 659.239 225.64C658.739 227.05 658.239 228.64 657.779 230.33C656.639 229.872 655.474 229.482 654.289 229.16C653.009 228.8 651.639 228.46 650.289 228.16C648.939 227.86 647.569 227.64 646.349 227.47C645.309 227.318 644.26 227.234 643.209 227.22L643.679 225.53C645.463 219.845 647.552 214.26 649.939 208.8V208.73C656.109 208.58 662.179 213.1 663.699 214.72Z" fill="#FF90E8" stroke="black" stroke-width="2" stroke-linecap="round" stroke-linejoin="round"/>
<path d="M660.39 247.78C660.39 251.4 653.29 245.45 653.29 245.45C653.545 247.211 654.005 248.936 654.66 250.59C655.71 253.27 652.78 252.52 650.15 248.59C650.15 249.15 650.15 249.74 650.06 250.35C649.76 254.5 645.8 253.43 647.13 241.62C647.13 241.62 645.59 252.4 643.6 251.86C641.61 251.32 642.95 243.86 643.26 242.41C642.75 244.25 639.59 255.48 639.43 249.6C639.424 244.204 640.096 238.829 641.43 233.6V233.6L641.86 232.04C643.086 231.907 644.323 231.907 645.55 232.04C646.815 232.137 648.074 232.307 649.32 232.55C650.67 232.814 652.005 233.147 653.32 233.55C654.446 233.876 655.551 234.27 656.63 234.73C655.63 238.73 654.93 242.12 654.93 242.12C654.93 242.12 660.39 245.04 660.39 247.78Z" fill="#FF90E8" stroke="black" stroke-width="2" stroke-linecap="round" stroke-linejoin="round"/>
<path d="M649.949 242.24C650.164 244.353 650.231 246.478 650.149 248.6" stroke="black" stroke-width="2" stroke-linecap="round" stroke-linejoin="round"/>
<path d="M645.129 241.58C648.129 241.11 652.229 243.14 652.229 243.14" stroke="black" stroke-width="2" stroke-linecap="round" stroke-linejoin="round"/>
<path d="M649.008 236.52C648.967 237.251 648.765 237.965 648.418 238.61" stroke="black" stroke-width="2" stroke-linecap="round" stroke-linejoin="round"/>
<path d="M643.209 227.3H643.059" stroke="#5000FF" stroke-width="2" stroke-linecap="round" stroke-linejoin="round"/>
<path d="M646.349 227.5L645.569 232.04C644.342 231.907 643.105 231.907 641.879 232.04L643.209 227.3C644.259 227.298 645.308 227.365 646.349 227.5V227.5Z" fill="#FF90E8" stroke="black" stroke-width="2" stroke-linecap="round" stroke-linejoin="round"/>
<path d="M650.288 228.19L649.338 232.55C648.093 232.308 646.834 232.137 645.568 232.04L646.348 227.5C647.568 227.67 648.918 227.9 650.288 228.19Z" fill="#FF90E8" stroke="black" stroke-width="2" stroke-linecap="round" stroke-linejoin="round"/>
<path d="M657.779 230.3C657.359 231.76 656.969 233.25 656.619 234.66C655.54 234.2 654.435 233.806 653.309 233.48L654.309 229.13C655.487 229.452 656.646 229.843 657.779 230.3V230.3Z" fill="#FF90E8" stroke="black" stroke-width="2" stroke-linecap="round" stroke-linejoin="round"/>
<path d="M654.289 229.16L653.289 233.51C651.974 233.107 650.639 232.774 649.289 232.51L650.239 228.15C651.639 228.46 653.009 228.8 654.289 229.16Z" fill="#FF90E8" stroke="black" stroke-width="2" stroke-linecap="round" stroke-linejoin="round"/>
<path d="M776.41 99.75V107.93" stroke="black" stroke-width="2" stroke-linecap="round" stroke-linejoin="round"/>
<path d="M787.659 99.75L786.699 108.8" stroke="black" stroke-width="2" stroke-linecap="round" stroke-linejoin="round"/>
<path d="M800.149 101.28L795.289 109.58" stroke="black" stroke-width="2" stroke-linecap="round" stroke-linejoin="round"/>
<path d="M803.59 112.58L812.74 107.46" stroke="black" stroke-width="2" stroke-linecap="round" stroke-linejoin="round"/>
<path d="M805.699 120.33L817.259 116.95" stroke="black" stroke-width="2" stroke-linecap="round" stroke-linejoin="round"/>
<path d="M1173.92 295.05L1175.97 323.56H1165.63L1158.93 245.87H1170.38L1173.26 285.91H1211.55L1212.9 295.05H1173.92Z" fill="#98282A" stroke="black" stroke-width="2" stroke-miterlimit="10" stroke-linecap="round"/>
<path d="M1406.8 285.91V295.05H1212.9L1211.55 285.91H1406.8Z" fill="#98282A" stroke="black" stroke-width="2" stroke-miterlimit="10" stroke-linecap="round"/>
<path d="M1377.3 323.56H1366.95L1363.42 295.05H1374.17L1377.3 323.56Z" fill="#98282A" stroke="black" stroke-width="2" stroke-miterlimit="10" stroke-linecap="round"/>
<path d="M1362.28 285.91H1173.26L1170.38 245.87H1357.32L1362.28 285.91Z" fill="#98282A" stroke="black" stroke-width="2" stroke-miterlimit="10" stroke-linecap="round"/>
<path d="M1250.47 233.5C1249.5 235.004 1248.25 236.301 1246.78 237.314C1245.31 238.327 1243.65 239.036 1241.9 239.4C1241.6 239.47 1241.28 239.54 1240.96 239.59C1240.64 239.64 1240.12 239.72 1239.67 239.77C1237.57 239.966 1235.46 239.966 1233.37 239.77C1232.01 240.673 1230.4 241.137 1228.77 241.1C1228.04 241.067 1227.32 240.911 1226.65 240.64C1225.44 240.103 1224.38 239.279 1223.56 238.24C1223.2 238.24 1222.84 238.24 1222.5 238.24C1212.16 237.64 1209.21 227.63 1213.2 220.88C1209.03 215.44 1210.3 210.05 1216.76 206.37C1215.76 198.62 1222.03 194.32 1227.29 194.03C1232.23 193.77 1233.81 196.03 1235.66 196.03C1236.35 196.03 1238 194.3 1240.78 195.1C1243.56 195.9 1244.01 196.81 1244.7 199.02C1245.14 200.42 1247.78 199.61 1250.14 204.76C1252.5 209.91 1249.32 215.46 1249.42 215.53C1251.04 217.391 1252.23 219.581 1252.92 221.95C1253.37 223.938 1253.39 226 1252.96 227.994C1252.54 229.988 1251.69 231.867 1250.47 233.5V233.5Z" fill="#F1F333" stroke="black" stroke-width="2" stroke-linecap="round" stroke-linejoin="round"/>
<path d="M1231.82 230.97C1236.17 234.97 1240.53 231.09 1240.53 231.09" stroke="black" stroke-width="2" stroke-linecap="round" stroke-linejoin="round"/>
<path d="M1231.81 227.13C1232.14 227.13 1232.41 226.861 1232.41 226.53C1232.41 226.199 1232.14 225.93 1231.81 225.93C1231.48 225.93 1231.21 226.199 1231.21 226.53C1231.21 226.861 1231.48 227.13 1231.81 227.13Z" fill="black" stroke="black" stroke-width="2" stroke-linecap="round" stroke-linejoin="round"/>
<path d="M1240.41 226.98C1240.74 226.98 1241.01 226.711 1241.01 226.38C1241.01 226.049 1240.74 225.78 1240.41 225.78C1240.08 225.78 1239.81 226.049 1239.81 226.38C1239.81 226.711 1240.08 226.98 1240.41 226.98Z" fill="black" stroke="black" stroke-width="2" stroke-linecap="round" stroke-linejoin="round"/>
<path d="M723.8 143.4C716.86 146.9 709.69 146.4 707.43 141.47C708.07 140.75 708.73 140.07 709.43 139.47C710.638 139.991 711.873 140.448 713.13 140.84C716.544 141.925 720.069 142.623 723.64 142.92L723.8 143.4Z" fill="#FF90E8" stroke="black" stroke-width="2" stroke-linecap="round" stroke-linejoin="round"/>
<path d="M703.01 392.37H689.16C689.372 389.287 690.046 386.253 691.16 383.37C700.6 384.37 702.55 389.58 703.01 392.37Z" fill="#E2442F" stroke="black" stroke-width="2" stroke-linecap="round" stroke-linejoin="round"/>
<path d="M711.509 385.56C710.849 386.35 709.599 386.56 707.739 387.14C705.299 387.91 706.009 390.01 706.089 392.37H703.009C702.519 389.58 700.569 384.37 691.109 383.37C691.426 382.588 691.839 381.849 692.339 381.17H711.899C711.899 381.38 711.949 381.57 711.979 381.76C712.239 383.82 712.089 384.9 711.509 385.56Z" fill="#E2442F" stroke="black" stroke-width="2" stroke-linecap="round" stroke-linejoin="round"/>
<path d="M726.599 392.37H706.089C706.009 390.01 705.298 387.91 707.738 387.14C709.598 386.56 710.848 386.35 711.508 385.56C715.049 387.297 718.887 388.349 722.818 388.66C724.238 388.71 725.269 388.74 726.029 388.75L726.599 392.37Z" fill="#E2442F" stroke="black" stroke-width="2" stroke-linecap="round" stroke-linejoin="round"/>
<path d="M726.008 388.75C725.248 388.75 724.218 388.75 722.798 388.66C718.867 388.349 715.029 387.297 711.488 385.56C712.068 384.9 712.218 383.82 711.988 381.76C716.258 384.76 725.348 384.55 725.348 384.55L726.008 388.75Z" fill="#E2442F" stroke="black" stroke-width="2" stroke-linecap="round" stroke-linejoin="round"/>
<path d="M727.52 398.3H688.94C688.906 396.334 688.979 394.368 689.16 392.41H726.6L727.52 398.3Z" fill="white" stroke="black" stroke-width="2" stroke-linecap="round" stroke-linejoin="round"/>
<path d="M654.729 395.31L664.569 408.38H842.339L849.999 395.31H654.729Z" fill="black" stroke="black" stroke-width="2" stroke-linecap="round" stroke-linejoin="round"/>
<path d="M756.429 359.77C748.476 359.77 740.702 362.128 734.089 366.547C727.477 370.965 722.323 377.245 719.28 384.592C716.236 391.94 715.44 400.024 716.991 407.824C718.543 415.624 722.373 422.789 727.996 428.413C733.619 434.036 740.784 437.866 748.584 439.417C756.384 440.969 764.469 440.172 771.816 437.129C779.164 434.086 785.444 428.932 789.862 422.319C794.281 415.707 796.639 407.933 796.639 399.98C796.639 389.316 792.402 379.088 784.862 371.547C777.321 364.006 767.093 359.77 756.429 359.77V359.77ZM758.509 420.57C754.434 420.57 750.451 419.361 747.063 417.097C743.675 414.833 741.035 411.616 739.476 407.851C737.917 404.086 737.51 399.944 738.305 395.947C739.101 391.951 741.064 388.281 743.946 385.4C746.828 382.519 750.499 380.558 754.496 379.764C758.493 378.971 762.635 379.38 766.399 380.941C770.163 382.502 773.38 385.143 775.642 388.532C777.904 391.921 779.111 395.905 779.109 399.98C779.106 405.442 776.935 410.679 773.072 414.54C769.209 418.401 763.971 420.57 758.509 420.57V420.57Z" fill="black" stroke="black" stroke-width="2" stroke-linecap="round" stroke-linejoin="round"/>
<path d="M806.01 378.95H777.36L775.5 305.3L717.2 266.35H714.78V381.17H688.01L688.95 242.35C695.2 241.73 700.1 244.67 706.07 245.24C712.46 245.86 723.22 241.66 736.78 244.02V248.73C736.78 248.73 785.27 282.2 793.38 288.85C801.01 295.11 802.01 300.68 802.46 305.25C802.91 309.82 806.01 378.95 806.01 378.95Z" fill="black" stroke="black" stroke-width="2" stroke-linecap="round" stroke-linejoin="round"/>
<path d="M98.3598 155.58C98.4826 155.452 98.5628 155.29 98.5897 155.115C98.6166 154.939 98.5887 154.76 98.5099 154.602C98.4311 154.443 98.3053 154.312 98.1495 154.228C97.9938 154.144 97.8158 154.109 97.6398 154.13C95.6398 154.4 93.8998 155.93 91.6398 158.67C88.8698 162.08 88.7298 163.67 88.9798 166.09C89.1346 167.869 89.8503 169.553 91.0239 170.899C92.1975 172.245 93.7683 173.184 95.5098 173.58C100.99 174.94 102.9 173.79 105.81 171.17C107.34 169.933 108.554 168.35 109.35 166.55C110.02 164.7 106.27 165.12 99.8998 168.94C102.34 167.12 108.15 163.88 108.26 161.77C108.37 159.66 104.4 162.33 102.11 163.77C99.8198 165.21 97.8498 166.25 97.6898 165.88C97.5298 165.51 105.39 161.27 105.51 158.57C105.58 156.87 97.1198 162.95 96.7398 162.47C96.4798 162.14 105.51 156.99 104.26 154.36C103.44 152.64 94.5798 160.36 93.8198 159.68C93.2798 159.17 96.7198 157.22 98.3598 155.58Z" fill="#FF7051" stroke="black" stroke-width="2" stroke-linecap="round" stroke-linejoin="round"/>
<path d="M145.328 191.41L144.968 198.24L140.548 199.07L135.068 200.09V192.99L140.688 192.13L145.328 191.41Z" fill="#F1F333" stroke="black" stroke-width="2" stroke-linecap="round" stroke-linejoin="round"/>
<path d="M135.969 200.62L136.079 200.65L140.189 200.37" stroke="#5000FF" stroke-width="2" stroke-linecap="round" stroke-linejoin="round"/>
<path d="M158.01 187.77L157.92 191.1L163.87 190.33L165.06 186.87L158.01 187.77ZM160.07 189.36C160.004 189.36 159.94 189.34 159.886 189.304C159.831 189.267 159.789 189.215 159.764 189.154C159.74 189.093 159.734 189.026 159.747 188.962C159.761 188.898 159.793 188.839 159.84 188.793C159.888 188.747 159.947 188.717 160.012 188.705C160.077 188.694 160.143 188.702 160.203 188.728C160.263 188.755 160.314 188.798 160.349 188.854C160.384 188.91 160.402 188.974 160.4 189.04C160.401 189.089 160.391 189.137 160.371 189.181C160.351 189.225 160.321 189.264 160.283 189.295C160.245 189.326 160.201 189.348 160.154 189.359C160.107 189.37 160.057 189.371 160.01 189.36H160.07ZM162.44 189.15C162.355 189.15 162.274 189.116 162.214 189.056C162.154 188.996 162.12 188.915 162.12 188.83C162.12 188.745 162.154 188.664 162.214 188.604C162.274 188.544 162.355 188.51 162.44 188.51C162.525 188.51 162.606 188.544 162.666 188.604C162.726 188.664 162.76 188.745 162.76 188.83C162.76 188.915 162.726 188.996 162.666 189.056C162.606 189.116 162.525 189.15 162.44 189.15V189.15Z" fill="#FFC900" stroke="black" stroke-width="2" stroke-linecap="round" stroke-linejoin="round"/>
<path d="M167.4 177.44C166.838 180.638 166.039 183.79 165.01 186.87L157.96 187.77L155.77 188.05L149.51 188.85V182.02L146.01 179.36L141.01 180.78C141.012 180.757 141.012 180.733 141.01 180.71C141.83 176.04 142.26 170.21 141.01 165.27L163.71 161.91C163.97 162.56 164.21 163.2 164.43 163.8C165.43 166.35 166.15 168.31 166.43 169C167.631 171.642 167.971 174.595 167.4 177.44V177.44Z" fill="#FF90E8" stroke="black" stroke-width="2" stroke-linecap="round" stroke-linejoin="round"/>
<path d="M149.498 199.82L140.528 200.35L140.188 200.37L135.968 200.62L135.068 200.67V200.09L140.548 199.07L144.968 198.24L149.498 199.82Z" fill="black" stroke="black" stroke-width="2" stroke-linecap="round" stroke-linejoin="round"/>
<path d="M163.708 161.91L141.008 165.3C140.488 163.3 139.238 162.06 138.008 160.68C136.984 159.602 136.197 158.321 135.698 156.92C135.168 155.39 135.548 153.41 136.358 151.31L159.158 149.93L160.858 154.42L163.708 161.91Z" fill="#F1F333" stroke="black" stroke-width="2" stroke-linecap="round" stroke-linejoin="round"/>
<path d="M643.68 225.56L643.2 227.25L641.88 232.08L641.45 233.64V233.65L638.68 233.14L640.24 224.76L643.68 225.56Z" fill="black" stroke="black" stroke-width="2" stroke-linecap="round" stroke-linejoin="round"/>
<path d="M788.809 392.94H773.389C773.741 390.336 774.486 387.801 775.599 385.42V385.42C781.469 384.88 789.369 386.59 788.809 392.94Z" fill="#E2442F" stroke="black" stroke-width="2" stroke-linecap="round" stroke-linejoin="round"/>
<path d="M814.369 387.49C813.72 389.254 813.255 391.081 812.979 392.94H792.389C792.496 391.646 792.952 390.405 793.707 389.349C794.462 388.293 795.489 387.46 796.679 386.94C797.758 386.549 798.721 385.892 799.479 385.03C801.589 385.64 808.789 387.62 814.369 387.49Z" fill="#E2442F" stroke="black" stroke-width="2" stroke-linecap="round" stroke-linejoin="round"/>
<path d="M815.829 384.05C815.223 385.146 814.708 386.29 814.289 387.47C808.709 387.6 801.509 385.62 799.399 385C800.219 383.86 800.119 382.24 798.699 379.36C798.793 379.224 798.873 379.081 798.939 378.93H799.069C800.929 382.65 809.479 382.67 815.829 384.05Z" fill="#E2442F" stroke="black" stroke-width="2" stroke-linecap="round" stroke-linejoin="round"/>
<path d="M823.09 392.94H813.01C813.286 391.081 813.751 389.254 814.4 387.49C814.819 386.31 815.334 385.166 815.94 384.07C819.41 384.82 822.23 385.99 822.94 388.39C823.395 389.866 823.447 391.437 823.09 392.94V392.94Z" fill="#E2442F" stroke="black" stroke-width="2" stroke-linecap="round" stroke-linejoin="round"/>
<path d="M799.009 378.95C798.943 379.101 798.863 379.244 798.769 379.38C798.689 379.525 798.595 379.662 798.489 379.79C798.448 379.857 798.402 379.921 798.349 379.98C798.271 380.084 798.184 380.181 798.089 380.27C798.05 380.33 797.999 380.381 797.939 380.42C797.839 380.53 797.729 380.631 797.609 380.72C797.563 380.772 797.509 380.815 797.449 380.85L797.049 381.13C796.919 381.223 796.782 381.306 796.639 381.38C796.486 381.472 796.325 381.552 796.159 381.62C796.023 381.698 795.879 381.761 795.729 381.81C795.55 381.89 795.366 381.96 795.179 382.02C794.979 382.09 794.779 382.16 794.579 382.21L794.369 382.27L793.829 382.4C793.599 382.46 793.369 382.5 793.139 382.54C792.909 382.58 792.669 382.62 792.429 382.65C792.189 382.68 791.959 382.72 791.719 382.74C789.66 382.918 787.589 382.918 785.529 382.74C782.842 382.569 780.169 382.215 777.529 381.68C778.018 380.851 778.321 379.927 778.419 378.97L799.009 378.95Z" fill="white" stroke="black" stroke-width="2" stroke-linecap="round" stroke-linejoin="round"/>
<path d="M823.089 392.94C822.711 394.509 821.834 395.913 820.589 396.94H773.059C773.089 395.601 773.199 394.265 773.389 392.94H823.089Z" fill="white" stroke="black" stroke-width="2" stroke-linecap="round" stroke-linejoin="round"/>
<path d="M799.479 385.02C798.722 385.882 797.759 386.539 796.679 386.93C795.49 387.45 794.463 388.283 793.708 389.339C792.953 390.395 792.497 391.636 792.389 392.93H788.809C789.369 386.58 781.469 384.87 775.609 385.41C776.329 383.9 777.049 382.7 777.609 381.65C780.249 382.185 782.922 382.539 785.609 382.71C787.669 382.888 789.74 382.888 791.799 382.71C792.039 382.71 792.269 382.66 792.509 382.62C792.749 382.58 792.979 382.56 793.219 382.51C793.459 382.46 793.679 382.43 793.909 382.37L794.449 382.24L794.659 382.18C794.859 382.13 795.059 382.06 795.259 381.99C795.447 381.93 795.63 381.86 795.809 381.78C795.959 381.731 796.103 381.668 796.239 381.59C796.405 381.522 796.566 381.442 796.719 381.35C796.862 381.276 796.999 381.193 797.129 381.1C797.271 381.019 797.405 380.926 797.529 380.82C797.589 380.785 797.643 380.742 797.689 380.69C797.811 380.603 797.922 380.503 798.019 380.39C798.079 380.351 798.13 380.3 798.169 380.24C798.264 380.151 798.351 380.054 798.429 379.95C798.482 379.891 798.528 379.827 798.569 379.76C798.682 379.637 798.776 379.499 798.849 379.35C800.199 382.3 800.299 383.88 799.479 385.02Z" fill="#E2442F" stroke="black" stroke-width="2" stroke-linecap="round" stroke-linejoin="round"/>
<path d="M1232.47 244.51C1231.05 245.715 1229.84 247.144 1228.89 248.74C1227.56 247.5 1226.09 242.68 1226.65 240.65C1227.33 240.921 1228.04 241.077 1228.77 241.11C1229.06 242.3 1230.68 242.77 1232.47 244.51Z" fill="#E2442F" stroke="black" stroke-width="2" stroke-linecap="round" stroke-linejoin="round"/>
<path d="M1239.68 239.79C1239.55 240.93 1238.11 241.79 1236.75 243.79C1235.9 245.075 1235.29 246.5 1234.94 248C1234.32 246.717 1233.48 245.547 1232.47 244.54C1230.68 242.8 1229.07 242.3 1228.78 241.13C1230.41 241.173 1232.02 240.715 1233.38 239.82C1235.48 240.005 1237.58 239.995 1239.68 239.79V239.79Z" fill="#F1F333" stroke="black" stroke-width="2" stroke-linecap="round" stroke-linejoin="round"/>
<path d="M1241.12 247.16C1239.86 245.794 1238.38 244.639 1236.75 243.74C1238.1 241.74 1239.54 240.91 1239.67 239.74C1240.12 239.69 1240.55 239.64 1240.96 239.56C1241.37 239.48 1241.6 239.44 1241.9 239.37C1242.02 239.804 1242.1 240.25 1242.13 240.7C1242.14 240.757 1242.14 240.813 1242.13 240.87V240.87C1242.32 243.15 1241.88 246.08 1241.12 247.16Z" fill="#E2442F" stroke="black" stroke-width="2" stroke-linecap="round" stroke-linejoin="round"/>
<path d="M1243.01 262.48H1233.39C1231.83 261.21 1230.08 261.09 1227.55 262.84C1224.07 265.171 1220.21 266.89 1216.15 267.92C1214.69 268.289 1213.17 268.394 1211.67 268.23C1207.93 267.71 1203.94 265.58 1207.13 258.34C1207.62 257.23 1208.2 256.06 1208.84 254.87C1211.37 254.15 1216.2 254.87 1218.61 257.38C1218.47 257.77 1218.35 258.15 1218.23 258.53C1221.39 256.63 1225.74 254.84 1228.79 253.41C1232.92 251.48 1235.85 250.93 1238.64 254.06C1239.02 254.492 1239.37 254.95 1239.69 255.43C1240.48 256.614 1241.18 257.862 1241.77 259.16C1242.26 260.236 1242.67 261.346 1243.01 262.48Z" fill="#F1F333" stroke="black" stroke-width="2" stroke-linecap="round" stroke-linejoin="round"/>
<path d="M1218.21 258.53C1216.79 259.278 1215.55 260.321 1214.57 261.59" stroke="black" stroke-width="2" stroke-linecap="round" stroke-linejoin="round"/>
<path d="M1237.01 258.12C1238.32 258.74 1239.01 260.81 1239.36 262.48" stroke="black" stroke-width="2" stroke-linecap="round" stroke-linejoin="round"/>
<path d="M1235.11 259.48C1235.95 260.291 1236.54 261.336 1236.79 262.48" stroke="black" stroke-width="2" stroke-linecap="round" stroke-linejoin="round"/>
<path d="M1220.35 253.75C1219.63 254.892 1219.04 256.11 1218.59 257.38C1216.18 254.87 1211.35 254.15 1208.82 254.87C1209.56 253.49 1210.4 252.08 1211.31 250.68C1215.27 250.53 1219.46 252.75 1220.35 253.75Z" fill="#E2442F" stroke="black" stroke-width="2" stroke-linecap="round" stroke-linejoin="round"/>
<path d="M1254.78 258.3L1252.71 262.44H1245.01C1244 261.287 1243.36 259.853 1243.19 258.33C1244.19 257.6 1244.19 256.86 1243.55 256.2C1243.92 255.397 1244.47 254.694 1245.17 254.151C1245.86 253.608 1246.68 253.241 1247.55 253.08C1248.17 252.936 1248.81 252.919 1249.43 253.03C1251.37 253.53 1253.77 253.97 1254.78 258.3Z" fill="#90A8ED" stroke="black" stroke-width="2" stroke-linecap="round" stroke-linejoin="round"/>
<path d="M1250.09 255.8C1251.43 257.61 1251.41 260.62 1251.24 262.48Z" fill="#F1F333"/>
<path d="M1250.09 255.8C1251.43 257.61 1251.41 260.62 1251.24 262.48" stroke="black" stroke-width="2" stroke-linecap="round" stroke-linejoin="round"/>
<path d="M1248.12 262.48L1247.91 257.24" stroke="black" stroke-width="2" stroke-linecap="round" stroke-linejoin="round"/>
<path d="M1276.12 314.97C1274.99 317.82 1267.4 318.72 1259.7 318.88C1259.62 316.084 1260.47 313.342 1262.12 311.08L1263.25 311.24C1264 311.34 1264.79 311.46 1265.59 311.59C1268.31 311.954 1270.99 312.587 1273.59 313.48C1274.53 313.783 1275.4 314.292 1276.12 314.97V314.97Z" fill="#FF90E8" stroke="black" stroke-width="2" stroke-linecap="round" stroke-linejoin="round"/>
<path d="M1262.12 311.08C1260.47 313.342 1259.62 316.084 1259.7 318.88C1258.6 318.88 1257.49 318.88 1256.4 318.88C1256.4 317.32 1256.64 313.06 1258.73 310.57L1260.27 310.79L1262.12 311.08Z" fill="white" stroke="black" stroke-width="2" stroke-linecap="round" stroke-linejoin="round"/>
<path d="M1258.73 310.6C1256.64 313.09 1256.41 317.35 1256.4 318.91C1254.65 318.91 1252.95 318.91 1251.4 318.82C1250.7 316.41 1249.03 313.65 1245.49 313.26L1246.58 308.79L1254.13 309.91L1258.73 310.6Z" fill="#FF90E8" stroke="black" stroke-width="2" stroke-linecap="round" stroke-linejoin="round"/>
<path d="M1233.37 262.48H1232.47V266C1230.53 266.47 1229.31 267.75 1226.95 270.08C1224.41 272.6 1220.95 276.86 1217.95 279.18C1216.87 277.539 1216.15 275.684 1215.84 273.742C1215.54 271.8 1215.65 269.814 1216.18 267.92C1220.24 266.89 1224.1 265.171 1227.58 262.84C1230.06 261.09 1231.81 261.21 1233.37 262.48Z" fill="#FF90E8" stroke="black" stroke-width="2" stroke-linecap="round" stroke-linejoin="round"/>
<path d="M1276.42 317.19C1274.42 320.19 1271.22 321.86 1267.53 322.74C1257.27 325.19 1243.47 321.34 1243.47 321.34L1244.17 318.46C1245.78 318.56 1248.35 318.72 1251.35 318.82C1252.94 318.87 1254.64 318.9 1256.35 318.91C1257.44 318.91 1258.55 318.91 1259.65 318.91C1267.35 318.75 1274.94 317.85 1276.07 315C1276.37 315.272 1276.56 315.636 1276.63 316.034C1276.69 316.432 1276.62 316.839 1276.42 317.19Z" fill="white" stroke="black" stroke-width="2" stroke-linecap="round" stroke-linejoin="round"/>
<path d="M1251.35 318.82C1248.35 318.72 1245.78 318.56 1244.17 318.46L1245.44 313.26C1249.01 313.65 1250.65 316.41 1251.35 318.82Z" fill="white" stroke="black" stroke-width="2" stroke-linecap="round" stroke-linejoin="round"/>
<path d="M1269.68 278.78C1269.6 279.47 1269.5 280.17 1269.39 280.89C1267.8 290.59 1263.05 302.72 1262.58 303.89C1260.58 302.31 1255.13 305.43 1254.08 309.89L1246.53 308.77L1253.19 281.51C1245.92 284.07 1239.06 286.67 1225.77 284.72C1224.15 284.365 1222.62 283.69 1221.27 282.735C1219.92 281.78 1218.77 280.565 1217.9 279.16C1220.97 276.84 1224.41 272.58 1226.9 270.06C1229.26 267.73 1230.48 266.45 1232.42 265.98C1233.6 265.735 1234.81 265.688 1236 265.84L1264 268.29C1264.4 268.398 1264.79 268.549 1265.16 268.74C1265.57 268.95 1265.97 269.194 1266.35 269.47C1268.2 270.81 1270.29 273.51 1269.68 278.78Z" fill="#90A8ED" stroke="black" stroke-width="2" stroke-linecap="round" stroke-linejoin="round"/>
<path d="M1262.58 303.91V304.01" stroke="#5000FF" stroke-width="2" stroke-linecap="round" stroke-linejoin="round"/>
<path d="M1263.25 311.24L1262.12 311.08L1260.27 310.82L1258.73 310.6L1254.08 309.91C1255.08 305.45 1260.57 302.33 1262.58 303.91C1262.94 304.196 1263.18 304.606 1263.26 305.06C1263.54 307.111 1263.53 309.19 1263.25 311.24V311.24Z" fill="white" stroke="black" stroke-width="2" stroke-linecap="round" stroke-linejoin="round"/>
<path d="M1286.34 296.94C1285.28 299.914 1284.08 302.831 1282.72 305.68C1282.04 305.117 1281.2 304.797 1280.32 304.77C1277.18 304.5 1274.7 308.77 1273.87 312.16L1265.6 311.59L1274.89 277.9C1273.12 279 1271.28 280.002 1269.4 280.9C1269.51 280.18 1269.61 279.48 1269.69 278.79C1270.3 273.52 1268.21 270.79 1266.41 269.5C1266.03 269.224 1265.64 268.98 1265.22 268.77C1270.72 268.48 1279.35 267.83 1284.32 268.77C1285.45 268.905 1286.54 269.31 1287.49 269.95C1292.13 273.72 1290.54 285.68 1286.34 296.94Z" fill="#90A8ED" stroke="black" stroke-width="2" stroke-linecap="round" stroke-linejoin="round"/>
<path d="M1284.01 312.89L1282.19 312.75L1277.42 312.41L1273.83 312.16C1274.66 308.81 1277.14 304.5 1280.28 304.77C1281.16 304.797 1282 305.117 1282.68 305.68C1284.15 306.92 1284.33 309.41 1284.01 312.89Z" fill="white" stroke="black" stroke-width="2" stroke-linecap="round" stroke-linejoin="round"/>
<path d="M1277.46 312.41C1277.04 313.537 1276.76 314.713 1276.64 315.91C1276.55 315.555 1276.37 315.23 1276.12 314.97C1275.41 314.297 1274.56 313.788 1273.63 313.48C1271.03 312.587 1268.35 311.954 1265.63 311.59L1273.9 312.16L1277.46 312.41Z" fill="#FF90E8" stroke="black" stroke-width="2" stroke-linecap="round" stroke-linejoin="round"/>
<path d="M1287.18 320.88L1278.18 321.04C1278.59 319.52 1279.94 314.96 1282.18 312.75L1284 312.89C1285.89 313.04 1287.42 313.17 1288.23 313.26C1292.5 313.72 1291.18 317.96 1287.18 320.88Z" fill="#FF90E8" stroke="black" stroke-width="2" stroke-linecap="round" stroke-linejoin="round"/>
<path d="M1287.18 320.88C1286 321.738 1284.69 322.412 1283.31 322.88C1280.37 323.88 1273.08 324.77 1267.53 322.71C1269.05 322.365 1270.51 321.831 1271.9 321.12L1274.96 321.07L1278.2 321.01L1287.18 320.88Z" fill="white" stroke="black" stroke-width="2" stroke-linecap="round" stroke-linejoin="round"/>
<path d="M1276.45 317.13C1276.32 318.574 1275.81 319.956 1274.96 321.13L1271.9 321.18C1273.73 320.259 1275.28 318.881 1276.42 317.18L1276.45 317.13Z" fill="#FF90E8" stroke="black" stroke-width="2" stroke-linecap="round" stroke-linejoin="round"/>
<path d="M1282.23 312.75C1279.96 314.96 1278.61 319.52 1278.23 321.04L1274.99 321.1C1275.84 319.926 1276.35 318.544 1276.48 317.1C1276.69 316.729 1276.75 316.296 1276.67 315.88C1276.79 314.683 1277.07 313.507 1277.49 312.38L1282.23 312.75Z" fill="white" stroke="black" stroke-width="2" stroke-linecap="round" stroke-linejoin="round"/>
<path d="M1247.54 253.12C1246.67 253.281 1245.85 253.648 1245.16 254.191C1244.46 254.734 1243.91 255.437 1243.54 256.24C1242.68 255.24 1240.54 254.42 1238.6 254.06C1235.81 250.93 1232.88 251.48 1228.75 253.41C1225.75 254.84 1221.35 256.63 1218.19 258.53C1218.31 258.15 1218.43 257.77 1218.57 257.38C1219.02 256.11 1219.61 254.892 1220.33 253.75C1219.44 252.75 1215.25 250.53 1211.33 250.68C1214.58 245.63 1218.71 240.68 1222.52 238.22C1222.86 238.22 1223.22 238.22 1223.58 238.22C1224.4 239.259 1225.46 240.083 1226.67 240.62C1226.11 242.62 1227.58 247.47 1228.91 248.71C1229.86 247.114 1231.07 245.685 1232.49 244.48C1233.51 245.481 1234.34 246.647 1234.97 247.93C1235.32 246.428 1235.92 245 1236.77 243.71C1238.4 244.609 1239.87 245.764 1241.14 247.13C1241.9 246.05 1242.34 243.13 1242.14 240.88C1242.14 240.823 1242.14 240.767 1242.14 240.71C1245.4 244.86 1247.26 251.82 1247.54 253.12Z" fill="#FF90E8" stroke="black" stroke-width="2" stroke-linecap="round" stroke-linejoin="round"/>
<path d="M1220.35 253.75C1221.77 251.556 1223.61 249.669 1225.77 248.2Z" fill="#FF90E8"/>
<path d="M1220.35 253.75C1221.77 251.556 1223.61 249.669 1225.77 248.2" stroke="black" stroke-width="2" stroke-linecap="round" stroke-linejoin="round"/>
<path d="M1243.56 256.24C1243.36 256.704 1243.24 257.197 1243.2 257.7C1243.18 257.923 1243.18 258.147 1243.2 258.37C1242.75 258.692 1242.26 258.957 1241.75 259.16C1241.16 257.862 1240.46 256.614 1239.67 255.43C1239.35 254.95 1239 254.492 1238.62 254.06C1240.57 254.42 1242.7 255.24 1243.56 256.24Z" fill="#90A8ED" stroke="black" stroke-width="2" stroke-linecap="round" stroke-linejoin="round"/>
<path d="M1268.69 243.87L1257.95 266.7" stroke="black" stroke-width="2" stroke-linecap="round" stroke-linejoin="round"/>
<path d="M1295.51 243.49L1285.51 268.56C1285.51 268.56 1285.1 268.63 1284.35 268.72C1279.35 267.82 1270.75 268.47 1265.25 268.72C1264.85 268.533 1264.44 268.392 1264.01 268.3L1236.01 265.85C1234.65 265.701 1233.27 265.904 1232.01 266.44V262.44H1252.67L1254.74 258.3L1262.74 242.3H1294.67C1294.81 242.3 1294.95 242.334 1295.08 242.399C1295.21 242.465 1295.32 242.56 1295.4 242.677C1295.48 242.793 1295.53 242.928 1295.55 243.07C1295.57 243.211 1295.56 243.355 1295.51 243.49V243.49Z" fill="black" stroke="black" stroke-width="2" stroke-linecap="round" stroke-linejoin="round"/>
<path d="M1269.54 244.11L1258.9 267.06C1258.9 267.06 1278.71 267.06 1284.14 267.56C1285.92 262.77 1291.84 247.65 1293.14 244.46C1293.16 244.394 1293.17 244.322 1293.16 244.252C1293.15 244.182 1293.13 244.115 1293.08 244.057C1293.04 244 1292.99 243.954 1292.92 243.923C1292.86 243.892 1292.79 243.877 1292.72 243.88L1269.54 244.11Z" fill="white" stroke="white" stroke-width="2" stroke-miterlimit="10"/>
<path d="M1314.94 345.99L1416.02 461.54" stroke="black" stroke-width="2" stroke-miterlimit="10" stroke-linecap="round"/>
<path d="M1408.26 462.14L1309.69 345.99" stroke="black" stroke-width="2" stroke-miterlimit="10" stroke-linecap="round"/>
<path d="M874.129 346.28L971.959 461.76" stroke="black" stroke-width="2" stroke-miterlimit="10" stroke-linecap="round"/>
<path d="M864.809 346.28L962.639 461.76" stroke="black" stroke-width="2" stroke-miterlimit="10" stroke-linecap="round"/>
<path d="M410.399 462.15L311.119 345.99" stroke="black" stroke-width="2" stroke-miterlimit="10" stroke-linecap="round"/>
<path d="M403.228 462.15L305.898 345.99" stroke="black" stroke-width="2" stroke-miterlimit="10" stroke-linecap="round"/>
<path d="M534.01 134.2H463.47C459.996 134.203 456.556 133.521 453.345 132.193C450.135 130.865 447.218 128.918 444.761 126.463C442.304 124.007 440.354 121.092 439.024 117.883C437.694 114.674 437.01 111.234 437.01 107.76V107.76C437.007 104.284 437.69 100.842 439.019 97.631C440.347 94.4196 442.296 91.5016 444.754 89.044C447.211 86.5865 450.129 84.6375 453.341 83.3087C456.552 81.9799 459.994 81.2973 463.47 81.2999H534.01C541.022 81.2999 547.747 84.0856 552.706 89.044C557.664 94.0025 560.45 100.728 560.45 107.74L676.52 114.48C676.68 114.48 676.68 114.74 676.52 114.74C658.25 115.16 566.57 117.25 558.52 117.61C556.553 122.503 553.168 126.696 548.801 129.652C544.434 132.608 539.283 134.192 534.01 134.2Z" fill="white" stroke="black" stroke-width="2" stroke-miterlimit="10"/>
<path d="M473.559 114.51C473.493 111.517 473.707 108.523 474.199 105.57C476.489 108.45 483.259 114.51 483.259 114.51L483.559 104.08" stroke="black" stroke-width="2" stroke-linecap="round" stroke-linejoin="round"/>
<path d="M496.598 104.08L489.398 104.71L488.398 115.12L495.818 114.5" stroke="black" stroke-width="2" stroke-linecap="round" stroke-linejoin="round"/>
<path d="M488.93 109.6H495.7" stroke="black" stroke-width="2" stroke-linecap="round" stroke-linejoin="round"/>
<path d="M500.209 115.52C500.209 115.52 501.929 107.89 505.939 104.8C508.609 105.67 507.659 115.52 507.659 115.52" stroke="black" stroke-width="2" stroke-linecap="round" stroke-linejoin="round"/>
<path d="M501.719 110.95L507.819 110.53" stroke="black" stroke-width="2" stroke-linecap="round" stroke-linejoin="round"/>
<path d="M511.75 105.92L521.75 104.79" stroke="black" stroke-width="2" stroke-linecap="round" stroke-linejoin="round"/>
<path d="M517.238 105.3V115.12" stroke="black" stroke-width="2" stroke-linecap="round" stroke-linejoin="round"/>
<path d="M526.328 103.17L526.078 110.16" stroke="black" stroke-width="2" stroke-linecap="round" stroke-linejoin="round"/>
<path d="M525.719 115.38C526.056 115.38 526.329 115.107 526.329 114.77C526.329 114.433 526.056 114.16 525.719 114.16C525.382 114.16 525.109 114.433 525.109 114.77C525.109 115.107 525.382 115.38 525.719 115.38Z" stroke="black" stroke-width="2" stroke-linecap="round" stroke-linejoin="round"/>
<path d="M1373.17 285.91H1362.28L1357.32 245.87H1368.76L1373.17 285.91Z" fill="#98282A" stroke="black" stroke-width="2" stroke-miterlimit="10" stroke-linecap="round"/>
<path d="M1183.08 322.8L1185.91 315.19" stroke="black" stroke-width="2" stroke-miterlimit="10" stroke-linecap="round"/>
<path d="M1179.28 323.05L1180.84 308.39" stroke="black" stroke-width="2" stroke-miterlimit="10" stroke-linecap="round"/>
<path d="M1165.61 323.33L1157.98 312.19" stroke="black" stroke-width="2" stroke-miterlimit="10" stroke-linecap="round"/>
<path d="M1165.27 319.49L1160.09 307.29" stroke="black" stroke-width="2" stroke-miterlimit="10" stroke-linecap="round"/>
<path d="M1365.24 328.67L1360.46 322.34" stroke="black" stroke-width="2" stroke-miterlimit="10" stroke-linecap="round"/>
<path d="M1366.34 325.5L1362.29 313.8" stroke="black" stroke-width="2" stroke-miterlimit="10" stroke-linecap="round"/>
<path d="M1380.54 322.93L1384.3 310.27" stroke="black" stroke-width="2" stroke-miterlimit="10" stroke-linecap="round"/>
<path d="M1377.02 321.01L1379.37 309.68" stroke="black" stroke-width="2" stroke-miterlimit="10" stroke-linecap="round"/>
<path d="M1087.37 344.55L1091.71 335.73" stroke="black" stroke-width="2" stroke-miterlimit="10" stroke-linecap="round"/>
<path d="M1085.5 328.21L1083.02 345.68" stroke="black" stroke-width="2" stroke-miterlimit="10" stroke-linecap="round"/>
<path d="M1075.94 322.34L1079.46 345.68" stroke="black" stroke-width="2" stroke-miterlimit="10" stroke-linecap="round"/>
<path d="M1069.77 336.64L1075.94 345.5" stroke="black" stroke-width="2" stroke-miterlimit="10" stroke-linecap="round"/>
<path d="M1346.87 451.23L1339.33 463.61" stroke="black" stroke-width="2" stroke-miterlimit="10" stroke-linecap="round"/>
<path d="M1339.33 435.3L1335.82 460.74" stroke="black" stroke-width="2" stroke-miterlimit="10" stroke-linecap="round"/>
<path d="M1327.16 445.82L1330.24 462.87" stroke="black" stroke-width="2" stroke-miterlimit="10" stroke-linecap="round"/>
<path d="M288.239 454.06L280.229 472" stroke="black" stroke-width="2" stroke-miterlimit="10" stroke-linecap="round"/>
<path d="M280.229 435.1L279.719 457.43" stroke="black" stroke-width="2" stroke-miterlimit="10" stroke-linecap="round"/>
<path d="M269.09 442.48L275.45 466.59" stroke="black" stroke-width="2" stroke-miterlimit="10" stroke-linecap="round"/>
<path d="M638.639 328.72L630.619 346.66" stroke="black" stroke-width="2" stroke-miterlimit="10" stroke-linecap="round"/>
<path d="M630.619 309.76L630.109 332.09" stroke="black" stroke-width="2" stroke-miterlimit="10" stroke-linecap="round"/>
<path d="M619.488 317.14L625.848 341.25" stroke="black" stroke-width="2" stroke-miterlimit="10" stroke-linecap="round"/>
<path d="M1468.31 349.56L1476.8 329.82" stroke="black" stroke-width="2" stroke-miterlimit="10" stroke-linecap="round"/>
<path d="M1463.4 345.57L1467.59 318.97" stroke="black" stroke-width="2" stroke-miterlimit="10" stroke-linecap="round"/>
<path d="M1459.21 343.01L1455.63 318.46" stroke="black" stroke-width="2" stroke-miterlimit="10" stroke-linecap="round"/>
<path d="M376.949 328.96L364.859 345.99" stroke="black" stroke-width="2" stroke-miterlimit="10" stroke-linecap="round"/>
<path d="M362.088 322.92L360.578 345.99" stroke="black" stroke-width="2" stroke-miterlimit="10" stroke-linecap="round"/>
<path d="M344.459 310.52L355.409 345.99" stroke="black" stroke-width="2" stroke-miterlimit="10" stroke-linecap="round"/>
<path d="M68.6683 249.65L60.9883 266.57" stroke="black" stroke-width="2" stroke-miterlimit="10" stroke-linecap="round"/>
<path d="M56.3691 240.49V261.51" stroke="black" stroke-width="2" stroke-miterlimit="10" stroke-linecap="round"/>
<path d="M43.0293 241.45L49.2194 264.73" stroke="black" stroke-width="2" stroke-miterlimit="10" stroke-linecap="round"/>
<path d="M69.5195 76.96L74.7395 85.9099" stroke="black" stroke-width="2" stroke-miterlimit="10" stroke-linecap="round"/>
<path d="M58.9983 92.48L56.2383 101.36" stroke="black" stroke-width="2" stroke-miterlimit="10" stroke-linecap="round"/>
<path d="M52.1387 88.37V99.7899" stroke="black" stroke-width="2" stroke-miterlimit="10" stroke-linecap="round"/>
<path d="M44.4492 90.61L48.7792 103.3" stroke="black" stroke-width="2" stroke-miterlimit="10" stroke-linecap="round"/>
<path d="M1443.99 207.98L1434.13 219.79" stroke="black" stroke-width="2" stroke-miterlimit="10" stroke-linecap="round"/>
<path d="M1435.29 199.9L1429.75 220.04" stroke="black" stroke-width="2" stroke-miterlimit="10" stroke-linecap="round"/>
<path d="M1424.36 203.44V220.16" stroke="black" stroke-width="2" stroke-miterlimit="10" stroke-linecap="round"/>
<path d="M1411.35 219.22L1411.55 218.98L1417.05 212.3" stroke="black" stroke-width="2" stroke-miterlimit="10" stroke-linecap="round"/>
<path d="M1403.47 199.36L1410.66 218.53" stroke="black" stroke-width="2" stroke-miterlimit="10" stroke-linecap="round"/>
<path d="M1394.65 207.53L1409 218.29" stroke="black" stroke-width="2" stroke-miterlimit="10" stroke-linecap="round"/>
<path d="M1213.45 136.41L1209.41 155.6" stroke="black" stroke-width="2" stroke-miterlimit="10" stroke-linecap="round"/>
<path d="M1203.53 146.25L1206.6 155.2" stroke="black" stroke-width="2" stroke-miterlimit="10" stroke-linecap="round"/>
<path d="M1193.87 138.25L1200.41 154.02" stroke="black" stroke-width="2" stroke-miterlimit="10" stroke-linecap="round"/>
<path d="M1183.02 134.04L1189.48 153.53" stroke="black" stroke-width="2" stroke-miterlimit="10" stroke-linecap="round"/>
<path d="M1176.78 153.39L1172.75 132.41" stroke="black" stroke-width="2" stroke-miterlimit="10" stroke-linecap="round"/>
<path d="M1163.66 129.3L1176.31 153.53" stroke="black" stroke-width="2" stroke-miterlimit="10" stroke-linecap="round"/>
<path d="M966.238 116.39L965.668 121.56" stroke="black" stroke-width="2" stroke-miterlimit="10" stroke-linecap="round"/>
<path d="M959.269 110.16L958.309 118.97" stroke="black" stroke-width="2" stroke-miterlimit="10" stroke-linecap="round"/>
<path d="M953.66 107.37V117.11" stroke="black" stroke-width="2" stroke-miterlimit="10" stroke-linecap="round"/>
<path d="M928.189 98.0499L929.66 105.48" stroke="black" stroke-width="2" stroke-miterlimit="10" stroke-linecap="round"/>
<path d="M352.969 258.5H360.179L366.949 161.49H359.959L352.969 258.5Z" stroke="black" stroke-width="2" stroke-linecap="round" stroke-linejoin="round"/>
<path d="M356.619 258.5L363.729 161.49" stroke="black" stroke-width="2" stroke-linecap="round" stroke-linejoin="round"/>
<path d="M330.59 258.95L329.92 151.95H323.39L322.5 256.62L326.54 258.95H330.59Z" stroke="black" stroke-width="2" stroke-linecap="round" stroke-linejoin="round"/>
<path d="M326.539 151.95V258.95" stroke="black" stroke-width="2" stroke-linecap="round" stroke-linejoin="round"/>
<path d="M366.478 188H341.328" stroke="black" stroke-width="2" stroke-linecap="round" stroke-linejoin="round"/>
<path d="M357.839 190.9H342.389" stroke="black" stroke-width="2" stroke-linecap="round" stroke-linejoin="round"/>
<path d="M321.029 185.6H340.409" stroke="black" stroke-width="2" stroke-linecap="round" stroke-linejoin="round"/>
<path d="M330.379 183.07H340.239" stroke="black" stroke-width="2" stroke-linecap="round" stroke-linejoin="round"/>
<path d="M335.059 248.38L339.769 257.57" stroke="black" stroke-width="2" stroke-linecap="round" stroke-linejoin="round"/>
<path d="M345.68 244.73L341.34 256.33" stroke="black" stroke-width="2" stroke-linecap="round" stroke-linejoin="round"/>
<path d="M348.53 250.54C348.22 250.54 342.25 257.33 342.25 257.33" stroke="black" stroke-width="2" stroke-linecap="round" stroke-linejoin="round"/>
<path d="M341.328 256.88V175.54" stroke="black" stroke-width="2" stroke-linecap="round" stroke-linejoin="round"/>
<path d="M342.289 176.73C344.889 171.87 346.419 167.67 349.399 165.32C352.379 162.97 358.689 156.2 366.599 144.45C374.451 133.154 380.864 120.923 385.689 108.04C390.299 96.3399 391.079 90.6699 391.079 90.6699" stroke="black" stroke-width="2" stroke-linecap="round" stroke-linejoin="round"/>
<path d="M342.01 175.54C342.01 175.54 342.85 167.82 345.08 163.47C349.79 154.27 357.21 143.52 361.13 133.7C365.05 123.88 371.01 110.4 375.17 80.2999" stroke="black" stroke-width="2" stroke-linecap="round" stroke-linejoin="round"/>
<path d="M341.328 99.3199V181.33" stroke="black" stroke-width="2" stroke-linecap="round" stroke-linejoin="round"/>
<path d="M330.589 80.2999C324.349 115.55 336.259 163.3 341.999 177.43" stroke="black" stroke-width="2" stroke-linecap="round" stroke-linejoin="round"/>
<path d="M292.828 102.91C299.928 146.75 334.458 168.28 340.408 178.91" stroke="black" stroke-width="2" stroke-linecap="round" stroke-linejoin="round"/>
<path d="M286.229 123.4C288.819 134.02 288.229 137.56 294.179 144.4C302.809 154.34 321.589 163.87 331.719 168.93" stroke="black" stroke-width="2" stroke-linecap="round" stroke-linejoin="round"/>
<path d="M287.529 131.22C285.999 130.41 285.049 129.99 284.679 130.06C284.309 130.13 285.099 132.42 283.299 134.55C282.35 135.639 281.726 136.973 281.499 138.4C281.249 138.83 279.679 138.99 279.069 137.55C278.319 135.77 277.839 131.84 279.989 129.55C282.139 127.26 284.149 127.62 284.899 128.23C285.618 128.508 286.357 128.732 287.109 128.9L287.529 131.22Z" fill="black" stroke="black" stroke-width="2" stroke-linecap="round" stroke-linejoin="round"/>
<path d="M290.469 138.22C291.709 136.35 293.049 134.91 295.739 134.88C296.84 134.815 297.932 135.122 298.838 135.751C299.745 136.38 300.414 137.295 300.739 138.35C301.051 139.526 301.051 140.764 300.739 141.94C300.579 142.42 299.819 142.7 299.119 141.94C298.803 141.573 298.416 141.274 297.981 141.061C297.546 140.847 297.072 140.725 296.589 140.7C295.258 140.263 294.028 139.566 292.969 138.65C292.409 138.27 291.679 139.77 291.679 139.77L290.469 138.22Z" fill="black" stroke="black" stroke-width="2" stroke-linecap="round" stroke-linejoin="round"/>
<path d="M314.65 151.12C311.47 149.78 304.79 148.63 302.21 148.37C300.5 148.2 301.06 144.66 306.95 145.87C312.84 147.08 313.04 148.37 313.04 148.37L314.65 151.12Z" fill="black" stroke="black" stroke-width="2" stroke-linecap="round" stroke-linejoin="round"/>
<path d="M307.849 141.05C308.849 138.66 311.739 139.91 312.849 140.36C313.959 140.81 316.849 142 317.419 140.36C317.989 138.72 316.419 136.68 314.929 136.23C312.825 135.91 310.674 136.131 308.679 136.87C308.259 137.024 307.876 137.263 307.554 137.573C307.232 137.883 306.978 138.257 306.809 138.67L307.849 141.05Z" fill="black" stroke="black" stroke-width="2" stroke-linecap="round" stroke-linejoin="round"/>
<path d="M304.898 135.18C304.898 133.87 305.198 131.18 305.198 131.18C305.198 131.18 308.968 133.06 312.118 131.68C314.978 130.43 312.258 127.48 307.838 127.63C303.418 127.78 303.388 129.12 303.308 129.63C303.228 130.14 303.158 132.42 303.158 132.42L304.898 135.18Z" fill="black" stroke="black" stroke-width="2" stroke-linecap="round" stroke-linejoin="round"/>
<path d="M298.219 121.48C298.219 121.32 298.529 119.04 299.219 118.54C301.149 117.712 303.265 117.416 305.349 117.68C308.189 117.93 309.139 120.51 309.119 122.62C309.099 124.73 308.429 125.62 307.289 124.93C306.149 124.24 303.869 121.18 300.719 120.87C300.197 122.107 299.86 123.415 299.719 124.75C299.097 123.72 298.594 122.623 298.219 121.48V121.48Z" fill="black" stroke="black" stroke-width="2" stroke-linecap="round" stroke-linejoin="round"/>
<path d="M297.71 122.48C295.25 120.79 290.71 119.48 289.33 122.61C289 123.39 289.33 125.32 290.67 125.15C292.01 124.98 293.5 123.53 295.35 123.7C297.2 123.87 299.01 125.95 299.01 125.95L297.71 122.48Z" fill="black" stroke="black" stroke-width="2" stroke-linecap="round" stroke-linejoin="round"/>
<path d="M297.39 118.3C298.24 115.44 298.65 114.8 299.22 114.74C299.79 114.68 304.58 115.09 306.31 114.21C308.04 113.33 305.92 111.76 304.17 111.61C302.42 111.46 299.88 111.46 298.4 112.72C297.471 113.579 296.838 114.709 296.59 115.95L297.39 118.3Z" fill="black" stroke="black" stroke-width="2" stroke-linecap="round" stroke-linejoin="round"/>
<path d="M295.619 112.2C295.619 112.2 300.179 110.2 299.939 108.75C299.699 107.3 297.429 107.85 295.009 109.54L294.889 110.73L295.619 112.2Z" fill="black" stroke="black" stroke-width="2" stroke-linecap="round" stroke-linejoin="round"/>
<path d="M293.73 109.36C291.81 108.27 288.92 107.8 287.92 108.63C286.92 109.46 289.44 111.02 291.48 111.34C293.52 111.66 294.3 111.83 294.3 111.83L293.73 109.36Z" fill="black" stroke="black" stroke-width="2" stroke-linecap="round" stroke-linejoin="round"/>
<path d="M329.639 122.3C328.099 120.19 326.249 118.59 324.419 118.69C322.589 118.79 324.419 121.98 326.279 123.09C326.77 123.411 327.325 123.621 327.906 123.704C328.487 123.787 329.078 123.741 329.639 123.57V122.3Z" fill="black" stroke="black" stroke-width="2" stroke-linecap="round" stroke-linejoin="round"/>
<path d="M330.279 121.38C331.809 119.1 331.969 116.28 333.169 115.2C334.369 114.12 336.529 114.27 335.239 117.3C334.239 119.63 331.829 123.87 330.729 123.52C329.629 123.17 330.279 121.38 330.279 121.38Z" fill="black" stroke="black" stroke-width="2" stroke-linecap="round" stroke-linejoin="round"/>
<path d="M328.679 100.23C328.012 99.5572 327.151 99.1091 326.218 98.9478C325.284 98.7865 324.323 98.9201 323.469 99.3299C322.197 99.9303 321.118 100.875 320.356 102.058C319.595 103.241 319.18 104.613 319.159 106.02C318.989 108.5 323.559 107.77 324.829 105.81C325.746 104.412 326.372 102.845 326.669 101.2L328.289 102.78L328.679 100.23Z" fill="black" stroke="black" stroke-width="2" stroke-linecap="round" stroke-linejoin="round"/>
<path d="M329.639 95.5799C330.347 94.4384 331.317 93.482 332.469 92.7899C332.109 95.3999 333.189 99.4299 334.589 99.4299C335.989 99.4299 336.539 97.2499 336.469 95.0399C336.399 92.8299 336.629 90.4099 334.229 89.8699C331.829 89.3299 331.099 92.2099 329.479 93.6699L329.639 95.5799Z" fill="black" stroke="black" stroke-width="2" stroke-linecap="round" stroke-linejoin="round"/>
<path d="M329.479 86.17C328.957 85.6696 328.31 85.3198 327.606 85.1578C326.901 84.9958 326.166 85.0277 325.479 85.25C322.879 85.81 322.219 90.38 322.649 92.46C323.079 94.54 324.709 93.46 325.479 91.79C326.249 90.12 326.959 88.4 329.299 88.79L329.479 86.17Z" fill="black" stroke="black" stroke-width="2" stroke-linecap="round" stroke-linejoin="round"/>
<path d="M340.71 136.79C340.71 136.79 338.64 134.42 337.8 134.21C336.96 134 335.55 134.67 336.36 136.03C336.801 136.829 337.405 137.527 338.134 138.076C338.863 138.626 339.7 139.016 340.59 139.22C340.65 138.44 340.71 136.79 340.71 136.79Z" fill="black" stroke="black" stroke-width="2" stroke-linecap="round" stroke-linejoin="round"/>
<path d="M341.899 134.65C343.779 132.35 345.379 131.65 346.729 131.48C349.219 131.26 351.019 132.92 351.729 131.68C352.439 130.44 350.729 128.22 348.539 128.04C346.349 127.86 343.149 130.71 342.129 131.7L341.789 133.7L341.899 134.65Z" fill="black" stroke="black" stroke-width="2" stroke-linecap="round" stroke-linejoin="round"/>
<path d="M342.139 138.38L344.539 137.66C344.539 137.66 343.429 140.31 344.539 141.79C345.649 143.27 346.609 144.27 348.119 143.92C349.629 143.57 349.509 141.34 349.119 140.33C348.729 139.32 348.459 136.02 346.759 135.66C345.059 135.3 343.569 136.24 341.959 136.34L342.139 138.38Z" fill="black" stroke="black" stroke-width="2" stroke-linecap="round" stroke-linejoin="round"/>
<path d="M340.679 124.35C338.829 123.04 337.959 123.54 335.769 124.52C333.579 125.5 334.419 121.17 335.269 120.18C336.119 119.19 338.438 118.89 340.808 120.37L340.679 124.35Z" fill="black" stroke="black" stroke-width="2" stroke-linecap="round" stroke-linejoin="round"/>
<path d="M341.859 117.5C343.509 115.74 345.129 114.79 347.019 115.23C348.909 115.67 351.149 120.3 351.129 121.7C351.109 123.1 349.669 122.7 348.499 121.81C347.983 121.296 347.313 120.964 346.591 120.865C345.869 120.765 345.135 120.904 344.499 121.26C343.361 121.687 342.404 122.492 341.789 123.54L341.859 117.5Z" fill="black" stroke="black" stroke-width="2" stroke-linecap="round" stroke-linejoin="round"/>
<path d="M340.85 106.11C338.29 104.8 336.35 103.97 335.19 104.82C334.03 105.67 335.41 108.03 337.78 108.6C340.15 109.17 341.1 108.34 341.1 108.34L340.85 106.11Z" fill="black" stroke="black" stroke-width="2" stroke-linecap="round" stroke-linejoin="round"/>
<path d="M341.87 102.3C343.87 100.54 345.18 99.96 346.33 100.08C347.48 100.2 347.79 101.98 346.47 103.74C345.1 105.363 343.557 106.831 341.87 108.12C341.44 108.41 341.52 105.12 341.52 105.01C341.52 104.9 341.87 102.3 341.87 102.3Z" fill="black" stroke="black" stroke-width="2" stroke-linecap="round" stroke-linejoin="round"/>
<path d="M363.449 126.47C362.379 125.47 357.709 122.69 355.669 122.77C353.629 122.85 355.989 126.42 358.049 127.41C360.109 128.4 361.809 128.94 362.909 128.62C364.009 128.3 363.449 126.47 363.449 126.47Z" fill="black" stroke="black" stroke-width="2" stroke-linecap="round" stroke-linejoin="round"/>
<path d="M372.009 127.18C372.209 125.95 369.809 125.67 367.929 125.74C366.049 125.81 364.119 126.05 364.119 126.05L363.459 128.71C365.263 128.993 367.097 129.024 368.909 128.8C371.059 128.37 371.869 128.2 372.009 127.18Z" fill="black" stroke="black" stroke-width="2" stroke-linecap="round" stroke-linejoin="round"/>
<path d="M368.679 112.51C368.409 111.51 366.399 107.41 365.389 107.18C364.379 106.95 361.879 108.97 360.779 111.11C359.679 113.25 357.779 116.6 358.929 117.38C360.079 118.16 362.559 117.06 363.929 114.3C364.567 113.13 365.089 111.901 365.489 110.63L367.829 113.94L368.679 112.51Z" fill="black" stroke="black" stroke-width="2" stroke-linecap="round" stroke-linejoin="round"/>
<path d="M370.009 109.13C372.259 107.47 372.669 106.73 374.669 106.73C376.669 106.73 380.379 106.47 382.009 110.24C382.479 111.49 379.929 112.53 377.349 111.8C374.769 111.07 373.189 109.74 371.739 109.8C370.289 109.86 369.359 111.99 369.359 111.99L370.009 109.13Z" fill="black" stroke="black" stroke-width="2" stroke-linecap="round" stroke-linejoin="round"/>
<path d="M373.159 90.0099C373.159 90.0099 370.159 86.8699 368.449 86.5399C366.739 86.2099 362.179 94.9199 363.049 97.2899C363.919 99.6599 368.989 97.3599 369.519 93.3499C369.726 92.1122 369.86 90.8634 369.919 89.6099C369.919 89.6099 372.329 90.7099 372.919 91.8799C373.399 91.6499 373.159 90.0099 373.159 90.0099Z" fill="black" stroke="black" stroke-width="2" stroke-linecap="round" stroke-linejoin="round"/>
<path d="M373.539 94.89C374.946 94.1802 376.42 93.6108 377.939 93.19C377.989 95.27 377.639 100.46 380.229 101.88C382.819 103.3 383.959 103.05 383.669 99.02C383.379 94.99 381.619 91.82 379.799 91.08C378.799 90.67 373.649 92.95 373.649 92.95L373.539 94.89Z" fill="black" stroke="black" stroke-width="2" stroke-linecap="round" stroke-linejoin="round"/>
<path d="M374.709 87.52C376.989 86.13 378.889 84.82 379.919 85.52C380.949 86.22 378.769 89.52 377.309 90.52C376.85 90.8793 376.296 91.0971 375.716 91.1468C375.135 91.1965 374.552 91.076 374.039 90.8L374.709 87.52Z" fill="black" stroke="black" stroke-width="2" stroke-linecap="round" stroke-linejoin="round"/>
<path d="M362.62 143.68C361.08 143.68 360.19 145.61 361.32 147.28C361.766 148.017 362.311 148.69 362.94 149.28L364.31 146.83C364.31 146.83 363.81 143.86 362.62 143.68Z" fill="black" stroke="black" stroke-width="2" stroke-linecap="round" stroke-linejoin="round"/>
<path d="M363.42 149.71C365.89 150.52 365.7 152.01 368.97 151.86C372.24 151.71 372.79 150.8 372.69 149.71C372.59 148.62 371.42 147.71 369.48 147.36C367.54 147.01 365.72 147.49 365.48 147.17C365.24 146.85 363.42 149.71 363.42 149.71Z" fill="black" stroke="black" stroke-width="2" stroke-linecap="round" stroke-linejoin="round"/>
<path d="M368.489 142.41C368.489 142.41 375.329 141.47 375.839 141.47C376.269 140.66 377.559 140.47 380.179 142.41C382.563 144.209 384.218 146.808 384.839 149.73C385.429 152.43 380.979 150.35 379.689 148.63C378.399 146.91 376.919 143.57 375.999 143.24C375.079 142.91 367.139 144.35 367.139 144.35L368.489 142.41Z" fill="black" stroke="black" stroke-width="2" stroke-linecap="round" stroke-linejoin="round"/>
<path d="M374.419 131.35C372.923 130.748 371.283 130.591 369.699 130.9C369.163 131.098 368.682 131.42 368.293 131.838C367.903 132.257 367.618 132.761 367.459 133.31C367.399 134.22 368.459 134.71 369.409 134.24C370.052 133.802 370.511 133.144 370.699 132.39C371.603 132.268 372.522 132.418 373.339 132.82L374.419 131.35Z" fill="black" stroke="black" stroke-width="2" stroke-linecap="round" stroke-linejoin="round"/>
<path d="M375.578 131.41C375.578 131.41 377.878 131.41 379.268 131.31C380.658 131.21 381.688 131.23 382.908 133.24C384.128 135.25 384.828 136.77 384.908 137.95C384.988 139.13 383.398 139.05 382.078 137.15C380.758 135.25 380.798 133.15 379.758 132.98C378.718 132.81 374.908 132.86 374.908 132.86L375.578 131.41Z" fill="black" stroke="black" stroke-width="2" stroke-linecap="round" stroke-linejoin="round"/>
<path d="M379.888 120.39C378.238 116.22 377.478 114.61 376.058 114.09C374.638 113.57 374.338 117.19 375.738 119.33C377.138 121.47 377.668 123.06 378.848 122.77C380.028 122.48 379.888 120.39 379.888 120.39Z" fill="black" stroke="black" stroke-width="2" stroke-linecap="round" stroke-linejoin="round"/>
<path d="M380.84 120.86C383.4 120.44 388.14 118.86 390.41 119.63C392.68 120.4 388.75 123.28 384.89 123.28H379.52L380.84 120.86Z" fill="black" stroke="black" stroke-width="2" stroke-linecap="round" stroke-linejoin="round"/>
<path d="M385.798 106.3C384.798 104.7 383.138 103.94 382.088 104.82C381.038 105.7 384.388 107.56 384.408 109.37C385.008 109.05 385.798 106.3 385.798 106.3Z" fill="black" stroke="black" stroke-width="2" stroke-linecap="round" stroke-linejoin="round"/>
<path d="M386.909 105.55C389.689 103.48 395.469 101.17 401.039 104.26C402.299 104.94 402.259 106.33 397.979 106.4C395.346 106.364 392.741 106.948 390.375 108.105C388.009 109.262 385.948 110.959 384.359 113.06C385.549 109.02 386.909 105.55 386.909 105.55Z" fill="black" stroke="black" stroke-width="2" stroke-linecap="round" stroke-linejoin="round"/>
<path d="M1137.13 159.62V110.16H976.549V128.36L829.689 128.48C829.664 128.487 829.643 128.502 829.627 128.523C829.612 128.544 829.604 128.569 829.604 128.595C829.604 128.621 829.612 128.646 829.627 128.667C829.643 128.687 829.664 128.703 829.689 128.71L976.549 136.3V159.61L1137.13 159.62Z" fill="white" stroke="black" stroke-width="2" stroke-miterlimit="10"/>
<path d="M1016.61 135.01L1023.39 134.89" stroke="black" stroke-width="2" stroke-linecap="round" stroke-linejoin="round"/>
<path d="M1067.02 136.64L1073.74 136.24" stroke="black" stroke-width="2" stroke-linecap="round" stroke-linejoin="round"/>
<path d="M1089.74 134.93L1095.65 134.89" stroke="black" stroke-width="2" stroke-linecap="round" stroke-linejoin="round"/>
<path d="M1001.15 139.72L1001.91 131.17L1010.95 139.72L1011.44 129.21" stroke="black" stroke-width="2" stroke-linecap="round" stroke-linejoin="round"/>
<path d="M1024.12 129.21L1017.15 130.15L1015.98 140.8L1023.45 139.72" stroke="black" stroke-width="2" stroke-linecap="round" stroke-linejoin="round"/>
<path d="M1028.64 130.6C1028.64 130.6 1029.64 138.46 1031.32 139.35C1032.38 137.74 1034.83 132.61 1034.83 132.61L1038.51 139.72L1041.41 129.72" stroke="black" stroke-width="2" stroke-linecap="round" stroke-linejoin="round"/>
<path d="M1060.2 129.71C1054.8 129.04 1051.81 133.84 1059.14 134.89C1065 135.73 1060.82 143.31 1052.84 138.8" stroke="black" stroke-width="2" stroke-linecap="round" stroke-linejoin="round"/>
<path d="M1065.63 140.66C1065.63 140.66 1068.27 131.34 1071.63 129.95C1074.8 132.16 1073.56 140.66 1073.56 140.66" stroke="black" stroke-width="2" stroke-linecap="round" stroke-linejoin="round"/>
<path d="M1078.41 130.14C1078.41 130.14 1076.87 138.2 1078.21 139.72C1080.34 139.619 1082.47 139.355 1084.56 138.93" stroke="black" stroke-width="2" stroke-linecap="round" stroke-linejoin="round"/>
<path d="M1097.19 129.64L1090.42 130.14L1088.93 140.66L1096.09 139.72" stroke="black" stroke-width="2" stroke-linecap="round" stroke-linejoin="round"/>
<path d="M1102.51 128.27L1101.91 135.63" stroke="black" stroke-width="2" stroke-linecap="round" stroke-linejoin="round"/>
<path d="M1101.91 141.02C1102.35 141.02 1102.71 140.662 1102.71 140.22C1102.71 139.778 1102.35 139.42 1101.91 139.42C1101.47 139.42 1101.11 139.778 1101.11 140.22C1101.11 140.662 1101.47 141.02 1101.91 141.02Z" stroke="black" stroke-width="2" stroke-linecap="round" stroke-linejoin="round"/>
<path d="M1324.01 212.01H1305.44L1284.16 235.47C1284.12 235.522 1284.07 235.557 1284 235.567C1283.94 235.577 1283.88 235.562 1283.82 235.525C1283.77 235.488 1283.74 235.432 1283.73 235.369C1283.72 235.306 1283.73 235.242 1283.77 235.19L1296.15 212.01H1277.26V175.5H1324.01V212.01Z" fill="white" stroke="black" stroke-width="2" stroke-miterlimit="10"/>
<path d="M1302.86 180.78V204.62" stroke="black" stroke-width="2" stroke-linecap="round" stroke-linejoin="round"/>
<path d="M1295.94 181.4V205.09" stroke="black" stroke-width="2" stroke-linecap="round" stroke-linejoin="round"/>
<path d="M1309.57 186C1302.86 182.58 1294.95 183.69 1291.57 185.3C1288.19 186.91 1286.07 190.3 1291.44 192.7C1296.81 195.1 1309.26 191.7 1311.56 196.64C1314.37 202.74 1304.26 206.5 1290.49 200.84" stroke="black" stroke-width="2" stroke-linecap="round" stroke-linejoin="round"/>
<path d="M1160.51 115.3H1141.94L1120.66 138.76C1120.62 138.801 1120.57 138.828 1120.51 138.833C1120.45 138.839 1120.4 138.825 1120.35 138.792C1120.3 138.759 1120.27 138.711 1120.25 138.656C1120.24 138.6 1120.24 138.541 1120.27 138.49L1132.65 115.3H1113.76V78.7799H1160.51V115.3Z" fill="white" stroke="black" stroke-width="2" stroke-miterlimit="10"/>
<path d="M1139.37 84.0599V107.89" stroke="black" stroke-width="2" stroke-linecap="round" stroke-linejoin="round"/>
<path d="M1132.46 84.6799V108.37" stroke="black" stroke-width="2" stroke-linecap="round" stroke-linejoin="round"/>
<path d="M1146.09 89.3C1139.38 85.89 1131.47 87 1128.09 88.61C1124.71 90.22 1122.6 93.61 1127.97 96.01C1133.34 98.41 1145.79 95.01 1148.09 99.95C1150.9 106.05 1140.79 109.81 1127.02 104.15" stroke="black" stroke-width="2" stroke-linecap="round" stroke-linejoin="round"/>
<path d="M33.0098 109.66H51.5798L72.8498 133.12C72.8892 133.161 72.9422 133.188 72.9992 133.193C73.0562 133.199 73.1134 133.185 73.1605 133.152C73.2076 133.119 73.2414 133.071 73.256 133.016C73.2705 132.96 73.2648 132.901 73.2398 132.85L60.8598 109.66H79.7498V73.1499H33.0098V109.66Z" fill="white" stroke="black" stroke-width="2" stroke-miterlimit="10"/>
<path d="M59.7188 78.4399V102.27" stroke="black" stroke-width="2" stroke-linecap="round" stroke-linejoin="round"/>
<path d="M52.7988 79.0499V102.74" stroke="black" stroke-width="2" stroke-linecap="round" stroke-linejoin="round"/>
<path d="M66.4282 83.6499C59.7182 80.2399 51.8082 81.35 48.4282 82.96C45.0482 84.57 42.9282 87.9599 48.2982 90.3599C53.6682 92.7599 66.1282 89.3599 68.4182 94.2999C71.2282 100.39 61.1282 104.15 47.3482 98.4999" stroke="black" stroke-width="2" stroke-linecap="round" stroke-linejoin="round"/>
<path d="M1280.68 145.3C1296.2 147.14 1300.83 147.14 1304.98 142.41C1311.15 148.41 1324.45 148.78 1331.4 143.76C1337.28 149.76 1343.35 152.25 1353.29 151.19" stroke="black" stroke-width="2" stroke-linecap="round" stroke-linejoin="round"/>
<path d="M1281.9 135.17C1298.77 137.91 1302.97 136.36 1307.07 132.8C1313.07 138.73 1320.76 140.74 1335.54 133.16C1336.85 135.012 1338.52 136.571 1340.47 137.738C1342.41 138.904 1344.58 139.653 1346.83 139.935C1349.08 140.217 1351.36 140.027 1353.53 139.377C1355.7 138.727 1357.71 137.632 1359.44 136.16C1367.74 143.64 1375.44 142.16 1381.97 140.07" stroke="black" stroke-width="2" stroke-linecap="round" stroke-linejoin="round"/>
<path d="M1284.64 128.23C1296.1 130.01 1302.92 128.93 1311.71 122.41C1315.71 130.21 1327.32 131.69 1341.71 123.99C1346.55 136.34 1363.71 126.99 1366.4 125.74C1369.27 132.68 1379.64 130.61 1386.56 127.74C1393.67 134.56 1402.07 130.61 1408.39 129.32C1417.39 134.16 1426.39 128.14 1426.39 128.14" stroke="black" stroke-width="2" stroke-linecap="round" stroke-linejoin="round"/>
<path d="M1413.66 86.9C1417.66 86.9 1423.35 82.33 1423.35 82.33C1423.35 82.33 1428.35 89.6 1440.86 82.33C1445.71 88.2 1451.28 86.18 1456.53 81.49C1461.47 86.93 1466.98 88.37 1473.53 81.49C1474.88 83.44 1476.72 85.01 1478.85 86.0499C1480.98 87.0899 1483.35 87.5651 1485.72 87.43" stroke="black" stroke-width="2" stroke-linecap="round" stroke-linejoin="round"/>
<path d="M1245.01 74.8999H1250.45C1253.88 74.8999 1262.69 70.7499 1262.69 70.7499C1262.69 75.9799 1273.35 77.1899 1284.3 70.3899C1285.52 79.4799 1302.98 70.8199 1302.98 70.8199C1302.12 77.1199 1314.29 74.3299 1319.8 71.1099C1322.45 76.9799 1336.98 72.7399 1336.98 72.7399" stroke="black" stroke-width="2" stroke-linecap="round" stroke-linejoin="round"/>
<path d="M442.598 59.19C442.438 56.32 444.598 53.06 449.768 54.19C451.598 50.49 454.118 50.93 456.148 51.84C457.148 48.93 460.198 46.84 463.748 48.28C465.748 44.39 470.408 44.51 473.438 46.14C476.068 43.39 480.128 44.07 482.438 46.38C484.348 43.47 489.528 43.71 491.758 46.18C494.028 43.47 499.328 43.55 501.878 45.35C504.148 43.71 508.878 44.03 510.248 45.59C511.759 44.3096 513.654 43.5709 515.632 43.4911C517.611 43.4114 519.559 43.9953 521.168 45.15C523.168 42.6 528.658 42.68 531.168 44.95C534.468 41.56 539.338 44.39 539.608 45.07C545.108 41.4 548.258 43.83 549.218 45.07C553.518 42.52 556.748 43.16 558.418 44.99C559.764 43.8638 561.463 43.2468 563.218 43.2468C564.973 43.2468 566.672 43.8638 568.018 44.99C571.848 41.84 576.018 43.47 578.418 44.99C581.608 42.2 585.518 41.68 588.938 44.99C592.488 41.4 597.828 42.64 599.218 44.91C600.973 43.6303 603.102 42.9677 605.273 43.0255C607.444 43.0834 609.534 43.8586 611.218 45.23C615.918 41.4 619.348 44.87 619.938 45.78C621.578 42.6 626.938 43.67 627.628 45.71C630.138 42.16 634.998 45.47 635.478 46.78C638.908 44.71 643.008 46.9 642.928 49.89C646.438 47.89 650.538 50.53 650.148 52.89C655.608 52.41 656.358 55.16 656.438 56.39C660.228 55.92 660.348 58.83 660.348 58.83L442.598 59.19Z" fill="black" stroke="black" stroke-width="2" stroke-miterlimit="10"/>
<path d="M1 59L95.4097 58.92C95.4097 58.92 95.2897 56.01 91.5097 56.48C91.4297 55.25 90.6697 52.48 85.2097 52.98C85.6097 50.63 81.4997 47.98 77.9997 49.98C78.0797 46.98 73.9997 44.8 70.5497 46.87C70.0697 45.56 65.2097 42.25 62.6997 45.8C61.9797 43.8 56.6397 42.69 55.0097 45.87C54.4097 44.96 51.0097 41.49 46.2797 45.32C44.5965 43.947 42.5056 43.1708 40.3343 43.1129C38.1629 43.055 36.0336 43.7187 34.2797 45C32.8797 42.73 27.5397 41.49 23.9997 45.08C20.5697 41.73 16.6697 42.25 13.4797 45.08C11.0097 43.49 6.86969 41.86 3.00969 45.01C2.28969 44.43 2.16 43.82 1 43.5V59Z" fill="black" stroke="black" stroke-width="2" stroke-miterlimit="10"/>
<path d="M341.528 1.68994H237.988V59.1899H341.528V1.68994Z" stroke="black" stroke-width="2" stroke-miterlimit="10"/>
<path d="M242.208 1.68994H237.988V59.1899H242.208V1.68994Z" fill="black" stroke="black" stroke-width="2" stroke-miterlimit="10"/>
<path d="M336.47 1.68994H332.25V59.1899H336.47V1.68994Z" fill="black" stroke="black" stroke-width="2" stroke-miterlimit="10"/>
<path d="M247.398 1.68994V59.1899" stroke="black" stroke-width="2" stroke-miterlimit="10"/>
<path d="M262.059 1.69995V47.2999C264.612 48.6715 267.465 49.3894 270.364 49.3894C273.262 49.3894 276.115 48.6715 278.669 47.2999V1.69995H262.059Z" stroke="black" stroke-width="2" stroke-miterlimit="10"/>
<path d="M308.01 1.68994V42.1399" stroke="black" stroke-width="2" stroke-miterlimit="10"/>
<path d="M296.738 42.61L308.008 11.96L319.528 43.6499L296.738 42.61Z" stroke="black" stroke-width="2" stroke-miterlimit="10"/>
<path d="M317.059 40.6799H297.869C295.196 40.6799 293.029 42.8446 293.029 45.5149C293.029 48.1852 295.196 50.35 297.869 50.35H317.059C319.732 50.35 321.899 48.1852 321.899 45.5149C321.899 42.8446 319.732 40.6799 317.059 40.6799Z" fill="black" stroke="black" stroke-width="2" stroke-miterlimit="10"/>
<path d="M385.469 51.45H359.479V54.34H385.469V51.45Z" stroke="black" stroke-width="2" stroke-miterlimit="10"/>
<path d="M380.699 54.34H359.479V59.1899H380.699V54.34Z" stroke="black" stroke-width="2" stroke-miterlimit="10"/>
<path d="M359.469 51.45L341.529 14.0499H360.389L379.339 51.45" fill="#FFC900"/>
<path d="M359.469 51.45L341.529 14.0499H360.389L379.339 51.45" stroke="black" stroke-width="2" stroke-linecap="round" stroke-linejoin="round"/>
<path d="M361.27 1H352.52V14.5499H361.27V1Z" fill="black" stroke="black" stroke-width="2" stroke-miterlimit="10"/>
<path d="M360.42 2.65991H355.93V13.1399H360.42V2.65991Z" fill="white" stroke="black" stroke-width="2" stroke-miterlimit="10"/>
<path d="M191.01 263.98L184.01 268.22C182.974 267.919 181.875 267.919 180.84 268.22C176.29 261.28 168.22 248.96 166.49 246.12C165.017 243.959 163.974 241.535 163.42 238.98C162.95 237.22 156.27 208.38 156.27 208.38L155.27 282.21H146.01C145.12 281.21 143.96 281.31 142.72 282.59L142.34 264.46C142.34 264.46 140.52 209.69 140.52 203.23C140.52 202.41 140.52 201.45 140.52 200.38L149.52 199.85V192.12L155.64 191.39L155.78 188.08L157.97 187.8L157.88 191.13L163.83 190.36C162.56 193.9 161.46 196.36 161.46 196.36L163.84 197.36L161.39 200.21C163.396 202.159 165.697 203.779 168.21 205.01L170.85 200.28L171.42 200.52C171.42 200.52 176.8 223.52 177.11 224.72C177.42 225.92 180.87 240 181.02 240.59C181.17 241.18 188.27 257.59 191.01 263.98Z" fill="#FF90E8" stroke="black" stroke-width="2" stroke-linecap="round" stroke-linejoin="round"/>
<path d="M161.38 200.2C160.422 199.252 159.598 198.179 158.93 197.01Z" fill="#FF90E8"/>
<path d="M161.38 200.2C160.422 199.252 159.598 198.179 158.93 197.01" stroke="black" stroke-width="2" stroke-linecap="round" stroke-linejoin="round"/>
<path d="M156.25 208.35L151.52 205.56" stroke="black" stroke-width="2" stroke-linecap="round" stroke-linejoin="round"/>
<path d="M724.059 243.44V253.82C724.059 253.82 779.709 290.19 784.539 293.74C790.169 297.89 789.109 301.98 789.299 311.42L791.809 378.95" stroke="#23A094" stroke-width="2" stroke-linejoin="round"/>
</svg>
