<svg width="224" height="160" fill="none" xmlns="http://www.w3.org/2000/svg"><path d="M187.098 40.085c-1.195-10.095-6.372-17.442-14.202-20.133a19.457 19.457 0 0 0-12.828.114 25.155 25.155 0 0 0-11.246-12.851 25.18 25.18 0 0 0-27.868 2.317 25.156 25.156 0 0 0-8.302 12.018l-.671 2.093h-2.407a18.495 18.495 0 0 0-13.363 5.785 20.14 20.14 0 0 0-22.353 1.387 20.12 20.12 0 0 0-7.238 21.181L53.31 69.552a20.138 20.138 0 0 0-12.791 6.987 20.116 20.116 0 0 0 1.1 27.139 20.14 20.14 0 0 0 13.316 5.929l6.547 7.996h-3.074a14.3 14.3 0 0 0-10.09 4.185 14.281 14.281 0 0 0-4.187 10.084v10.573a13.16 13.16 0 0 0 3.86 9.311 13.18 13.18 0 0 0 9.315 3.856h62.017a13.18 13.18 0 0 0 9.316-3.856 13.163 13.163 0 0 0 3.859-9.311v-10.573a14.285 14.285 0 0 0-4.187-10.084 14.3 14.3 0 0 0-10.09-4.185H95.525l-19.85-24.249a20.04 20.04 0 0 0-.36-9.217l1.634-2.16a48.308 48.308 0 0 0 15.945 19.791 48.353 48.353 0 0 0 68.219-11.82c3.952-1.246 7.813-3.678 11.33-7.233 4.866-4.929 9.034-11.96 11.73-19.803 2.696-7.843 3.728-15.95 2.925-22.827Z" fill="#90A8ED" stroke="#000" stroke-miterlimit="10"/><path d="M86.075 53.631a6.963 6.963 0 0 0 6.965-6.961 6.963 6.963 0 0 0-6.965-6.961 6.963 6.963 0 0 0-6.965 6.961 6.963 6.963 0 0 0 6.965 6.961ZM55.91 96.33a6.963 6.963 0 0 0 6.964-6.96 6.963 6.963 0 0 0-6.965-6.962 6.963 6.963 0 0 0-6.965 6.961 6.963 6.963 0 0 0 6.965 6.961Zm3.434-13.065L82.483 52.73M60.24 95.162l28.307 34.577m-30.125.902h59.799c.292 0 .573.116.78.322.206.207.322.487.322.779v10.565H57.319v-10.565a1.102 1.102 0 0 1 1.103-1.101Zm44.899-83.973H93.04m-6.965 6.972v8.87a35.133 35.133 0 0 0 10.3 24.846 35.173 35.173 0 0 0 24.859 10.293v0a35.145 35.145 0 0 0 18.336-5.15 35.11 35.11 0 0 0 12.953-13.955" stroke="#000" stroke-linecap="round" stroke-linejoin="round"/><path d="M171.716 58.434c4.271-12.43 2.881-24.173-3.104-26.226-5.985-2.054-14.299 6.358-18.569 18.788-4.271 12.431-2.881 24.173 3.104 26.226 5.985 2.054 14.299-6.358 18.569-18.788Z" fill="#000" stroke="#000" stroke-linecap="round" stroke-linejoin="round"/><path d="m115.881 54.494-6.201-.048c-3.043 0-5.463-1.756-5.415-4.951.049-3.02 2.372-4.534 5.415-4.534h18.194a4.23 4.23 0 0 0 4.229-4.227 4.216 4.216 0 0 0-1.238-2.988 4.233 4.233 0 0 0-2.991-1.238l-18.229.158a5.347 5.347 0 0 0-5.353 5.346v7.852" stroke="#000" stroke-linecap="round" stroke-linejoin="round"/><path d="m121.621 36.51 3.588-11.21a11.987 11.987 0 0 1 5.936-6.991 12 12 0 0 1 9.144-.752v0a11.991 11.991 0 0 1 7.005 5.927 11.973 11.973 0 0 1 .759 9.14l-9.494 29.662a12.008 12.008 0 0 1-15.081 7.764 11.994 11.994 0 0 1-7.768-15.072l3.192-9.967m12.349-1.421 12.046 3.941" stroke="#000" stroke-linecap="round" stroke-linejoin="round"/><path d="M137.575 26.992a2.977 2.977 0 1 0 .003-5.953 2.977 2.977 0 0 0-.003 5.953Zm10.987 3.261a2.916 2.916 0 0 1-1.497-.084 2.975 2.975 0 0 1 .549-5.784m-17.821-5.115a2.976 2.976 0 0 1-3.514 4.253m5.643 15.42a2.974 2.974 0 0 1 2.178 4.911m5.306 2.288a2.925 2.925 0 0 1 0-1.809 2.98 2.98 0 0 1 5.169-.934m-4.515-5.697a2.977 2.977 0 1 0 .003-5.954 2.977 2.977 0 0 0-.003 5.954Zm-10.394-3.327a2.976 2.976 0 1 0-2.978-2.975 2.977 2.977 0 0 0 2.978 2.975Z" stroke="#000" stroke-linecap="round" stroke-linejoin="round"/></svg>