<svg width="488" height="488" viewBox="0 0 488 488" fill="none" xmlns="http://www.w3.org/2000/svg">
<path d="M10 18C10 13.5817 13.5817 10 18 10H480C484.418 10 488 13.5817 488 18V480C488 484.418 484.418 488 480 488H18C13.5817 488 10 484.418 10 480V18Z" fill="black"/>
<path fill-rule="evenodd" clip-rule="evenodd" d="M480 12H18C14.6863 12 12 14.6863 12 18V480C12 483.314 14.6863 486 18 486H480C483.314 486 486 483.314 486 480V18C486 14.6863 483.314 12 480 12ZM18 10C13.5817 10 10 13.5817 10 18V480C10 484.418 13.5817 488 18 488H480C484.418 488 488 484.418 488 480V18C488 13.5817 484.418 10 480 10H18Z" fill="black"/>
<path d="M0 7.99999C0 3.58172 3.58172 0 8 0H470C474.418 0 478 3.58172 478 8V470C478 474.418 474.418 478 470 478H7.99999C3.58172 478 0 474.418 0 470V7.99999Z" fill="white"/>
<path fill-rule="evenodd" clip-rule="evenodd" d="M470 2H8C4.68629 2 2 4.68629 2 7.99999V470C2 473.314 4.68629 476 7.99999 476H470C473.314 476 476 473.314 476 470V8C476 4.68629 473.314 2 470 2ZM8 0C3.58172 0 0 3.58172 0 7.99999V470C0 474.418 3.58172 478 7.99999 478H470C474.418 478 478 474.418 478 470V8C478 3.58172 474.418 0 470 0H8Z" fill="black"/>
<path d="M59.1519 43.8001V55.0001H67.6319V53.3201H60.9119V43.8001H59.1519Z" fill="black"/>
<path d="M69.2896 47.4161V55.0001H70.9696V47.4161H69.2896ZM69.2096 46.1201H71.0496V44.2801H69.2096V46.1201Z" fill="black"/>
<path d="M73.8079 55.0001H75.4879V48.8561H77.5679V47.4161H75.4879V46.2481C75.4879 45.4961 75.8879 45.0801 76.5279 45.0801C77.2159 45.0801 77.5999 45.4801 77.5999 46.0561C77.5999 46.1681 77.5839 46.2641 77.5679 46.3761H79.1679C79.1839 46.2961 79.1839 46.1681 79.1839 46.0081C79.1839 44.6801 78.3359 43.6401 76.5279 43.6401C74.8639 43.6401 73.8079 44.6801 73.8079 46.2001V47.4161H72.1439V48.8561H73.8079V55.0001Z" fill="black"/>
<path d="M84.4666 52.1201C84.2266 53.1601 83.5066 53.7201 82.4186 53.7201C81.8106 53.7201 81.2826 53.5281 80.8186 53.1601C80.3706 52.7761 80.1466 52.2161 80.1466 51.4801H85.5066C85.5546 51.1921 85.5866 50.9041 85.5866 50.6001C85.5866 48.5361 84.1466 47.2561 82.1626 47.2561C79.9386 47.2561 78.4666 48.9841 78.4666 51.1601C78.4666 53.6081 80.0666 55.1601 82.4026 55.1601C84.1946 55.1601 85.3786 54.2641 85.9066 52.6801L84.4666 52.1201ZM80.1466 50.3601C80.2906 49.3361 81.1066 48.6961 82.1466 48.6961C83.1706 48.6961 83.9226 49.2721 83.9226 50.2161L83.9066 50.3601H80.1466Z" fill="black"/>
<path d="M88.1681 52.6001C88.1681 54.1841 89.0961 55.1601 90.8881 55.1601C92.3441 55.1601 93.3041 54.2801 93.4481 52.7601L91.8481 52.4401C91.7841 53.3201 91.4481 53.7201 90.8081 53.7201C90.2801 53.7201 89.8481 53.3681 89.8481 52.6801V48.8561H92.7281V47.4161H89.8481V45.0001H88.1681V47.4161H86.6481V48.8561H88.1681V52.6001Z" fill="black"/>
<path d="M94.8833 47.4161V55.0001H96.5633V47.4161H94.8833ZM94.8033 46.1201H96.6433V44.2801H94.8033V46.1201Z" fill="black"/>
<path d="M98.6177 47.4161V55.0001H100.298V50.4081C100.298 49.3361 100.81 48.7601 101.578 48.7601C102.33 48.7601 102.858 49.3041 102.858 50.2481V55.0001H104.538V50.2481C104.538 49.3041 105.066 48.7601 105.818 48.7601C106.57 48.7601 107.098 49.3041 107.098 50.2481V55.0001H108.778V49.8801C108.778 48.1681 107.866 47.2561 106.458 47.2561C105.514 47.2561 104.682 47.7681 104.298 48.8401C103.994 47.7681 103.242 47.2561 102.298 47.2561C101.29 47.2561 100.634 47.7201 100.298 48.4881V47.4161H98.6177Z" fill="black"/>
<path d="M116.373 52.1201C116.133 53.1601 115.413 53.7201 114.325 53.7201C113.717 53.7201 113.189 53.5281 112.725 53.1601C112.277 52.7761 112.053 52.2161 112.053 51.4801H117.413C117.461 51.1921 117.493 50.9041 117.493 50.6001C117.493 48.5361 116.053 47.2561 114.069 47.2561C111.845 47.2561 110.373 48.9841 110.373 51.1601C110.373 53.6081 111.973 55.1601 114.309 55.1601C116.101 55.1601 117.285 54.2641 117.813 52.6801L116.373 52.1201ZM112.053 50.3601C112.197 49.3361 113.013 48.6961 114.053 48.6961C115.077 48.6961 115.829 49.2721 115.829 50.2161L115.813 50.3601H112.053Z" fill="black"/>
<path d="M123.165 47.4161V55.0001H124.845V49.9601C124.845 49.1761 125.325 48.6961 126.045 48.6961C126.685 48.6961 127.165 49.1281 127.165 49.7201C127.165 49.9281 127.149 50.1521 127.101 50.3601H128.765C128.845 50.0561 128.877 49.7361 128.877 49.4001C128.877 48.7921 128.669 48.2801 128.253 47.8801C127.837 47.4641 127.309 47.2561 126.685 47.2561C125.789 47.2561 125.149 47.7041 124.845 48.5201V47.4161H123.165Z" fill="black"/>
<path d="M135.888 52.1201C135.648 53.1601 134.928 53.7201 133.84 53.7201C133.232 53.7201 132.704 53.5281 132.24 53.1601C131.792 52.7761 131.568 52.2161 131.568 51.4801H136.928C136.976 51.1921 137.008 50.9041 137.008 50.6001C137.008 48.5361 135.568 47.2561 133.584 47.2561C131.36 47.2561 129.888 48.9841 129.888 51.1601C129.888 53.6081 131.488 55.1601 133.824 55.1601C135.616 55.1601 136.8 54.2641 137.328 52.6801L135.888 52.1201ZM131.568 50.3601C131.712 49.3361 132.528 48.6961 133.568 48.6961C134.592 48.6961 135.344 49.2721 135.344 50.2161L135.328 50.3601H131.568Z" fill="black"/>
<path d="M139.501 47.4161H137.741L140.765 55.0001H142.685L145.709 47.4161H143.949L141.725 53.3201L139.501 47.4161Z" fill="black"/>
<path d="M152.326 52.1201C152.086 53.1601 151.366 53.7201 150.278 53.7201C149.67 53.7201 149.142 53.5281 148.678 53.1601C148.23 52.7761 148.006 52.2161 148.006 51.4801H153.366C153.414 51.1921 153.446 50.9041 153.446 50.6001C153.446 48.5361 152.006 47.2561 150.022 47.2561C147.798 47.2561 146.326 48.9841 146.326 51.1601C146.326 53.6081 147.926 55.1601 150.262 55.1601C152.054 55.1601 153.238 54.2641 153.766 52.6801L152.326 52.1201ZM148.006 50.3601C148.15 49.3361 148.966 48.6961 150.006 48.6961C151.03 48.6961 151.782 49.2721 151.782 50.2161L151.766 50.3601H148.006Z" fill="black"/>
<path d="M156.954 55.0001V50.7761C156.954 49.4801 157.722 48.6961 158.746 48.6961C159.706 48.6961 160.314 49.4001 160.314 50.6161V55.0001H161.994V50.0401C161.994 48.3121 160.922 47.2561 159.338 47.2561C158.33 47.2561 157.482 47.6401 156.954 48.5201V47.4161H155.274V55.0001H156.954Z" fill="black"/>
<path d="M169.16 47.4161V51.4001C169.16 52.8241 168.376 53.7201 167.24 53.7201C166.28 53.7201 165.72 53.0801 165.72 51.8801V47.4161H164.04V52.2801C164.04 54.2001 165.144 55.1601 166.808 55.1601C167.832 55.1601 168.616 54.7121 169.16 53.8001V55.0001H170.84V47.4161H169.16Z" fill="black"/>
<path d="M178.435 52.1201C178.195 53.1601 177.475 53.7201 176.387 53.7201C175.779 53.7201 175.251 53.5281 174.787 53.1601C174.339 52.7761 174.115 52.2161 174.115 51.4801H179.475C179.523 51.1921 179.555 50.9041 179.555 50.6001C179.555 48.5361 178.115 47.2561 176.131 47.2561C173.907 47.2561 172.435 48.9841 172.435 51.1601C172.435 53.6081 174.035 55.1601 176.371 55.1601C178.163 55.1601 179.347 54.2641 179.875 52.6801L178.435 52.1201ZM174.115 50.3601C174.259 49.3361 175.075 48.6961 176.115 48.6961C177.139 48.6961 177.891 49.2721 177.891 50.2161L177.875 50.3601H174.115Z" fill="black"/>
<path d="M185.227 47.4161V55.0001H186.907V50.4081C186.907 49.3361 187.419 48.7601 188.187 48.7601C188.939 48.7601 189.467 49.3041 189.467 50.2481V55.0001H191.147V50.2481C191.147 49.3041 191.675 48.7601 192.427 48.7601C193.179 48.7601 193.707 49.3041 193.707 50.2481V55.0001H195.387V49.8801C195.387 48.1681 194.475 47.2561 193.067 47.2561C192.123 47.2561 191.291 47.7681 190.907 48.8401C190.603 47.7681 189.851 47.2561 188.907 47.2561C187.899 47.2561 187.243 47.7201 186.907 48.4881V47.4161H185.227Z" fill="black"/>
<path d="M197.43 47.4161V55.0001H199.11V47.4161H197.43ZM197.35 46.1201H199.19V44.2801H197.35V46.1201Z" fill="black"/>
<path d="M201.165 55.0001H202.845V43.8001H201.165V55.0001Z" fill="black"/>
<path d="M210.451 52.1201C210.211 53.1601 209.491 53.7201 208.403 53.7201C207.795 53.7201 207.267 53.5281 206.803 53.1601C206.355 52.7761 206.131 52.2161 206.131 51.4801H211.491C211.539 51.1921 211.571 50.9041 211.571 50.6001C211.571 48.5361 210.131 47.2561 208.147 47.2561C205.923 47.2561 204.451 48.9841 204.451 51.1601C204.451 53.6081 206.051 55.1601 208.387 55.1601C210.179 55.1601 211.363 54.2641 211.891 52.6801L210.451 52.1201ZM206.131 50.3601C206.275 49.3361 207.091 48.6961 208.131 48.6961C209.155 48.6961 209.907 49.2721 209.907 50.2161L209.891 50.3601H206.131Z" fill="black"/>
<path d="M212.839 53.0801C213.351 54.3601 214.503 55.1601 216.247 55.1601C217.975 55.1601 219.335 54.1681 219.335 52.7601C219.335 51.4641 218.567 50.6961 216.695 50.4241C215.239 50.2161 214.775 50.0081 214.775 49.4321C214.775 48.9681 215.351 48.6001 216.103 48.6001C216.871 48.6001 217.367 48.9361 217.591 49.6081L218.871 48.9041C218.375 47.8641 217.559 47.2561 216.087 47.2561C214.551 47.2561 213.255 48.1361 213.255 49.4001C213.255 50.6641 214.183 51.3521 215.863 51.6241C217.335 51.8641 217.735 52.1521 217.735 52.8401C217.735 53.3521 217.207 53.7201 216.311 53.7201C215.271 53.7201 214.599 53.3041 214.199 52.3601L212.839 53.0801Z" fill="black"/>
<path d="M221.574 52.6001C221.574 54.1841 222.502 55.1601 224.294 55.1601C225.75 55.1601 226.71 54.2801 226.854 52.7601L225.254 52.4401C225.19 53.3201 224.854 53.7201 224.214 53.7201C223.686 53.7201 223.254 53.3681 223.254 52.6801V48.8561H226.134V47.4161H223.254V45.0001H221.574V47.4161H220.054V48.8561H221.574V52.6001Z" fill="black"/>
<path d="M227.56 51.2081C227.56 53.4481 229.176 55.1601 231.464 55.1601C233.752 55.1601 235.368 53.4481 235.368 51.2081C235.368 48.9681 233.752 47.2561 231.464 47.2561C229.176 47.2561 227.56 48.9681 227.56 51.2081ZM233.688 51.2081C233.688 52.6321 232.744 53.6401 231.464 53.6401C230.184 53.6401 229.24 52.6321 229.24 51.2081C229.24 49.7841 230.184 48.7761 231.464 48.7761C232.744 48.7761 233.688 49.7841 233.688 51.2081Z" fill="black"/>
<path d="M238.641 55.0001V50.7761C238.641 49.4801 239.409 48.6961 240.433 48.6961C241.393 48.6961 242.001 49.4001 242.001 50.6161V55.0001H243.681V50.0401C243.681 48.3121 242.609 47.2561 241.025 47.2561C240.017 47.2561 239.169 47.6401 238.641 48.5201V47.4161H236.961V55.0001H238.641Z" fill="black"/>
<path d="M251.279 52.1201C251.039 53.1601 250.319 53.7201 249.231 53.7201C248.623 53.7201 248.095 53.5281 247.631 53.1601C247.183 52.7761 246.959 52.2161 246.959 51.4801H252.319C252.367 51.1921 252.399 50.9041 252.399 50.6001C252.399 48.5361 250.959 47.2561 248.975 47.2561C246.751 47.2561 245.279 48.9841 245.279 51.1601C245.279 53.6081 246.879 55.1601 249.215 55.1601C251.007 55.1601 252.191 54.2641 252.719 52.6801L251.279 52.1201ZM246.959 50.3601C247.103 49.3361 247.919 48.6961 248.959 48.6961C249.983 48.6961 250.735 49.2721 250.735 50.2161L250.719 50.3601H246.959Z" fill="black"/>
<path d="M253.667 53.0801C254.179 54.3601 255.331 55.1601 257.075 55.1601C258.803 55.1601 260.163 54.1681 260.163 52.7601C260.163 51.4641 259.395 50.6961 257.523 50.4241C256.067 50.2161 255.603 50.0081 255.603 49.4321C255.603 48.9681 256.179 48.6001 256.931 48.6001C257.699 48.6001 258.195 48.9361 258.419 49.6081L259.699 48.9041C259.203 47.8641 258.387 47.2561 256.915 47.2561C255.379 47.2561 254.083 48.1361 254.083 49.4001C254.083 50.6641 255.011 51.3521 256.691 51.6241C258.163 51.8641 258.563 52.1521 258.563 52.8401C258.563 53.3521 258.035 53.7201 257.139 53.7201C256.099 53.7201 255.427 53.3041 255.027 52.3601L253.667 53.0801Z" fill="black"/>
<path d="M71.2479 147.288C73.6239 147.036 75.5319 146.28 76.9719 144.948C78.4479 143.616 79.1679 141.924 79.1679 139.908C79.1679 136.2 76.7199 133.932 71.2479 132.888V124.68C73.3359 125.22 74.7399 126.66 75.4239 129L78.3399 127.416C77.1879 124.14 74.5959 122.124 71.2479 121.584V118.272H68.2599V121.512C63.9039 121.944 61.0599 124.86 61.0599 128.136C61.0599 131.844 63.4719 134.292 68.2599 135.408V144.192C65.1279 143.652 63.0399 141.6 61.9959 137.964L59.0439 139.584C60.4839 144.228 64.0479 146.712 68.2599 147.252V150.528H71.2479V147.288ZM68.2599 132.24C65.6319 131.412 64.2639 130.224 64.2639 128.1C64.2639 126.192 65.8119 124.788 68.2599 124.536V132.24ZM75.9639 140.196C75.9639 142.356 74.2359 143.94 71.2479 144.264V136.02C74.7039 136.848 75.9639 138.072 75.9639 140.196Z" fill="black"/>
<path d="M81.9056 134.4C81.9056 142.284 85.8656 147.36 91.9856 147.36C98.1416 147.36 102.102 142.284 102.102 134.4C102.102 126.516 98.1416 121.44 91.9856 121.44C85.8656 121.44 81.9056 126.516 81.9056 134.4ZM98.9696 134.4C98.9696 137.388 98.3576 139.8 97.1336 141.708C95.9456 143.616 94.2176 144.552 91.9856 144.552C89.7896 144.552 88.0616 143.616 86.8376 141.708C85.6136 139.8 85.0016 137.388 85.0016 134.4C85.0016 131.412 85.6136 129 86.8376 127.092C88.0616 125.184 89.7896 124.248 91.9856 124.248C94.2176 124.248 95.9456 125.184 97.1336 127.092C98.3576 129 98.9696 131.412 98.9696 134.4Z" fill="black"/>
<path d="M71.2479 207.288C73.6239 207.036 75.5319 206.28 76.9719 204.948C78.4479 203.616 79.1679 201.924 79.1679 199.908C79.1679 196.2 76.7199 193.932 71.2479 192.888V184.68C73.3359 185.22 74.7399 186.66 75.4239 189L78.3399 187.416C77.1879 184.14 74.5959 182.124 71.2479 181.584V178.272H68.2599V181.512C63.9039 181.944 61.0599 184.86 61.0599 188.136C61.0599 191.844 63.4719 194.292 68.2599 195.408V204.192C65.1279 203.652 63.0399 201.6 61.9959 197.964L59.0439 199.584C60.4839 204.228 64.0479 206.712 68.2599 207.252V210.528H71.2479V207.288ZM68.2599 192.24C65.6319 191.412 64.2639 190.224 64.2639 188.1C64.2639 186.192 65.8119 184.788 68.2599 184.536V192.24ZM75.9639 200.196C75.9639 202.356 74.2359 203.94 71.2479 204.264V196.02C74.7039 196.848 75.9639 198.072 75.9639 200.196Z" fill="black"/>
<path d="M88.0256 207H91.1576V181.8H88.3856C87.5216 185.256 84.9296 187.308 81.2216 187.704L81.8336 190.908C83.0936 190.8 84.2816 190.368 85.4696 189.612C86.6576 188.856 87.5216 187.884 88.0256 186.732V207Z" fill="black"/>
<path d="M95.0825 210.708C95.6225 210.924 96.1985 211.032 96.8465 211.032C98.9705 211.032 100.014 209.988 100.014 207.936V203.22H96.2705V207H96.9185C97.7465 207 98.2145 207.396 98.2145 208.116C98.2145 208.944 97.6745 209.304 96.8105 209.304C96.3065 209.304 95.8385 209.196 95.4065 208.98L95.0825 210.708Z" fill="black"/>
<path d="M103.878 194.4C103.878 202.284 107.838 207.36 113.958 207.36C120.114 207.36 124.074 202.284 124.074 194.4C124.074 186.516 120.114 181.44 113.958 181.44C107.838 181.44 103.878 186.516 103.878 194.4ZM120.942 194.4C120.942 197.388 120.33 199.8 119.106 201.708C117.918 203.616 116.19 204.552 113.958 204.552C111.762 204.552 110.034 203.616 108.81 201.708C107.586 199.8 106.974 197.388 106.974 194.4C106.974 191.412 107.586 189 108.81 187.092C110.034 185.184 111.762 184.248 113.958 184.248C116.19 184.248 117.918 185.184 119.106 187.092C120.33 189 120.942 191.412 120.942 194.4Z" fill="black"/>
<path d="M126.976 194.4C126.976 202.284 130.936 207.36 137.056 207.36C143.212 207.36 147.172 202.284 147.172 194.4C147.172 186.516 143.212 181.44 137.056 181.44C130.936 181.44 126.976 186.516 126.976 194.4ZM144.04 194.4C144.04 197.388 143.428 199.8 142.204 201.708C141.016 203.616 139.288 204.552 137.056 204.552C134.86 204.552 133.132 203.616 131.908 201.708C130.684 199.8 130.072 197.388 130.072 194.4C130.072 191.412 130.684 189 131.908 187.092C133.132 185.184 134.86 184.248 137.056 184.248C139.288 184.248 141.016 185.184 142.204 187.092C143.428 189 144.04 191.412 144.04 194.4Z" fill="black"/>
<path d="M150.074 194.4C150.074 202.284 154.034 207.36 160.154 207.36C166.31 207.36 170.27 202.284 170.27 194.4C170.27 186.516 166.31 181.44 160.154 181.44C154.034 181.44 150.074 186.516 150.074 194.4ZM167.138 194.4C167.138 197.388 166.526 199.8 165.302 201.708C164.114 203.616 162.386 204.552 160.154 204.552C157.958 204.552 156.23 203.616 155.006 201.708C153.782 199.8 153.17 197.388 153.17 194.4C153.17 191.412 153.782 189 155.006 187.092C156.23 185.184 157.958 184.248 160.154 184.248C162.386 184.248 164.114 185.184 165.302 187.092C166.526 189 167.138 191.412 167.138 194.4Z" fill="black"/>
<path d="M71.2479 267.288C73.6239 267.036 75.5319 266.28 76.9719 264.948C78.4479 263.616 79.1679 261.924 79.1679 259.908C79.1679 256.2 76.7199 253.932 71.2479 252.888V244.68C73.3359 245.22 74.7399 246.66 75.4239 249L78.3399 247.416C77.1879 244.14 74.5959 242.124 71.2479 241.584V238.272H68.2599V241.512C63.9039 241.944 61.0599 244.86 61.0599 248.136C61.0599 251.844 63.4719 254.292 68.2599 255.408V264.192C65.1279 263.652 63.0399 261.6 61.9959 257.964L59.0439 259.584C60.4839 264.228 64.0479 266.712 68.2599 267.252V270.528H71.2479V267.288ZM68.2599 252.24C65.6319 251.412 64.2639 250.224 64.2639 248.1C64.2639 246.192 65.8119 244.788 68.2599 244.536V252.24ZM75.9639 260.196C75.9639 262.356 74.2359 263.94 71.2479 264.264V256.02C74.7039 256.848 75.9639 258.072 75.9639 260.196Z" fill="black"/>
<path d="M88.0256 267H91.1576V241.8H88.3856C87.5216 245.256 84.9296 247.308 81.2216 247.704L81.8336 250.908C83.0936 250.8 84.2816 250.368 85.4696 249.612C86.6576 248.856 87.5216 247.884 88.0256 246.732V267Z" fill="black"/>
<path d="M95.3705 254.4C95.3705 262.284 99.3305 267.36 105.45 267.36C111.606 267.36 115.566 262.284 115.566 254.4C115.566 246.516 111.606 241.44 105.45 241.44C99.3305 241.44 95.3705 246.516 95.3705 254.4ZM112.434 254.4C112.434 257.388 111.822 259.8 110.598 261.708C109.41 263.616 107.682 264.552 105.45 264.552C103.254 264.552 101.526 263.616 100.302 261.708C99.0785 259.8 98.4665 257.388 98.4665 254.4C98.4665 251.412 99.0785 249 100.302 247.092C101.526 245.184 103.254 244.248 105.45 244.248C107.682 244.248 109.41 245.184 110.598 247.092C111.822 249 112.434 251.412 112.434 254.4Z" fill="black"/>
<path d="M118.18 270.708C118.72 270.924 119.296 271.032 119.944 271.032C122.068 271.032 123.112 269.988 123.112 267.936V263.22H119.368V267H120.016C120.844 267 121.312 267.396 121.312 268.116C121.312 268.944 120.772 269.304 119.908 269.304C119.404 269.304 118.936 269.196 118.504 268.98L118.18 270.708Z" fill="black"/>
<path d="M126.976 254.4C126.976 262.284 130.936 267.36 137.056 267.36C143.212 267.36 147.172 262.284 147.172 254.4C147.172 246.516 143.212 241.44 137.056 241.44C130.936 241.44 126.976 246.516 126.976 254.4ZM144.04 254.4C144.04 257.388 143.428 259.8 142.204 261.708C141.016 263.616 139.288 264.552 137.056 264.552C134.86 264.552 133.132 263.616 131.908 261.708C130.684 259.8 130.072 257.388 130.072 254.4C130.072 251.412 130.684 249 131.908 247.092C133.132 245.184 134.86 244.248 137.056 244.248C139.288 244.248 141.016 245.184 142.204 247.092C143.428 249 144.04 251.412 144.04 254.4Z" fill="black"/>
<path d="M150.074 254.4C150.074 262.284 154.034 267.36 160.154 267.36C166.31 267.36 170.27 262.284 170.27 254.4C170.27 246.516 166.31 241.44 160.154 241.44C154.034 241.44 150.074 246.516 150.074 254.4ZM167.138 254.4C167.138 257.388 166.526 259.8 165.302 261.708C164.114 263.616 162.386 264.552 160.154 264.552C157.958 264.552 156.23 263.616 155.006 261.708C153.782 259.8 153.17 257.388 153.17 254.4C153.17 251.412 153.782 249 155.006 247.092C156.23 245.184 157.958 244.248 160.154 244.248C162.386 244.248 164.114 245.184 165.302 247.092C166.526 249 167.138 251.412 167.138 254.4Z" fill="black"/>
<path d="M173.171 254.4C173.171 262.284 177.131 267.36 183.251 267.36C189.407 267.36 193.367 262.284 193.367 254.4C193.367 246.516 189.407 241.44 183.251 241.44C177.131 241.44 173.171 246.516 173.171 254.4ZM190.235 254.4C190.235 257.388 189.623 259.8 188.399 261.708C187.211 263.616 185.483 264.552 183.251 264.552C181.055 264.552 179.327 263.616 178.103 261.708C176.879 259.8 176.267 257.388 176.267 254.4C176.267 251.412 176.879 249 178.103 247.092C179.327 245.184 181.055 244.248 183.251 244.248C185.483 244.248 187.211 245.184 188.399 247.092C189.623 249 190.235 251.412 190.235 254.4Z" fill="black"/>
<path d="M71.2479 327.288C73.6239 327.036 75.5319 326.28 76.9719 324.948C78.4479 323.616 79.1679 321.924 79.1679 319.908C79.1679 316.2 76.7199 313.932 71.2479 312.888V304.68C73.3359 305.22 74.7399 306.66 75.4239 309L78.3399 307.416C77.1879 304.14 74.5959 302.124 71.2479 301.584V298.272H68.2599V301.512C63.9039 301.944 61.0599 304.86 61.0599 308.136C61.0599 311.844 63.4719 314.292 68.2599 315.408V324.192C65.1279 323.652 63.0399 321.6 61.9959 317.964L59.0439 319.584C60.4839 324.228 64.0479 326.712 68.2599 327.252V330.528H71.2479V327.288ZM68.2599 312.24C65.6319 311.412 64.2639 310.224 64.2639 308.1C64.2639 306.192 65.8119 304.788 68.2599 304.536V312.24ZM75.9639 320.196C75.9639 322.356 74.2359 323.94 71.2479 324.264V316.02C74.7039 316.848 75.9639 318.072 75.9639 320.196Z" fill="black"/>
<path d="M88.0256 327H91.1576V301.8H88.3856C87.5216 305.256 84.9296 307.308 81.2216 307.704L81.8336 310.908C83.0936 310.8 84.2816 310.368 85.4696 309.612C86.6576 308.856 87.5216 307.884 88.0256 306.732V327Z" fill="black"/>
<path d="M95.3705 314.4C95.3705 322.284 99.3305 327.36 105.45 327.36C111.606 327.36 115.566 322.284 115.566 314.4C115.566 306.516 111.606 301.44 105.45 301.44C99.3305 301.44 95.3705 306.516 95.3705 314.4ZM112.434 314.4C112.434 317.388 111.822 319.8 110.598 321.708C109.41 323.616 107.682 324.552 105.45 324.552C103.254 324.552 101.526 323.616 100.302 321.708C99.0785 319.8 98.4665 317.388 98.4665 314.4C98.4665 311.412 99.0785 309 100.302 307.092C101.526 305.184 103.254 304.248 105.45 304.248C107.682 304.248 109.41 305.184 110.598 307.092C111.822 309 112.434 311.412 112.434 314.4Z" fill="black"/>
<path d="M118.468 314.4C118.468 322.284 122.428 327.36 128.548 327.36C134.704 327.36 138.664 322.284 138.664 314.4C138.664 306.516 134.704 301.44 128.548 301.44C122.428 301.44 118.468 306.516 118.468 314.4ZM135.532 314.4C135.532 317.388 134.92 319.8 133.696 321.708C132.508 323.616 130.78 324.552 128.548 324.552C126.352 324.552 124.624 323.616 123.4 321.708C122.176 319.8 121.564 317.388 121.564 314.4C121.564 311.412 122.176 309 123.4 307.092C124.624 305.184 126.352 304.248 128.548 304.248C130.78 304.248 132.508 305.184 133.696 307.092C134.92 309 135.532 311.412 135.532 314.4Z" fill="black"/>
<path d="M141.278 330.708C141.818 330.924 142.394 331.032 143.042 331.032C145.166 331.032 146.21 329.988 146.21 327.936V323.22H142.466V327H143.114C143.942 327 144.41 327.396 144.41 328.116C144.41 328.944 143.87 329.304 143.006 329.304C142.502 329.304 142.034 329.196 141.602 328.98L141.278 330.708Z" fill="black"/>
<path d="M150.074 314.4C150.074 322.284 154.034 327.36 160.154 327.36C166.31 327.36 170.27 322.284 170.27 314.4C170.27 306.516 166.31 301.44 160.154 301.44C154.034 301.44 150.074 306.516 150.074 314.4ZM167.138 314.4C167.138 317.388 166.526 319.8 165.302 321.708C164.114 323.616 162.386 324.552 160.154 324.552C157.958 324.552 156.23 323.616 155.006 321.708C153.782 319.8 153.17 317.388 153.17 314.4C153.17 311.412 153.782 309 155.006 307.092C156.23 305.184 157.958 304.248 160.154 304.248C162.386 304.248 164.114 305.184 165.302 307.092C166.526 309 167.138 311.412 167.138 314.4Z" fill="black"/>
<path d="M173.171 314.4C173.171 322.284 177.131 327.36 183.251 327.36C189.407 327.36 193.367 322.284 193.367 314.4C193.367 306.516 189.407 301.44 183.251 301.44C177.131 301.44 173.171 306.516 173.171 314.4ZM190.235 314.4C190.235 317.388 189.623 319.8 188.399 321.708C187.211 323.616 185.483 324.552 183.251 324.552C181.055 324.552 179.327 323.616 178.103 321.708C176.879 319.8 176.267 317.388 176.267 314.4C176.267 311.412 176.879 309 178.103 307.092C179.327 305.184 181.055 304.248 183.251 304.248C185.483 304.248 187.211 305.184 188.399 307.092C189.623 309 190.235 311.412 190.235 314.4Z" fill="black"/>
<path d="M196.269 314.4C196.269 322.284 200.229 327.36 206.349 327.36C212.505 327.36 216.465 322.284 216.465 314.4C216.465 306.516 212.505 301.44 206.349 301.44C200.229 301.44 196.269 306.516 196.269 314.4ZM213.333 314.4C213.333 317.388 212.721 319.8 211.497 321.708C210.309 323.616 208.581 324.552 206.349 324.552C204.153 324.552 202.425 323.616 201.201 321.708C199.977 319.8 199.365 317.388 199.365 314.4C199.365 311.412 199.977 309 201.201 307.092C202.425 305.184 204.153 304.248 206.349 304.248C208.581 304.248 210.309 305.184 211.497 307.092C212.721 309 213.333 311.412 213.333 314.4Z" fill="black"/>
<path d="M71.2479 387.288C73.6239 387.036 75.5319 386.28 76.9719 384.948C78.4479 383.616 79.1679 381.924 79.1679 379.908C79.1679 376.2 76.7199 373.932 71.2479 372.888V364.68C73.3359 365.22 74.7399 366.66 75.4239 369L78.3399 367.416C77.1879 364.14 74.5959 362.124 71.2479 361.584V358.272H68.2599V361.512C63.9039 361.944 61.0599 364.86 61.0599 368.136C61.0599 371.844 63.4719 374.292 68.2599 375.408V384.192C65.1279 383.652 63.0399 381.6 61.9959 377.964L59.0439 379.584C60.4839 384.228 64.0479 386.712 68.2599 387.252V390.528H71.2479V387.288ZM68.2599 372.24C65.6319 371.412 64.2639 370.224 64.2639 368.1C64.2639 366.192 65.8119 364.788 68.2599 364.536V372.24ZM75.9639 380.196C75.9639 382.356 74.2359 383.94 71.2479 384.264V376.02C74.7039 376.848 75.9639 378.072 75.9639 380.196Z" fill="black"/>
<path d="M88.0256 387H91.1576V361.8H88.3856C87.5216 365.256 84.9296 367.308 81.2216 367.704L81.8336 370.908C83.0936 370.8 84.2816 370.368 85.4696 369.612C86.6576 368.856 87.5216 367.884 88.0256 366.732V387Z" fill="black"/>
<path d="M95.0825 390.708C95.6225 390.924 96.1985 391.032 96.8465 391.032C98.9705 391.032 100.014 389.988 100.014 387.936V383.22H96.2705V387H96.9185C97.7465 387 98.2145 387.396 98.2145 388.116C98.2145 388.944 97.6745 389.304 96.8105 389.304C96.3065 389.304 95.8385 389.196 95.4065 388.98L95.0825 390.708Z" fill="black"/>
<path d="M103.878 374.4C103.878 382.284 107.838 387.36 113.958 387.36C120.114 387.36 124.074 382.284 124.074 374.4C124.074 366.516 120.114 361.44 113.958 361.44C107.838 361.44 103.878 366.516 103.878 374.4ZM120.942 374.4C120.942 377.388 120.33 379.8 119.106 381.708C117.918 383.616 116.19 384.552 113.958 384.552C111.762 384.552 110.034 383.616 108.81 381.708C107.586 379.8 106.974 377.388 106.974 374.4C106.974 371.412 107.586 369 108.81 367.092C110.034 365.184 111.762 364.248 113.958 364.248C116.19 364.248 117.918 365.184 119.106 367.092C120.33 369 120.942 371.412 120.942 374.4Z" fill="black"/>
<path d="M126.976 374.4C126.976 382.284 130.936 387.36 137.056 387.36C143.212 387.36 147.172 382.284 147.172 374.4C147.172 366.516 143.212 361.44 137.056 361.44C130.936 361.44 126.976 366.516 126.976 374.4ZM144.04 374.4C144.04 377.388 143.428 379.8 142.204 381.708C141.016 383.616 139.288 384.552 137.056 384.552C134.86 384.552 133.132 383.616 131.908 381.708C130.684 379.8 130.072 377.388 130.072 374.4C130.072 371.412 130.684 369 131.908 367.092C133.132 365.184 134.86 364.248 137.056 364.248C139.288 364.248 141.016 365.184 142.204 367.092C143.428 369 144.04 371.412 144.04 374.4Z" fill="black"/>
<path d="M150.074 374.4C150.074 382.284 154.034 387.36 160.154 387.36C166.31 387.36 170.27 382.284 170.27 374.4C170.27 366.516 166.31 361.44 160.154 361.44C154.034 361.44 150.074 366.516 150.074 374.4ZM167.138 374.4C167.138 377.388 166.526 379.8 165.302 381.708C164.114 383.616 162.386 384.552 160.154 384.552C157.958 384.552 156.23 383.616 155.006 381.708C153.782 379.8 153.17 377.388 153.17 374.4C153.17 371.412 153.782 369 155.006 367.092C156.23 365.184 157.958 364.248 160.154 364.248C162.386 364.248 164.114 365.184 165.302 367.092C166.526 369 167.138 371.412 167.138 374.4Z" fill="black"/>
<path d="M172.883 390.708C173.423 390.924 173.999 391.032 174.647 391.032C176.771 391.032 177.815 389.988 177.815 387.936V383.22H174.071V387H174.719C175.547 387 176.015 387.396 176.015 388.116C176.015 388.944 175.475 389.304 174.611 389.304C174.107 389.304 173.639 389.196 173.207 388.98L172.883 390.708Z" fill="black"/>
<path d="M181.679 374.4C181.679 382.284 185.639 387.36 191.759 387.36C197.915 387.36 201.875 382.284 201.875 374.4C201.875 366.516 197.915 361.44 191.759 361.44C185.639 361.44 181.679 366.516 181.679 374.4ZM198.743 374.4C198.743 377.388 198.131 379.8 196.907 381.708C195.719 383.616 193.991 384.552 191.759 384.552C189.563 384.552 187.835 383.616 186.611 381.708C185.387 379.8 184.775 377.388 184.775 374.4C184.775 371.412 185.387 369 186.611 367.092C187.835 365.184 189.563 364.248 191.759 364.248C193.991 364.248 195.719 365.184 196.907 367.092C198.131 369 198.743 371.412 198.743 374.4Z" fill="black"/>
<path d="M204.777 374.4C204.777 382.284 208.737 387.36 214.857 387.36C221.013 387.36 224.973 382.284 224.973 374.4C224.973 366.516 221.013 361.44 214.857 361.44C208.737 361.44 204.777 366.516 204.777 374.4ZM221.841 374.4C221.841 377.388 221.229 379.8 220.005 381.708C218.817 383.616 217.089 384.552 214.857 384.552C212.661 384.552 210.933 383.616 209.709 381.708C208.485 379.8 207.873 377.388 207.873 374.4C207.873 371.412 208.485 369 209.709 367.092C210.933 365.184 212.661 364.248 214.857 364.248C217.089 364.248 218.817 365.184 220.005 367.092C221.229 369 221.841 371.412 221.841 374.4Z" fill="black"/>
<path d="M227.874 374.4C227.874 382.284 231.834 387.36 237.954 387.36C244.11 387.36 248.07 382.284 248.07 374.4C248.07 366.516 244.11 361.44 237.954 361.44C231.834 361.44 227.874 366.516 227.874 374.4ZM244.938 374.4C244.938 377.388 244.326 379.8 243.102 381.708C241.914 383.616 240.186 384.552 237.954 384.552C235.758 384.552 234.03 383.616 232.806 381.708C231.582 379.8 230.97 377.388 230.97 374.4C230.97 371.412 231.582 369 232.806 367.092C234.03 365.184 235.758 364.248 237.954 364.248C240.186 364.248 241.914 365.184 243.102 367.092C244.326 369 244.938 371.412 244.938 374.4Z" fill="black"/>
<path d="M329.958 55.1598C331.862 55.1598 333.222 54.3118 334.022 52.6158V54.9998H335.526V49.0798H328.518V50.7598H333.366C333.142 51.9918 332.102 53.4798 330.118 53.4798C327.942 53.4798 326.278 51.7838 326.278 49.3998C326.278 46.9678 327.99 45.3198 330.086 45.3198C331.99 45.3198 333.302 46.2478 333.686 48.1198L335.446 47.5598C335.142 46.3918 334.534 45.4478 333.606 44.7278C332.694 44.0078 331.494 43.6398 330.038 43.6398C326.886 43.5758 324.39 46.1838 324.438 49.3998C324.39 52.7118 326.806 55.2078 329.958 55.1598Z" fill="black"/>
<path d="M342.566 47.4158V51.3998C342.566 52.8238 341.782 53.7198 340.646 53.7198C339.686 53.7198 339.126 53.0798 339.126 51.8798V47.4158H337.446V52.2798C337.446 54.1998 338.55 55.1598 340.214 55.1598C341.238 55.1598 342.022 54.7118 342.566 53.7998V54.9998H344.246V47.4158H342.566Z" fill="black"/>
<path d="M346.29 47.4158V54.9998H347.97V50.4078C347.97 49.3358 348.482 48.7598 349.25 48.7598C350.002 48.7598 350.53 49.3038 350.53 50.2478V54.9998H352.21V50.2478C352.21 49.3038 352.738 48.7598 353.49 48.7598C354.242 48.7598 354.77 49.3038 354.77 50.2478V54.9998H356.45V49.8798C356.45 48.1678 355.538 47.2558 354.13 47.2558C353.186 47.2558 352.354 47.7678 351.97 48.8398C351.666 47.7678 350.914 47.2558 349.97 47.2558C348.962 47.2558 348.306 47.7198 347.97 48.4878V47.4158H346.29Z" fill="black"/>
<path d="M358.493 47.4158V54.9998H360.173V49.9598C360.173 49.1758 360.653 48.6958 361.373 48.6958C362.013 48.6958 362.493 49.1278 362.493 49.7198C362.493 49.9278 362.477 50.1518 362.429 50.3598H364.093C364.173 50.0558 364.205 49.7358 364.205 49.3998C364.205 48.7918 363.997 48.2798 363.581 47.8798C363.165 47.4638 362.637 47.2558 362.013 47.2558C361.117 47.2558 360.477 47.7038 360.173 48.5198V47.4158H358.493Z" fill="black"/>
<path d="M365.217 51.2078C365.217 53.4478 366.833 55.1598 369.121 55.1598C371.409 55.1598 373.025 53.4478 373.025 51.2078C373.025 48.9678 371.409 47.2558 369.121 47.2558C366.833 47.2558 365.217 48.9678 365.217 51.2078ZM371.345 51.2078C371.345 52.6318 370.401 53.6398 369.121 53.6398C367.841 53.6398 366.897 52.6318 366.897 51.2078C366.897 49.7838 367.841 48.7758 369.121 48.7758C370.401 48.7758 371.345 49.7838 371.345 51.2078Z" fill="black"/>
<path d="M374.314 52.8398C374.314 54.2958 375.562 55.1598 376.81 55.1598C378.154 55.1598 379.018 54.5678 379.354 53.7198V54.9998H380.954V50.2798C380.954 48.3598 379.754 47.2558 377.594 47.2558C375.738 47.2558 374.57 48.2318 374.234 49.7198L375.754 50.1198C375.93 49.2078 376.586 48.6158 377.594 48.6158C378.602 48.6158 379.354 49.1918 379.354 50.1998V50.7598L378.554 50.5678C378.122 50.4558 377.674 50.4078 377.21 50.4078C375.53 50.4078 374.314 51.1918 374.314 52.8398ZM379.354 52.1198C379.354 53.1278 378.586 53.7198 377.482 53.7198C376.522 53.7198 376.074 53.2718 376.074 52.6798C376.074 51.9918 376.634 51.6718 377.482 51.6718C377.786 51.6718 378.202 51.7358 378.746 51.8798L379.354 52.0398V52.1198Z" fill="black"/>
<path d="M382.56 51.2558C382.56 53.5118 383.952 55.1598 386.08 55.1598C387.216 55.1598 388.16 54.6318 388.624 53.7198V54.9998H390.24V43.7998H388.56V48.7598C388.128 47.8478 387.248 47.2558 386.08 47.2558C383.952 47.2558 382.56 48.9358 382.56 51.2558ZM388.624 51.2558C388.624 52.7438 387.584 53.6718 386.432 53.6718C385.808 53.6718 385.296 53.4478 384.864 53.0158C384.448 52.5678 384.24 51.9758 384.24 51.2558C384.24 49.7998 385.232 48.7758 386.432 48.7758C387.584 48.7758 388.624 49.7678 388.624 51.2558Z" fill="black"/>
<path d="M396.917 54.9998H398.597V48.8558H400.677V47.4158H398.597V46.2478C398.597 45.4958 398.997 45.0798 399.637 45.0798C400.325 45.0798 400.709 45.4798 400.709 46.0558C400.709 46.1678 400.693 46.2638 400.677 46.3758H402.277C402.293 46.2958 402.293 46.1678 402.293 46.0078C402.293 44.6798 401.445 43.6398 399.637 43.6398C397.973 43.6398 396.917 44.6798 396.917 46.1998V47.4158H395.253V48.8558H396.917V54.9998Z" fill="black"/>
<path d="M407.576 52.1198C407.336 53.1598 406.616 53.7198 405.528 53.7198C404.92 53.7198 404.392 53.5278 403.928 53.1598C403.48 52.7758 403.256 52.2158 403.256 51.4798H408.616C408.664 51.1918 408.696 50.9038 408.696 50.5998C408.696 48.5358 407.256 47.2558 405.272 47.2558C403.048 47.2558 401.576 48.9838 401.576 51.1598C401.576 53.6078 403.176 55.1598 405.512 55.1598C407.304 55.1598 408.488 54.2638 409.016 52.6798L407.576 52.1198ZM403.256 50.3598C403.4 49.3358 404.216 48.6958 405.256 48.6958C406.28 48.6958 407.032 49.2718 407.032 50.2158L407.016 50.3598H403.256Z" fill="black"/>
<path d="M416.076 52.1198C415.836 53.1598 415.116 53.7198 414.028 53.7198C413.42 53.7198 412.892 53.5278 412.428 53.1598C411.98 52.7758 411.756 52.2158 411.756 51.4798H417.116C417.164 51.1918 417.196 50.9038 417.196 50.5998C417.196 48.5358 415.756 47.2558 413.772 47.2558C411.548 47.2558 410.076 48.9838 410.076 51.1598C410.076 53.6078 411.676 55.1598 414.012 55.1598C415.804 55.1598 416.988 54.2638 417.516 52.6798L416.076 52.1198ZM411.756 50.3598C411.9 49.3358 412.716 48.6958 413.756 48.6958C414.78 48.6958 415.532 49.2718 415.532 50.2158L415.516 50.3598H411.756Z" fill="black"/>
<path d="M376.616 147.36C383.816 147.36 386.3 140.88 386.3 134.328C386.3 127.344 383.708 121.44 376.616 121.44C371.9 121.44 368.228 124.86 368.228 129.936C368.228 134.328 371.36 138 376.544 138C379.82 138 382.304 136.02 383.384 133.212C383.384 133.644 383.42 134.04 383.42 134.508C383.384 141.132 380.648 144.444 376.796 144.444C373.376 144.444 371.252 142.572 370.892 139.008L367.832 139.908C368.3 143.904 371.432 147.36 376.616 147.36ZM376.796 135.192C373.736 135.192 371.36 133.212 371.36 129.828C371.36 126.552 373.592 124.248 376.796 124.248C380.036 124.248 382.268 126.552 382.268 129.72C382.268 133.032 379.892 135.192 376.796 135.192Z" fill="black"/>
<path d="M395.47 134.184C399.322 134.184 401.842 131.448 401.842 127.812C401.842 124.176 399.322 121.44 395.47 121.44C391.654 121.44 389.134 124.176 389.134 127.812C389.134 131.448 391.654 134.184 395.47 134.184ZM395.47 131.7C393.31 131.7 391.834 130.116 391.834 127.812C391.834 125.508 393.31 123.924 395.47 123.924C397.666 123.924 399.142 125.508 399.142 127.812C399.142 130.116 397.666 131.7 395.47 131.7ZM394.678 143.976L412.642 126.768L410.806 124.896L392.842 142.104L394.678 143.976ZM410.302 147.36C414.118 147.36 416.638 144.624 416.638 140.988C416.638 137.352 414.118 134.616 410.302 134.616C406.45 134.616 403.93 137.352 403.93 140.988C403.93 144.624 406.45 147.36 410.302 147.36ZM410.302 144.876C408.106 144.876 406.63 143.292 406.63 140.988C406.63 138.684 408.106 137.1 410.302 137.1C412.462 137.1 413.938 138.684 413.938 140.988C413.938 143.292 412.462 144.876 410.302 144.876Z" fill="black"/>
<path d="M370.111 181.8V184.716H382.207C377.635 188.748 374.935 194.436 374.935 201.888C374.935 203.76 375.043 205.344 375.259 207H378.679C378.391 204.912 378.247 202.968 378.247 201.132C378.247 193.068 381.559 187.776 386.527 184.356V181.8H370.111Z" fill="black"/>
<path d="M395.47 194.184C399.322 194.184 401.842 191.448 401.842 187.812C401.842 184.176 399.322 181.44 395.47 181.44C391.654 181.44 389.134 184.176 389.134 187.812C389.134 191.448 391.654 194.184 395.47 194.184ZM395.47 191.7C393.31 191.7 391.834 190.116 391.834 187.812C391.834 185.508 393.31 183.924 395.47 183.924C397.666 183.924 399.142 185.508 399.142 187.812C399.142 190.116 397.666 191.7 395.47 191.7ZM394.678 203.976L412.642 186.768L410.806 184.896L392.842 202.104L394.678 203.976ZM410.302 207.36C414.118 207.36 416.638 204.624 416.638 200.988C416.638 197.352 414.118 194.616 410.302 194.616C406.45 194.616 403.93 197.352 403.93 200.988C403.93 204.624 406.45 207.36 410.302 207.36ZM410.302 204.876C408.106 204.876 406.63 203.292 406.63 200.988C406.63 198.684 408.106 197.1 410.302 197.1C412.462 197.1 413.938 198.684 413.938 200.988C413.938 203.292 412.462 204.876 410.302 204.876Z" fill="black"/>
<path d="M385.148 241.8H369.344C369.344 246.12 369.02 250.368 368.264 255.336L371.576 256.092C372.404 254.292 374.708 252.744 377.264 252.744C381.26 252.744 383.168 255.3 383.168 258.54C383.168 261.78 381.116 264.444 377.048 264.444C373.52 264.444 371.504 262.392 371 259.08L367.976 259.944C368.624 264.876 372.476 267.36 377.048 267.36C382.808 267.36 386.3 263.508 386.3 258.18C386.3 252.924 382.556 249.936 377.984 249.936C375.068 249.936 372.728 251.232 371.36 252.816C371.9 250.08 372.26 247.02 372.26 244.716H385.148V241.8Z" fill="black"/>
<path d="M395.47 254.184C399.322 254.184 401.842 251.448 401.842 247.812C401.842 244.176 399.322 241.44 395.47 241.44C391.654 241.44 389.134 244.176 389.134 247.812C389.134 251.448 391.654 254.184 395.47 254.184ZM395.47 251.7C393.31 251.7 391.834 250.116 391.834 247.812C391.834 245.508 393.31 243.924 395.47 243.924C397.666 243.924 399.142 245.508 399.142 247.812C399.142 250.116 397.666 251.7 395.47 251.7ZM394.678 263.976L412.642 246.768L410.806 244.896L392.842 262.104L394.678 263.976ZM410.302 267.36C414.118 267.36 416.638 264.624 416.638 260.988C416.638 257.352 414.118 254.616 410.302 254.616C406.45 254.616 403.93 257.352 403.93 260.988C403.93 264.624 406.45 267.36 410.302 267.36ZM410.302 264.876C408.106 264.876 406.63 263.292 406.63 260.988C406.63 258.684 408.106 257.1 410.302 257.1C412.462 257.1 413.938 258.684 413.938 260.988C413.938 263.292 412.462 264.876 410.302 264.876Z" fill="black"/>
<path d="M377.279 327.36C382.319 327.36 386.207 323.94 386.207 318.648C386.207 313.644 382.499 310.872 378.683 310.872C378.215 310.872 377.711 310.908 377.351 310.98L385.235 304.176V301.8H369.071V304.716H380.483L371.987 312.204L373.787 314.436C374.579 313.716 375.947 313.176 377.387 313.176C380.735 313.176 383.111 315.264 383.111 318.864C383.111 322.356 380.447 324.444 377.279 324.444C373.679 324.444 371.411 322.104 370.979 318.756L367.991 320.088C368.855 324.228 372.167 327.36 377.279 327.36Z" fill="black"/>
<path d="M395.47 314.184C399.322 314.184 401.842 311.448 401.842 307.812C401.842 304.176 399.322 301.44 395.47 301.44C391.654 301.44 389.134 304.176 389.134 307.812C389.134 311.448 391.654 314.184 395.47 314.184ZM395.47 311.7C393.31 311.7 391.834 310.116 391.834 307.812C391.834 305.508 393.31 303.924 395.47 303.924C397.666 303.924 399.142 305.508 399.142 307.812C399.142 310.116 397.666 311.7 395.47 311.7ZM394.678 323.976L412.642 306.768L410.806 304.896L392.842 322.104L394.678 323.976ZM410.302 327.36C414.118 327.36 416.638 324.624 416.638 320.988C416.638 317.352 414.118 314.616 410.302 314.616C406.45 314.616 403.93 317.352 403.93 320.988C403.93 324.624 406.45 327.36 410.302 327.36ZM410.302 324.876C408.106 324.876 406.63 323.292 406.63 320.988C406.63 318.684 408.106 317.1 410.302 317.1C412.462 317.1 413.938 318.684 413.938 320.988C413.938 323.292 412.462 324.876 410.302 324.876Z" fill="black"/>
<path d="M338.875 387H356.083V384.084H342.763C343.195 381.276 346.507 379.728 349.891 377.964C353.635 376.056 356.047 373.716 356.047 369.36C356.047 364.788 352.879 361.44 347.263 361.44C341.791 361.44 338.335 365.148 338.335 369.54C338.335 371.376 338.911 373.248 340.243 374.976L342.907 373.248C342.007 372.132 341.503 370.8 341.503 369.324C341.503 366.624 343.771 364.248 347.119 364.248C350.719 364.248 352.915 366.444 352.915 369.504C352.915 373.176 350.215 374.688 345.859 376.884C342.079 378.756 338.875 381.456 338.875 387Z" fill="black"/>
<path d="M360.189 383.22V387H363.933V383.22H360.189Z" fill="black"/>
<path d="M376.616 387.36C383.816 387.36 386.3 380.88 386.3 374.328C386.3 367.344 383.708 361.44 376.616 361.44C371.9 361.44 368.228 364.86 368.228 369.936C368.228 374.328 371.36 378 376.544 378C379.82 378 382.304 376.02 383.384 373.212C383.384 373.644 383.42 374.04 383.42 374.508C383.384 381.132 380.648 384.444 376.796 384.444C373.376 384.444 371.252 382.572 370.892 379.008L367.832 379.908C368.3 383.904 371.432 387.36 376.616 387.36ZM376.796 375.192C373.736 375.192 371.36 373.212 371.36 369.828C371.36 366.552 373.592 364.248 376.796 364.248C380.036 364.248 382.268 366.552 382.268 369.72C382.268 373.032 379.892 375.192 376.796 375.192Z" fill="black"/>
<path d="M395.47 374.184C399.322 374.184 401.842 371.448 401.842 367.812C401.842 364.176 399.322 361.44 395.47 361.44C391.654 361.44 389.134 364.176 389.134 367.812C389.134 371.448 391.654 374.184 395.47 374.184ZM395.47 371.7C393.31 371.7 391.834 370.116 391.834 367.812C391.834 365.508 393.31 363.924 395.47 363.924C397.666 363.924 399.142 365.508 399.142 367.812C399.142 370.116 397.666 371.7 395.47 371.7ZM394.678 383.976L412.642 366.768L410.806 364.896L392.842 382.104L394.678 383.976ZM410.302 387.36C414.118 387.36 416.638 384.624 416.638 380.988C416.638 377.352 414.118 374.616 410.302 374.616C406.45 374.616 403.93 377.352 403.93 380.988C403.93 384.624 406.45 387.36 410.302 387.36ZM410.302 384.876C408.106 384.876 406.63 383.292 406.63 380.988C406.63 378.684 408.106 377.1 410.302 377.1C412.462 377.1 413.938 378.684 413.938 380.988C413.938 383.292 412.462 384.876 410.302 384.876Z" fill="black"/>
<path d="M250.909 420.268V421.332H253.457V423.88H254.521V421.332H257.083V420.268H254.521V417.706H253.457V420.268H250.909Z" fill="black"/>
<path d="M262.17 425.14C264.13 425.14 265.642 423.81 265.642 421.752C265.642 419.806 264.2 418.728 262.716 418.728C262.534 418.728 262.338 418.742 262.198 418.77L265.264 416.124V415.2H258.978V416.334H263.416L260.112 419.246L260.812 420.114C261.12 419.834 261.652 419.624 262.212 419.624C263.514 419.624 264.438 420.436 264.438 421.836C264.438 423.194 263.402 424.006 262.17 424.006C260.77 424.006 259.888 423.096 259.72 421.794L258.558 422.312C258.894 423.922 260.182 425.14 262.17 425.14Z" fill="black"/>
<path d="M271.022 425.14C273.43 425.14 274.956 423.18 274.956 420.1C274.956 417.02 273.43 415.06 271.022 415.06C268.628 415.06 267.102 417.02 267.102 420.1C267.102 423.18 268.628 425.14 271.022 425.14ZM271.022 424.048C269.244 424.048 268.306 422.326 268.306 420.1C268.306 417.874 269.244 416.152 271.022 416.152C272.814 416.152 273.738 417.874 273.738 420.1C273.738 422.326 272.814 424.048 271.022 424.048Z" fill="black"/>
<path d="M283.057 422.494L281.979 422.088C281.769 423.096 281.279 423.894 280.201 424.048V419.344C280.971 419.54 281.461 420.114 281.629 420.954L282.735 420.618C282.455 419.274 281.517 418.434 280.201 418.266V416.992H279.067V418.28C277.541 418.546 276.323 419.834 276.323 421.64C276.323 423.488 277.387 424.79 279.067 425.084V426.372H280.201V425.126C281.643 424.986 282.707 424.062 283.057 422.494ZM277.499 421.64C277.499 420.338 278.269 419.61 279.067 419.372V423.964C278.199 423.67 277.499 422.844 277.499 421.64Z" fill="black"/>
<path d="M291.372 425.14C293.388 425.14 294.746 423.642 294.746 421.682C294.746 419.722 293.402 418.224 291.372 418.224C289.356 418.224 288.012 419.722 288.012 421.682C288.012 423.642 289.356 425.14 291.372 425.14ZM291.372 424.048C290.14 424.048 289.244 423.082 289.244 421.682C289.244 420.296 290.14 419.316 291.372 419.316C292.618 419.316 293.5 420.296 293.5 421.682C293.5 423.082 292.618 424.048 291.372 424.048Z" fill="black"/>
<path d="M297.681 425V421.36C297.681 420.044 298.507 419.288 299.473 419.288C300.411 419.288 300.985 419.876 300.985 421.052V425H302.203V420.688C302.203 419.106 301.251 418.224 299.865 418.224C298.927 418.224 298.143 418.672 297.681 419.442V418.364H296.477V425H297.681Z" fill="black"/>
<path d="M311.01 424.076C309.918 424.076 308.91 423.376 308.896 421.864H313.698C313.754 421.612 313.782 421.346 313.782 421.052C313.782 419.288 312.578 418.224 310.828 418.224C308.91 418.224 307.664 419.75 307.664 421.64C307.664 423.81 309.064 425.14 311.01 425.14C312.606 425.14 313.544 424.286 313.978 422.998L312.928 422.592C312.676 423.516 312.06 424.076 311.01 424.076ZM310.814 419.288C311.752 419.288 312.592 419.792 312.592 420.8C312.592 420.87 312.578 420.926 312.578 420.996H308.896C309.036 419.932 309.806 419.288 310.814 419.288Z" fill="black"/>
<path d="M317.609 425.14C318.701 425.14 319.555 424.65 319.891 423.95V425H321.053V420.842C321.053 419.218 320.045 418.224 318.225 418.224C316.629 418.224 315.621 419.078 315.369 420.31L316.461 420.618C316.629 419.764 317.273 419.246 318.225 419.246C319.177 419.246 319.891 419.75 319.891 420.744V421.43L319.289 421.262C318.841 421.122 318.337 421.052 317.875 421.052C316.545 421.052 315.411 421.668 315.411 423.11C315.411 424.384 316.419 425.14 317.609 425.14ZM318.015 424.076C317.119 424.076 316.657 423.642 316.657 423.04C316.657 422.326 317.203 421.99 318.043 421.99C318.407 421.99 318.813 422.06 319.275 422.2L319.891 422.382V422.522C319.891 423.516 319.093 424.076 318.015 424.076Z" fill="black"/>
<path d="M323.974 421.64C323.974 420.03 325.15 419.288 326.116 419.288C327.208 419.288 327.894 419.918 328.104 420.954L329.21 420.618C328.888 419.092 327.726 418.224 326.13 418.224C324.352 418.224 322.798 419.61 322.798 421.64C322.798 423.74 324.184 425.14 326.284 425.14C327.922 425.14 329.154 424.202 329.532 422.494L328.454 422.088C328.216 423.222 327.628 424.076 326.256 424.076C325.094 424.076 323.974 423.166 323.974 421.64Z" fill="black"/>
<path d="M332.386 425V421.57C332.386 420.184 333.226 419.26 334.29 419.26C335.284 419.26 335.872 419.834 335.872 420.982V425H337.09V420.702C337.09 419.204 336.18 418.224 334.724 418.224C333.632 418.224 332.764 418.826 332.386 419.764V415.2H331.182V425H332.386Z" fill="black"/>
<path d="M345.809 425.14C346.943 425.14 347.685 424.482 347.881 423.292L346.761 423.04C346.649 423.768 346.327 424.076 345.767 424.076C345.263 424.076 344.857 423.754 344.857 423.082V419.386H347.237V418.364H344.857V416.306H343.639V418.364H342.323V419.386H343.639V423.026C343.639 424.342 344.395 425.14 345.809 425.14Z" fill="black"/>
<path d="M349.412 418.364V425H350.616V420.772C350.616 419.876 351.092 419.288 351.848 419.288C352.492 419.288 352.912 419.652 352.912 420.282C352.912 420.464 352.898 420.576 352.87 420.772H354.046C354.102 420.548 354.13 420.338 354.13 420.03C354.13 419.064 353.43 418.224 352.31 418.224C351.484 418.224 350.91 418.644 350.616 419.33V418.364H349.412Z" fill="black"/>
<path d="M357.721 425.14C358.813 425.14 359.667 424.65 360.003 423.95V425H361.165V420.842C361.165 419.218 360.157 418.224 358.337 418.224C356.741 418.224 355.733 419.078 355.481 420.31L356.573 420.618C356.741 419.764 357.385 419.246 358.337 419.246C359.289 419.246 360.003 419.75 360.003 420.744V421.43L359.401 421.262C358.953 421.122 358.449 421.052 357.987 421.052C356.657 421.052 355.523 421.668 355.523 423.11C355.523 424.384 356.531 425.14 357.721 425.14ZM358.127 424.076C357.231 424.076 356.769 423.642 356.769 423.04C356.769 422.326 357.315 421.99 358.155 421.99C358.519 421.99 358.925 422.06 359.387 422.2L360.003 422.382V422.522C360.003 423.516 359.205 424.076 358.127 424.076Z" fill="black"/>
<path d="M364.52 425V421.36C364.52 420.044 365.346 419.288 366.312 419.288C367.25 419.288 367.824 419.876 367.824 421.052V425H369.042V420.688C369.042 419.106 368.09 418.224 366.704 418.224C365.766 418.224 364.982 418.672 364.52 419.442V418.364H363.316V425H364.52Z" fill="black"/>
<path d="M373.634 425.14C375.118 425.14 376.294 424.3 376.294 423.04C376.294 421.976 375.594 421.29 373.97 421.066C372.696 420.884 372.192 420.646 372.192 420.058C372.192 419.526 372.766 419.204 373.48 419.204C374.166 419.204 374.712 419.526 374.936 420.212L375.874 419.694C375.496 418.812 374.796 418.224 373.48 418.224C372.122 418.224 371.086 418.966 371.086 420.044C371.086 421.15 371.926 421.738 373.368 421.948C374.768 422.144 375.118 422.508 375.118 423.11C375.118 423.698 374.558 424.076 373.69 424.076C372.682 424.076 372.094 423.67 371.716 422.746L370.722 423.264C371.1 424.356 372.08 425.14 373.634 425.14Z" fill="black"/>
<path d="M379.944 425.14C381.036 425.14 381.89 424.65 382.226 423.95V425H383.388V420.842C383.388 419.218 382.38 418.224 380.56 418.224C378.964 418.224 377.956 419.078 377.704 420.31L378.796 420.618C378.964 419.764 379.608 419.246 380.56 419.246C381.512 419.246 382.226 419.75 382.226 420.744V421.43L381.624 421.262C381.176 421.122 380.672 421.052 380.21 421.052C378.88 421.052 377.746 421.668 377.746 423.11C377.746 424.384 378.754 425.14 379.944 425.14ZM380.35 424.076C379.454 424.076 378.992 423.642 378.992 423.04C378.992 422.326 379.538 421.99 380.378 421.99C380.742 421.99 381.148 422.06 381.61 422.2L382.226 422.382V422.522C382.226 423.516 381.428 424.076 380.35 424.076Z" fill="black"/>
<path d="M386.309 421.64C386.309 420.03 387.485 419.288 388.451 419.288C389.543 419.288 390.229 419.918 390.439 420.954L391.545 420.618C391.223 419.092 390.061 418.224 388.465 418.224C386.687 418.224 385.133 419.61 385.133 421.64C385.133 423.74 386.519 425.14 388.619 425.14C390.257 425.14 391.489 424.202 391.867 422.494L390.789 422.088C390.551 423.222 389.963 424.076 388.591 424.076C387.429 424.076 386.309 423.166 386.309 421.64Z" fill="black"/>
<path d="M396.236 425.14C397.37 425.14 398.112 424.482 398.308 423.292L397.188 423.04C397.076 423.768 396.754 424.076 396.194 424.076C395.69 424.076 395.284 423.754 395.284 423.082V419.386H397.664V418.364H395.284V416.306H394.066V418.364H392.75V419.386H394.066V423.026C394.066 424.342 394.822 425.14 396.236 425.14Z" fill="black"/>
<path d="M399.851 417.132H401.195V415.718H399.851V417.132ZM399.921 418.364V425H401.125V418.364H399.921Z" fill="black"/>
<path d="M406.231 425.14C408.247 425.14 409.605 423.642 409.605 421.682C409.605 419.722 408.261 418.224 406.231 418.224C404.215 418.224 402.871 419.722 402.871 421.682C402.871 423.642 404.215 425.14 406.231 425.14ZM406.231 424.048C404.999 424.048 404.103 423.082 404.103 421.682C404.103 420.296 404.999 419.316 406.231 419.316C407.477 419.316 408.359 420.296 408.359 421.682C408.359 423.082 407.477 424.048 406.231 424.048Z" fill="black"/>
<path d="M412.54 425V421.36C412.54 420.044 413.367 419.288 414.333 419.288C415.271 419.288 415.844 419.876 415.844 421.052V425H417.062V420.688C417.062 419.106 416.111 418.224 414.725 418.224C413.787 418.224 413.002 418.672 412.54 419.442V418.364H411.337V425H412.54Z" fill="black"/>
<path fill-rule="evenodd" clip-rule="evenodd" d="M478 86L8.74228e-08 86L0 85L478 85L478 86Z" fill="black"/>
</svg>
