<svg width="525" height="524" viewBox="0 0 525 524" fill="none" xmlns="http://www.w3.org/2000/svg">
<path d="M523.959 261.527C523.959 285.885 520.604 309.468 514.325 331.834C513.65 334.248 512.939 336.641 512.192 339.024C510.65 343.97 508.965 348.848 507.135 353.661C506.156 356.249 505.13 358.817 504.073 361.364C502.883 364.214 501.646 367.039 500.352 369.838C497.342 376.411 494.053 382.831 490.517 389.097C458.024 446.642 404.227 490.639 339.776 510.478C315.89 517.837 290.535 521.874 264.263 522.048C263.67 522.054 263.072 522.054 262.48 522.054C198.997 522.054 140.794 499.513 95.5015 462.023C86.7647 454.792 78.5125 447.006 70.786 438.717C27.4784 392.229 1 329.959 1 261.527C1 243.023 2.93807 224.966 6.61834 207.551C7.89664 201.512 9.38112 195.544 11.0718 189.664C36.746 100.334 109.083 30.643 200.126 8.45184C204.456 7.39903 208.827 6.44893 213.234 5.61696C229.182 2.58692 245.645 1 262.48 1C284.01 1 304.937 3.59351 324.957 8.48265C328.549 9.36085 332.116 10.3109 335.652 11.3381C385.83 25.8823 429.777 55.0066 462.565 93.7962C466.626 98.5981 470.513 103.549 474.219 108.638C492.852 134.204 506.929 163.271 515.269 194.666C516.578 199.591 517.743 204.572 518.763 209.605C522.171 226.384 523.959 243.747 523.959 261.527Z" fill="#FFC900"/>
<path d="M474.219 108.638C473.868 113.805 472.848 119.541 470.441 124.482H430.623C430.623 124.482 441.318 107.919 440.416 93.7963H462.565C466.626 98.5981 470.513 103.549 474.219 108.638Z" fill="#FFC900" stroke="black" stroke-width="2" stroke-miterlimit="10" stroke-linecap="round" stroke-linejoin="round"/>
<path d="M428.689 158.762C428.689 158.762 430.365 174.94 421.86 184.055H456.137C456.137 184.055 467.477 173.014 467.09 158.762H428.689Z" fill="#F1F333" stroke="black" stroke-width="2" stroke-miterlimit="10" stroke-linecap="round" stroke-linejoin="round"/>
<path d="M365.615 225.397H410.072C410.072 225.397 414.649 217.822 414.969 204.084C415.288 190.347 411.876 183.09 411.876 183.09H369.867C369.867 183.095 373.882 204.244 365.615 225.397Z" fill="#F1F333" stroke="black" stroke-width="2" stroke-miterlimit="10" stroke-linecap="round" stroke-linejoin="round"/>
<path d="M444.328 166.122C444.328 166.122 448.411 162.527 450.168 164.581C451.926 166.635 451.674 170.703 447.72 171.299C443.767 171.894 440.762 168.993 444.328 166.122Z" fill="#E2442F" stroke="black" stroke-width="2" stroke-miterlimit="10" stroke-linecap="round" stroke-linejoin="round"/>
<path d="M450.297 113.096C450.297 113.096 456.653 113.738 459.019 114.339C461.379 114.94 464.132 114.94 464.132 114.94" stroke="black" stroke-width="2" stroke-miterlimit="10" stroke-linecap="round" stroke-linejoin="round"/>
<path d="M448.065 107.365C448.065 107.365 450.772 105.737 451.503 105.269C452.235 104.797 452.405 107.236 455.498 106.553C458.591 105.87 461.467 105.567 461.467 105.567" stroke="black" stroke-width="2" stroke-miterlimit="10" stroke-linecap="round" stroke-linejoin="round"/>
<path d="M378.563 211.531C378.563 211.531 382.109 211.726 385.326 211.018C388.542 210.309 390.351 210.273 393.057 211.285C395.763 212.296 396.794 213.056 398.341 211.552C399.887 210.052 401.629 212.296 402.145 214.094" stroke="black" stroke-width="2" stroke-miterlimit="10" stroke-linecap="round" stroke-linejoin="round"/>
<path d="M379.898 200.32C379.898 200.32 385.784 194.501 386.728 194.671C387.671 194.84 389.135 199.976 390.166 199.462C391.196 198.949 392.959 196.253 393.732 196.807C394.506 197.362 395.021 201.342 396.14 200.315C397.258 199.288 397.129 198.261 399.66 199.714C402.196 201.167 407.093 200.87 407.093 200.87" stroke="black" stroke-width="2" stroke-miterlimit="10" stroke-linecap="round" stroke-linejoin="round"/>
<path d="M30.7668 181.96H84.1153C84.1153 181.96 90.3883 167.411 93.048 151.829C95.7128 136.253 94.4242 131.97 94.4242 131.97H43.3952C43.3952 131.97 44.9416 151.829 30.7668 181.96Z" fill="#FFC900" stroke="black" stroke-width="2" stroke-miterlimit="10" stroke-linecap="round" stroke-linejoin="round"/>
<path d="M29.9111 224.329H83.8627C83.8627 224.329 97.4343 204.213 95.2901 176.655H39.5293C39.5293 176.65 37.983 203.499 29.9111 224.329Z" fill="#F1F333" stroke="black" stroke-width="2" stroke-miterlimit="10" stroke-linecap="round" stroke-linejoin="round"/>
<path d="M47.8641 218.937H97.5168C97.5168 218.937 92.017 251.461 93.1355 265.414H49.2351C49.2403 265.414 44.1683 241.02 47.8641 218.937Z" fill="#F1F333" stroke="black" stroke-width="2" stroke-miterlimit="10" stroke-linecap="round" stroke-linejoin="round"/>
<path d="M31.6688 255.569H78.8319C78.8319 255.569 73.9352 284.458 77.8011 302.047H33.4729C33.4729 302.047 20.0713 291.648 31.6688 255.569Z" fill="#FFC900" stroke="black" stroke-width="2" stroke-miterlimit="10" stroke-linecap="round" stroke-linejoin="round"/>
<path d="M56.3691 159.445C56.3691 159.445 64.7451 159.358 68.1831 158.033C71.6211 156.708 72.1778 159.486 73.4252 158.033C74.6725 156.58 75.8323 158.891 75.8323 158.891" stroke="black" stroke-width="2" stroke-miterlimit="10" stroke-linecap="round" stroke-linejoin="round"/>
<path d="M51.5598 148.917C51.5598 148.917 53.4515 146.349 54.3071 145.281C55.1679 144.213 56.7967 148.491 57.9152 147.099C59.0338 145.707 60.3636 145.322 61.3945 147.012C62.4254 148.701 61.6934 148.363 64.8737 147.207C68.054 146.051 71.8322 147.207 73.6363 148.147C75.4403 149.087 79.3938 147.762 82.1411 148.06" stroke="black" stroke-width="2" stroke-miterlimit="10" stroke-linecap="round" stroke-linejoin="round"/>
<path d="M53.1577 191.826C53.1577 191.826 55.1576 189.001 56.9617 187.846C58.7657 186.69 59.9564 189.289 62.1161 190.701C64.2758 192.113 66.3995 187.974 68.4973 187.558C70.5952 187.142 72.5229 189.694 72.5229 189.694" stroke="black" stroke-width="2" stroke-miterlimit="10" stroke-linecap="round" stroke-linejoin="round"/>
<path d="M47.1323 201.327C47.1323 201.327 48.7096 202.867 51.127 202.415C53.5444 201.963 55.3485 202.991 57.1526 203.247C58.9566 203.504 60.0854 202.061 62.7606 203.088C65.4357 204.115 71.8118 202.893 71.8118 202.893" stroke="black" stroke-width="2" stroke-miterlimit="10" stroke-linecap="round" stroke-linejoin="round"/>
<path d="M57.5083 236.696C57.5083 236.696 60.7298 233.81 62.0184 233.039C63.307 232.269 65.24 236.763 67.111 235.992C68.9821 235.222 72.5232 232.567 74.4561 234.827C76.389 237.086 81.6723 236.701 81.6723 236.701" stroke="black" stroke-width="2" stroke-miterlimit="10" stroke-linecap="round" stroke-linejoin="round"/>
<path d="M62.7244 247.224C62.7244 247.224 66.0129 246.135 68.652 246.068C71.291 246.002 70.8426 245.812 73.7446 245.617C76.6465 245.421 80.8319 245.617 80.8319 245.617" stroke="black" stroke-width="2" stroke-miterlimit="10" stroke-linecap="round" stroke-linejoin="round"/>
<path d="M37.6841 279.748C37.6841 279.748 39.2304 278.891 40.2201 277.951C41.2097 277.011 42.4983 278.552 43.9158 279.748C45.3333 280.945 46.9672 278.505 49.328 279.579C51.6887 280.647 52.6784 277.786 54.6525 278.875C56.6267 279.964 60.7966 279.877 60.7966 279.877" stroke="black" stroke-width="2" stroke-miterlimit="10" stroke-linecap="round" stroke-linejoin="round"/>
<path d="M36.2666 268.111C36.2666 268.111 37.9006 267.428 38.5861 267.253C39.2716 267.084 40.818 268.665 42.9674 268.111C45.1168 267.556 47.6064 267.366 49.1115 268.229C50.6166 269.092 53.6216 266.755 55.8535 267.243" stroke="black" stroke-width="2" stroke-miterlimit="10" stroke-linecap="round" stroke-linejoin="round"/>
<path d="M254.985 139.463C254.985 139.463 262.588 128.334 269.933 123.542C277.278 118.75 284.236 117.595 284.623 122.387C285.01 127.178 273.541 138.328 254.985 139.463Z" fill="white" stroke="black" stroke-width="2" stroke-miterlimit="10" stroke-linecap="round" stroke-linejoin="round"/>
<path d="M251.186 187.717C251.186 187.717 260.655 178.345 267.484 173.466C274.314 168.587 284.948 163.965 286.298 167.498C287.649 171.031 272.706 183.028 251.186 187.717Z" fill="white" stroke="black" stroke-width="2" stroke-miterlimit="10" stroke-linecap="round" stroke-linejoin="round"/>
<path d="M262.33 201.84C262.33 201.84 274.763 194.712 283.783 191.507C292.803 188.303 298.86 188.939 298.86 191.959C298.86 194.979 281.597 202.159 262.33 201.84Z" fill="white" stroke="black" stroke-width="2" stroke-miterlimit="10" stroke-linecap="round" stroke-linejoin="round"/>
<path d="M260.207 224.18C260.207 224.18 270.387 217.504 277.86 215.511C285.334 213.519 292.489 214.546 292.612 217.114C292.736 219.682 281.402 224.951 260.207 224.18Z" fill="white" stroke="black" stroke-width="2" stroke-miterlimit="10" stroke-linecap="round" stroke-linejoin="round"/>
<path d="M109.243 405.531V389.097" stroke="black" stroke-width="2" stroke-miterlimit="10" stroke-linecap="round" stroke-linejoin="round"/>
<path d="M309.797 438.722V389.097" stroke="black" stroke-width="2" stroke-miterlimit="10" stroke-linecap="round" stroke-linejoin="round"/>
<path d="M154.344 358.668L156.664 369.838H140.814C139.953 362.304 143.206 352.022 143.206 352.022L155.303 347.59L155.319 347.585C155.319 347.585 155.324 347.585 155.329 347.585C155.427 347.57 155.53 347.549 155.628 347.523C155.927 347.452 156.231 347.349 156.525 347.215C156.721 347.133 156.916 347.036 157.112 346.923C157.396 346.763 157.679 346.584 157.952 346.388C158.045 346.327 158.133 346.26 158.226 346.188C158.313 346.127 158.401 346.055 158.489 345.983C158.576 345.916 158.664 345.844 158.746 345.772C159.421 345.207 160.019 344.596 160.473 344.083C160.53 344.021 160.586 343.954 160.638 343.898C160.849 343.651 161.03 343.435 161.159 343.271C161.195 343.23 161.226 343.189 161.251 343.153C161.36 343.02 161.427 342.927 161.452 342.896C161.427 343.148 161.396 343.446 161.36 343.78C161.339 343.959 161.323 344.154 161.303 344.36C161.236 345.079 161.164 345.916 161.102 346.815C161.092 347.025 161.076 347.236 161.066 347.446C161.025 348.027 160.994 348.628 160.973 349.234C160.963 349.511 160.952 349.783 160.947 350.06V350.076C160.942 350.281 160.937 350.487 160.937 350.687C160.932 351.031 160.932 351.375 160.937 351.714C160.937 351.981 160.942 352.238 160.947 352.5C160.958 352.772 160.968 353.039 160.983 353.301C160.999 353.532 161.014 353.763 161.035 353.984C161.045 354.128 161.055 354.267 161.076 354.4C161.097 354.621 161.122 354.831 161.153 355.037C161.169 355.14 161.184 355.248 161.205 355.35C161.241 355.556 161.282 355.751 161.329 355.936C161.396 356.208 161.473 356.46 161.561 356.68C162.978 360.209 165.426 357.384 166.648 353.722C167.875 350.066 168.199 339.712 168.199 339.712C168.246 339.866 168.287 340.02 168.328 340.179C168.906 342.491 169.55 351.411 170.839 355.586C172.127 359.762 174.318 357.512 174.962 353.979C175.081 353.316 175.24 352.382 175.416 351.298C175.441 351.139 175.467 350.98 175.493 350.815C175.581 350.266 175.673 349.686 175.766 349.085C175.797 348.884 175.833 348.684 175.859 348.479C175.869 348.438 175.874 348.402 175.88 348.361C175.911 348.186 175.936 348.006 175.962 347.832C175.983 347.693 176.003 347.559 176.024 347.426C176.06 347.215 176.091 347.005 176.122 346.799C176.137 346.686 176.153 346.578 176.173 346.471C176.22 346.163 176.266 345.854 176.313 345.551C176.426 344.796 176.539 344.067 176.642 343.379C176.679 343.127 176.715 342.881 176.751 342.645C176.818 342.188 176.885 341.761 176.941 341.371C176.988 341.083 177.029 340.816 177.06 340.575C177.06 340.57 177.06 340.56 177.065 340.554C177.075 340.493 177.086 340.431 177.091 340.375C177.112 340.246 177.127 340.123 177.142 340.01C177.168 339.876 177.184 339.753 177.199 339.645C177.209 339.568 177.22 339.496 177.23 339.435C177.246 339.348 177.256 339.276 177.261 339.229C177.261 339.214 177.266 339.199 177.266 339.183C177.266 339.178 177.271 339.178 177.271 339.178C177.266 339.235 177.266 339.291 177.266 339.347C177.266 339.512 177.266 339.671 177.261 339.835C177.251 340.503 177.23 341.155 177.215 341.787C177.153 344.673 177.668 357.641 180.184 357.769C182.694 357.897 185.271 346.789 185.271 346.789C185.271 346.789 187.266 352.829 188.364 355.458C189.152 357.353 191.152 358.385 192.25 358.668H154.344V358.668Z" fill="#F1F333"/>
<path d="M221.626 303.234C220.997 301.996 220.347 300.681 219.677 299.284C212.523 284.391 205.374 262.955 205.374 262.955C205.374 262.955 205.374 262.955 205.368 262.955C205.044 263.052 204.719 263.145 204.389 263.237C204.224 263.283 204.054 263.335 203.884 263.376C203.709 263.427 203.539 263.473 203.363 263.514C203.219 263.55 203.075 263.591 202.93 263.627C202.889 263.643 202.843 263.653 202.802 263.663C202.503 263.74 202.204 263.817 201.905 263.889C201.899 263.889 201.889 263.894 201.884 263.894C201.472 263.997 201.059 264.095 200.642 264.187C200.152 264.305 199.662 264.413 199.168 264.511C199.054 264.541 198.936 264.562 198.827 264.583C198.807 264.588 198.791 264.593 198.771 264.593C198.513 264.649 198.255 264.701 197.998 264.747C197.003 264.947 195.998 265.127 194.982 265.281C195.049 265.63 195.106 265.985 195.152 266.339C195.163 266.462 195.178 266.585 195.194 266.704C195.209 266.832 195.219 266.966 195.23 267.094C195.245 267.284 195.255 267.474 195.266 267.664C195.271 267.751 195.276 267.844 195.276 267.936C195.286 268.316 195.286 268.696 195.271 269.081C195.271 269.169 195.266 269.256 195.261 269.348C195.255 269.477 195.245 269.6 195.24 269.723C195.23 269.852 195.219 269.975 195.209 270.103C195.209 270.124 195.204 270.15 195.204 270.175C195.178 270.401 195.152 270.627 195.121 270.853C195.106 270.966 195.09 271.079 195.075 271.192C195.039 271.413 194.998 271.639 194.951 271.86C194.951 271.86 194.956 271.86 194.951 271.865C194.926 272.004 194.895 272.142 194.864 272.276C194.833 272.414 194.802 272.553 194.766 272.692C194.735 272.83 194.699 272.969 194.657 273.103C194.596 273.334 194.529 273.555 194.456 273.781C194.405 273.95 194.348 274.119 194.286 274.289C194.173 274.592 194.06 274.89 193.931 275.188C193.9 275.265 193.869 275.337 193.833 275.414C193.786 275.522 193.735 275.624 193.688 275.732C193.596 275.932 193.498 276.128 193.395 276.323C193.24 276.621 193.075 276.908 192.9 277.191C192.786 277.381 192.663 277.571 192.539 277.75C192.441 277.889 192.348 278.023 192.25 278.156C192.152 278.29 192.049 278.423 191.946 278.552C191.946 278.552 191.951 278.552 191.946 278.557C191.843 278.685 191.74 278.813 191.632 278.937C191.524 279.065 191.415 279.188 191.302 279.307C191.116 279.512 190.926 279.707 190.725 279.897C190.529 280.087 190.323 280.272 190.111 280.447C189.941 280.59 189.766 280.724 189.591 280.857C189.415 280.991 189.23 281.114 189.044 281.238C188.766 281.417 188.482 281.592 188.184 281.751C187.988 281.859 187.787 281.962 187.58 282.054C187.39 282.141 187.194 282.229 186.993 282.311C186.797 282.393 186.596 282.465 186.39 282.532C186.287 282.568 186.184 282.604 186.075 282.634C185.972 282.665 185.864 282.696 185.761 282.727C185.72 282.742 185.678 282.753 185.632 282.763C185.488 282.804 185.338 282.84 185.189 282.871C185.075 282.896 184.962 282.922 184.849 282.943C184.735 282.963 184.617 282.984 184.503 283.004C184.323 283.035 184.142 283.061 183.962 283.081C183.833 283.102 183.704 283.117 183.575 283.127L183.374 283.143C183.235 283.153 183.096 283.158 182.952 283.169C181.385 283.24 179.679 283.045 177.839 282.532C177.653 282.48 177.473 282.424 177.292 282.367C177.112 282.316 176.937 282.254 176.761 282.193C176.601 282.136 176.442 282.08 176.282 282.018C176.122 281.962 175.967 281.9 175.808 281.833C175.653 281.772 175.504 281.705 175.349 281.638C175.086 281.525 174.834 281.407 174.581 281.279C174.483 281.227 174.385 281.176 174.287 281.13C174.096 281.032 173.906 280.929 173.72 280.822C173.359 280.616 173.014 280.406 172.674 280.18C172.488 280.061 172.313 279.938 172.133 279.81C172.091 279.784 172.055 279.753 172.014 279.728C171.828 279.589 171.653 279.455 171.473 279.317C171.359 279.229 171.246 279.142 171.133 279.05C171.019 278.957 170.911 278.865 170.803 278.772C170.256 278.31 169.741 277.827 169.262 277.319C169.117 277.17 168.978 277.016 168.839 276.862C168.664 276.672 168.499 276.482 168.339 276.292C168.2 276.128 168.061 275.963 167.927 275.794C167.839 275.686 167.751 275.573 167.669 275.465C167.303 274.993 166.958 274.51 166.638 274.022C166.535 273.863 166.432 273.709 166.334 273.549C166.133 273.236 165.942 272.923 165.757 272.604C165.664 272.445 165.576 272.291 165.489 272.132C165.385 271.947 165.287 271.762 165.19 271.577C165.092 271.392 164.994 271.208 164.906 271.028C164.715 270.658 164.545 270.293 164.38 269.934C164.298 269.759 164.221 269.585 164.148 269.41C164.05 269.189 163.958 268.974 163.875 268.763C163.808 268.604 163.746 268.45 163.684 268.296C163.514 267.864 163.36 267.448 163.221 267.048C163.128 266.786 163.045 266.539 162.968 266.293C162.819 265.836 162.69 265.409 162.576 265.009C162.556 264.932 162.535 264.855 162.514 264.783C162.463 264.613 162.422 264.454 162.38 264.295C162.344 264.29 162.313 264.28 162.277 264.269C161.947 264.203 161.618 264.12 161.293 264.043C161.272 264.038 161.246 264.033 161.226 264.028C160.937 263.961 160.649 263.889 160.365 263.817C160.051 263.74 159.736 263.658 159.422 263.576C159.308 263.545 159.19 263.514 159.076 263.484C158.963 263.458 158.85 263.427 158.736 263.391C158.37 263.294 158.009 263.191 157.643 263.088C157.241 262.975 156.839 262.857 156.437 262.734C156.107 262.636 155.778 262.533 155.448 262.426C154.803 262.22 154.164 262.01 153.53 261.789C153.272 261.701 153.015 261.609 152.762 261.517C151.989 261.25 151.231 260.962 150.479 260.664C150.247 260.572 150.015 260.479 149.783 260.387C149.386 260.228 148.994 260.068 148.603 259.899C148.123 259.699 147.654 259.493 147.185 259.283C147.144 259.267 147.103 259.247 147.061 259.226C146.855 259.236 146.654 259.247 146.458 259.262C146.257 259.277 146.061 259.293 145.866 259.313C145.67 259.334 145.474 259.354 145.283 259.38C145.067 259.411 144.855 259.442 144.644 259.473C144.433 259.509 144.221 259.544 144.015 259.586C143.855 259.616 143.696 259.647 143.536 259.683C143.288 259.734 143.051 259.791 142.814 259.853C142.685 259.883 142.556 259.919 142.433 259.955C142.304 259.991 142.18 260.027 142.062 260.063C141.897 260.109 141.737 260.161 141.572 260.217C141.35 260.289 141.134 260.366 140.922 260.448C140.737 260.52 140.556 260.587 140.376 260.664C140.196 260.736 140.02 260.808 139.85 260.89L139.649 260.982C139.582 261.008 139.515 261.039 139.453 261.075C139.33 261.131 139.206 261.193 139.087 261.255C138.979 261.311 138.876 261.363 138.773 261.419C138.67 261.47 138.567 261.527 138.464 261.588C138.376 261.635 138.294 261.686 138.206 261.737C138.057 261.825 137.907 261.912 137.763 262.01C137.598 262.112 137.438 262.22 137.278 262.328C137.273 262.328 137.268 262.333 137.263 262.338C137.088 262.462 136.917 262.585 136.753 262.708C136.686 262.759 136.619 262.811 136.557 262.862C136.495 262.908 136.433 262.96 136.371 263.011C136.263 263.098 136.16 263.191 136.057 263.278C136 263.324 135.948 263.376 135.897 263.422C135.541 263.74 135.222 264.069 134.943 264.398C134.799 264.567 134.67 264.737 134.546 264.906C134.485 264.988 134.428 265.076 134.371 265.158C132.222 268.409 90.3883 332.26 88.0688 335.855C85.7493 339.45 79.9042 349.639 84.5432 357.846C89.1822 366.053 104.388 366.243 104.388 366.243L143.206 352.022L155.303 347.59C155.205 347.606 155.113 347.616 155.025 347.621C154.958 347.626 154.896 347.631 154.839 347.631C154.211 347.652 153.582 347.503 152.989 347.118C149.319 344.735 144.876 333.76 151.767 321.368L173.864 311.867C173.864 311.867 186.111 312.123 191.457 316.622C196.802 321.111 196.482 327.34 196.224 329.975C195.967 332.604 193.132 358.283 193.003 358.668H206.91V357.153C206.874 357.148 206.837 357.143 206.801 357.132C206.796 357.137 206.796 357.137 206.791 357.132C206.734 357.117 206.678 357.096 206.621 357.066C206.58 357.05 206.538 357.03 206.502 356.999C206.446 356.963 206.389 356.922 206.337 356.87C204.343 355.006 204.343 345.7 204.987 336.841C205.018 336.415 205.049 336.004 205.09 335.593C205.1 335.511 205.106 335.434 205.116 335.352C205.136 335.105 205.162 334.864 205.193 334.628C205.219 334.392 205.245 334.155 205.276 333.919C205.27 333.914 205.276 333.914 205.276 333.914L202.322 309.92C202.796 309.412 203.229 308.893 203.631 308.359C205.008 311.456 207.739 316.735 210.966 318.466C210.971 318.461 210.971 318.461 210.976 318.461C211.028 318.425 211.08 318.389 211.131 318.358C211.167 318.332 211.208 318.307 211.25 318.286C211.311 318.245 211.368 318.214 211.425 318.183C211.729 318.024 212.049 317.906 212.384 317.829C212.435 317.809 212.492 317.798 212.549 317.788C212.662 317.762 212.786 317.742 212.904 317.732C213.007 317.716 213.11 317.706 213.219 317.701C213.348 317.69 213.471 317.685 213.6 317.685C213.992 317.685 214.394 317.726 214.786 317.803C214.853 317.814 214.92 317.829 214.987 317.845C215.652 317.988 216.301 318.225 216.889 318.528C217.069 318.62 217.244 318.718 217.414 318.82C217.543 318.897 217.667 318.979 217.785 319.062C217.904 319.144 218.023 319.226 218.131 319.313C220.254 320.988 222.574 318.676 225.347 318.543C228.12 318.42 228.12 321.501 230.697 320.34C231.038 320.186 231.347 320.063 231.635 319.96C231.641 319.96 231.641 319.96 231.641 319.96C231.661 319.95 231.682 319.94 231.702 319.935C229.837 317.382 226.043 311.826 221.626 303.234ZM142.742 325.055L142.644 325.096L140.108 326.133L118.099 335.126V335.121L142.644 299.099V299.094L142.67 299.063C142.742 305.452 142.855 317.824 142.742 325.055Z" fill="#F1F333"/>
<path d="M143.206 352.022C143.206 352.022 139.953 362.304 140.814 369.838" stroke="black" stroke-width="2" stroke-miterlimit="10" stroke-linecap="round" stroke-linejoin="round"/>
<path d="M142.644 299.099C142.644 299.099 142.927 319.991 142.644 325.101" stroke="black" stroke-width="2" stroke-miterlimit="10" stroke-linecap="round" stroke-linejoin="round"/>
<path d="M118.099 335.126L148.159 291.006" stroke="black" stroke-width="2" stroke-miterlimit="10" stroke-linecap="round" stroke-linejoin="round"/>
<path d="M203.337 308.744C203.337 308.744 206.296 315.965 210.971 318.466" stroke="black" stroke-width="2" stroke-miterlimit="10" stroke-linecap="round" stroke-linejoin="round"/>
<path d="M201.724 272.861C201.724 272.861 214.78 296.573 202.327 309.925L205.198 334.582" stroke="black" stroke-width="2" stroke-miterlimit="10" stroke-linecap="round" stroke-linejoin="round"/>
<path d="M250.15 358.026C250.15 358.026 245.32 358.539 244.614 354.303C243.903 350.066 241.068 343.071 240.424 341.273C239.779 339.476 237.398 336.456 237.398 336.456C237.398 336.456 236.367 344.612 234.048 351.031C231.728 357.451 230.182 358.991 228.12 356.033C226.058 353.085 226.574 346.923 226.574 344.802C226.574 342.681 227.378 330.489 227.378 330.489H226.955C226.955 330.489 224.512 350.384 220.254 354.236C216.007 358.088 214.069 353.147 213.945 349.937C213.811 346.727 214.976 339.409 215.553 336.97C216.105 334.633 217.254 328.419 217.347 327.89C217.156 328.64 214.028 340.734 212.78 345.957C211.492 351.35 208.337 358.735 206.337 356.87C204.343 355.006 204.343 345.7 204.987 336.841C205.631 327.982 208.018 321.948 210.079 319.313C212.141 316.684 216.007 317.649 218.131 319.313C220.254 320.988 222.574 318.676 225.347 318.543C228.12 318.42 228.12 321.501 230.697 320.34C233.274 319.19 234.171 319.447 235.656 320.988C237.14 322.528 238.81 319.637 241.326 319.704C243.841 319.765 246.351 322.785 246.8 327.982C247.253 333.18 250.15 358.026 250.15 358.026Z" fill="#FF90E8"/>
<path d="M237.398 336.456C237.398 336.456 236.367 344.612 234.048 351.031C231.728 357.451 230.182 358.991 228.12 356.038C226.058 353.085 226.574 346.923 226.574 344.802C226.574 342.681 227.383 330.483 227.383 330.483H226.96C226.96 330.483 224.512 350.384 220.26 354.236C216.007 358.087 214.074 353.147 213.945 349.932C213.817 346.717 214.976 339.404 215.554 336.965C216.131 334.525 217.358 327.849 217.358 327.849C217.358 327.849 214.069 340.559 212.781 345.952C211.492 351.344 208.337 358.729 206.337 356.865C204.338 355.001 204.338 345.695 204.987 336.836C205.636 327.977 208.018 321.943 210.08 319.313C212.141 316.684 216.007 317.644 218.131 319.313C220.254 320.982 222.574 318.671 225.347 318.543C228.12 318.414 228.12 321.496 230.697 320.34C233.275 319.185 234.177 319.442 235.656 320.982C237.135 322.523 238.81 319.637 241.326 319.698C243.841 319.76 246.351 322.78 246.8 327.977C247.248 333.174 250.15 358.021 250.15 358.021C250.15 358.021 245.315 358.534 244.609 354.297C243.903 350.06 241.063 343.061 240.424 341.263C239.785 339.466 237.398 336.456 237.398 336.456ZM237.398 336.456L237.785 330.422" stroke="black" stroke-width="2" stroke-miterlimit="10" stroke-linecap="round" stroke-linejoin="round"/>
<path d="M101.64 341.849L151.767 321.373" stroke="black" stroke-width="2" stroke-miterlimit="10" stroke-linecap="round" stroke-linejoin="round"/>
<path d="M196.224 329.975C195.967 332.604 193.132 358.283 193.003 358.668C192.874 359.053 189.462 358.087 188.364 355.458C187.266 352.829 185.271 346.789 185.271 346.789C185.271 346.789 182.694 357.897 180.184 357.769C177.668 357.641 177.153 344.673 177.215 341.787C177.235 340.945 177.266 340.061 177.272 339.163C177.215 339.548 175.596 350.512 174.962 353.979C174.318 357.512 172.127 359.762 170.839 355.586C169.55 351.411 168.906 342.49 168.329 340.179C168.287 340.02 168.246 339.866 168.2 339.712C168.2 339.712 167.875 350.066 166.648 353.722C165.427 357.384 162.978 360.208 161.561 356.68C160.391 353.763 161.154 345.628 161.453 342.891C161.272 343.138 156.592 349.454 152.989 347.118C149.319 344.735 144.876 333.76 151.767 321.368L173.864 311.867C173.864 311.867 186.111 312.123 191.457 316.622C196.802 321.111 196.482 327.34 196.224 329.975Z" fill="#FF90E8"/>
<path d="M161.457 342.886C161.457 342.886 156.664 349.501 152.994 347.118C149.324 344.735 144.876 333.76 151.767 321.368L173.869 311.867C173.869 311.867 186.111 312.123 191.456 316.617C196.801 321.111 196.482 327.34 196.224 329.97C195.966 332.599 193.132 358.277 193.003 358.668C192.874 359.058 189.456 358.093 188.364 355.458C187.271 352.823 185.271 346.789 185.271 346.789C185.271 346.789 186.431 334.463 185.915 331.957C185.4 329.451 184.823 328.044 184.823 328.044" stroke="black" stroke-width="2" stroke-miterlimit="10" stroke-linecap="round" stroke-linejoin="round"/>
<path d="M168.2 339.712C168.2 339.712 167.875 350.066 166.654 353.727C165.432 357.389 162.984 360.209 161.561 356.68C160.138 353.152 161.561 341.982 161.561 341.982" stroke="black" stroke-width="2" stroke-miterlimit="10" stroke-linecap="round" stroke-linejoin="round"/>
<path d="M177.271 339.152C177.271 339.152 175.606 350.451 174.962 353.979C174.318 357.507 172.127 359.757 170.839 355.581C169.55 351.406 168.906 342.485 168.323 340.174C167.741 337.863 166.648 336.384 166.648 336.384" stroke="black" stroke-width="2" stroke-miterlimit="10" stroke-linecap="round" stroke-linejoin="round"/>
<path d="M185.271 346.794C185.271 346.794 182.694 357.898 180.178 357.774C177.663 357.651 177.148 344.678 177.215 341.792C177.282 338.906 177.472 335.501 176.312 332.866" stroke="black" stroke-width="2" stroke-miterlimit="10" stroke-linecap="round" stroke-linejoin="round"/>
<path d="M161.865 261.902C161.865 261.902 164.355 278.762 177.844 282.532C191.333 286.296 197.601 272.943 194.508 263.442C191.416 253.941 161.865 261.902 161.865 261.902Z" fill="#FF90E8" stroke="black" stroke-width="2" stroke-miterlimit="10" stroke-linecap="round" stroke-linejoin="round"/>
<path d="M231.831 176.763C222.363 168.705 222.363 154.037 231.831 145.974C243.011 136.458 249.831 123.783 249.831 109.861C249.831 80.3254 219.136 56.3881 181.276 56.3881C143.417 56.3881 112.722 80.3305 112.722 109.861C112.722 123.783 119.542 136.463 130.722 145.974C140.19 154.032 140.19 168.7 130.722 176.763C119.542 186.279 112.722 198.954 112.722 212.877C112.722 242.412 143.417 266.349 181.276 266.349C219.136 266.349 249.831 242.407 249.831 212.877C249.831 198.959 243.011 186.279 231.831 176.763Z" fill="#FF90E8" stroke="black" stroke-width="2" stroke-miterlimit="10" stroke-linecap="round" stroke-linejoin="round"/>
<path d="M190.684 239.906C190.684 239.906 196.353 239.135 199.188 240.419" stroke="black" stroke-width="2" stroke-miterlimit="10" stroke-linecap="round" stroke-linejoin="round"/>
<path d="M184.369 208.517L162.592 215.64" stroke="black" stroke-width="2" stroke-miterlimit="10" stroke-linecap="round" stroke-linejoin="round"/>
<path d="M204.152 218.721H224.316" stroke="black" stroke-width="2" stroke-miterlimit="10" stroke-linecap="round" stroke-linejoin="round"/>
<path d="M215.848 231.658C217.715 231.658 219.229 230.149 219.229 228.289C219.229 226.428 217.715 224.92 215.848 224.92C213.98 224.92 212.466 226.428 212.466 228.289C212.466 230.149 213.98 231.658 215.848 231.658Z" fill="black"/>
<path d="M173.968 230.564C175.835 230.564 177.349 229.056 177.349 227.195C177.349 225.334 175.835 223.826 173.968 223.826C172.1 223.826 170.586 225.334 170.586 227.195C170.586 229.056 172.1 230.564 173.968 230.564Z" fill="black"/>
<path d="M361.342 356.316V378.568L466.317 383.191L468.853 326.529L372.682 312.663L361.342 356.316Z" fill="#23A094" stroke="black" stroke-width="2" stroke-miterlimit="10" stroke-linecap="round" stroke-linejoin="round"/>
<path d="M500.274 297.528L513.867 291.072L516.769 296.978L501.176 305.771L496.022 299.674L500.274 297.528Z" fill="#F2F334" stroke="black" stroke-width="2" stroke-miterlimit="10" stroke-linecap="round" stroke-linejoin="round"/>
<path d="M427.401 292.803C427.401 292.803 443.792 290.148 448.611 271.747H472.074C472.074 271.747 472.935 287.837 464.688 293.661C456.441 299.479 427.401 292.803 427.401 292.803Z" fill="#F2F334" stroke="black" stroke-width="2" stroke-miterlimit="10" stroke-linecap="round" stroke-linejoin="round"/>
<path d="M404.722 292.803C404.722 292.803 477.853 292.803 481.327 292.803C484.801 292.803 489.316 288.89 495.63 288.309C501.945 287.729 503.95 290.877 503.527 294.215C503.104 297.553 499.367 300.183 493.115 301.148C486.863 302.114 393.506 307.183 393.634 306.798C393.763 306.412 404.722 292.803 404.722 292.803Z" fill="#90A8ED" stroke="black" stroke-width="2" stroke-miterlimit="10" stroke-linecap="round" stroke-linejoin="round"/>
<path d="M487.193 311.204C487.193 311.204 495.125 311.178 499.579 311.178C504.032 311.178 506.61 307.265 505.579 303.927C504.548 300.589 496.986 300.332 494.667 300.332C492.347 300.332 402.521 300.332 402.521 300.332L395.186 311.204H487.193Z" fill="#23A094" stroke="black" stroke-width="2" stroke-miterlimit="10" stroke-linecap="round" stroke-linejoin="round"/>
<path d="M494.347 321.219C494.347 321.219 493.894 321.219 496.986 321.219C500.079 321.219 503.357 318.928 503.522 315.718C503.687 312.509 501.3 311.204 498.466 311.204C495.631 311.204 391.748 311.204 391.748 311.204L394.346 321.219H494.347Z" fill="#90A8ED" stroke="black" stroke-width="2" stroke-miterlimit="10" stroke-linecap="round" stroke-linejoin="round"/>
<path d="M389.243 331.834H499.177C499.177 331.834 503.728 331.32 503.517 327.813C503.3 324.305 500.079 321.224 497.373 321.224C494.666 321.224 390.031 321.224 390.031 321.224L389.243 331.834Z" fill="#90A8ED" stroke="black" stroke-width="2" stroke-miterlimit="10" stroke-linecap="round" stroke-linejoin="round"/>
<path d="M514.326 331.834H499.177H468.616H445.87C445.87 331.834 449.009 335.516 449.308 335.814C449.607 336.112 449.179 337.483 448.622 337.827C448.06 338.166 446.303 338.084 446.303 338.084C446.303 338.084 446.303 356.655 446.303 361.02C446.303 365.385 449.993 365.216 449.993 365.216L446.818 369.838H466.915H500.352" fill="white"/>
<path d="M514.326 331.834H499.177H468.616H445.87C445.87 331.834 449.009 335.516 449.308 335.814C449.607 336.112 449.179 337.483 448.622 337.827C448.06 338.166 446.303 338.084 446.303 338.084C446.303 338.084 446.303 356.655 446.303 361.02C446.303 365.385 449.993 365.216 449.993 365.216L446.818 369.838H466.915H500.352" stroke="black" stroke-width="2" stroke-miterlimit="10" stroke-linecap="round" stroke-linejoin="round"/>
<path d="M504.074 361.364H467.297H462.539" stroke="black" stroke-width="2" stroke-miterlimit="10" stroke-linecap="round" stroke-linejoin="round"/>
<path d="M507.135 353.661H467.637H459.188" stroke="black" stroke-width="2" stroke-miterlimit="10" stroke-linecap="round" stroke-linejoin="round"/>
<path d="M453.864 346.984H504.46" stroke="black" stroke-width="2" stroke-miterlimit="10" stroke-linecap="round" stroke-linejoin="round"/>
<path d="M512.192 339.024H468.297H456.694" stroke="black" stroke-width="2" stroke-miterlimit="10" stroke-linecap="round" stroke-linejoin="round"/>
<path d="M461.508 311.204L466.75 317.285L476.198 316.34L470.271 311.204H461.508Z" fill="#F2F334" stroke="black" stroke-width="2" stroke-miterlimit="10" stroke-linecap="round" stroke-linejoin="round"/>
<path d="M324.957 261.09H423.278L370.96 369.838H276.505L324.957 261.09Z" fill="black" stroke="black" stroke-width="2" stroke-miterlimit="10" stroke-linecap="round" stroke-linejoin="round"/>
<path d="M156.664 369.838L154.345 358.668H262.588L306.014 261.09H324.957L276.505 369.838H156.664Z" fill="white" stroke="black" stroke-width="2" stroke-miterlimit="10" stroke-linecap="round" stroke-linejoin="round"/>
<path d="M500.352 369.838C497.342 376.412 494.053 382.831 490.517 389.097H318.127V369.838H500.352Z" fill="#98282A" stroke="black" stroke-width="2" stroke-miterlimit="10" stroke-linecap="round" stroke-linejoin="round"/>
<path d="M318.127 369.838H81.9248V389.097H318.127V369.838Z" fill="#98282A" stroke="black" stroke-width="2" stroke-miterlimit="10" stroke-linecap="round" stroke-linejoin="round"/>
<path d="M339.775 510.478V462.023" stroke="black" stroke-width="2" stroke-miterlimit="10" stroke-linecap="round" stroke-linejoin="round"/>
<path d="M339.99 439V462.306H95.7155C86.9788 455.075 78.7265 447.289 71 439H339.99Z" fill="#98282A" stroke="black" stroke-width="2" stroke-miterlimit="10" stroke-linecap="round" stroke-linejoin="round"/>
<path d="M128.846 418.883C128.846 418.883 132.871 417.045 137.68 417.815C142.489 418.586 142.665 421.241 141.892 423.423C141.118 425.606 133.742 430.054 126.325 427.871C118.908 425.688 123.676 432.621 123.676 432.621C123.676 432.621 135.015 435.277 143.778 428.857C152.541 422.437 147.86 413.922 141.804 412.849C135.747 411.781 127.758 412.849 127.758 412.849L128.846 418.883Z" fill="#90A8ED" stroke="black" stroke-width="2" stroke-miterlimit="10" stroke-linecap="round" stroke-linejoin="round"/>
<path d="M82.6978 405.531C82.6978 429.155 93.5221 438.717 93.5221 438.717H120.583C120.583 438.717 130.119 427.357 130.119 405.531H82.6978Z" fill="#90A8ED" stroke="black" stroke-width="2" stroke-miterlimit="10" stroke-linecap="round" stroke-linejoin="round"/>
<path d="M288.746 418.883C288.746 418.883 292.612 418.627 292.741 417.086C292.87 415.545 290.421 413.429 290.421 413.429H184.42C184.42 413.429 171.034 420.106 182.823 438.723H293.731C293.731 438.723 295.019 432.878 292.53 432.878C290.04 432.878 286.045 432.878 286.045 432.878L288.746 418.883Z" fill="#90A8ED" stroke="black" stroke-width="2" stroke-miterlimit="10" stroke-linecap="round" stroke-linejoin="round"/>
<path d="M186.044 418.883H288.747V432.878H188.879C188.879 432.878 181.148 430.182 186.044 418.883Z" fill="white" stroke="black" stroke-width="2" stroke-miterlimit="10" stroke-linecap="round" stroke-linejoin="round"/>
<path d="M199.06 423.12H288.747" stroke="black" stroke-width="2" stroke-miterlimit="10" stroke-linecap="round" stroke-linejoin="round"/>
<path d="M207.482 427.958H288.747" stroke="black" stroke-width="2" stroke-miterlimit="10" stroke-linecap="round" stroke-linejoin="round"/>
<path d="M231.919 418.883V432.878" stroke="black" stroke-width="2" stroke-miterlimit="10" stroke-linecap="round" stroke-linejoin="round"/>
<path d="M264.263 438.717V462.023V522.049" stroke="black" stroke-width="2" stroke-miterlimit="10" stroke-linecap="round" stroke-linejoin="round"/>
<path d="M155.319 347.585L104.388 366.243C104.388 366.243 89.1821 366.053 84.5431 357.846C79.9041 349.639 85.7441 339.455 88.0636 335.86C90.3831 332.265 132.222 268.414 134.366 265.158C136.515 261.907 143.201 257.357 153.525 261.789C165.705 267.022 205.683 266.801 205.368 262.955C205.368 262.955 212.518 284.391 219.672 299.284C226.826 314.178 231.635 319.955 231.635 319.955" stroke="black" stroke-width="2" stroke-miterlimit="10" stroke-linecap="round" stroke-linejoin="round"/>
<path d="M523.959 261.527C523.959 285.885 520.604 309.468 514.325 331.834C513.65 334.248 512.939 336.641 512.192 339.024C510.65 343.97 508.965 348.848 507.135 353.661C506.156 356.249 505.13 358.817 504.073 361.364C502.883 364.214 501.646 367.039 500.352 369.838C497.342 376.411 494.053 382.831 490.517 389.097C458.024 446.642 404.227 490.639 339.776 510.478C315.89 517.837 290.535 521.874 264.263 522.048C263.67 522.054 263.072 522.054 262.48 522.054C198.997 522.054 140.794 499.513 95.5015 462.023C86.7647 454.792 78.5125 447.006 70.786 438.717C27.4784 392.229 1 329.959 1 261.527C1 243.023 2.93807 224.966 6.61834 207.551C7.89664 201.512 9.38112 195.544 11.0718 189.664C36.746 100.334 109.083 30.643 200.126 8.45184C204.456 7.39903 208.827 6.44893 213.234 5.61696C229.182 2.58692 245.645 1 262.48 1C284.01 1 304.937 3.59351 324.957 8.48265C328.549 9.36085 332.116 10.3109 335.652 11.3381C385.83 25.8823 429.777 55.0066 462.565 93.7962C466.626 98.5981 470.513 103.549 474.219 108.638C492.852 134.204 506.929 163.271 515.269 194.666C516.578 199.591 517.743 204.572 518.763 209.605C522.171 226.384 523.959 243.747 523.959 261.527Z" stroke="black" stroke-width="2" stroke-miterlimit="10" stroke-linecap="round" stroke-linejoin="round"/>
</svg>
