<svg width="126" height="181" viewBox="0 0 126 181" fill="none" xmlns="http://www.w3.org/2000/svg">
<path d="M123.463 45.1794C121.621 38.4507 116.282 33.3149 108.815 31.0624C105.919 30.1744 102.891 29.7908 99.8639 29.9284C98.0546 28.4237 96.0259 27.2051 93.8483 26.3147C94.2275 25.5343 94.5444 24.7252 94.7961 23.8948C96.0436 19.7596 95.6002 15.2991 93.5635 11.4946C91.5268 7.69009 88.0636 4.8532 83.9359 3.60802C80.7032 2.62821 77.2443 2.68701 74.0446 3.77614C72.7718 3.04486 71.4197 2.4613 70.0146 2.03673C65.1079 0.556567 59.8131 1.08971 55.295 3.51891C50.7769 5.94811 47.4056 10.0744 45.9227 14.9899L45.8865 15.11C39.9714 16.3264 34.6533 19.546 30.8272 24.2271C30.5068 24.6153 30.0912 25.0622 29.6227 25.6045C26.8954 28.5625 24.429 31.7512 22.251 35.135C17.5616 42.4488 13.5895 51.7974 10.1152 63.6674C10.0643 63.8363 9.98806 63.9927 9.93267 64.1603L2.93325 85.0045C2.89169 85.1423 2.85012 85.2801 2.80856 85.4179C0.980708 91.5132 1.3668 98.0577 3.89834 103.891C6.42988 109.724 10.9433 114.468 16.638 117.283L8.19111 145.284C6.15578 152.057 6.88515 159.359 10.2192 165.588C13.5533 171.817 19.2198 176.465 25.9755 178.512C29.3226 179.531 32.8389 179.875 36.321 179.525C39.8031 179.174 43.182 178.136 46.2625 176.471C49.3503 174.821 52.0812 172.574 54.2972 169.861C56.5132 167.147 58.1703 164.021 59.1725 160.663L67.6194 132.662C73.922 133.471 80.3091 132.017 85.6473 128.559C90.9855 125.1 94.9296 119.861 96.7797 113.77L102.84 93.6804C103.06 93.1408 103.248 92.5885 103.402 92.0266C104.256 88.8326 105.294 85.6907 106.511 82.6166C111.051 71.2279 116.279 65.9629 118.251 63.9829C118.611 63.6067 118.945 63.2856 119.279 62.9161C121.407 60.5476 122.906 57.6814 123.637 54.5816C124.368 51.4818 124.308 48.2484 123.463 45.1794Z" fill="#FFC900" stroke="black" stroke-width="2" stroke-miterlimit="10"/>
<path d="M58.2801 38.7207C58.5059 38.3573 62.2703 32.5053 69.343 34.2994C76.6478 36.1587 75.1016 43.8194 75.1016 43.8194C75.1016 43.8194 79.4069 36.9765 87.5479 39.7863C95.4387 42.5109 92.1245 48.5229 91.9289 48.8664C92.2169 48.5217 96.9635 42.9757 104.626 45.2871C111.338 47.312 110.61 52.5331 108.879 54.4209C107.439 55.9844 99.6796 62.726 93.4263 78.3691C89.3463 67.6971 79.9027 69.3338 66.7692 66.7879C53.6356 64.2419 54.6083 56.9901 46.6697 48.9364C38.8906 41.0279 34.0782 43.5669 33.8991 43.6632L33.7363 43.5608C36.7486 38.8542 39.3854 36.3231 41.2606 34.086C43.4648 31.4487 47.9563 28.0321 54.1473 30.0694C61.1537 32.3721 58.4558 38.347 58.2801 38.7207Z" fill="black"/>
<path d="M47.4424 76.7657L22.947 69.5073L22.9026 69.494L15.9045 90.3338C14.9149 93.6186 15.268 97.1614 16.8862 100.183C18.5045 103.205 21.2554 105.458 24.534 106.447L29.2812 107.879C29.858 108.052 30.3948 108.337 30.8612 108.719C31.3275 109.1 31.7141 109.57 31.9988 110.101C32.2836 110.633 32.461 111.215 32.5208 111.815C32.5806 112.415 32.5217 113.022 32.3474 113.599L21.3034 150.21C20.8193 151.813 20.6552 153.495 20.8205 155.161C20.9858 156.826 21.4772 158.443 22.2667 159.918C23.0561 161.392 24.1283 162.696 25.4217 163.756C26.7151 164.815 28.2044 165.608 29.8047 166.09C31.4024 166.577 33.0806 166.742 34.7432 166.578C36.4057 166.414 38.0199 165.923 39.4932 165.133C40.9647 164.34 42.2657 163.264 43.3216 161.966C44.3775 160.669 45.1675 159.176 45.6464 157.573L56.6904 120.962C56.8638 120.385 57.1492 119.847 57.5301 119.38C57.911 118.914 58.38 118.526 58.9102 118.241C59.4405 117.955 60.0216 117.777 60.6203 117.717C61.2191 117.657 61.8238 117.715 62.3998 117.889L67.1514 119.322C68.7748 119.812 70.4791 119.977 72.1669 119.808C73.8547 119.639 75.493 119.138 76.9881 118.334C78.4832 117.531 79.8059 116.44 80.8807 115.125C81.9554 113.81 82.7611 112.296 83.2518 110.669L89.6969 89.3038" stroke="black" stroke-width="2" stroke-linecap="round" stroke-linejoin="round"/>
<path d="M89.6923 89.2876L48.5234 77.0819" stroke="black" stroke-width="2" stroke-linecap="round" stroke-linejoin="round"/>
<path d="M19.0811 82.1462L85.1559 102.078" stroke="black" stroke-width="2" stroke-linecap="round" stroke-linejoin="round"/>
<path d="M32.0504 158.631C34.5546 159.386 37.1981 157.965 37.9549 155.456C38.7117 152.947 37.2951 150.301 34.7909 149.546C32.2867 148.79 29.6432 150.212 28.8864 152.72C28.1296 155.229 29.5462 157.875 32.0504 158.631Z" stroke="black" stroke-width="2" stroke-linecap="round" stroke-linejoin="round"/>
<path d="M91.8948 48.8848C92.1827 48.5401 96.9294 42.9941 104.591 45.3055C111.304 47.3304 110.576 52.5515 108.845 54.4393C107.405 56.0028 99.6455 62.7444 93.3921 78.3875C91.9725 81.9614 90.7635 85.6154 89.7715 89.3308L89.6827 89.304C76.7588 85.4054 61.8816 81.0339 48.5125 77.1028L47.43 76.7762C38.0676 74.0199 29.5008 71.4986 22.9346 69.5178C26.6445 56.5455 30.4124 48.7403 33.7253 43.5668C36.7376 38.8602 39.3743 36.3291 41.2496 34.092C43.4537 31.4547 47.9453 28.0381 54.1362 30.0754C61.1413 32.3825 58.4434 38.3574 58.2678 38.7311" stroke="black" stroke-width="2" stroke-linecap="round" stroke-linejoin="round"/>
<path d="M58.2695 38.7417C58.2707 38.734 58.273 38.7265 58.2762 38.7194C58.502 38.356 62.2664 32.504 69.3391 34.2981C76.6483 36.1587 75.1021 43.8194 75.1021 43.8194C75.1021 43.8194 79.4075 36.9765 87.5484 39.7863C95.4392 42.5109 92.1251 48.523 91.9295 48.8665" stroke="black" stroke-width="2" stroke-linecap="round" stroke-linejoin="round"/>
<path d="M33.8945 43.662C34.0736 43.5657 38.8861 41.0266 46.6652 48.9352C54.6024 56.9933 53.593 64.2389 66.7265 66.7848C79.86 69.3307 89.3036 67.6941 93.3835 78.3661" stroke="black" stroke-width="2" stroke-linecap="round" stroke-linejoin="round"/>
<path d="M39.5176 74.1861C42.584 63.3665 47.4387 53.1362 53.88 43.9203Z" fill="black"/>
<path d="M39.5176 74.1861C42.584 63.3665 47.4387 53.1362 53.88 43.9203" stroke="black" stroke-width="2" stroke-linecap="round" stroke-linejoin="round"/>
<path d="M56.6611 79.3573C59.7276 68.5377 64.5823 58.3075 71.0236 49.0916Z" fill="black"/>
<path d="M56.6611 79.3573C59.7276 68.5377 64.5823 58.3075 71.0236 49.0916" stroke="black" stroke-width="2" stroke-linecap="round" stroke-linejoin="round"/>
<path d="M48.0898 76.7716C51.1563 65.952 56.011 55.7217 62.4523 46.5058Z" fill="black"/>
<path d="M48.0898 76.7716C51.1563 65.952 56.011 55.7217 62.4523 46.5058" stroke="black" stroke-width="2" stroke-linecap="round" stroke-linejoin="round"/>
<path d="M30.9463 71.6003C34.0127 60.7807 38.8675 50.5504 45.3088 41.3345Z" fill="black"/>
<path d="M30.9463 71.6003C34.0127 60.7807 38.8675 50.5504 45.3088 41.3345" stroke="black" stroke-width="2" stroke-linecap="round" stroke-linejoin="round"/>
<path d="M73.8086 84.5303C76.8721 73.71 81.7255 63.479 88.1666 54.2632Z" fill="black"/>
<path d="M73.8086 84.5303C76.8721 73.71 81.7255 63.479 88.1666 54.2632" stroke="black" stroke-width="2" stroke-linecap="round" stroke-linejoin="round"/>
<path d="M65.2363 81.9444C68.2999 71.124 73.1532 60.8931 79.5943 51.6772Z" fill="black"/>
<path d="M65.2363 81.9444C68.2999 71.124 73.1532 60.8931 79.5943 51.6772" stroke="black" stroke-width="2" stroke-linecap="round" stroke-linejoin="round"/>
<path d="M82.3711 87.1129C85.435 76.2923 90.2899 66.0616 96.7336 56.8471Z" fill="black"/>
<path d="M82.3711 87.1129C85.435 76.2923 90.2899 66.0616 96.7336 56.8471" stroke="black" stroke-width="2" stroke-linecap="round" stroke-linejoin="round"/>
<path d="M62.5952 26.7935C65.4914 27.6672 68.5488 26.0233 69.4241 23.1219C70.2993 20.2204 68.661 17.16 65.7648 16.2863C62.8685 15.4127 59.8111 17.0565 58.9359 19.958C58.0606 22.8594 59.6989 25.9198 62.5952 26.7935Z" fill="black" stroke="black" stroke-width="2" stroke-linecap="round" stroke-linejoin="round"/>
<path d="M78.6687 22.017C79.786 22.354 80.9655 21.7198 81.3032 20.6005C81.6408 19.4811 81.0088 18.3005 79.8914 17.9634C78.7741 17.6264 77.5946 18.2606 77.2569 19.3799C76.9193 20.4993 77.5513 21.6799 78.6687 22.017Z" fill="black" stroke="black" stroke-width="2" stroke-linecap="round" stroke-linejoin="round"/>
</svg>
