<svg width="112" height="112" viewBox="0 0 112 112" fill="none" xmlns="http://www.w3.org/2000/svg">
<mask id="mask0_1100_29863" style="mask-type:alpha" maskUnits="userSpaceOnUse" x="0" y="0" width="112" height="112">
<circle cx="56" cy="56" r="56" fill="#C4C4C4"/>
</mask>
<g mask="url(#mask0_1100_29863)">
<g clip-path="url(#clip0_1100_29863)">
<path d="M129.32 -12.7012H-18.4741V135.093H129.32V-12.7012Z" fill="white"/>
<path d="M120.083 -3.46387H-9.23682V125.856H120.083V-3.46387Z" fill="#FF90E8"/>
<path d="M-0.391113 125.456C1.20576 110.457 7.59328 101.801 10.1263 98.772C12.6592 95.7434 13.2649 94.9725 20.9189 91.6686C28.5729 88.3648 41.1938 86.041 41.1938 86.041L56.8542 90.248L64.4311 86.9661C64.4311 86.9661 79.6179 90.7766 85.8953 98.1553C92.1727 105.534 94.155 116.459 95.3114 125.445L-0.391113 125.456Z" fill="black" stroke="black" stroke-width="5" stroke-miterlimit="10"/>
<path d="M48.5064 103.177C36.0066 99.6528 37.2511 86.8447 37.2511 86.8447C39.5969 86.3271 41.1607 86.0408 41.1937 86.0298C40.7202 88.805 40.3568 91.1068 40.3568 91.5032C40.3568 92.5715 42.262 98.9149 49.024 100.534C55.7749 102.153 61.9862 97.307 62.7131 94.6199C62.9994 93.5737 63.6932 90.424 64.4311 86.9659C64.4862 86.9769 65.6866 87.2853 67.5257 87.88C68.9354 94.8291 61.0061 106.701 48.5064 103.177Z" fill="white"/>
<path d="M64.5742 87.6489L67.0852 88.3648" stroke="black" stroke-width="5" stroke-miterlimit="10"/>
<path d="M67.6581 88.7502L63.9468 88.3647" stroke="black" stroke-width="5" stroke-miterlimit="10"/>
<path d="M63.793 89.9287L67.8017 90.8978" stroke="black" stroke-width="5" stroke-miterlimit="10"/>
<path d="M63.3521 91.9111L67.0854 93.1666" stroke="black" stroke-width="5" stroke-miterlimit="10"/>
<path d="M62.7129 94.6201L65.8626 95.9637" stroke="black" stroke-width="5" stroke-miterlimit="10"/>
<path d="M62.2178 95.6553L64.5746 97.9129" stroke="black" stroke-width="5" stroke-miterlimit="10"/>
<path d="M60.7417 97.3511L62.4928 100.148" stroke="black" stroke-width="5" stroke-miterlimit="10"/>
<path d="M59.145 98.5737L60.5327 101.459" stroke="black" stroke-width="5" stroke-miterlimit="10"/>
<path d="M57.5923 99.4546L58.7597 102.582" stroke="black" stroke-width="5" stroke-miterlimit="10"/>
<path d="M55.5552 100.369L56.5684 103.353" stroke="black" stroke-width="5" stroke-miterlimit="10"/>
<path d="M53.4292 100.743L54.3102 103.75" stroke="black" stroke-width="5" stroke-miterlimit="10"/>
<path d="M51.5352 100.854L51.7224 103.761" stroke="black" stroke-width="5" stroke-miterlimit="10"/>
<path d="M49.85 100.699L49.3984 103.397" stroke="black" stroke-width="5" stroke-miterlimit="10"/>
<path d="M48.0111 100.248L46.9648 102.67" stroke="black" stroke-width="5" stroke-miterlimit="10"/>
<path d="M46.0727 99.3999L44.8062 101.68" stroke="black" stroke-width="5" stroke-miterlimit="10"/>
<path d="M44.608 98.4307L42.835 100.369" stroke="black" stroke-width="5" stroke-miterlimit="10"/>
<path d="M40.5225 98.045L43.0665 96.9878" stroke="black" stroke-width="5" stroke-miterlimit="10"/>
<path d="M41.8439 95.3247L39.4541 96.4591" stroke="black" stroke-width="5" stroke-miterlimit="10"/>
<path d="M40.8193 93.3096L38.3965 94.2567" stroke="black" stroke-width="5" stroke-miterlimit="10"/>
<path d="M40.357 91.9438L37.7139 92.0319" stroke="black" stroke-width="5" stroke-miterlimit="10"/>
<path d="M40.5226 90.1159L37.3179 89.6533" stroke="black" stroke-width="5" stroke-miterlimit="10"/>
<path d="M40.8197 88.2435L37.5269 86.7788" stroke="black" stroke-width="5" stroke-miterlimit="10"/>
<path d="M37.2511 86.8447C37.2511 86.8447 36.0066 99.6528 48.5064 103.177C61.0061 106.701 68.9354 94.8401 67.5257 87.8799" stroke="black" stroke-width="5" stroke-miterlimit="10"/>
<path d="M43.1432 74.9067C43.1432 74.9067 40.3569 90.435 40.3569 91.5033C40.3569 92.5715 42.2622 98.915 49.0241 100.534C55.7861 102.153 61.9864 97.3071 62.7132 94.62C63.4401 91.9328 66.8651 75.4243 66.8651 75.4243L43.1432 74.9067Z" fill="#FFC900" stroke="black" stroke-miterlimit="10"/>
<path d="M34.0797 43.6744C34.0797 43.6744 33.1436 42.2427 31.7449 41.9123C30.3463 41.5819 28.6613 42.9585 28.1107 47.0664C27.56 51.1742 29.1239 55.2159 30.5555 56.5595C31.9872 57.9031 33.5841 57.5507 33.7493 57.5507C33.9145 57.5507 35.0709 55.9538 35.0709 55.9538L34.0797 43.6744Z" fill="#FFC900" stroke="black" stroke-miterlimit="10"/>
<path d="M77.7461 56.262C77.7461 56.262 77.3277 41.7469 77.4158 39.8527C77.5039 37.9585 77.5479 32.3859 76.5347 26.9455C75.5215 21.5051 74.7176 19.9193 71.2485 19.4567C67.7794 18.9942 67.6363 20.558 65.8301 21.2188C65.8301 21.2188 65.3345 20.547 62.5042 19.3686C59.6739 18.1902 56.9757 16.8907 54.7731 16.0427C52.5705 15.1947 50.5001 13.6419 49.575 13.1243C48.6499 12.6067 47.8129 12.1551 47.6147 12.078C47.4165 12.0009 47.6367 14.3357 46.6235 15.8775C45.6104 17.4193 45.5773 17.3092 44.6412 18.2122C43.7051 19.1153 41.3924 21.9016 39.8506 25.8663C38.1656 30.2384 37.1854 34.8418 36.9322 39.5223C36.6568 44.5662 36.4035 51.9449 36.2934 52.9801C36.1833 54.0154 36.0511 57.4073 35.985 57.936C35.919 58.4646 36.8771 66.6472 41.8329 69.4335C46.7887 72.2198 53.804 75.1933 59.3105 74.6426C64.8169 74.092 70.9842 71.2066 73.9026 68.6956C76.8211 66.1847 77.7572 59.0593 77.7572 59.0593V56.262H77.7461Z" fill="#FFC900"/>
<path d="M56.2705 65.8212C56.2705 65.8212 57.9004 67.7925 58.2418 68.2C58.5832 68.6075 58.374 68.5855 58.7484 68.2C59.1229 67.8146 59.2881 68.189 59.4973 68.3101C59.7066 68.4313 59.8497 67.6384 60.2682 67.8036C60.6867 67.9687 60.918 68.0348 61.1052 67.1648C61.2924 66.2948 61.6449 66.7463 61.8871 66.4269C62.1294 66.1076 62.4819 65.1164 62.3497 64.9732C62.2175 64.8301 61.6889 64.7089 61.6008 64.4116C61.5127 64.1142 60.9951 64.2574 60.7858 64.4116C60.5766 64.5657 60.5436 63.7948 60.1801 63.7618C59.8167 63.7288 59.8167 64.819 59.4863 64.2133C59.1559 63.6076 58.7925 63.6186 58.5172 64.0922C58.2418 64.5657 58.4951 63.8499 57.4709 63.7508C56.4467 63.6517 55.7089 65.1494 56.2705 65.8212Z" fill="black"/>
<path d="M61.7767 37.8591C61.7987 37.8811 62.8009 38.3767 63.2524 38.652C63.7039 38.9273 63.715 38.2886 64.1995 38.4868C64.6841 38.6851 65.1797 39.1476 65.444 38.9714C65.7083 38.7952 65.6532 38.3767 66.1378 38.652C66.6224 38.9273 66.8096 39.1696 67.0188 38.7952C67.2281 38.4207 67.3382 38.4318 67.6796 38.674C68.021 38.9163 68.5386 39.0925 68.858 38.8723C69.1774 38.652 69.7391 38.8723 69.9813 38.7842C70.2236 38.6961 70.3117 38.8282 70.6752 38.5089C71.0386 38.1895 71.1817 38.8282 71.5342 38.7511C71.8866 38.674 72.228 38.2445 72.4482 38.3326C72.6685 38.4207 73.2522 38.9604 73.5385 38.674C73.8249 38.3877 73.7808 38.2556 74.2323 38.4648C74.6839 38.674 75.1354 38.5199 75.1354 38.2225C75.1354 37.9252 74.6729 37.793 74.2654 37.5397C73.8579 37.2864 74.0121 37.1432 73.5275 37.0662C73.0429 36.9891 73.098 37.8591 72.6465 37.6058C72.1949 37.3525 71.7544 37.0001 71.5232 36.967C71.2919 36.934 71.3469 37.7269 70.8624 37.4957C70.3778 37.2644 70.1025 36.967 69.8602 36.912C69.6179 36.8569 69.2765 37.4846 69.0012 37.4076C68.7259 37.3305 68.4505 36.7908 68.1422 36.8239C67.8338 36.8569 67.2611 37.5948 66.8537 37.4516C66.4462 37.3084 66.281 36.8018 65.9726 36.8239C65.6643 36.8459 65.7083 37.5728 65.3559 37.3745C65.0035 37.1763 64.9154 36.7137 64.5299 36.6807C64.1445 36.6477 64.2216 37.0221 64.1555 37.2754C64.0894 37.5287 63.8141 37.3415 63.5388 37.0551C63.2634 36.7688 63.2304 36.6256 62.9661 36.4935C62.7018 36.3613 62.6797 36.6367 62.7348 36.934C62.7899 37.2314 62.2613 37.1983 62.074 37.0441C61.8868 36.89 61.5454 37.3745 61.5454 37.5397C61.5454 37.7049 61.7767 37.8591 61.7767 37.8591Z" fill="black"/>
<path d="M54.872 36.7577C54.872 36.7577 56.0614 37.5837 56.1936 37.7379C56.3257 37.8921 56.3478 38.2004 56.4469 38.3876C56.546 38.5749 56.546 38.9603 55.9843 38.674C55.4227 38.3876 55.7641 38.8722 55.4778 39.1145C55.1914 39.3568 54.85 38.7951 54.4976 38.5859C54.1452 38.3766 54.3324 39.4449 53.9139 39.1145C53.4954 38.7841 53.4293 38.8171 53.2972 39.0374C53.165 39.2577 52.9888 39.2136 52.5924 38.9052C52.1959 38.5969 52.2289 39.4229 51.8435 39.2136C51.458 39.0044 51.469 38.8061 50.8303 38.5969C50.1915 38.3876 50.7422 38.9052 50.621 39.2466C50.4999 39.5881 49.9052 39.1365 49.5197 38.9163C49.1343 38.696 49.2664 39.1475 49.3215 39.4339C49.3766 39.7202 48.8149 39.7422 48.3524 39.3017C47.8898 38.8612 47.8237 39.0154 47.6586 39.3898C47.4934 39.7643 47.0528 39.3127 46.7004 39.1475C46.348 38.9823 46.1057 39.8303 45.6212 39.3788C45.1366 38.9273 45.0044 39.2466 44.7401 39.533C44.4758 39.8193 44.0022 39.3458 43.8371 39.2466C43.6719 39.1475 43.3635 39.7753 42.8239 39.4559C42.2842 39.1365 41.8547 39.544 41.7005 38.9823C41.5464 38.4207 41.7886 38.3105 42.2071 38.4647C42.6256 38.6189 42.7137 38.696 42.7358 38.1894C42.7578 37.6828 42.923 37.5396 43.2864 38.0022C43.6498 38.4647 43.5838 38.3766 43.804 37.9141C44.0243 37.4515 44.1564 37.5947 44.5309 37.9361C44.9053 38.2775 44.7732 38.0352 45.2577 37.7269C45.7423 37.4185 46.1388 38.3326 46.4031 38.0132C46.6674 37.6938 47.0418 37.2974 47.5264 37.8039C48.011 38.3105 48.2092 38.2114 48.2863 37.6938C48.3634 37.1762 48.4184 37.2973 48.903 37.6608C49.3876 38.0242 49.5968 38.1674 49.5528 37.6057C49.5087 37.044 49.8391 37.0771 50.2356 37.2753C50.6321 37.4736 50.6981 36.7357 51.1717 37.1432C51.6452 37.5506 51.7884 37.5947 52.0747 37.1762C52.3611 36.7577 52.7245 37.1982 52.9338 37.3634C53.143 37.5286 53.2641 36.8348 53.6606 37.0881C54.0571 37.3414 54.3875 37.6167 54.2553 37.2203C54.1232 36.8238 54.4425 36.4494 54.872 36.7577Z" fill="black"/>
<path d="M51.5679 61.1958C53.0546 61.4932 54.5744 61.6033 56.0942 61.5262C58.5721 61.405 59.7285 61.4711 61.7659 61.7024C63.8033 61.9337 64.7614 61.7024 64.7614 61.7024" stroke="black" stroke-linecap="round" stroke-linejoin="round"/>
<path d="M67.3389 42.0994C67.3389 42.0994 67.5261 44.6104 69.7837 44.5003C72.0414 44.3901 73.0105 42.1655 73.0105 42.1655C73.0105 42.1655 69.5855 40.888 67.3389 42.0994Z" fill="black"/>
<path d="M46.1831 42.1433C46.1831 42.1433 46.4805 44.3679 48.9584 44.5441C51.4363 44.7203 52.3614 42.771 52.3393 42.0331C52.3173 41.2953 46.1831 42.2203 46.1831 42.2203" fill="black"/>
<path d="M65.1909 45.9868C65.1909 45.9868 68.1864 47.3084 70.1247 47.5837C72.063 47.859 73.8691 47.011 73.8691 47.011" stroke="black" stroke-linecap="round" stroke-linejoin="round"/>
<path d="M63.6494 43.6188C63.6494 43.6188 66.4908 42.4074 67.559 42.022C68.6273 41.6365 73.4509 41.2731 75.2901 43.6188" stroke="black" stroke-linecap="round" stroke-linejoin="round"/>
<path d="M55.0374 48.1123C55.0374 48.1123 54.1673 48.9383 53.6167 49.2136" stroke="black" stroke-linecap="round" stroke-linejoin="round"/>
<path d="M62.3281 43.3877C62.3281 43.3877 66.2707 52.3743 66.8654 53.5857C67.4601 54.7971 66.9535 55.8984 63.2862 56.2839C59.6189 56.6693 55.7423 56.8345 55.1917 55.4909C54.641 54.1474 55.6542 53.1232 56.9758 52.7597" stroke="black" stroke-linecap="round" stroke-linejoin="round"/>
<path d="M45.6431 47.0109C45.6431 47.0109 50.1033 48.6078 53.0438 46.1519" stroke="black" stroke-linecap="round" stroke-linejoin="round"/>
<path d="M42.4829 43.5531C42.4829 43.5531 45.115 42.2976 47.0423 41.9342C48.9695 41.5708 52.4386 41.9122 53.5619 42.2866C54.6853 42.6611 55.8747 43.8284 55.8747 43.8284" stroke="black" stroke-linecap="round" stroke-linejoin="round"/>
<path d="M47.0197 58.905C47.0197 58.905 47.6585 58.2112 47.6034 57.8587C47.5483 57.5063 48.3963 57.4953 48.6827 57.6715C48.969 57.8477 49.2664 57.0438 49.5967 57.1539C49.9271 57.264 50.5549 57.9579 50.9403 57.3191C51.3258 56.6804 51.7333 57.6275 52.1848 57.3191C52.6363 57.0107 52.5702 57.209 53.209 57.4843C53.8478 57.7596 53.9469 57.9579 54.1781 57.2861C54.4094 56.6143 54.7288 56.8235 55.1363 57.198C55.5437 57.5724 55.797 57.1759 56.0393 56.8456C56.2816 56.5152 56.7331 57.4292 57.6362 57.6715C58.5393 57.9138 58.9027 57.0658 59.2551 57.4843C59.6075 57.9028 59.7727 58.1671 60.2132 57.8367C60.6537 57.5063 60.6207 58.1451 61.2374 57.7486C61.8542 57.3522 62.0964 57.3632 62.3608 57.5504C62.6251 57.7376 62.7132 57.7706 63.0546 57.4733C63.396 57.1759 63.2418 57.8037 63.8255 57.4513C64.4092 57.0989 64.8166 56.8786 65.2241 57.231C65.6316 57.5834 66.7109 56.9226 67.1844 57.198C67.658 57.4733 67.4377 57.4733 68.1426 57.4733C68.8474 57.4733 68.6161 57.7706 69.0787 57.8367C69.5412 57.9028 70.202 57.9248 70.3451 58.09C70.4883 58.2552 71.6667 58.1671 71.942 58.5305C72.2173 58.894 72.801 58.9711 72.5257 59.2684C72.2504 59.5658 72.2284 59.9842 72.2504 60.3146C72.2724 60.645 71.072 61.1186 70.3451 61.1957C69.6183 61.2728 68.9135 62.1538 68.528 62.0437C68.1426 61.9335 68.4509 61.4049 67.9003 61.3829C67.3496 61.3609 67.0192 60.9754 66.7219 60.59C66.4245 60.2045 65.5325 60.8102 65.0479 60.3917C64.5633 59.9732 64.31 59.8631 63.4731 59.819C62.6361 59.775 62.9555 59.775 62.4819 59.4116C62.0083 59.0481 61.1053 58.938 60.841 58.894C60.5767 58.8499 60.2573 59.0922 59.982 58.8609C59.7066 58.6297 59.4093 59.3345 58.8256 59.1032C58.2419 58.8719 58.1758 58.5305 58.0106 58.6186C57.8454 58.7067 57.8124 59.4446 57.493 59.4116C57.1737 59.3785 57.2728 58.96 56.9534 59.0151C56.634 59.0702 56.3477 59.6318 55.9402 59.5878C55.5327 59.5437 55.6649 59.2574 55.3565 59.2023C55.0482 59.1473 54.6627 59.8741 54.3213 59.5768C53.9799 59.2794 54.024 59.2354 53.7927 59.4446C53.5614 59.6539 52.8235 59.9953 52.5372 59.8411C52.2509 59.6869 51.8104 60.4138 51.2707 60.5239C50.7311 60.634 50.7421 60.4248 50.5108 60.667C50.2796 60.9093 49.784 61.471 49.4316 61.3609C49.0791 61.2507 49.0021 61.0855 48.5615 61.3168C48.121 61.5481 47.8897 61.2067 47.7686 61.0525C47.6475 60.8983 47.24 61.515 46.7554 61.0525C46.2708 60.59 46.3589 60.1164 46.6122 59.8301C46.8655 59.5437 46.8325 59.1252 47.0197 58.905Z" fill="black"/>
<path d="M83.0983 22.2099C82.6578 17.4193 79.1337 13.6198 79.1337 13.6198C79.7064 13.9502 80.4552 14.9744 80.7856 14.6991C81.116 14.4237 80.3451 13.4656 79.1006 11.8908C77.8562 10.3159 74.343 7.45255 70.3784 6.08695C66.4137 4.72134 63.9358 5.22794 63.0548 4.98565C62.1737 4.74337 59.1782 2.5628 56.447 1.59366C53.7158 0.624523 50.5551 0.635536 48.1102 3.16851C45.6653 5.70149 46.6124 9.85338 46.6124 9.85338C46.6124 9.85338 45.3459 10.426 43.5729 11.0207C41.7998 11.6154 39.3769 12.4304 38.0113 12.7828C36.6457 13.1352 34.8065 14.611 34.1348 14.9414C33.463 15.2717 31.9872 16.2189 31.767 16.7144C31.5467 17.21 33.2868 16.1418 33.2868 16.3841C33.2868 16.6263 32.7361 16.9347 31.8441 17.9479C30.952 18.9611 29.9168 19.9853 29.3551 20.4368C28.7935 20.8883 28.4851 21.0976 28.2098 21.7033C27.9345 22.309 27.2076 23.8068 26.7891 24.2253C26.3706 24.6438 26.723 25.0512 27.0534 24.7539C27.3838 24.4565 28.3309 23.8178 28.3309 23.8178C28.3309 23.8178 27.6481 24.9191 27.3618 27.4521C27.0755 29.985 27.6371 31.659 27.1636 34.3682C26.69 37.0774 26.6129 38.3329 27.1636 38.6632C27.7142 38.9936 27.4389 36.9232 27.516 37.1435C27.5931 37.3637 27.8464 38.8174 28.1217 40.3923C28.397 41.9671 29.1899 43.4098 29.1899 43.4098C29.1899 43.4098 30.7648 41.6808 31.9652 42.0883C32.7031 42.3526 33.3308 42.8482 33.7603 43.4979C33.7603 43.4979 33.2868 45.4472 33.0665 46.141C32.8462 46.8349 33.6392 46.989 33.6171 47.4296C33.5951 47.8701 33.529 48.8833 33.4299 49.522C33.3308 50.1608 33.7273 50.2929 33.7383 50.4912C33.7493 50.6894 33.2647 52.8039 33.1106 53.1343C32.9564 53.4647 32.9784 53.6298 33.4079 53.9052C33.8374 54.1805 33.4299 55.5571 33.2647 55.9095C33.0995 56.2619 33.2317 56.4382 33.452 56.9007C33.6722 57.3632 33.1546 57.4844 33.3418 57.8919C33.529 58.2993 33.3638 58.5306 33.2868 58.8059C33.2097 59.0813 33.1766 59.2134 33.3749 59.4887C33.5731 59.7641 33.507 61.2288 33.3969 61.9887C33.2868 62.7486 33.9475 62.4292 33.9806 62.9028C34.0136 63.3763 33.9255 64.7199 33.9035 65.3807C33.8815 66.0414 34.4762 65.4578 34.6193 65.656C34.7625 65.8542 35.192 66.8454 35.0929 67.1758C34.9938 67.5062 35.3902 68.1449 35.6215 68.4753C35.8528 68.8057 35.6215 69.7088 35.8748 70.0942C36.1281 70.4797 36.8439 69.7308 36.899 70.3145C36.9541 70.8982 37.2845 71.7131 37.8131 72.0986C38.3417 72.484 38.3087 72.1316 38.4408 72.9025C38.573 73.6734 39.454 72.8475 39.7403 73.2549C40.0267 73.6624 39.7183 74.1029 40.2139 74.2681C40.7095 74.4333 40.7866 73.7505 40.9848 73.9377C41.183 74.125 41.2932 75.017 41.5905 75.5016C41.8879 75.9861 42.2843 75.1932 42.5266 75.3914C42.7689 75.5897 42.5046 76.2945 43.0552 76.4707C43.6059 76.6469 44.0134 76.1403 44.3217 76.3275C44.6301 76.5148 44.3217 77.561 45.0045 77.7592C45.6873 77.9575 45.9406 76.7901 46.1939 77.1205C46.4472 77.4509 46.0508 78.387 46.7226 78.5852C47.3944 78.7834 47.2402 77.4839 47.6917 77.8143C48.1432 78.1447 47.934 79.2129 48.5507 79.3341C49.1674 79.4552 49.2886 78.5852 49.5749 78.7504C49.8613 78.9156 49.5749 79.3341 50.0375 79.4883C50.5 79.6424 51.1167 78.6403 51.2269 78.8495C51.337 79.0588 51.1938 79.8076 51.8656 79.9508C52.5374 80.094 52.5044 79.2019 52.7797 79.3231C53.055 79.4442 53.022 80.5565 53.5836 80.5565C54.1453 80.5565 53.9911 79.9508 54.4096 79.9288C54.8281 79.9067 54.5968 80.2922 55.1254 80.3363C55.6541 80.3803 56.0615 79.5433 56.3038 79.7856C56.5461 80.0279 56.3919 80.6446 56.8875 80.7988C57.3831 80.953 57.7355 79.9728 57.9558 80.1711C58.176 80.3693 58.0108 80.5565 58.5945 80.6997C59.1782 80.8428 59.5527 79.3451 59.7729 79.6314C59.9932 79.9178 59.861 80.4904 60.4007 80.5125C60.9403 80.5345 61.0284 79.1689 61.3037 79.2129C61.579 79.257 61.4469 80.0719 62.0526 80.0719C62.6583 80.0719 62.9116 78.6072 63.0217 78.8275C63.1319 79.0477 62.9997 79.5984 63.8697 79.6204C64.7398 79.6424 64.8609 77.8583 65.1913 78.1337C65.5217 78.409 65.9292 79.2019 66.2706 78.8495C66.612 78.4971 66.5239 77.4178 66.7882 77.4949C67.0525 77.572 66.9203 78.453 67.537 78.5191C68.1538 78.5852 68.4181 76.5588 68.6053 76.6689C68.7925 76.7791 68.7154 77.2416 69.189 77.4178C69.6625 77.594 69.9819 76.3496 70.037 75.9861C70.0921 75.6227 70.3123 75.7439 70.6757 76.0082C71.0392 76.2725 71.4246 75.6447 71.4246 75.0941C71.4246 74.5434 71.777 74.4113 72.1184 74.7967C72.4598 75.1822 73.5721 72.1206 73.7373 72.1757C73.9025 72.2307 74.0347 72.451 74.4312 72.1757C74.8276 71.9003 74.7946 70.6889 74.9267 70.1603C75.0589 69.6317 75.2241 68.6515 75.5875 68.7506C75.9509 68.8497 75.9509 67.7264 75.9509 67.2969C75.9509 66.8674 76.0611 66.8013 76.5016 66.6692C76.9421 66.537 76.6888 64.83 76.865 64.8741C77.0412 64.9181 77.8342 65.1824 77.9112 64.2684C77.9883 63.3543 77.8892 62.4512 78.0544 62.1539C78.2196 61.8565 78.2747 61.6032 78.3077 60.8544C78.3408 60.1055 78.2306 58.3544 78.2196 57.4073C78.2086 56.4602 77.724 55.6232 77.724 55.1827C77.724 54.7422 77.4267 40.7557 77.4267 40.7557C78.4949 39.1478 79.387 37.4298 80.0698 35.6347C81.3253 32.5621 83.5389 27.0005 83.0983 22.2099ZM77.5809 49.9405L77.669 56.6254C77.5038 56.9778 77.3165 57.3192 77.0963 57.6386C76.832 57.969 76.7439 57.9359 76.876 58.6518C77.0082 59.3676 76.7879 59.4557 76.4245 59.6209C76.0611 59.7861 76.1382 60.3037 76.2042 61.1297C76.2703 61.9556 76.1492 61.8896 75.6756 61.8345C75.2021 61.7794 75.191 62.3191 75.2461 63.1671C75.3012 64.0151 74.8937 63.8609 74.8496 64.3124C74.8056 64.7639 74.2439 66.1626 73.5721 66.0635C72.9004 65.9644 73.0215 66.2727 72.8673 66.7903C72.7131 67.3079 72.3167 66.7683 72.0854 67.0106C71.8541 67.2529 71.4466 68.2 71.1163 68.6075C70.7859 69.0149 70.5876 68.0788 70.2352 68.4533C69.8828 68.8277 69.5304 69.7528 69.1119 69.2903C68.6934 68.8277 68.5613 68.7176 68.2969 69.2462C68.0326 69.7748 67.8454 69.7528 67.3498 69.2132C66.8542 68.6735 66.8212 69.3784 66.5789 69.929C66.3366 70.4797 66.0173 70.1823 65.8741 69.5326C65.7309 68.8828 65.2243 69.6647 64.9931 70.0391C64.7618 70.4136 64.4534 70.9092 64.09 70.4136C63.7266 69.918 63.5283 69.7638 63.253 70.1383C62.9777 70.5127 62.6803 70.788 62.5041 70.2374C62.3279 69.6867 62.1517 69.7528 61.557 70.5347C60.9623 71.3167 60.9403 71.2065 60.72 70.8431C60.4998 70.4797 60.3015 70.3916 60.0152 70.8101C59.7289 71.2285 59.1342 70.9092 58.7928 70.3255C58.4514 69.7418 58.176 69.6207 57.9227 70.2264C57.6694 70.8321 57.306 70.8541 57.0968 70.3475C56.8875 69.8409 56.458 69.6867 56.0946 70.3916C55.7312 71.0964 55.3347 70.8541 55.1254 70.1933C54.9162 69.5326 54.2334 70.2043 54.0241 70.5678C53.8149 70.9312 53.6277 71.0964 53.3413 70.4466C53.055 69.7969 52.9999 69.6867 52.2511 70.2374C51.5022 70.788 51.7004 70.1383 51.3921 69.4224C51.0837 68.7066 50.6542 69.5105 50.1256 70.0722C49.5969 70.6338 49.608 69.6427 49.3987 69.0149C49.1895 68.3872 48.782 68.7616 48.1212 69.4114C47.4604 70.0612 47.5595 69.1031 47.3613 68.2991C47.1631 67.4952 46.6455 67.374 46.26 68.0348C45.8746 68.6956 45.9517 68.0348 45.7314 67.1317C45.5111 66.2287 44.9825 66.0525 44.542 66.9996C44.1015 67.9467 43.9032 67.5502 43.5508 66.504C43.1984 65.4578 42.868 65.9533 42.3394 66.482C41.8108 67.0106 41.8438 65.9533 41.6566 65.3256C41.4694 64.6979 41.128 64.6428 40.7535 65.3036C40.3791 65.9644 40.1809 64.1803 40.1148 63.7838C40.0487 63.3873 39.8064 62.297 39.3989 62.8147C38.9915 63.3323 38.8483 63.2552 38.7932 62.1539C38.7382 61.0526 38.4078 60.1936 37.8021 60.8544C37.1964 61.5151 37.3395 59.9953 37.2514 59.0923C37.1633 58.1892 36.5906 58.1011 36.2382 58.0791C36.084 58.0681 36.029 57.8038 36.018 57.5064C36.029 57.2641 36.051 56.9668 36.062 56.6254C36.1281 55.3919 36.2162 53.6849 36.2823 52.9911C36.3924 51.9449 36.6347 44.5662 36.921 39.5333C37.1743 34.8528 38.1545 30.2494 39.8395 25.8772C41.3813 21.9126 43.694 19.1373 44.6301 18.2232C45.5662 17.3091 45.5992 17.4303 46.6124 15.8885C47.6256 14.3467 47.4054 12.0119 47.6036 12.089C47.8018 12.1661 48.6168 12.6176 49.5639 13.1352C50.511 13.6528 52.5594 15.2057 54.762 16.0537C56.9646 16.9017 59.6628 18.2012 62.4931 19.3796C65.3234 20.558 65.819 21.2298 65.819 21.2298C67.6362 20.569 67.7793 19.0051 71.2374 19.4677C74.6955 19.9302 75.5104 21.5051 76.5236 26.9565C77.4267 31.8022 77.4817 36.725 77.4267 39.1038C77.4157 39.4011 77.4046 39.6654 77.4046 39.8747C77.3716 40.8989 77.4707 45.7666 77.5809 49.9405Z" fill="black"/>
<path d="M77.7461 56.262C77.7461 56.262 77.3277 41.7469 77.4158 39.8527C77.5039 37.9585 77.5479 32.3859 76.5347 26.9455C75.5215 21.5051 74.7176 19.9193 71.2485 19.4567C67.7794 18.9942 67.6363 20.558 65.8301 21.2188C65.8301 21.2188 65.3345 20.547 62.5042 19.3686C59.6739 18.1902 56.9757 16.8907 54.7731 16.0427C52.5705 15.1947 50.5001 13.6419 49.575 13.1243C48.6499 12.6067 47.8129 12.1551 47.6147 12.078C47.4165 12.0009 47.6367 14.3357 46.6235 15.8775C45.6104 17.4193 45.5773 17.3092 44.6412 18.2122C43.7051 19.1153 41.3924 21.9016 39.8506 25.8663C38.1656 30.2384 37.1854 34.8418 36.9322 39.5223C36.6568 44.5662 36.4035 51.9449 36.2934 52.9801C36.1833 54.0154 36.0511 57.4074 35.985 57.936C35.919 58.4646 36.8771 66.6472 41.8329 69.4335C46.7887 72.2198 53.804 75.1933 59.3105 74.6426C64.8169 74.092 70.9842 71.2066 73.9026 68.6956C76.8211 66.1847 77.7572 59.0593 77.7572 59.0593V56.262H77.7461Z" stroke="black" stroke-width="3" stroke-miterlimit="10"/>
<path d="M62.8896 18.6306L63.9689 19.2913C63.9689 19.2913 65.6429 16.3289 68.4842 15.5469C71.3256 14.765 73.2308 15.4258 75.0259 16.9566C75.0259 16.9566 73.4731 14.5337 70.3454 14.3685C67.2177 14.2034 65.0041 15.602 62.8896 18.6306Z" fill="white"/>
<path d="M120.389 -3.06494H-9.53125V125.456H120.389V-3.06494Z" stroke="black" stroke-width="5" stroke-miterlimit="10"/>
</g>
</g>
<defs>
<clipPath id="clip0_1100_29863">
<rect width="147.794" height="147.794" fill="white" transform="translate(-18.4741 -12.7012)"/>
</clipPath>
</defs>
</svg>
