<svg width="224" height="160" fill="none" xmlns="http://www.w3.org/2000/svg"><g clip-path="url(#a)"><g clip-path="url(#b)" stroke="#000"><path d="m185.751 40.26-.242.685.692.225h.001l.004.002.017.005.069.023.271.092a49.137 49.137 0 0 1 4.261 1.718c2.547 1.173 5.372 2.774 6.875 4.56 2.989 3.553 3.212 7.478 3.418 11.089l.013.237a12.486 12.486 0 0 1-3.403 9.299h-.001l-18.052 19.068-.002.001c-1.545 1.642-2.585 3.55-3.579 5.373l-.454.829c-1.157 2.09-2.371 4.05-4.382 5.617-2.02 1.575-4.305 2.184-6.687 2.796l-.153.039c-2.294.588-4.702 1.205-6.722 2.845-4.352 3.526-9.095 8.039-8.049 14.486.323 1.992 1.506 3.309 2.546 4.43l.09.096c1.038 1.119 1.877 2.022 2.128 3.292a12.479 12.479 0 0 1-4.159 11.917 12.525 12.525 0 0 1-12.444 2.219c-2.09-.768-5.081-1.199-8.329-1.141-3.256.058-6.824.61-10.074 1.852h-.001c-2.283.874-4.011 1.711-5.307 2.87-1.319 1.18-2.142 2.648-2.717 4.685-.446 1.581-.931 2.797-1.606 3.86-.672 1.06-1.553 1.999-2.83 2.998-1.283 1.003-2.408 1.658-3.598 2.068-1.189.41-2.48.588-4.11.59-3.945.007-6.864-1.463-9.231-4.022-1.995-2.159-2.75-4.608-3.318-8.093-.701-4.295-3.712-7.727-7.76-9.095-3.786-1.279-6.963-1.013-10.079-.069-1.544.468-3.073 1.102-4.642 1.788-.406.177-.813.358-1.226.54-1.19.528-2.415 1.07-3.72 1.593a12.531 12.531 0 0 1-9.168.069 12.5 12.5 0 0 1-6.754-6.189 12.472 12.472 0 0 1-.714-9.125 12.494 12.494 0 0 1 5.709-7.161v.001l.01-.007a31.517 31.517 0 0 0 4.707-3.452l1.135-1.006-1.5-.224-.212-.032-.008-.001a12.517 12.517 0 0 1-7.912-4.394 12.48 12.48 0 0 1-1.098-14.414l.41-.682-.725-.328a17.134 17.134 0 0 1-6.603-5.274 15.75 15.75 0 0 1-2.663-13.562l.167-.629-.612-.22a15.751 15.751 0 0 1-4.626-2.623l-.005-.004a16.186 16.186 0 0 1-5.439-8.126 16.162 16.162 0 0 1 .238-9.77 17.47 17.47 0 0 1 7.892-9.368 22.685 22.685 0 0 1 10.867-2.893h.013c.743-.02 1.477.005 2.21.052l.824.052-.072-.822a28.107 28.107 0 0 1-.108-2.472c0-11.18 6.592-21.725 18.233-28.893C73.307 4.09 86.17.731 99.685.731c13.516 0 26.379 3.338 36.23 9.399l.006.003c2.21 1.33 4.939 4.012 7.153 6.42a94.567 94.567 0 0 1 3.744 4.334l.054.068.014.017.003.004.001.002.436.548.555-.43h.001l.006-.005.023-.018.088-.067c.464-.354.929-.704 1.398-1.05.844-.622 1.79-1.292 2.323-1.59a12.525 12.525 0 0 1 10.06-.949l16.667 5.544a12.511 12.511 0 0 1 7.556 6.965 12.486 12.486 0 0 1 .994 5.156c-.019.835-.315 2.105-.632 3.223a39.39 39.39 0 0 1-.563 1.808l-.038.11-.01.029-.002.006-.001.002Z" fill="#FF7051"/><path d="M92.672 64.537c2.115.194 4.231.3 6.416.3 23.172 0 41.955-11.558 41.955-25.815 0-14.257-18.783-25.821-41.955-25.821-23.173 0-41.95 11.559-41.95 25.82 0 9.505 8.299 17.764 20.67 22.253 0 0 1.201 12.672 15.25 14.462-2.941-7.778-.386-11.2-.386-11.2Z" stroke-linecap="round" stroke-linejoin="round"/><path d="M72.08 46.478s15.751-1.23 23.559-10.329c6.876-8.03-3.443-11.183-9.193-3.443-5.75 7.742-1.725 14.632 8.906 14.632 10.919 0 19.826-6.595 23.565-12.335 3.74-5.74-4.602-9.753-10.05-2.297-4.342 5.936-5.744 17.79 10.923 13.486" stroke-linecap="round" stroke-linejoin="round"/><path d="m157.228 29.263-6.13 26.202 10.537 4.013 12.26-24.67-16.667-5.545v0Zm-5.919 43.928a5.748 5.748 0 0 0 4.062-1.68 5.73 5.73 0 0 0 0-8.109 5.748 5.748 0 0 0-8.123 0 5.73 5.73 0 0 0-1.683 4.055c0 1.52.606 2.98 1.683 4.055a5.748 5.748 0 0 0 4.061 1.679v0Zm8.119 17.262a5.748 5.748 0 0 0 4.062-1.68 5.728 5.728 0 0 0 0-8.11 5.748 5.748 0 0 0-9.806 4.055c0 1.52.605 2.98 1.682 4.055a5.75 5.75 0 0 0 4.062 1.68v0Zm2.809-17.336 7.749 5.555 18.058-19.068-11.203-9.409-14.604 22.922Z" fill="#000" stroke-linecap="round" stroke-linejoin="round"/><path d="M58 64.262s-6.876-9.8-15.9-9.562c-7.279.194-9.193 5.354-5.94 8.03 3.252 2.678 15.519-.976 21.84 1.532v0Zm6.897 8.607s-13.223-2.677-17.984 3.247c-4.76 5.924 2.116 9.182 6.702 7.271 4.585-1.911 7.067-8.432 11.282-10.518Z" stroke-linecap="round" stroke-linejoin="round"/><path d="M68.917 82.811s10.923 10.133 21.459 7.076c10.536-3.057 18.771-14.727 18.771-14.727s-.962 8.243 9.77 9.183c10.733.94 17.238-7.46 17.238-7.46s-4.596 8.225-1.338 13.384c3.258 5.16 14.366 4.784 14.366 4.784s-10.156 8.222-11.88 15.314c-1.724 7.091-1.529 14.726 4.231 19.125-7.278-2.677-18.195-2.677-27.203.76-9.007 3.438-14.556 11.475-15.704 16.259 0-5.165-5.75-16.259-15.52-20.272-9.769-4.013-29.09 3.823-29.09 3.823s12.065-6.865 12.642-14.151c.576-7.287-4.792-12.62-13.029-13.766 10.157 0 15.9.38 19.35-3.633 3.447-4.013-4.063-15.699-4.063-15.699v0Z" fill="#000" stroke-linecap="round" stroke-linejoin="round"/></g></g><defs><clipPath id="a"><path fill="#fff" d="M0 0h224v160H0z"/></clipPath><clipPath id="b"><path fill="#fff" transform="translate(22)" d="M0 0h179.9v160.27H0z"/></clipPath></defs></svg>