<svg width="224" height="160" fill="none" xmlns="http://www.w3.org/2000/svg"><path d="m190.807 121.233-5.346-6.715V110.8a15.16 15.16 0 0 0 5.903-5.416 15.097 15.097 0 0 0 2.311-7.661 15.103 15.103 0 0 0-2.12-8.08 15.154 15.154 0 0 0-6.094-5.729V36.449a15.11 15.11 0 0 0-3.18-9.28 15.176 15.176 0 0 0-8.214-5.386v-2.038c0-.122-.026-.273-.041-.404a7.787 7.787 0 0 0-.04-.303c-.016-.1-.041-.302-.066-.449-.025-.146 0-.166-.041-.247a22.93 22.93 0 0 0-.096-.505c0-.07-.035-.14-.05-.216-.041-.167-.076-.333-.122-.505l-.06-.212c-.046-.161-.091-.328-.147-.504-.056-.177-.056-.167-.081-.247l-.152-.44-.121-.302c-.051-.121-.096-.247-.152-.368-.055-.122-.111-.248-.167-.369-.055-.12-.086-.191-.131-.282-.046-.091-.142-.288-.218-.43l-.116-.216a8.01 8.01 0 0 0-.258-.45l-.106-.18-.283-.445c-.041-.055-.076-.116-.117-.176l-.293-.409-.147-.197-.283-.363a4.174 4.174 0 0 1-.187-.232l-.273-.308c-.076-.09-.157-.176-.238-.267l-.253-.262-.288-.288-.121-.121-.127-.116-.308-.278-.263-.227-.299-.242-.298-.232c-.091-.07-.182-.141-.278-.207l-.334-.237-.258-.171-.369-.238-.253-.146-.39-.227-.258-.131a7.275 7.275 0 0 0-.394-.202c-.132-.06-.192-.09-.288-.136a7.019 7.019 0 0 0-.375-.167l-.338-.14-.339-.132-.39-.136-.303-.101-.425-.126-.278-.081-.44-.106-.278-.066-.435-.08-.304-.056-.404-.06-.349-.04-.375-.036c-.126 0-.258-.025-.384-.03-.127-.005-.233 0-.349 0H44.702a15.192 15.192 0 0 0-10.729 4.433 15.117 15.117 0 0 0-4.444 10.702v85.526c0 3.009.9 5.949 2.584 8.445a15.16 15.16 0 0 0 6.869 5.57v.056c0 4.014 1.599 7.864 4.444 10.702a15.19 15.19 0 0 0 10.729 4.433h62.76a15.126 15.126 0 0 0 3.85 7.372 15.208 15.208 0 0 0 16.055 3.868 15.173 15.173 0 0 0 7.154-5.266l1.613-2.175 7.875 10.343a15.178 15.178 0 0 0 12.082 5.988c3.314 0 6.536-1.083 9.175-3.082l13.377-10.131a15.103 15.103 0 0 0 5.882-10.166 15.089 15.089 0 0 0-3.171-11.286Z" fill="#23A094" stroke="#000" stroke-miterlimit="10"/><path d="M170.288 100.583v18.637l-.329.257-11.546-14.51a.127.127 0 0 1-.026-.055.14.14 0 0 1 .001-.061.12.12 0 0 1 .081-.086l11.779-4.298.04.116Zm0-64.042v56.824l-.233.55-11.288-4.733.126-.302V36.54h11.395Zm-24.741 78.041 4.521 5.943-.273.207h-8.992l4.552-6.135a.127.127 0 0 1 .044-.036.133.133 0 0 1 .148.021Zm-17.09-7.959 1.79 14.101-.07.01H54.155v-14.071h73.978l.324-.04Z" fill="#000"/><path d="M128.132 106.662H44.701V21.137h114.192v67.741M45.005 36.541h113.777m-14.595-.001V21.99" stroke="#000" stroke-linecap="round" stroke-linejoin="round"/><path d="m144.187 36.54 7.116-7.457 7.591-7.946m-28.717 99.596H54.155V106.41m95.64 14.324h-8.992m29.485-20.152v18.637" stroke="#000" stroke-linecap="round" stroke-linejoin="round"/><path d="m144.187 21.99 7.116 7.094 7.48 7.457h11.506v56.823M52.9 29.806c.654 0 1.184-.528 1.184-1.18 0-.652-.53-1.18-1.184-1.18-.653 0-1.183.528-1.183 1.18 0 .652.53 1.18 1.183 1.18Zm7.936 0a1.18 1.18 0 1 0 0-2.36c-.654 0-1.184.528-1.184 1.18 0 .652.53 1.18 1.184 1.18Zm7.935 0c.654 0 1.184-.528 1.184-1.18 0-.652-.53-1.18-1.184-1.18-.653 0-1.183.528-1.183 1.18 0 .652.53 1.18 1.183 1.18Zm67.763 50.051 22.253 9.324 11.289 4.732 8.446 3.532-8.254 3.027-11.779 4.298a.125.125 0 0 0-.082.147.14.14 0 0 0 .026.055l11.547 14.51 8.962 11.261-13.398 10.126-15.476-20.343-4.522-5.943a.122.122 0 0 0-.045-.036.12.12 0 0 0-.056-.014v0a.122.122 0 0 0-.056.014.122.122 0 0 0-.045.036l-4.552 6.135-9.002 12.109-1.518-12.109-1.79-14.126-2.271-17.936" stroke="#000" stroke-linecap="round" stroke-linejoin="round"/><path d="m126.186 88.687-1.76-13.904 12.108 5.075c7.996-9.232 5.846-16.578-.906-19.545-8.314-3.647-19.623 2.987-19.623 2.987s2.994-21.563-23.614-14.929c-24.965 6.226-35.444 24.656-29.932 34.504 7.981 14.268 30.6 1.66 30.6 1.66-2.469 15.68 19.294 12.83 33.127 4.152Z" stroke="#000" stroke-linecap="round" stroke-linejoin="round"/></svg>