<svg width="93" height="167" viewBox="0 0 93 167" fill="none" xmlns="http://www.w3.org/2000/svg">
<path d="M7.27477 149.557L10.8802 138.239C8.22801 136.084 5.84639 133.603 3.78917 130.854C1.12346 127.327 1.08201 122.967 3.68346 120C4.67799 118.863 8.63428 114.383 12.4418 110.082C16.1315 105.932 24.027 106.994 27.3063 112.092L28.5609 114.046C28.8474 114.492 29.1187 114.932 29.3804 115.362C29.5886 115.707 29.864 116.158 30.0233 116.386C30.2406 115.641 30.3919 114.877 30.4752 114.103C31.3237 107.014 31.2936 99.6331 31.268 92.4881C31.2431 86.9525 31.171 81.2967 31.0963 75.8315C31.031 70.6325 30.9613 65.2585 30.9316 59.9592C30.8578 53.5266 31.2029 47.0961 31.9646 40.7102C32.6807 35.0046 34.2626 30.5529 36.9597 26.6945C40.3271 21.8803 45.1908 18.8283 51.2231 17.6761C51.5648 16.6141 53.3875 10.8852 54.9311 6.0368C56.1822 2.10951 61.0242 0.193382 65.746 1.75746L81.1376 6.85616C85.8386 8.41528 88.6535 12.8393 87.4321 16.7617C86.0426 21.214 84.4659 26.2903 84.1848 27.2166C85.0677 27.9499 87.272 30.5699 89.2992 33.0935C91.8359 36.2421 91.6574 40.2425 88.8724 42.6662L78.979 51.2656C75.681 54.1289 69.956 53.7728 66.3162 50.476L65.396 49.6412C64.6771 57.6 64.8084 65.6267 64.9412 74.1218C64.9639 75.6167 64.9867 77.1116 65.0094 78.6065L65.1141 85.7181C65.2343 93.749 65.3549 102.056 65.3033 110.246C65.2415 115.095 64.8528 119.934 64.1399 124.729C63.2348 131.165 60.5891 136.642 56.2706 141.019C52.9728 144.364 48.739 146.581 43.7968 147.562C43.4089 148.851 41.451 155.139 39.8366 160.31C38.603 164.259 33.7485 166.193 29.0081 164.63L13.5576 159.499C8.83579 157.935 6.02364 153.484 7.27477 149.557Z" fill="#FFC900" stroke="black" stroke-width="2" stroke-miterlimit="10"/>
<path d="M19.5895 117.681C20.3404 118.853 20.9263 119.954 21.7119 120.946C24.0179 123.893 27.3369 125.836 30.9957 126.38C34.2284 126.915 36.5359 125.837 38.1332 123.679C39.7962 121.426 40.5244 118.823 40.852 116.089C41.7445 108.655 41.7287 101.099 41.6912 93.56C41.6438 82.7191 41.4111 71.8621 41.3544 61.0216C41.282 54.9198 41.6051 48.8199 42.3214 42.7615C42.8023 38.9158 43.8013 35.2549 46.0432 32.0455C48.7012 28.2438 52.6875 26.2105 58.1615 26.2253C59.9563 26.2319 59.5436 26.4984 60.0032 25.0703C61.456 20.5586 62.8842 16.0401 64.3239 11.527L64.5911 10.683L76.8745 14.7527C76.7851 15.0246 76.6974 15.2925 76.6118 15.5661C75.2069 20.217 73.804 24.8736 72.3853 29.5041C72.2442 29.953 72.4115 30.143 72.8761 30.3965C76.4184 32.3008 78.6181 34.1001 80.3947 36.5071L72.2335 43.6014C71.026 42.5067 69.9359 41.3543 68.6588 40.405C66.857 39.0573 64.7172 38.2586 62.4881 38.1017C59.8273 37.8982 58.121 38.9758 56.9399 40.8074C55.5796 42.9065 55.2271 45.3059 55.003 47.7462C54.1031 57.618 54.4449 67.6463 54.5746 77.6461C54.7107 88.1448 54.9273 98.648 54.8645 109.12C54.8055 113.629 54.4428 118.128 53.7793 122.586C53.1266 127.124 51.359 131.284 48.0034 134.686C45.0625 137.664 41.1638 139.111 36.3944 139.111C35.5241 139.108 35.1508 139.328 34.9338 140.059C33.5298 144.842 32.0464 149.596 30.6102 154.368C30.4726 154.81 30.3292 155.243 30.178 155.725L17.7665 151.624L22.8449 135.678C21.3285 134.669 19.8434 133.754 18.4517 132.732C16.1222 130.994 14.0542 128.919 12.3132 126.571C12.2537 126.486 12.2182 126.386 12.2105 126.282C12.2029 126.178 12.2235 126.073 12.27 125.98C14.6699 123.228 17.0967 120.498 19.5895 117.681Z" fill="#FFC900" stroke="black" stroke-width="2" stroke-miterlimit="10"/>
</svg>
