<svg width="276" height="210" viewBox="0 0 276 210" fill="none" xmlns="http://www.w3.org/2000/svg">
<path d="M216.058 2.15777L24.5543 43.4575C8.78462 46.8584 -1.24225 62.3991 2.15863 78.1688L25.2319 185.158C28.6328 200.928 44.1735 210.954 59.9432 207.554L251.447 166.254C267.217 162.853 277.244 147.312 273.843 131.543L250.77 24.5534C247.369 8.78377 231.828 -1.2431 216.058 2.15777Z" fill="#FF90E8" stroke="black" stroke-width="2" stroke-miterlimit="10"/>
<path d="M57.6451 149.36L35.6848 154.097C31.6118 134.12 23.6422 97.1876 17.4727 69.6506L38.8613 65.0341L41.0778 75.2766C35.8471 76.1731 32.9176 76.8013 30.5317 77.2037C31.527 81.8202 32.4306 86.5709 33.5247 91.6392C37.4424 90.6721 41.8331 89.7263 43.2731 89.3028L45.5532 99.8912C43.9578 100.117 39.539 100.95 35.6001 101.804C38.3319 115.004 41.339 128.967 44.219 141.779C47.4873 141.073 51.2779 140.134 55.3862 138.899L57.6451 149.36Z" fill="#F1F333" stroke="black" stroke-width="2" stroke-miterlimit="10"/>
<path d="M69.8997 114.616C71.5868 127.922 73.5562 143.049 75.1021 155.678L62.8266 158.325C62.5654 140.678 62.0643 124.202 61.9513 104.543C56.3042 93.5168 49.1393 80.6766 45.2852 73.7306L56.4313 71.3235C58.7889 76.2648 62.8266 84.5591 66.6102 92.8181C66.6102 85.0532 66.9067 76.7236 66.4549 69.1634L78.5045 66.5658C77.1704 78.4036 75.4974 90.312 74.375 101.507C82.1399 118.929 90.1801 135.454 97.6202 150.821L86.8129 153.151C82.4222 143.233 75.9351 127.922 69.8997 114.616Z" fill="#F1F333" stroke="black" stroke-width="2" stroke-miterlimit="10"/>
<path d="M125.417 116.712C134.777 154.64 133.055 169.033 121.796 171.462C111.433 173.699 102.666 158.756 96.7646 131.374C90.9128 104.239 93.0304 87.2837 103.951 84.926C110.932 83.4225 115.852 87.6648 119.89 97.6321C121.341 101.574 122.49 105.622 123.327 109.738L112.4 112.096C111.775 108.654 110.962 105.249 109.965 101.896C108.214 96.4956 107.099 94.6179 105.977 94.8368C103.499 95.3732 104.275 110.995 108.137 128.903C113.551 154.012 118.061 162.349 120.087 161.911C122.113 161.473 122.205 151.075 114.384 119.07L125.417 116.712Z" fill="#F1F333" stroke="black" stroke-width="2" stroke-miterlimit="10"/>
<path d="M136.344 89.7545C140.199 108.722 149.756 152.974 154.563 174.208L143.749 176.537C139.274 155.233 129.843 110.953 125.537 92.084L136.344 89.7545Z" fill="#F1F333" stroke="black" stroke-width="2" stroke-miterlimit="10"/>
<path d="M155.229 81.1144C159.747 103.703 167.998 141.405 171.26 155.431L160.445 157.76C157.622 143.748 149.61 105.891 144.753 83.3732C142.05 83.9591 139.346 84.5379 138.358 84.8697L136.148 74.6202L159.118 69.6789L161.328 79.9284C160.516 79.9849 157.706 80.592 155.229 81.1144Z" fill="#F1F333" stroke="black" stroke-width="2" stroke-miterlimit="10"/>
<path d="M170.743 56.9163C174.597 75.8837 184.155 120.136 188.962 141.37L178.148 143.706C173.672 122.395 164.234 78.1214 159.936 59.2529L170.743 56.9163Z" fill="#F1F333" stroke="black" stroke-width="2" stroke-miterlimit="10"/>
<path d="M201.464 34.9064C206.744 61.5821 215.3 102.863 219.345 119.43C218.985 119.395 210.09 121.315 209.886 121.477C207.683 116.176 199.1 95.5145 191.532 76.8788C189.845 72.8835 188.405 68.9517 187.022 65.2457L186.796 65.2951C188.088 70.2363 189.309 74.7682 190.099 77.8953C194.335 94.1873 198.055 109.294 201.316 123.32L190.728 125.6C187.198 108.658 178.445 67.561 172.516 41.1535C174.993 40.617 183.662 38.7464 185.638 38.0829C187.438 43.7301 192.845 58.9208 199.382 76.1306C200.935 80.0341 202.417 84.1919 203.744 88.1308L203.942 87.9684C203.321 85.6248 202.749 83.5142 202.431 82.046C198.238 64.808 194.003 48.9819 191.321 37.0734L201.464 34.9064Z" fill="#F1F333" stroke="black" stroke-width="2" stroke-miterlimit="10"/>
<path d="M236.35 101.585C225.762 103.865 217.107 88.8789 210.938 60.1702C205.375 34.3839 206.816 17.5695 218.526 15.0495C225.508 13.5388 231.028 18.36 234.494 27.8684C235.884 31.4226 236.915 35.1069 237.571 38.8663L226.651 41.224C226.05 38.0126 225.284 34.8343 224.357 31.7015C222.783 26.0543 221.533 24.7626 220.439 25.0026C217.736 25.5885 218.674 41.4075 222.515 59.2031C227.738 83.4082 231.966 92.6344 234.331 92.1261C236.583 91.6391 237.331 83.1118 230.717 56.2525C227.364 57.0925 225.924 57.5231 225.07 57.8337L222.86 47.5841C223.898 47.4782 228.176 46.5535 231.889 45.7559C235.27 45.05 238.192 44.3935 239.188 44.0617C248.068 79.9423 248.957 98.8391 236.35 101.585Z" fill="#F1F333" stroke="black" stroke-width="2" stroke-miterlimit="10"/>
</svg>
