<svg width="224" height="160" fill="none" xmlns="http://www.w3.org/2000/svg"><path d="M197.985 60.533a37.829 37.829 0 0 0-11.074-26.7 37.804 37.804 0 0 0-26.691-11.078 37.807 37.807 0 0 0-6.152.492l-33.203-8.458a45.627 45.627 0 0 0-27-8.808 45.937 45.937 0 0 0-32.437 13.46 45.969 45.969 0 0 0-13.46 32.446 45.65 45.65 0 0 0 3.968 18.67 14.573 14.573 0 0 0-4.356-.424c-.3 0-.576-.024-.827-.024-3.937 0-13.687 1.477-18.703 15.154-1.9 5.19-2.908 11.516-2.908 18.291s1.009 13.106 2.908 18.296c5.02 13.672 14.766 15.149 18.703 15.149a17.93 17.93 0 0 0 7.786-1.821l21.415-9.557h.92v11.221a17.16 17.16 0 0 0 5.024 12.113 17.148 17.148 0 0 0 12.11 5.025h65.863a17.159 17.159 0 0 0 17.127-17.138v-17.868a14.768 14.768 0 0 0 12.767-14.627v-12.59a14.723 14.723 0 0 0-1.338-6.144 37.618 37.618 0 0 0 9.558-25.08Z" fill="#F1F333" stroke="#000" stroke-miterlimit="10"/><path d="M160.973 83.603H95.11a2.368 2.368 0 0 0-2.368 2.369v50.869a2.368 2.368 0 0 0 2.368 2.368h65.863a2.368 2.368 0 0 0 2.367-2.368v-50.87a2.368 2.368 0 0 0-2.367-2.368Zm-66.006-.551c17.193 0 31.131-13.943 31.131-31.141 0-17.2-13.938-31.142-31.13-31.142-17.194 0-31.131 13.943-31.131 31.142 0 17.198 13.937 31.14 31.13 31.14Zm66.357.486c12.702 0 22.999-10.3 22.999-23.007s-10.297-23.008-22.999-23.008c-12.703 0-23 10.301-23 23.008 0 12.706 10.297 23.007 23 23.007Zm-45.232-54.981 37.366 9.517m10.064 53.688h12.581v12.584h-12.581" stroke="#000" stroke-linecap="round" stroke-linejoin="round"/><path d="M148.147 94.357h-39.473a6.113 6.113 0 0 0-6.112 6.115v.005a6.113 6.113 0 0 0 6.112 6.115h39.473a6.114 6.114 0 0 0 6.113-6.115v-.005a6.114 6.114 0 0 0-6.113-6.115Z" stroke="#000" stroke-linecap="round" stroke-linejoin="round"/><path d="M109.234 128.358a6.3 6.3 0 0 0 6.3-6.302 6.3 6.3 0 1 0-12.599 0 6.3 6.3 0 0 0 6.299 6.302Z" fill="#000" stroke="#000" stroke-linecap="round" stroke-linejoin="round"/><path d="M128.056 128.358a6.3 6.3 0 0 0 6.3-6.302 6.3 6.3 0 1 0-12.6 0 6.3 6.3 0 0 0 6.3 6.302ZM92.436 95.84H74.093v15.012h18.343V95.84ZM49.451 84.904 73.907 95.84m0 15.01-24.456 10.94m45.517-81.273a5.902 5.902 0 0 0 5.901-5.903 5.902 5.902 0 1 0-11.803 0 5.902 5.902 0 0 0 5.902 5.904Zm0 34.588a5.902 5.902 0 0 0 5.901-5.903 5.902 5.902 0 1 0-11.803 0 5.902 5.902 0 0 0 5.902 5.903Zm14.769-26.279a5.902 5.902 0 0 0 5.901-5.903 5.902 5.902 0 1 0-11.802 0 5.902 5.902 0 0 0 5.901 5.903Zm-29.54 17.973a5.902 5.902 0 0 0 5.901-5.904 5.902 5.902 0 1 0-11.802 0 5.902 5.902 0 0 0 5.901 5.904Zm29.993-.821a5.903 5.903 0 0 0 0-11.806 5.902 5.902 0 0 0-5.901 5.903 5.902 5.902 0 0 0 5.901 5.903ZM79.744 49.576a5.902 5.902 0 0 0 5.901-5.903 5.902 5.902 0 1 0-11.802 0 5.902 5.902 0 0 0 5.901 5.903Zm15.223 5.619a3.283 3.283 0 1 0 0-6.567 3.283 3.283 0 0 0 0 6.567Zm66.356-3.159a4.4 4.4 0 0 0 4.4-4.402 4.4 4.4 0 1 0-4.4 4.402Zm0 25.802a4.4 4.4 0 0 0 4.4-4.401 4.4 4.4 0 1 0-4.4 4.401Zm11.019-19.608a4.401 4.401 0 1 0 0-8.801 4.401 4.401 0 0 0 0 8.802Zm-22.039 13.411a4.4 4.4 0 0 0 4.4-4.401 4.4 4.4 0 1 0-4.4 4.401Zm22.378-.613a4.4 4.4 0 0 0 4.4-4.402 4.4 4.4 0 1 0-4.4 4.402ZM149.967 58.79a4.401 4.401 0 1 0 0-8.803 4.401 4.401 0 0 0 0 8.802Zm11.355 4.194a2.451 2.451 0 1 0 0-4.903 2.451 2.451 0 0 0 0 4.903Z" stroke="#000" stroke-linecap="round" stroke-linejoin="round"/><path d="M47.855 122.254c3.784 0 6.851-8.361 6.851-18.675s-3.067-18.675-6.851-18.675-6.851 8.361-6.851 18.675 3.067 18.675 6.851 18.675Z" fill="#000" stroke="#000" stroke-linecap="round" stroke-linejoin="round"/></svg>