<svg width="498" height="497" viewBox="0 0 498 497" fill="none" xmlns="http://www.w3.org/2000/svg">
<rect x="175.99" y="217.99" width="147.495" height="56.4242" rx="8.90909" fill="white" stroke="white" stroke-width="1.9798"/>
<path d="M217.426 238.289V254.919H219.611V247.839H228.331V245.772H219.611V240.356H229.043V238.289H217.426Z" fill="black"/>
<path d="M230.513 249.289C230.513 252.615 232.818 255.157 236.215 255.157C239.588 255.157 241.94 252.615 241.94 249.289C241.94 245.963 239.636 243.42 236.215 243.42C232.818 243.42 230.513 245.963 230.513 249.289ZM239.826 249.289C239.826 251.664 238.329 253.304 236.215 253.304C234.124 253.304 232.604 251.641 232.604 249.289C232.604 246.937 234.124 245.274 236.215 245.274C237.284 245.274 238.139 245.654 238.804 246.414C239.493 247.15 239.826 248.124 239.826 249.289Z" fill="black"/>
<path d="M244.403 254.919H246.446V238.289H244.403V254.919Z" fill="black"/>
<path d="M249.623 254.919H251.667V238.289H249.623V254.919Z" fill="black"/>
<path d="M254.155 249.289C254.155 252.615 256.459 255.157 259.856 255.157C263.23 255.157 265.582 252.615 265.582 249.289C265.582 245.963 263.278 243.42 259.856 243.42C256.459 243.42 254.155 245.963 254.155 249.289ZM263.468 249.289C263.468 251.664 261.971 253.304 259.856 253.304C257.766 253.304 256.245 251.641 256.245 249.289C256.245 246.937 257.766 245.274 259.856 245.274C260.926 245.274 261.781 245.654 262.446 246.414C263.135 247.15 263.468 248.124 263.468 249.289Z" fill="black"/>
<path d="M268.668 243.658H266.648L269.998 254.919H272.564L275.058 246.271L277.553 254.919H280.095L283.445 243.658H281.425L278.788 252.923L276.246 243.658H273.847L271.305 252.923L268.668 243.658Z" fill="black"/>
<path fill-rule="evenodd" clip-rule="evenodd" d="M216.931 237.794H229.539V240.851H220.107V245.277H228.826V248.334H220.107V255.414H216.931V237.794ZM219.612 254.919H217.426V238.289H229.044V240.356H219.612V245.772H228.331V247.839H219.612V254.919ZM238.438 246.746L238.432 246.74C237.866 246.093 237.149 245.768 236.215 245.768C234.444 245.768 233.099 247.162 233.099 249.289C233.099 251.415 234.444 252.809 236.215 252.809C237.137 252.809 237.905 252.454 238.446 251.855C238.991 251.252 239.331 250.373 239.331 249.289C239.331 248.222 239.029 247.378 238.443 246.752L238.438 246.746ZM236.215 255.652C232.522 255.652 230.018 252.865 230.018 249.289C230.018 245.712 232.522 242.925 236.215 242.925C239.931 242.925 242.436 245.711 242.436 249.289C242.436 252.869 239.881 255.652 236.215 255.652ZM238.805 246.414C238.14 245.654 237.284 245.273 236.215 245.273C234.125 245.273 232.604 246.937 232.604 249.289C232.604 251.641 234.125 253.304 236.215 253.304C238.33 253.304 239.826 251.664 239.826 249.289C239.826 248.124 239.494 247.15 238.805 246.414ZM243.909 255.414V237.794H246.942V255.414H243.909ZM246.447 254.919H244.404V238.289H246.447V254.919ZM249.129 255.414V237.794H252.162V255.414H249.129ZM251.667 254.919H249.624V238.289H251.667V254.919ZM262.079 246.746L262.074 246.74C261.507 246.093 260.791 245.768 259.857 245.768C258.085 245.768 256.741 247.162 256.741 249.289C256.741 251.415 258.085 252.809 259.857 252.809C260.779 252.809 261.547 252.454 262.088 251.855C262.632 251.252 262.973 250.373 262.973 249.289C262.973 248.222 262.671 247.378 262.085 246.752L262.079 246.746ZM259.857 255.652C256.163 255.652 253.66 252.865 253.66 249.289C253.66 245.712 256.163 242.925 259.857 242.925C263.573 242.925 266.077 245.711 266.077 249.289C266.077 252.869 263.522 255.652 259.857 255.652ZM262.446 246.414C261.781 245.654 260.926 245.273 259.857 245.273C257.766 245.273 256.246 246.937 256.246 249.289C256.246 251.641 257.766 253.304 259.857 253.304C261.971 253.304 263.468 251.664 263.468 249.289C263.468 248.124 263.135 247.15 262.446 246.414ZM269.042 243.163L271.296 251.085L273.47 243.163H276.624L278.797 251.085L281.052 243.163H284.109L280.464 255.414H277.181L275.059 248.057L272.936 255.414H269.629L265.985 243.163H269.042ZM275.059 246.271L277.553 254.919H280.095L283.445 243.658H281.426L278.789 252.923L276.247 243.658H273.847L271.305 252.923L268.668 243.658H266.648L269.998 254.919H272.564L275.059 246.271ZM236.215 255.157C232.818 255.157 230.513 252.615 230.513 249.289C230.513 245.962 232.818 243.42 236.215 243.42C239.636 243.42 241.941 245.962 241.941 249.289C241.941 252.615 239.589 255.157 236.215 255.157ZM259.857 255.157C256.459 255.157 254.155 252.615 254.155 249.289C254.155 245.962 256.459 243.42 259.857 243.42C263.278 243.42 265.582 245.962 265.582 249.289C265.582 252.615 263.23 255.157 259.857 255.157Z" fill="white"/>
<path fill-rule="evenodd" clip-rule="evenodd" d="M253.979 6C229.924 6 210.424 25.5005 210.424 49.5555C210.424 73.6106 229.924 93.1111 253.979 93.1111H255.959C280.014 93.1111 299.515 73.6106 299.515 49.5555C299.515 25.5005 280.014 6 255.959 6H253.979ZM253.979 408.889C229.924 408.889 210.424 428.389 210.424 452.444C210.424 476.5 229.924 496 253.979 496H255.959C280.014 496 299.515 476.5 299.515 452.444C299.515 428.389 280.014 408.889 255.959 408.889H253.979ZM406.919 251C406.919 226.945 426.419 207.444 450.474 207.444H452.454C476.509 207.444 496.01 226.945 496.01 251C496.01 275.055 476.509 294.555 452.454 294.555H450.474C426.419 294.555 406.919 275.055 406.919 251ZM50.5555 207.444C26.5005 207.444 7 226.945 7 251C7 275.055 26.5005 294.555 50.5556 294.555H52.5354C76.5904 294.555 96.0909 275.055 96.0909 251C96.0909 226.945 76.5904 207.444 52.5353 207.444H50.5555Z" fill="black"/>
<path d="M211.424 49.5555C211.424 26.0528 230.477 7 253.979 7V5C229.372 5 209.424 24.9482 209.424 49.5555H211.424ZM253.979 92.1111C230.477 92.1111 211.424 73.0583 211.424 49.5555H209.424C209.424 74.1629 229.372 94.1111 253.979 94.1111V92.1111ZM255.959 92.1111H253.979V94.1111H255.959V92.1111ZM298.515 49.5555C298.515 73.0583 279.462 92.1111 255.959 92.1111V94.1111C280.567 94.1111 300.515 74.1629 300.515 49.5555H298.515ZM255.959 7C279.462 7 298.515 26.0528 298.515 49.5555H300.515C300.515 24.9482 280.567 5 255.959 5V7ZM253.979 7H255.959V5H253.979V7ZM211.424 452.444C211.424 428.942 230.477 409.889 253.979 409.889V407.889C229.372 407.889 209.424 427.837 209.424 452.444H211.424ZM253.979 495C230.477 495 211.424 475.947 211.424 452.444H209.424C209.424 477.052 229.372 497 253.979 497V495ZM255.959 495H253.979V497H255.959V495ZM298.515 452.444C298.515 475.947 279.462 495 255.959 495V497C280.567 497 300.515 477.052 300.515 452.444H298.515ZM255.959 409.889C279.462 409.889 298.515 428.942 298.515 452.444H300.515C300.515 427.837 280.567 407.889 255.959 407.889V409.889ZM253.979 409.889H255.959V407.889H253.979V409.889ZM450.474 206.444C425.867 206.444 405.919 226.393 405.919 251H407.919C407.919 227.497 426.972 208.444 450.474 208.444V206.444ZM452.454 206.444H450.474V208.444H452.454V206.444ZM497.01 251C497.01 226.393 477.062 206.444 452.454 206.444V208.444C475.957 208.444 495.01 227.497 495.01 251H497.01ZM452.454 295.555C477.062 295.555 497.01 275.607 497.01 251H495.01C495.01 274.503 475.957 293.555 452.454 293.555V295.555ZM450.474 295.555H452.454V293.555H450.474V295.555ZM405.919 251C405.919 275.607 425.867 295.555 450.474 295.555V293.555C426.972 293.555 407.919 274.503 407.919 251H405.919ZM8 251C8 227.497 27.0528 208.444 50.5555 208.444V206.444C25.9482 206.444 6 226.393 6 251H8ZM50.5556 293.555C27.0528 293.555 8 274.503 8 251H6C6 275.607 25.9482 295.555 50.5556 295.555V293.555ZM52.5354 293.555H50.5556V295.555H52.5354V293.555ZM95.0909 251C95.0909 274.503 76.0381 293.555 52.5354 293.555V295.555C77.1427 295.555 97.0909 275.607 97.0909 251H95.0909ZM52.5353 208.444C76.0381 208.444 95.0909 227.497 95.0909 251H97.0909C97.0909 226.393 77.1427 206.444 52.5353 206.444V208.444ZM50.5555 208.444H52.5353V206.444H50.5555V208.444Z" fill="black"/>
<rect x="204.424" y="403.889" width="89.0909" height="87.1111" rx="43.5555" fill="#D6D3D1" stroke="black" stroke-width="2"/>
<path d="M248.97 420.717C234.21 420.717 222.243 432.684 222.243 447.445C222.243 462.205 234.21 474.172 248.97 474.172C263.73 474.172 275.697 462.205 275.697 447.445C275.697 432.684 263.73 420.717 248.97 420.717Z" fill="#D6D3D1" stroke="black" stroke-width="2" stroke-miterlimit="10"/>
<path d="M248.969 420.717C241.507 420.717 234.491 432.684 234.491 447.444C234.491 462.205 241.507 474.172 248.969 474.172C256.431 474.172 263.447 462.205 263.447 447.444C263.447 432.684 256.431 420.717 248.969 420.717Z" fill="#D6D3D1" stroke="black" stroke-width="2" stroke-miterlimit="10"/>
<path d="M231.108 429.712C236.022 433.2 242.207 435.281 248.927 435.281C255.646 435.281 261.831 433.2 266.745 429.712" fill="#D6D3D1"/>
<path d="M231.108 429.712C236.022 433.2 242.207 435.281 248.927 435.281C255.646 435.281 261.831 433.2 266.745 429.712" stroke="black" stroke-width="2" stroke-linecap="round" stroke-linejoin="round"/>
<path d="M266.788 465.263C261.874 461.774 255.689 459.694 248.969 459.694C242.25 459.694 236.065 461.774 231.151 465.263" fill="#D6D3D1"/>
<path d="M266.788 465.263C261.874 461.774 255.689 459.694 248.969 459.694C242.25 459.694 236.065 461.774 231.151 465.263" stroke="black" stroke-width="2" stroke-linecap="round" stroke-linejoin="round"/>
<path d="M248.97 420.717V474.172" stroke="black" stroke-width="2" stroke-miterlimit="10"/>
<path d="M275.697 447.444H222.242" stroke="black" stroke-width="2" stroke-miterlimit="10"/>
<path d="M251.02 108.828C250.434 108.243 249.485 108.243 248.899 108.828L239.353 118.374C238.767 118.96 238.767 119.91 239.353 120.496C239.939 121.081 240.888 121.081 241.474 120.496L249.959 112.01L258.445 120.496C259.031 121.081 259.98 121.081 260.566 120.496C261.152 119.91 261.152 118.96 260.566 118.374L251.02 108.828ZM251.459 216.798L251.459 214.125L248.459 214.125L248.459 216.798L251.459 216.798ZM251.459 208.78L251.459 203.434L248.459 203.434L248.459 208.78L251.459 208.78ZM251.459 198.089L251.459 192.744L248.459 192.744L248.459 198.089L251.459 198.089ZM251.459 187.398L251.459 182.053L248.459 182.053L248.459 187.398L251.459 187.398ZM251.459 176.707L251.459 171.362L248.459 171.362L248.459 176.707L251.459 176.707ZM251.459 166.016L251.459 160.671L248.459 160.671L248.459 166.016L251.459 166.016ZM251.459 155.325L251.459 149.98L248.459 149.98L248.459 155.325L251.459 155.325ZM251.459 144.634L251.459 139.289L248.459 139.289L248.459 144.634L251.459 144.634ZM251.459 133.944L251.459 128.598L248.459 128.598L248.459 133.944L251.459 133.944ZM251.459 123.253L251.459 117.907L248.459 117.907L248.459 123.253L251.459 123.253ZM251.459 112.562L251.459 109.889L248.459 109.889L248.459 112.562L251.459 112.562Z" fill="#FBFBF9"/>
<path d="M248.899 383.172C249.485 383.757 250.434 383.757 251.02 383.172L260.566 373.626C261.152 373.04 261.152 372.09 260.566 371.504C259.98 370.919 259.031 370.919 258.445 371.504L249.959 379.99L241.474 371.504C240.888 370.919 239.939 370.919 239.353 371.504C238.767 372.09 238.767 373.04 239.353 373.626L248.899 383.172ZM248.459 275.202L248.459 277.875L251.459 277.875L251.459 275.202L248.459 275.202ZM248.459 283.22L248.459 288.566L251.459 288.566L251.459 283.22L248.459 283.22ZM248.459 293.911L248.459 299.256L251.459 299.256L251.459 293.911L248.459 293.911ZM248.459 304.602L248.459 309.947L251.459 309.947L251.459 304.602L248.459 304.602ZM248.459 315.293L248.459 320.638L251.459 320.638L251.459 315.293L248.459 315.293ZM248.459 325.984L248.459 331.329L251.459 331.329L251.459 325.984L248.459 325.984ZM248.459 336.675L248.459 342.02L251.459 342.02L251.459 336.675L248.459 336.675ZM248.459 347.366L248.459 352.711L251.459 352.711L251.459 347.366L248.459 347.366ZM248.459 358.056L248.459 363.402L251.459 363.402L251.459 358.056L248.459 358.056ZM248.459 368.747L248.459 374.093L251.459 374.093L251.459 368.747L248.459 368.747ZM248.459 379.438L248.459 382.111L251.459 382.111L251.459 379.438L248.459 379.438Z" fill="white"/>
<path d="M387.131 247.061C387.717 246.475 387.717 245.525 387.131 244.939L377.585 235.393C376.999 234.808 376.05 234.808 375.464 235.393C374.878 235.979 374.878 236.929 375.464 237.515L383.949 246L375.464 254.485C374.878 255.071 374.878 256.021 375.464 256.607C376.05 257.192 376.999 257.192 377.585 256.607L387.131 247.061ZM324.697 247.5L327.254 247.5L327.254 244.5L324.697 244.5L324.697 247.5ZM332.368 247.5L337.483 247.5L337.483 244.5L332.368 244.5L332.368 247.5ZM342.597 247.5L347.712 247.5L347.712 244.5L342.597 244.5L342.597 247.5ZM352.826 247.5L357.941 247.5L357.941 244.5L352.826 244.5L352.826 247.5ZM363.055 247.5L368.17 247.5L368.17 244.5L363.055 244.5L363.055 247.5ZM373.284 247.5L378.399 247.5L378.399 244.5L373.284 244.5L373.284 247.5ZM383.513 247.5L386.071 247.5L386.071 244.5L383.513 244.5L383.513 247.5Z" fill="white"/>
<path d="M112.788 244.939C112.202 245.525 112.202 246.475 112.788 247.061L122.334 256.607C122.92 257.192 123.869 257.192 124.455 256.607C125.041 256.021 125.041 255.071 124.455 254.485L115.97 246L124.455 237.515C125.041 236.929 125.041 235.979 124.455 235.393C123.869 234.808 122.92 234.808 122.334 235.393L112.788 244.939ZM175.222 244.5H172.665V247.5H175.222V244.5ZM167.55 244.5H162.436V247.5H167.55V244.5ZM157.321 244.5H152.207V247.5H157.321V244.5ZM147.093 244.5H141.978V247.5H147.093V244.5ZM136.864 244.5H131.749V247.5H136.864V244.5ZM126.635 244.5H121.52V247.5H126.635V244.5ZM116.406 244.5H113.848V247.5H116.406V244.5Z" fill="white"/>
<rect x="204.424" y="1" width="89.0909" height="87.1111" rx="43.5555" fill="#23A094" stroke="black" stroke-width="2"/>
<path d="M266.247 28.2223H232.187C229.947 28.2223 228.132 30.0377 228.132 32.277V56.6056C228.132 58.845 229.947 60.6604 232.187 60.6604H266.247C268.486 60.6604 270.301 58.845 270.301 56.6056V32.277C270.301 30.0377 268.486 28.2223 266.247 28.2223Z" fill="#23A094" stroke="black" stroke-width="3" stroke-linecap="round" stroke-linejoin="round"/>
<path d="M234.62 34.7101L249.217 46.0634L263.814 34.7101" fill="#23A094"/>
<path d="M234.62 34.7101L249.217 46.0634L263.814 34.7101" stroke="black" stroke-width="2" stroke-linecap="round" stroke-linejoin="round"/>
<rect x="401.909" y="203.434" width="87.1111" height="85.1313" rx="42.5656" fill="#FF90E8" stroke="black" stroke-width="1.9798"/>
<rect x="1" y="202.444" width="89.0909" height="87.1111" rx="43.5555" fill="#FFC900" stroke="black" stroke-width="2"/>
<path d="M53.2823 253.737C51.2536 255.765 48.5025 256.904 45.6339 256.904C42.7653 256.904 40.0141 255.765 37.9854 253.737M37.5202 240.679H37.5473M53.7475 240.679H53.7746M69.9748 246.088C69.9748 249.285 69.3452 252.45 68.1219 255.403C66.8987 258.356 65.1058 261.04 62.8455 263.3C60.5852 265.56 57.9019 267.353 54.9487 268.577C51.9956 269.8 48.8304 270.429 45.6339 270.429C42.4374 270.429 39.2722 269.8 36.319 268.577C33.3658 267.353 30.6825 265.56 28.4223 263.3C26.162 261.04 24.3691 258.356 23.1458 255.403C21.9226 252.45 21.293 249.285 21.293 246.088C21.293 239.633 23.8574 233.442 28.4223 228.877C32.9871 224.312 39.1783 221.748 45.6339 221.748C52.0895 221.748 58.2807 224.312 62.8455 228.877C67.4103 233.442 69.9748 239.633 69.9748 246.088Z" stroke="black" stroke-width="2" stroke-linecap="round" stroke-linejoin="round"/>
<path d="M443.867 267.237C443.867 267.536 444.109 267.778 444.408 267.778H446.224C446.523 267.778 446.765 267.536 446.765 267.237V264.152C446.765 263.868 446.985 263.633 447.267 263.606C453.605 262.993 458.333 259.487 458.333 253.524V253.474C458.333 248.101 454.766 245.414 448.152 243.872L447.183 243.646C446.938 243.589 446.765 243.371 446.765 243.119V234.52C446.765 234.191 447.057 233.937 447.379 234.006C450.014 234.573 451.811 236.285 452.114 238.984C452.115 238.992 452.117 239 452.121 239.007V239.007C452.133 239.031 452.157 239.046 452.183 239.046L457.862 239.021C457.876 239.021 457.887 239.01 457.887 238.996V238.996C457.67 233.447 453.434 229.621 447.262 228.944C446.982 228.913 446.765 228.679 446.765 228.398V225.258C446.765 224.959 446.523 224.717 446.224 224.717H444.408C444.109 224.717 443.867 224.959 443.867 225.258V228.392C443.867 228.676 443.646 228.911 443.363 228.938C437.162 229.54 432.769 233.2 432.769 238.747V238.797C432.769 243.971 436.237 246.857 442.603 248.325L443.45 248.525C443.694 248.583 443.867 248.8 443.867 249.051V258.071C443.867 258.393 443.587 258.645 443.269 258.593C439.958 258.06 438.3 256.191 437.899 253.634C437.898 253.627 437.895 253.62 437.892 253.613V253.613C437.88 253.589 437.855 253.574 437.828 253.574L432.143 253.598C432.132 253.598 432.121 253.603 432.113 253.611V253.611C432.105 253.619 432.101 253.63 432.101 253.642C432.303 259.495 437.053 263.039 443.36 263.609C443.645 263.635 443.867 263.87 443.867 264.156V267.237ZM438.739 238.349V238.3C438.739 236.292 440.289 234.525 443.265 233.986C443.583 233.929 443.867 234.181 443.867 234.505V242.174C443.867 242.529 443.53 242.788 443.191 242.685C440.02 241.717 438.739 240.305 438.739 238.349ZM452.363 254.071V254.121C452.363 256.455 450.805 258.164 447.351 258.611C447.037 258.652 446.765 258.402 446.765 258.085V249.989C446.765 249.637 447.098 249.379 447.437 249.474C451.146 250.515 452.363 251.838 452.363 254.071Z" fill="black"/>
</svg>
