<svg width="240" height="223" viewBox="0 0 240 223" fill="none" xmlns="http://www.w3.org/2000/svg">
<path d="M178.151 66.845L177.368 68.6092L179.261 68.2315C191.052 65.8789 199.734 67.9472 205.577 72.2386C211.428 76.5357 214.568 83.1594 215.088 90.1832C216.13 104.257 206.667 119.653 187.828 120.565L185.216 120.692L187.246 122.341C201.804 134.164 208.194 148.094 208.705 161.144C209.216 174.21 203.838 186.48 194.696 194.99C185.562 203.494 172.667 208.247 158.117 206.273C143.562 204.298 127.249 195.575 111.363 176.929L110.452 175.86L109.74 177.07C102.172 189.923 89.79 194.186 80.0453 192.028C75.169 190.949 70.9567 188.267 68.276 184.251C65.601 180.244 64.3961 174.824 65.6815 168.16L66.0076 166.469L64.3773 167.024C53.9851 170.561 45.4852 169.5 39.2918 165.766C33.0858 162.024 29.0603 155.519 27.781 147.908C25.2265 132.71 33.6694 113.133 57.624 103.345L59.865 102.429L57.631 101.496C43.7595 95.7041 35.1218 89.8528 30.5156 84.5628C25.9278 79.2939 25.4592 74.7651 27.4323 71.3149C29.477 67.7392 34.3466 64.9171 41.3326 63.6405C48.2726 62.3722 57.1108 62.6717 66.7783 65.144L69.4341 65.8231L67.8395 63.5934C56.616 47.9 54.083 35.9948 56.635 27.8322C59.1664 19.7353 66.8487 14.9047 77.1162 13.6728C97.6823 11.2052 127.661 23.3785 142.5 51.0312L143.291 52.5065L144.215 51.11C151.232 40.5011 162.373 38.6325 170.401 42.2638C174.422 44.0824 177.656 47.2747 179.244 51.4511C180.828 55.6175 180.809 60.8588 178.151 66.845Z" fill="#FF90E8" stroke="black" stroke-width="2"/>
<path d="M88.3451 87.7752C90.0021 88.1697 91.4944 88.525 92.5497 88.7532L89.9463 98.9333C87.7533 98.2566 83.8447 97.1582 80.2634 96.2424L79.3008 95.9962L79.0484 96.9572C74.3582 114.817 68.003 139.659 63.6484 157.615L54.3167 155.229C60.641 131.429 79.0199 59.5568 86.9664 27.5456L107.369 32.7633L104.849 42.6202C102.589 41.9353 100.788 41.4159 99.2793 40.9846C99.0423 40.9168 98.8128 40.8513 98.5901 40.7877C97.1877 40.3874 96.0562 40.0645 95.0177 39.7398L94.0117 39.4253L93.7505 40.4465C93.022 43.2955 90.6496 52.456 88.2142 61.8601L88.0179 62.6183C85.5154 72.2815 82.9912 82.0293 82.1589 85.2839L81.9034 86.283L82.9099 86.5076C84.6938 86.9059 86.6098 87.3621 88.3451 87.7752ZM129.303 157.977C132.461 158.784 136.148 159.609 140.207 160.303L137.63 170.379L116.642 165.011C122.805 141.84 135.355 92.7629 143.181 61.2226L163.584 66.4402L161.064 76.2937C158.089 75.3728 155.826 74.6456 153.982 74.0533C152.877 73.6985 151.923 73.3921 151.057 73.1214L150.051 72.8069L149.79 73.8281C149.123 76.4365 147.965 81.0817 146.781 85.8298L146.696 86.1712C145.482 91.0401 144.253 95.9691 143.505 98.8928L143.25 99.8928L144.257 100.117C145.989 100.502 147.832 100.939 149.501 101.335C151.087 101.712 152.516 102.051 153.543 102.273L150.941 112.449C148.833 111.795 145.059 110.733 141.61 109.851L140.649 109.605L140.395 110.565C136.384 125.762 132.256 141.9 128.58 156.768L128.342 157.731L129.303 157.977ZM107.678 94.5765C102.214 115.465 89.3482 166.228 86.0572 179.574L76.7329 177.189C82.9146 154.874 100.797 84.9357 109.478 49.1139C118.093 51.6462 124.196 55.2536 127.743 59.9087C131.39 64.6946 132.446 70.7347 130.525 78.2465C128.609 85.739 124.207 89.8605 119.414 91.9133L118.85 92.1546L118.81 92.7662C118.253 101.144 117.033 113.927 115.812 126.713C115.685 128.045 115.558 129.376 115.431 130.703C114.169 143.956 112.979 156.732 112.622 163.983L103.128 161.555C103.459 158.541 103.932 154.517 104.48 149.856C106.34 134.032 109.064 110.859 110.03 94.8499L110.101 93.674L108.929 93.795L108.543 93.8349L107.853 93.9061L107.678 94.5765ZM110.571 83.2626L110.204 84.6965L111.672 84.5016C116.327 83.8832 120.167 80.7624 121.373 76.0447C122.079 73.2869 122.198 70.9316 121.465 68.8729C120.725 66.7937 119.174 65.1808 116.883 63.7901L115.73 63.0897L115.396 64.3971L115.386 64.4329L115.377 64.4688L115.368 64.5046L115.359 64.5405L115.35 64.5763L115.341 64.6122L115.331 64.6481L115.322 64.6839L115.313 64.7198L115.304 64.7557L115.295 64.7916L115.286 64.8275L115.276 64.8634L115.267 64.8993L115.258 64.9352L115.249 64.9711L115.24 65.0071L115.23 65.043L115.221 65.0789L115.212 65.1149L115.203 65.1508L115.194 65.1868L115.185 65.2227L115.175 65.2587L115.166 65.2947L115.157 65.3307L115.148 65.3666L115.139 65.4026L115.129 65.4386L115.12 65.4746L115.111 65.5106L115.102 65.5467L115.092 65.5827L115.083 65.6187L115.074 65.6547L115.065 65.6908L115.056 65.7268L115.046 65.7628L115.037 65.7989L115.028 65.8349L115.019 65.871L115.01 65.9071L115 65.9431L114.991 65.9792L114.982 66.0153L114.973 66.0514L114.963 66.0875L114.954 66.1236L114.945 66.1597L114.936 66.1958L114.926 66.2319L114.917 66.268L114.908 66.3042L114.899 66.3403L114.889 66.3764L114.88 66.4126L114.871 66.4487L114.862 66.4849L114.853 66.521L114.843 66.5572L114.834 66.5934L114.825 66.6296L114.816 66.6657L114.806 66.7019L114.797 66.7381L114.788 66.7743L114.778 66.8105L114.769 66.8467L114.76 66.8829L114.751 66.9191L114.741 66.9554L114.732 66.9916L114.723 67.0278L114.714 67.0641L114.704 67.1003L114.695 67.1365L114.686 67.1728L114.677 67.209L114.667 67.2453L114.658 67.2816L114.649 67.3179L114.639 67.3541L114.63 67.3904L114.621 67.4267L114.612 67.463L114.602 67.4993L114.593 67.5356L114.584 67.5719L114.574 67.6082L114.565 67.6445L114.556 67.6808L114.547 67.7172L114.537 67.7535L114.528 67.7898L114.519 67.8262L114.509 67.8625L114.5 67.8989L114.491 67.9352L114.482 67.9716L114.472 68.008L114.463 68.0443L114.454 68.0807L114.444 68.1171L114.435 68.1535L114.426 68.1899L114.416 68.2262L114.407 68.2626L114.398 68.299L114.389 68.3355L114.379 68.3719L114.37 68.4083L114.361 68.4447L114.351 68.4811L114.342 68.5176L114.333 68.554L114.323 68.5904L114.314 68.6269L114.305 68.6633L114.295 68.6998L114.286 68.7362L114.277 68.7727L114.267 68.8092L114.258 68.8457L114.249 68.8821L114.239 68.9186L114.23 68.9551L114.221 68.9916L114.211 69.0281L114.202 69.0646L114.193 69.1011L114.183 69.1376L114.174 69.1741L114.165 69.2106L114.155 69.2471L114.146 69.2837L114.137 69.3202L114.127 69.3567L114.118 69.3933L114.109 69.4298L114.099 69.4664L114.09 69.5029L114.081 69.5395L114.071 69.576L114.062 69.6126L114.053 69.6492L114.043 69.6857L114.034 69.7223L114.024 69.7589L114.015 69.7955L114.006 69.8321L113.996 69.8687L113.987 69.9053L113.978 69.9419L113.968 69.9785L113.959 70.0151L113.95 70.0517L113.94 70.0883L113.931 70.125L113.922 70.1616L113.912 70.1982L113.903 70.2349L113.893 70.2715L113.884 70.3081L113.875 70.3448L113.865 70.3814L113.856 70.4181L113.847 70.4548L113.837 70.4914L113.828 70.5281L113.818 70.5648L113.809 70.6014L113.8 70.6381L113.79 70.6748L113.781 70.7115L113.771 70.7482L113.762 70.7849L113.753 70.8216L113.743 70.8583L113.734 70.895L113.725 70.9317L113.715 70.9684L113.706 71.0051L113.696 71.0419L113.687 71.0786L113.678 71.1153L113.668 71.1521L113.659 71.1888L113.649 71.2255L113.64 71.2623L113.631 71.299L113.621 71.3358L113.612 71.3725L113.602 71.4093L113.593 71.4461L113.584 71.4828L113.574 71.5196L113.565 71.5564L113.555 71.5932L113.546 71.6299L113.537 71.6667L113.527 71.7035L113.518 71.7403L113.508 71.7771L113.499 71.8139L113.49 71.8507L113.48 71.8875L113.471 71.9243L113.461 71.9612L113.452 71.998L113.442 72.0348L113.433 72.0716L113.424 72.1085L113.414 72.1453L113.405 72.1821L113.395 72.219L113.386 72.2558L113.377 72.2927L113.367 72.3295L113.358 72.3664L113.348 72.4032L113.339 72.4401L113.329 72.4769L113.32 72.5138L113.311 72.5507L113.301 72.5876L113.292 72.6244L113.282 72.6613L113.273 72.6982L113.263 72.7351L113.254 72.772L113.245 72.8089L113.235 72.8458L113.226 72.8827L113.216 72.9196L113.207 72.9565L113.197 72.9934L113.188 73.0303L113.178 73.0672L113.169 73.1041L113.16 73.1411L113.15 73.178L113.141 73.2149L113.131 73.2519L113.122 73.2888L113.112 73.3257L113.103 73.3627L113.093 73.3996L113.084 73.4366L113.075 73.4735L113.065 73.5105L113.056 73.5474L113.046 73.5844L113.037 73.6213L113.027 73.6583L113.018 73.6953L113.008 73.7323L112.999 73.7692L112.989 73.8062L112.98 73.8432L112.971 73.8802L112.961 73.9172L112.952 73.9541L112.942 73.9911L112.933 74.0281L112.923 74.0651L112.914 74.1021L112.904 74.1391L112.895 74.1761L112.885 74.2132L112.876 74.2502L112.866 74.2872L112.857 74.3242L112.848 74.3612L112.838 74.3982L112.829 74.4353L112.819 74.4723L112.81 74.5093L112.8 74.5464L112.791 74.5834L112.781 74.6205L112.772 74.6575L112.762 74.6945L112.753 74.7316L112.743 74.7686L112.734 74.8057L112.724 74.8428L112.715 74.8798L112.705 74.9169L112.696 74.9539L112.686 74.991L112.677 75.0281L112.668 75.0651L112.658 75.1022L112.649 75.1393L112.639 75.1764L112.63 75.2135L112.62 75.2505L112.611 75.2876L112.601 75.3247L112.592 75.3618L112.582 75.3989L112.573 75.436L112.563 75.4731L112.554 75.5102L112.544 75.5473L112.535 75.5844L112.525 75.6215L112.516 75.6586L112.506 75.6958L112.497 75.7329L112.487 75.77L112.478 75.8071L112.468 75.8442L112.459 75.8814L112.449 75.9185L112.44 75.9556L112.43 75.9927L112.421 76.0299L112.411 76.067L112.402 76.1042L112.392 76.1413L112.383 76.1784L112.373 76.2156L112.364 76.2527L112.354 76.2899L112.345 76.327L112.335 76.3642L112.326 76.4014L112.316 76.4385L112.307 76.4757L112.297 76.5128L112.288 76.55L112.278 76.5872L112.269 76.6243L112.259 76.6615L112.25 76.6987L112.24 76.7359L112.231 76.773L112.221 76.8102L112.212 76.8474L112.202 76.8846L112.193 76.9218L112.183 76.959L112.174 76.9961L112.164 77.0333L112.155 77.0705L112.145 77.1077L112.136 77.1449L112.126 77.1821L112.117 77.2193L112.107 77.2565L112.098 77.2937L112.088 77.3309L112.079 77.3681L112.069 77.4054L112.06 77.4426L112.05 77.4798L112.041 77.517L112.031 77.5542L112.021 77.5914L112.012 77.6287L112.002 77.6659L111.993 77.7031L111.983 77.7403L111.974 77.7776L111.964 77.8148L111.955 77.852L111.945 77.8893L111.936 77.9265L111.926 77.9637L111.917 78.001L111.907 78.0382L111.898 78.0754L111.888 78.1127L111.879 78.1499L111.869 78.1872L111.86 78.2244L111.85 78.2617L111.841 78.2989L111.831 78.3362L111.821 78.3734L111.812 78.4107L111.802 78.448L111.793 78.4852L111.783 78.5225L111.774 78.5597L111.764 78.597L111.755 78.6343L111.745 78.6715L111.736 78.7088L111.726 78.7461L111.717 78.7833L111.707 78.8206L111.698 78.8579L111.688 78.8952L111.679 78.9324L111.669 78.9697L111.659 79.007L111.65 79.0443L111.64 79.0815L111.631 79.1188L111.621 79.1561L111.612 79.1934L111.602 79.2307L111.593 79.268L111.583 79.3053L111.574 79.3426L111.564 79.3798L111.555 79.4171L111.545 79.4544L111.536 79.4917L111.526 79.529L111.516 79.5663L111.507 79.6036L111.497 79.6409L111.488 79.6782L111.478 79.7155L111.469 79.7528L111.459 79.7901L111.45 79.8274L111.44 79.8647L111.431 79.902L111.421 79.9394L111.411 79.9767L111.402 80.014L111.392 80.0513L111.383 80.0886L111.373 80.1259L111.364 80.1632L111.354 80.2005L111.345 80.2379L111.335 80.2752L111.326 80.3125L111.316 80.3498L111.307 80.3871L111.297 80.4244L111.287 80.4618L111.278 80.4991L111.268 80.5364L111.259 80.5737L111.249 80.6111L111.24 80.6484L111.23 80.6857L111.221 80.723L111.211 80.7604L111.202 80.7977L111.192 80.835L111.182 80.8724L111.173 80.9097L111.163 80.947L111.154 80.9844L111.144 81.0217L111.135 81.059L111.125 81.0964L111.116 81.1337L111.106 81.171L111.097 81.2084L111.087 81.2457L111.077 81.283L111.068 81.3204L111.058 81.3577L111.049 81.3951L111.039 81.4324L111.03 81.4697L111.02 81.5071L111.011 81.5444L111.001 81.5818L110.991 81.6191L110.982 81.6565L110.972 81.6938L110.963 81.7312L110.953 81.7685L110.944 81.8058L110.934 81.8432L110.925 81.8805L110.915 81.9179L110.906 81.9552L110.896 81.9926L110.886 82.0299L110.877 82.0673L110.867 82.1046L110.858 82.142L110.848 82.1793L110.839 82.2167L110.829 82.254L110.82 82.2914L110.81 82.3287L110.8 82.3661L110.791 82.4034L110.781 82.4408L110.772 82.4781L110.762 82.5155L110.753 82.5528L110.743 82.5902L110.734 82.6275L110.724 82.6649L110.714 82.7022L110.705 82.7396L110.695 82.777L110.686 82.8143L110.676 82.8517L110.667 82.889L110.657 82.9264L110.648 82.9637L110.638 83.0011L110.629 83.0384L110.619 83.0758L110.609 83.1131L110.6 83.1505L110.59 83.1879L110.581 83.2252L110.571 83.2626ZM139.33 183.125C145.517 159.863 158.898 107.534 166.741 75.9263L190.567 82.0192L188.046 91.877C185.638 91.1532 183.075 90.4387 180.801 89.8116C180.386 89.697 179.98 89.5856 179.588 89.4776C177.517 88.9077 175.799 88.4351 174.793 88.1204L173.787 87.8059L173.526 88.8271C172.861 91.4265 172.16 94.0504 171.441 96.7417L171.39 96.9335C170.654 99.6902 169.899 102.517 169.149 105.451L168.893 106.451L169.901 106.675C171.633 107.06 173.476 107.497 175.144 107.893C176.731 108.27 178.16 108.609 179.187 108.83L176.584 119.007C174.476 118.353 170.703 117.291 167.254 116.409L166.292 116.163L166.039 117.123C162.027 132.32 154.945 160.014 151.268 174.881L151.03 175.844L151.991 176.09C155.147 176.897 162.129 178.564 166.721 179.389L164.143 189.47L139.33 183.125Z" fill="#FF90E8" stroke="black" stroke-width="2"/>
</svg>
