<svg width="215" height="225" viewBox="0 0 215 225" fill="none" xmlns="http://www.w3.org/2000/svg">
<path d="M188.601 217.401C177.694 230.091 147.515 222.039 109.27 193.359C56.7738 154.04 8.56676 90.6336 1.7928 52.0311C-0.106646 41.1694 1.46623 33.4074 5.87603 28.7256L5.85208 28.6911L26.0749 6.56699L26.1029 6.60725C21.9012 11.3066 20.4313 18.9715 22.2932 29.5949C29.0499 68.2093 77.2569 131.616 129.771 170.922C167.822 199.422 197.82 207.582 208.912 195.182L208.94 195.223L188.673 217.48L188.601 217.401Z" fill="#FF90E8"/>
<path d="M208.927 195.19C197.858 207.573 167.837 199.429 129.786 170.93C77.289 131.611 29.0819 68.2047 22.308 29.6022C20.4341 18.9615 21.916 11.3139 26.1177 6.61457C37.1864 -5.76879 67.2075 2.37495 105.259 30.8746C157.755 70.1928 205.962 133.6 212.736 172.202C214.592 182.829 213.128 190.49 208.927 195.19ZM137.54 146.543C151.116 156.353 173.568 165.487 169 139.341C164.56 113.994 138.775 83.1465 109.851 61.4981C82.024 40.6573 61.7653 35.9723 65.3584 56.4909C68.9514 77.0096 92.232 98.9847 103.9 108.772L72.2594 85.0768L75.1721 101.743L125.363 139.335L118.719 101.35L108.899 93.9913L112.084 112.081C99.7345 101.078 86.8898 87.263 84.9166 76.0005C82.7335 63.5273 96.0768 66.5475 114.092 79.9802C132.107 93.413 148.248 112.565 150.415 125.015C152.457 136.683 141.847 132.925 134.271 127.608L137.54 146.543Z" fill="#FF90E8"/>
<path d="M168.999 139.342C173.567 165.487 151.115 156.354 137.54 146.543L134.23 127.636C141.807 132.953 152.445 136.691 150.375 125.044C148.192 112.57 132.052 93.4939 114.052 80.0083C96.0507 66.5228 82.7216 63.5355 84.8759 76.0285C86.8491 87.2911 99.7168 101.09 112.043 112.109L108.858 94.0194L118.679 101.379L125.322 139.364L75.1314 101.771L72.2188 85.1049L103.859 108.8C92.1793 98.9955 68.9067 77.032 65.3177 56.5191C61.7286 36.0062 81.9833 40.6855 109.81 61.5262C138.775 83.1467 164.559 113.994 168.999 139.342Z" fill="black"/>
<path d="M5.90827 28.7213C1.48473 33.3956 -0.0824579 41.1536 1.82498 52.0269C8.58169 90.6413 56.7887 154.048 109.303 193.354C147.574 222.025 177.73 230.092 188.634 217.397C188.894 217.097 208.156 196.096 208.396 195.767" stroke="black" stroke-width="2" stroke-miterlimit="10"/>
<path d="M212.736 172.202C205.979 133.588 157.772 70.1809 105.258 30.8746C67.2072 2.37501 37.209 -5.7847 26.1173 6.61463C21.9157 11.314 20.4458 18.9789 22.3076 29.6023C29.0643 68.2167 77.2714 131.623 129.785 170.93C167.836 199.429 197.834 207.589 208.926 195.19C213.128 190.49 214.592 182.83 212.736 172.202Z" stroke="black" stroke-width="2" stroke-miterlimit="10"/>
<path d="M5.77148 28.8073L5.87225 28.6947L26.1009 6.56656L26.6409 5.96988" stroke="black" stroke-width="2" stroke-miterlimit="10"/>
</svg>
