<svg width="144" height="146" viewBox="0 0 144 146" fill="none" xmlns="http://www.w3.org/2000/svg">
<path d="M128.398 19.9691C142.946 31.4555 146.618 54.6738 135.678 80.8629C120.442 117.331 82.53 145.963 51.1725 144.699C43.2695 144.376 36.5266 142.182 31.0872 138.499L16.7939 127.369C22.1678 130.937 28.8123 133.061 36.5717 133.376C67.9334 134.657 105.845 106.025 121.077 69.5402C131.878 43.6866 128.455 20.7302 114.355 9.09247L128.398 19.9691Z" fill="#FF90E8"/>
<path d="M16.8122 127.338C0.481656 116.506 -4.09288 92.3219 7.3598 64.8765C22.6 28.4041 60.5078 -0.227958 91.8653 1.04058C100.248 1.38022 107.323 3.82724 112.906 7.92747L114.324 9.02417L114.373 9.06508C128.457 20.7029 131.896 43.6592 121.095 69.5128C105.859 105.981 67.9516 134.613 36.59 133.349C28.8305 133.066 22.186 130.922 16.8122 127.338ZM97.1531 58.7098C100.785 49.2204 100.568 32.2506 79.3346 31.3831C58.7575 30.5402 41.1686 46.3969 32.7738 66.4888C24.6987 85.8196 28.0025 101.758 44.6609 102.442C61.3194 103.125 72.0547 87.7552 76.3628 79.833L67.1769 101.82L80.7037 102.372L95.2716 67.4995L64.4306 66.2391L61.5612 73.0606L76.2603 73.6621C71.1407 81.9362 63.7337 90.1122 54.5929 89.7398C44.4683 89.3306 42.2056 78.8263 47.4319 66.3169C52.6581 53.8075 63.496 43.8598 73.6329 44.269C83.1016 44.6536 83.696 52.7763 81.8309 58.0919L97.1531 58.7098Z" fill="#FF90E8"/>
<path d="M114.322 9.05147L112.903 7.95483C113.391 8.30266 113.862 8.66682 114.322 9.05147Z" fill="#FF90E8"/>
<path d="M79.3285 31.3984C100.561 32.2659 100.779 49.2356 97.147 58.725L81.7961 58.0949C83.6817 52.7752 83.0873 44.6566 73.5981 44.272C63.4735 43.8628 52.6602 53.8228 47.434 66.3322C42.2077 78.8416 44.4704 89.3418 54.595 89.7551C63.7358 90.1275 71.1428 81.9515 76.2624 73.6774L61.5633 73.0759L64.4327 66.2544L95.2737 67.5148L80.7058 102.387L67.179 101.835L76.3649 79.8482C72.0568 87.7704 61.3174 103.136 44.663 102.457C28.0087 101.777 24.6967 85.8349 32.7759 66.504C41.1625 46.4121 58.7514 30.5554 79.3285 31.3984Z" fill="black"/>
<path d="M31.1035 138.483C36.5265 142.166 43.2694 144.359 51.1887 144.683C82.5463 145.963 120.462 117.331 135.694 80.8466C146.635 54.6575 142.962 31.4392 128.414 19.9528" stroke="black" stroke-width="2" stroke-miterlimit="10"/>
<path d="M114.323 9.05178C113.864 8.67122 113.388 8.30296 112.905 7.95514C107.322 3.86309 100.247 1.40788 91.8643 1.06824" stroke="black" stroke-width="2" stroke-miterlimit="10"/>
<path d="M91.8644 1.06924C60.5068 -0.211567 22.5909 28.4205 7.35888 64.9052C-4.11839 92.3506 0.480739 116.535 16.8113 127.366C22.1851 130.934 28.8296 133.058 36.589 133.373C67.9507 134.654 105.863 106.022 121.095 69.5374C131.895 43.6838 128.473 20.7274 114.372 9.08965" stroke="black" stroke-width="2" stroke-miterlimit="10"/>
<path d="M112.821 7.88959L112.903 7.95506L114.322 9.05173L114.371 9.09265L128.398 19.9693" stroke="black" stroke-width="2" stroke-miterlimit="10"/>
<path d="M31.0752 138.524L31.2269 138.643" stroke="black" stroke-width="8" stroke-miterlimit="10"/>
<path d="M13.0557 124.431L16.8104 127.353L31.1037 138.483" stroke="black" stroke-width="2" stroke-miterlimit="10"/>
</svg>
