<svg width="34" height="33" viewBox="0 0 34 33" fill="none" xmlns="http://www.w3.org/2000/svg">
<ellipse cx="19.8287" cy="19.1359" rx="14.1714" ry="13.6765" fill="black"/>
<path d="M16.1714 29.9464C24.4032 29.9464 31.1241 23.4995 31.1241 15.4887C31.1241 7.478 24.4032 1.03101 16.1714 1.03101C7.9397 1.03101 1.21875 7.478 1.21875 15.4887C1.21875 23.4995 7.9397 29.9464 16.1714 29.9464Z" fill="#FF90E8" stroke="black" stroke-width="1.5625"/>
<path d="M15.0467 22.7827C10.862 22.7827 8.40039 19.4024 8.40039 15.1976C8.40039 10.8279 11.1081 7.28271 16.2774 7.28271C21.6109 7.28271 23.416 10.9104 23.4981 12.9715H19.6416C19.5596 11.8173 18.5749 10.0859 16.1954 10.0859C13.6518 10.0859 12.0107 12.312 12.0107 15.0327C12.0107 17.7535 13.6518 19.9795 16.1954 19.9795C18.4929 19.9795 19.4775 18.1657 19.8878 16.3519H16.1954V14.8678H23.9432V22.4529H20.5442V17.671C20.298 19.4024 19.2313 22.7827 15.0467 22.7827Z" fill="black"/>
</svg>
