<svg width="224" height="160" fill="none" xmlns="http://www.w3.org/2000/svg"><path d="M190.836 65.085c.03-.079.054-.157.084-.231.069-.183.133-.365.193-.543.029-.089.059-.183.084-.271.059-.188.118-.375.168-.568l.059-.222c.054-.227.109-.453.153-.68a1.072 1.072 0 0 1 0-.114c.219-1.137.304-2.296.252-3.453v-.049c0-.281-.034-.567-.064-.848-.06-.57-.152-1.137-.277-1.697 0-.05 0-.094-.034-.143-.055-.212-.109-.43-.168-.636 0-.08-.045-.158-.07-.237a24.485 24.485 0 0 0-.182-.563c0-.078-.055-.157-.079-.231-.089-.237-.178-.494-.277-.706a.49.49 0 0 1 0-.054 16.477 16.477 0 0 0-.445-.942l-.296-.553a1.048 1.048 0 0 1-.06-.103l-24.9-42.913-.03-.055a14.743 14.743 0 0 0-.534-.833c-.039-.064-.084-.124-.123-.183a15.659 15.659 0 0 0-.549-.735l-.059-.079c-.207-.256-.425-.493-.647-.74l-.148-.157a14.827 14.827 0 0 0-1.482-1.382l-.084-.064a14.41 14.41 0 0 0-1.764-1.188h-.035a14.153 14.153 0 0 0-1.887-.903l-.139-.054a11.905 11.905 0 0 0-.948-.33l-.134-.04a13.01 13.01 0 0 0-.79-.212l-.316-.07-.183-.044a14.627 14.627 0 0 0-.637-.113l-.213-.03a13.157 13.157 0 0 0-.874-.099h-.257a14.523 14.523 0 0 0-2.065 0h-.099c-.396.035-.791.08-1.181.144l-48.053 7.463c-.203.03-.4.069-.598.108h-.118c-.272.054-.544.123-.816.192l-.266.08-.573.172-.272.094a15.29 15.29 0 0 0-.662.251l-.144.054c-.261.109-.523.232-.78.356l-.208.108a13.35 13.35 0 0 0-.588.31l-.128.07-.089.054c-.232.138-.46.281-.687.43l-.054.034c-.237.163-.494.33-.702.493l-.197.158c-.168.128-.326.261-.494.4l-.203.172c-.188.168-.366.336-.543.493l-.084.084a11.31 11.31 0 0 0-.583.617l-.163.187a8.25 8.25 0 0 0-.396.493c-.059.074-.113.148-.173.218l-.118.157-21.482 28.974v.03a14.91 14.91 0 0 0-.988 1.559 17.78 17.78 0 0 0-.42.804v.03c-.394.82-.71 1.675-.944 2.554l-.03.114c-.062.256-.121.518-.177.784v.084a17.01 17.01 0 0 0-.144.878v.06c-.034.256-.059.492-.079.769v1.983c0 .27.04.547.074.818 0 .074 0 .148.03.222 0 .222.06.444.099.666 0 .064.024.128.034.193.11.589.257 1.17.44 1.74v.03c.094.291.198.577.311.864l.03.074c0 .059.044.123.07.182l-22.654-.168h-.845c-.237 0-.494.03-.721.055-3.084.283-6 1.53-8.335 3.56l-.242.208-.227.212-.287.271-.034.035-.03.03c-.07.069-.128.138-.193.207l-.291.3-.262.306-.213.247c-.108.133-.212.266-.316.404l-.123.158c-.124.168-.242.336-.36.494l-.05.074a14.72 14.72 0 0 0-1.863 3.867v.03c-.064.206-.123.414-.178.626a.78.78 0 0 1 0 .084c-.044.192-.089.38-.128.572 0 .05 0 .098-.035.148-.034.172-.06.345-.089.518 0 .069 0 .138-.034.207-.025.158-.045.31-.06.463-.014.153 0 .178-.03.267-.029.089 0 .281-.034.424-.034.143 0 .202 0 .301v.7l-.128 69.111c-.013 1.265.14 2.527.454 3.753a14.705 14.705 0 0 0 1.482 3.71l.07.118c.163.276.33.548.494.809.044.069.094.128.138.192.128.183.257.36.39.538l.233.296c.153.187.31.37.494.552.182.183.227.247.346.365.118.119.197.212.3.311l.342.326c.138.128.281.251.425.375.143.123.281.236.424.355l.445.34.282.197c.237.168.494.326.716.494.277.167.554.325.84.493l.114.059a14.38 14.38 0 0 0 2.757 1.09h.034c.616.171 1.24.302 1.873.395l.267.034c.207.03.415.05.622.064l.346.03c.267 0 .533.03.805.03h.203l70.004.522h.988l.568-.039h.119c.202 0 .405-.044.608-.074h.029a14.75 14.75 0 0 0 7.535-3.487l.173-.148.276-.257.242-.232.03-.029.04-.035c.079-.079.148-.158.227-.241.079-.084.168-.173.247-.262l.301-.34.178-.207c.119-.148.232-.291.341-.439.035-.045.069-.084.099-.129.133-.172.257-.355.38-.532l.03-.05a14.498 14.498 0 0 0 1.863-3.896c.064-.217.123-.434.182-.651v-.065c.05-.197.094-.394.139-.596v-.124c.039-.182.069-.365.099-.547l.029-.178c.025-.168.045-.33.064-.493v-.232c0-.153 0-.306.035-.464.035-.157 0-.172 0-.261v-.809l.054-30.631 28.266.044a14.846 14.846 0 0 0 7.971-2.324 14.81 14.81 0 0 0 5.467-6.239l16.147-34.483a14.684 14.684 0 0 0 2.04-4.445Z" fill="#23A094" stroke="#000" stroke-miterlimit="10"/><path d="m175.743 61.74-16.709 35.9-11.048-.02v-1.08l27.757-34.8Z" fill="#000"/><path d="M147.989 96.547v1.08l-31.724-.049h-.311l.01-6.368h.86l1.917-.597-2.476-2.466h-.291l.015-7.7h.785l31.215 16.1Z" fill="#000"/><path d="m118.74 90.609-1.917.597h-.86l.01-3.063h.291l2.476 2.466Zm-2.874 52.444-70.207-.523 46.877-22.69 23.33 23.213Z" fill="#000"/><path d="m115.866 143.046-70.207-.523.129-69.199 44.57.33 12.47.09 13.166.098-.009 6.595-.015 7.7-.01 3.063-.01 6.368-.084 45.478Z" stroke="#000" stroke-linecap="round" stroke-linejoin="round"/><path d="m45.787 73.324 46.749 46.509 23.329 23.213" stroke="#000" stroke-linecap="round" stroke-linejoin="round"/><path d="m115.994 73.846-23.398 45.961-.06.03-46.877 22.69m11.782-31.789 11.438 2.886m35.522-2.107.682 6.866 2.545-7.153.835 6.442m-18.937 12.209-2.367 5.658 3.627-2.881m-6.59-49.556.87 11.142 7.623-.118-2.93-5.017" stroke="#000" stroke-linecap="round" stroke-linejoin="round"/><path d="m90.357 73.647-8.113-20.613 21.482-28.974 48.152-7.478 24.901 42.928-1.038 2.235-16.709 35.899-11.047-.02-31.724-.05m-13.429-24.315L82.244 53.035" stroke="#000" stroke-linecap="round" stroke-linejoin="round"/><path d="m176.778 59.501-31.106-12.43-41.947-23.02-.894 49.197 42.841-26.177 2.312 49.464-31.215-16.1m59.483-19.333-.509.64-27.757 34.8m3.895-79.96-6.205 30.498m-53.518 3.41 2.401-3.605-.597 5.958m17.728-3.918 4.141-5.777m.667 8.589 4.145-5.776m21.716-18.408-4.545-2.121.835 5.268-4.378-2.111m2.675 41.247-9.738-1.135" stroke="#000" stroke-linecap="round" stroke-linejoin="round"/><path d="m136.476 76.32-1.621-2.501-4.807 2.194-3.419-3.181m28.536-32.295 2.362 3.581-.974-5.618 3.004 3.98m4.496 21.347-8.266-2.323.568 6.245m-40.091 20.394 2.475 2.466-1.917.597" stroke="#000" stroke-linecap="round" stroke-linejoin="round"/></svg>