<svg width="220" height="180" viewBox="0 0 220 180" fill="none" xmlns="http://www.w3.org/2000/svg">
<path d="M197.376 164.95C213.335 153.921 221.373 134.492 218.384 113.887C216.292 99.6048 209.2 86.5245 198.367 76.968C189.037 68.7317 177.828 63.8532 166.229 62.8356C166.155 50.9249 163.67 39.9526 158.96 30.8514C153.237 19.7942 144.241 11.6766 133.485 7.87786L133.027 7.71394L132.715 7.60087H132.642H132.574L119.423 3.35552L119.197 3.28203C118.585 3.07287 117.968 2.87502 117.351 2.71673C117.119 2.6489 116.893 2.58674 116.66 2.53021C108.271 0.235124 99.1111 0.523428 90.0533 3.38381C86.419 4.55041 82.906 6.06489 79.5634 7.90615C77.8638 6.68686 76.0539 5.62891 74.1571 4.74615C73.8911 4.62179 73.6249 4.50873 73.3532 4.39567C55.8831 -3.25274 31.0649 2.58107 15.2026 18.2001C1.61602 31.5749 -1.82023 49.2912 6.46193 62.6265L9.37733 67.8159C9.48489 68.0307 9.5925 68.2455 9.71138 68.4547L9.75105 68.5225C10.1817 69.2858 10.6699 70.0153 11.2115 70.7045C14.4316 75.0121 18.6854 78.4413 23.581 80.6763C26.6268 82.0806 29.8429 83.0821 33.1482 83.6554C32.9784 85.3513 32.8369 87.0471 32.7576 88.743C32.0726 103.237 34.8353 116.505 40.7511 127.109C46.1461 136.782 54.0603 143.955 63.3954 147.805C63.6219 147.901 63.854 147.991 64.0917 148.082C65.5413 148.649 67.021 149.136 68.5242 149.54L80.8146 153.531C81.1372 153.661 81.4656 153.78 81.7939 153.887L81.9411 153.938C82.8746 154.244 83.833 154.467 84.8055 154.605C87.7583 155.223 90.7672 155.533 93.784 155.532C98.885 155.506 103.951 154.691 108.803 153.119C110.501 152.593 112.143 151.988 113.796 151.27C116.838 156.005 120.521 160.299 124.739 164.029C135.246 173.311 148.136 178.336 161.292 178.336C162.147 178.336 162.991 178.336 163.863 178.274C169.891 177.988 175.814 176.589 181.333 174.147C181.848 173.916 182.352 173.661 182.838 173.384L191.862 168.251C193.181 167.579 194.472 166.838 195.723 166.047C196.295 165.714 196.847 165.348 197.376 164.95Z" fill="#FF90E8" stroke="black" stroke-width="2" stroke-miterlimit="10"/>
<path d="M77.1575 31.8124C80.6334 38.1042 78.4539 46.9623 70.602 54.6898C59.6705 65.4587 41.7984 70.0206 30.7763 64.8651C28.2498 63.741 26.0916 61.9288 24.5491 59.6361L21.1128 53.514C22.6597 55.7464 24.7955 57.5074 27.2835 58.6017C38.3112 63.7628 56.1549 59.2009 67.1147 48.4264C74.8647 40.795 77.0896 32.0329 73.8005 25.8147L77.1575 31.8124Z" fill="#FF90E8"/>
<path d="M21.0903 53.5085C16.8785 47.1829 18.8711 37.8386 27.1023 29.7379C38.0395 18.9974 55.9059 14.4129 66.9337 19.5627C69.6048 20.7477 71.8573 22.7074 73.3986 25.1873L73.744 25.7922C77.0331 32.0669 74.8082 40.8007 67.0582 48.4039C56.121 59.1444 38.2546 63.729 27.2268 58.5792C24.7535 57.4842 22.6303 55.7298 21.0903 53.5085ZM60.1517 40.9929C62.8747 38.1664 65.3486 32.0387 57.8873 28.5565C50.6525 25.1647 41.974 28.206 35.9506 34.1359C30.1537 39.8454 28.9366 46.041 34.8184 48.7827C40.7003 51.5243 46.8256 47.6521 49.5372 45.4474L42.942 51.9257L47.703 54.1529L58.159 43.8589L47.3123 38.7713L45.2687 40.7837L50.4372 43.2032C47.3633 45.3965 43.4798 47.2111 40.2473 45.7075C36.6865 44.0455 37.4564 39.9471 41.204 36.2557C44.9516 32.5644 50.3241 30.6028 53.8849 32.2987C57.2136 33.8589 56.2059 36.8549 54.7284 38.4717L60.1517 40.9929Z" fill="#FF90E8"/>
<path d="M73.7661 25.7919L73.4209 25.187C73.5454 25.4131 73.6586 25.5884 73.7661 25.7919Z" fill="#FF90E8"/>
<path d="M24.5264 59.6306C26.0688 61.9232 28.227 63.7355 30.7536 64.8596C41.7757 70.0207 59.6251 65.4588 70.5793 54.6843C78.4312 46.9567 80.6108 38.0986 77.1349 31.8069" fill="black"/>
<path d="M24.5264 59.6306C26.0688 61.9232 28.227 63.7355 30.7536 64.8596C41.7757 70.0207 59.6251 65.4588 70.5793 54.6843C78.4312 46.9567 80.6108 38.0986 77.1349 31.8069" stroke="black" stroke-width="2" stroke-linecap="round" stroke-linejoin="round"/>
<path d="M73.7664 25.792C73.6589 25.5885 73.5457 25.385 73.4212 25.1871C71.873 22.7059 69.6123 20.7478 66.9336 19.5681" stroke="black" stroke-width="2" stroke-linecap="round" stroke-linejoin="round"/>
<path d="M66.9337 19.5683C55.9059 14.4128 38.0621 19.003 27.1023 29.7436C18.8711 37.8442 16.8785 47.1885 21.0903 53.5142C22.6372 55.7465 24.7729 57.5075 27.2608 58.6018C38.2886 63.7629 56.1324 59.201 67.0922 48.4265C74.8422 40.7951 77.0669 32.033 73.7779 25.8148" fill="#FF90E8"/>
<path d="M66.9337 19.5683C55.9059 14.4128 38.0621 19.003 27.1023 29.7436C18.8711 37.8442 16.8785 47.1885 21.0903 53.5142C22.6372 55.7465 24.7729 57.5075 27.2608 58.6018C38.2886 63.7629 56.1324 59.201 67.0922 48.4265C74.8422 40.7951 77.0669 32.033 73.7779 25.8148" stroke="black" stroke-width="2" stroke-linecap="round" stroke-linejoin="round"/>
<path d="M73.4043 25.1531L73.4269 25.187L73.7666 25.7919L73.7779 25.8145L77.1576 31.8066" stroke="black" stroke-width="2" stroke-linecap="round" stroke-linejoin="round"/>
<path d="M24.5151 59.6416L24.5493 59.7042" stroke="black" stroke-width="2" stroke-linecap="round" stroke-linejoin="round"/>
<path d="M20.1841 51.8972L21.0899 53.5026L24.5318 59.6304" stroke="black" stroke-width="2" stroke-linecap="round" stroke-linejoin="round"/>
<path d="M201.553 115.86C203.71 130.761 197.625 144.125 186.942 151.055L183.766 152.864C179.846 154.786 175.572 155.881 171.21 156.081C151.396 157.065 132.794 140.626 129.726 119.427C127.524 104.232 133.904 90.6483 145.011 83.8139C149.563 81.0205 154.753 79.431 160.092 79.1955C179.877 78.2119 198.508 94.6562 201.553 115.86ZM188.42 134.515L185.487 114.215L166.008 115.182L166.574 119.139L175.864 118.687C175.535 123.582 173.758 128.551 167.983 128.862C161.586 129.184 156.599 123.441 155.529 116.171C154.459 108.902 157.742 102.746 164.139 102.429C166.37 102.283 168.58 102.936 170.371 104.271C172.163 105.605 173.42 107.534 173.916 109.71L183.614 109.224C182.612 103.729 176.667 94.2605 163.234 94.9332C150.213 95.5777 144.801 105.385 146.494 117.064C148.124 128.297 155.62 137.019 166.138 136.499C176.656 135.979 178.026 126.81 177.986 122.152L179.838 134.928L188.42 134.515Z" fill="#FF90E8"/>
<path d="M94.0502 44.8988C110.026 39.8451 114.759 52.3719 114.617 60.3821L103.068 64.0339C103.034 59.5851 100.408 53.723 93.2804 55.9785C85.6663 58.3923 80.3335 68.6807 79.824 79.3647C79.3145 90.0487 83.8264 97.2223 91.4406 94.8085C98.3188 92.6321 101.63 84.5823 103.176 77.0696L92.1199 80.5688L92.3916 74.7463L115.602 67.3974L114.187 97.2053L103.997 100.427L104.886 81.6541C103.827 88.6864 100 102.966 87.4721 106.934C74.9442 110.902 68.1904 99.9639 68.9716 83.4631C69.7982 66.2782 78.5672 49.7999 94.0502 44.8988Z" fill="black"/>
<path d="M183.79 152.864L186.965 151.055C185.943 151.719 184.883 152.323 183.79 152.864Z" fill="#FF90E8"/>
<path d="M183.789 152.864L174.471 158.167C170.864 159.759 166.993 160.669 163.053 160.852C143.239 161.835 124.637 145.397 121.569 124.198C119.548 110.264 124.739 97.6915 134.164 90.4332L145.005 83.8022V83.8418C133.915 90.6706 127.535 104.255 129.72 119.455C132.789 140.654 151.402 157.092 171.205 156.109C175.579 155.904 179.863 154.799 183.789 152.864Z" fill="#FF90E8"/>
<path d="M186.943 151.05C197.625 144.096 203.711 130.756 201.554 115.854C198.486 94.6559 179.878 78.2116 160.07 79.2008" fill="#FF90E8"/>
<path d="M186.943 151.05C197.625 144.096 203.711 130.756 201.554 115.854C198.486 94.6559 179.878 78.2116 160.07 79.2008" stroke="black" stroke-width="2" stroke-linecap="round" stroke-linejoin="round"/>
<path d="M134.028 90.4669L134.125 90.4104L144.966 83.7795L146.517 82.8298" stroke="black" stroke-width="2" stroke-linecap="round" stroke-linejoin="round"/>
<path d="M134.136 90.4219C124.71 97.6802 119.519 110.252 121.54 124.187C124.609 145.385 143.217 161.824 163.025 160.84C166.964 160.658 170.836 159.748 174.443 158.155L183.761 152.853L186.937 151.044L187.152 150.925" fill="black"/>
<path d="M134.136 90.4219C124.71 97.6802 119.519 110.252 121.54 124.187C124.609 145.385 143.217 161.824 163.025 160.84C166.964 160.658 170.836 159.748 174.443 158.155L183.761 152.853L186.937 151.044L187.152 150.925" stroke="black" stroke-width="2" stroke-linecap="round" stroke-linejoin="round"/>
<path d="M127.354 23.2538C141.23 27.8666 150.208 44.0961 149.15 66.4534C147.672 97.5898 127.275 129.003 103.68 136.471C97.7357 138.353 92.1482 138.534 87.1325 137.262L73.5459 132.841C78.488 134.045 83.9849 133.836 89.8272 131.988C113.423 124.52 133.814 93.107 135.291 61.9763C136.339 39.9299 127.604 23.8021 114.028 18.9519L127.354 23.2538Z" fill="#FF90E8"/>
<path d="M113.977 18.935L112.63 18.4998C113.083 18.6298 113.53 18.7767 113.977 18.935Z" fill="#FF90E8"/>
<path d="M113.977 18.9349C113.529 18.7766 113.082 18.6296 112.629 18.4996C107.387 16.962 101.483 17.0412 95.1763 19.0649" stroke="black" stroke-width="2" stroke-linecap="round" stroke-linejoin="round"/>
<path d="M95.1768 19.0423C71.5815 26.5099 51.1846 57.9175 49.7127 89.0595C48.5805 112.491 58.5157 129.195 73.5402 132.841C78.4823 134.045 83.9792 133.836 89.8215 131.988C113.417 124.52 133.808 93.107 135.286 61.9763C136.333 39.9299 127.598 23.8021 114.023 18.9519" stroke="black" stroke-width="2" stroke-linecap="round" stroke-linejoin="round"/>
<path d="M112.551 18.4714L112.63 18.4997L113.977 18.9293L114.023 18.9463L127.354 23.2482" stroke="black" stroke-width="2" stroke-linecap="round" stroke-linejoin="round"/>
<path d="M87.127 137.296L87.2695 137.341" stroke="black" stroke-width="2" stroke-linecap="round" stroke-linejoin="round"/>
<path d="M70 132L73.5379 133.04L87 137" stroke="black" stroke-width="2" stroke-linecap="round" stroke-linejoin="round"/>
<path d="M80 134.5C85.0157 135.772 90.5 139 103.547 135.971C127.143 128.503 147.54 97.0899 149.017 65.9536C150.076 43.5962 137.368 23.5 119.368 20" fill="black"/>
<path d="M80 134.5C85.0157 135.772 90.5 139 103.547 135.971C127.143 128.503 147.54 97.0899 149.017 65.9536C150.076 43.5962 137.368 23.5 119.368 20" stroke="black" stroke-width="2" stroke-linecap="round" stroke-linejoin="round"/>
<path d="M160.07 79.2007C154.732 79.4362 149.541 81.0256 144.989 83.8191C133.899 90.6479 127.519 104.232 129.704 119.433C132.772 140.631 151.386 157.07 171.188 156.086C175.55 155.886 179.825 154.791 183.744 152.87C184.837 152.329 185.898 151.725 186.92 151.061" fill="#FF90E8"/>
<path d="M160.07 79.2007C154.732 79.4362 149.541 81.0256 144.989 83.8191C133.899 90.6479 127.519 104.232 129.704 119.433C132.772 140.631 151.386 157.07 171.188 156.086C175.55 155.886 179.825 154.791 183.744 152.87C184.837 152.329 185.898 151.725 186.92 151.061" stroke="black" stroke-width="2" stroke-linecap="round" stroke-linejoin="round"/>
<path d="M57.8871 28.5449C65.3485 32.0385 62.8746 38.1549 60.1516 40.9814L54.7509 38.4545C56.2284 36.8378 57.2361 33.8418 53.9074 32.2816C50.3466 30.6196 44.9798 32.5586 41.2265 36.2386C37.4732 39.9187 36.6977 44.0283 40.2698 45.6903C43.4796 47.194 47.3631 45.3794 50.4597 43.186L45.2913 40.7666L47.3348 38.7541L58.1815 43.8418L47.7254 54.1358L42.9645 51.9085L49.5596 45.419C46.8253 47.6066 40.6717 51.4958 34.8408 48.7542C29.0099 46.0125 30.1987 39.8169 35.973 34.1074C41.9737 28.1945 50.6523 25.1588 57.8871 28.5449Z" fill="black"/>
<path d="M185.487 114.215L188.42 134.481L179.877 134.905L178.026 122.129C178.077 126.787 176.701 135.951 166.177 136.476C155.654 137.002 148.164 128.274 146.534 117.042C144.835 105.363 150.281 95.5606 163.273 94.9105C176.684 94.2378 182.629 103.706 183.653 109.201L173.956 109.687C173.46 107.511 172.203 105.582 170.411 104.248C168.619 102.913 166.41 102.26 164.179 102.406C157.782 102.723 154.516 108.879 155.569 116.149C156.622 123.418 161.609 129.15 168.023 128.839C173.797 128.551 175.575 123.582 175.903 118.664L166.619 119.128L166.053 115.171L185.487 114.215Z" fill="black"/>
<path d="M73.6602 132.334L73.6579 132.333C58.9693 128.769 49.1078 112.377 50.2119 89.0608L49.7125 89.0372L50.2119 89.0608C50.9433 73.5858 56.379 58.0333 64.5676 45.423C72.7602 32.8065 83.6749 23.1846 95.3275 19.4967L95.3278 19.4966C101.547 17.5231 107.348 17.4503 112.484 18.9329L113.823 19.3658L113.898 19.39H113.935C127.182 24.1707 135.826 39.9725 134.786 61.8907C134.052 77.3601 128.616 92.9112 120.428 105.522C112.236 118.138 101.323 127.761 89.6704 131.449L89.6658 131.451C83.9033 133.335 78.5135 133.536 73.6602 132.334ZM114.768 60.8365L115.11 60.728L115.117 60.3687C115.189 56.2864 114.024 51.0109 110.748 47.3841C109.103 45.5619 106.928 44.1617 104.13 43.5489C101.338 42.9371 97.9556 43.1166 93.8993 44.3998L93.8992 44.3998C78.1419 49.3877 69.3042 66.114 68.4834 83.3888L68.4834 83.3888C68.0902 91.693 69.5828 98.6855 72.8347 103.118C74.4669 105.342 76.5464 106.925 79.047 107.687C81.5456 108.447 84.4232 108.375 87.6338 107.36C94.0667 105.327 98.243 100.649 100.936 95.631C102.371 92.9559 103.391 90.1737 104.111 87.6215L103.509 100.353L103.475 101.07L104.159 100.854L114.349 97.6315L114.681 97.5264L114.697 97.1784L116.107 67.4044L116.141 66.6875L115.457 66.9041L92.2462 74.2529L91.9139 74.3581L91.8976 74.7063L91.6259 80.5288L91.5925 81.2452L92.2762 81.0288L102.51 77.7899C101.73 81.2501 100.576 84.7493 98.873 87.6718C97.0336 90.8289 94.5773 93.2766 91.2951 94.3151L91.2948 94.3152C89.475 94.8921 87.8759 94.886 86.5074 94.4249C85.1382 93.9635 83.958 93.0327 83.0007 91.6893C81.0759 88.9885 80.0798 84.6525 80.329 79.3716C80.5775 74.1033 82.0192 68.9365 84.3279 64.7994C86.64 60.656 89.7923 57.5939 93.4369 56.4385L93.437 56.4385C95.1508 55.8947 96.557 55.851 97.6998 56.127C98.8399 56.4023 99.7511 57.0037 100.467 57.8061C101.911 59.4264 102.557 61.8718 102.574 64.0211L102.579 64.6986L103.225 64.4939L114.768 60.8365Z" fill="#FF90E8" stroke="black"/>
</svg>
