<svg xmlns="http://www.w3.org/2000/svg" viewBox="0 0 400 400" width="400" height="400" style="width: 100%; height: 100%; transform: translate3d(0px, 0px, 0px);" preserveAspectRatio="xMidYMid meet"><defs><clipPath id="__lottie_element_2"><rect width="400" height="400" x="0" y="0"></rect></clipPath></defs><g clip-path="url(#__lottie_element_2)"><g style="display: block;" transform="matrix(1,0,0,1,200,307.5)" opacity="1"><g opacity="1" transform="matrix(1,0,0,1,0,0)"><path fill="rgb(241,243,51)" fill-opacity="1" d=" M30,-58 C30,-58 30,58 30,58 C30,58 -30,58 -30,58 C-30,58 -30,-58 -30,-58 C-30,-58 30,-58 30,-58z"></path><path stroke-linecap="butt" stroke-linejoin="miter" fill-opacity="0" stroke-miterlimit="4" stroke="rgb(0,0,0)" stroke-opacity="1" stroke-width="4" d=" M30,-58 C30,-58 30,58 30,58 C30,58 -30,58 -30,58 C-30,58 -30,-58 -30,-58 C-30,-58 30,-58 30,-58z"></path></g><g opacity="1" transform="matrix(1,0,0,1,0,0)"><path fill="rgb(241,243,51)" fill-opacity="1" d=" M28,-55 C28,-55 28,61 28,61 C28,61 -28,61 -28,61 C-28,61 -28,-55 -28,-55 C-28,-55 28,-55 28,-55z"></path></g></g><g style="display: block;" transform="matrix(1,0,0,1,0,0)" opacity="1"><g opacity="1" transform="matrix(1,0,0,1,79.95282745361328,327.3427734375)"><g opacity="1" transform="matrix(-0.4164699912071228,-0.5715598464012146,-1.5726158618927002,0.2428888976573944,-33.1574821472168,-45.505043029785156)"></g><g opacity="1" transform="matrix(1,0,0,1,0,0)"><g class="10" opacity="1" transform="matrix(1,0,0,1,0,0)"></g></g><g opacity="1" transform="matrix(1,0,0,1,0,0)"><g opacity="1" transform="matrix(1,0,0,1,-200,-200)"></g></g><g opacity="1" transform="matrix(1,0,0,1,-135,0)"><g opacity="1" transform="matrix(1,0,0,1,0,0)"></g></g></g><g opacity="1" transform="matrix(1,0,0,1,0,0)"><g opacity="1" transform="matrix(1,0,0,1,79.95282745361328,327.3427734375)"><path stroke-linecap="round" stroke-linejoin="miter" fill-opacity="0" stroke-miterlimit="4" stroke="rgb(0,0,0)" stroke-opacity="1" stroke-width="21" d=" M0,0 C0,0 2.53,-0.86 6.95,-2.7"></path><path stroke-linecap="round" stroke-linejoin="round" fill-opacity="0" stroke="rgb(255,144,232)" stroke-opacity="1" stroke-width="15" d=" M0,0 C0,0 2.53,-0.86 6.95,-2.7"></path><g opacity="1" transform="matrix(-0.4164699912071228,-0.5715598464012146,-1.5726158618927002,0.2428888976573944,-33.1574821472168,-45.505043029785156)"></g></g><g opacity="1" transform="matrix(1,0,0,1,79.95282745361328,327.3427734375)"><path stroke-linecap="square" stroke-linejoin="round" fill-opacity="0" stroke="rgb(0,0,0)" stroke-opacity="1" stroke-width="21" d=" M13.48,-5.55 C24.03,-10.36 39.77,-18.48 56.98,-30.61 C87,-51.75 91.8,-64.15 92.04,-64.81"></path><path stroke-linecap="square" stroke-linejoin="round" fill-opacity="0" stroke="rgb(241,243,51)" stroke-opacity="1" stroke-width="15" d=" M13.48,-5.55 C24.03,-10.36 39.77,-18.48 56.98,-30.61 C87,-51.75 91.8,-64.15 92.04,-64.81"></path><g opacity="1" transform="matrix(-0.4164699912071228,-0.5715598464012146,-1.5726158618927002,0.2428888976573944,-33.1574821472168,-45.505043029785156)"></g></g></g></g><g style="display: block;" transform="matrix(1,0,0,1,0,0)" opacity="1"><g opacity="1" transform="matrix(1,0,0,1,143,347)"><g opacity="1" transform="matrix(0.0029498396907001734,-0.9999956488609314,-0.9999956488609314,-0.0029498396907001734,0.25,-84.75)"></g><g opacity="1" transform="matrix(1,0,0,1,0,0)"><g class="10" opacity="1" transform="matrix(1,0,0,1,0,0)"></g></g><g opacity="1" transform="matrix(1,0,0,1,0,0)"><g opacity="1" transform="matrix(1,0,0,1,-200,-200)"></g></g><g opacity="1" transform="matrix(1,0,0,1,-135,0)"><g opacity="1" transform="matrix(1,0,0,1,0,0)"></g></g></g><g opacity="1" transform="matrix(1,0,0,1,0,0)"><g opacity="1" transform="matrix(1,0,0,1,143,347)"><path stroke-linecap="round" stroke-linejoin="miter" fill-opacity="0" stroke-miterlimit="4" stroke="rgb(0,0,0)" stroke-opacity="1" stroke-width="21" d=" M0,0 C0,0 5.11,-0.59 12.69,-2.58"></path><path stroke-linecap="round" stroke-linejoin="round" fill-opacity="0" stroke="rgb(255,144,232)" stroke-opacity="1" stroke-width="15" d=" M0,0 C0,0 5.11,-0.59 12.69,-2.58"></path><g opacity="1" transform="matrix(0.0029498396907001734,-0.9999956488609314,-0.9999956488609314,-0.0029498396907001734,0.25,-84.75)"></g></g><g opacity="1" transform="matrix(1,0,0,1,143,347)"><path stroke-linecap="square" stroke-linejoin="round" fill-opacity="0" stroke="rgb(0,0,0)" stroke-opacity="1" stroke-width="21" d=" M12.69,-2.58 C25,-5.8 43.84,-12.7 57.94,-26.72 C80.23,-48.87 84.8,-82.96 84.99,-84.45"></path><path stroke-linecap="square" stroke-linejoin="round" fill-opacity="0" stroke="rgb(241,243,51)" stroke-opacity="1" stroke-width="15" d=" M12.69,-2.58 C25,-5.8 43.84,-12.7 57.94,-26.72 C80.23,-48.87 84.8,-82.96 84.99,-84.45"></path><g opacity="1" transform="matrix(0.0029498396907001734,-0.9999956488609314,-0.9999956488609314,-0.0029498396907001734,0.25,-84.75)"></g></g></g></g><g style="display: block;" transform="matrix(1,0,0,1,200,241)" opacity="1"><g opacity="1" transform="matrix(1,0,0,1,0,0)"><path fill="rgb(241,243,51)" fill-opacity="1" d=" M0,-41.5 C16.55699920654297,-41.5 30,-20.21525001525879 30,6 C30,32.215248107910156 16.55699920654297,53.5 0,53.5 C-16.55699920654297,53.5 -30,32.215248107910156 -30,6 C-30,-20.21525001525879 -16.55699920654297,-41.5 0,-41.5z"></path></g></g><g style="display: block;" transform="matrix(1,0,0,1,204,263)" opacity="1"><g opacity="1" transform="matrix(1,0,0,1,0,0)"><path fill="rgb(255,144,232)" fill-opacity="1" d=" M15.322999954223633,0 C15.322999954223633,7.452000141143799 8.463000297546387,13.493000030517578 0,13.493000030517578 C-8.463000297546387,13.493000030517578 -15.322999954223633,7.452000141143799 -15.322999954223633,0 C-15.322999954223633,-7.452000141143799 -8.463000297546387,-13.493000030517578 0,-13.493000030517578 C8.463000297546387,-13.493000030517578 15.322999954223633,-7.452000141143799 15.322999954223633,0z"></path><path stroke-linecap="butt" stroke-linejoin="miter" fill-opacity="0" stroke-miterlimit="10" stroke="rgb(0,0,0)" stroke-opacity="1" stroke-width="3" d=" M15.322999954223633,0 C15.322999954223633,7.452000141143799 8.463000297546387,13.493000030517578 0,13.493000030517578 C-8.463000297546387,13.493000030517578 -15.322999954223633,7.452000141143799 -15.322999954223633,0 C-15.322999954223633,-7.452000141143799 -8.463000297546387,-13.493000030517578 0,-13.493000030517578 C8.463000297546387,-13.493000030517578 15.322999954223633,-7.452000141143799 15.322999954223633,0z"></path></g></g><g style="display: block;" transform="matrix(0.999981164932251,0.006135336123406887,-0.006135336123406887,0.999981164932251,71.59262084960938,10.341278076171875)" opacity="1"><g opacity="1" transform="matrix(1,0,0,1,130,148.05499267578125)"><path fill="rgb(255,144,232)" fill-opacity="1" d=" M55.84000015258789,17.017000198364258 C45.2760009765625,8.685999870300293 45.2760009765625,-8.699000358581543 55.84000015258789,-17.017000198364258 C68.46499633789062,-26.98200035095215 76.18599700927734,-40.323001861572266 76.18599700927734,-54.98500061035156 C76.18599700927734,-85.81300354003906 42.064998626708984,-110.8010025024414 0,-110.8010025024414 C-42.064998626708984,-110.8010025024414 -76.18599700927734,-85.81300354003906 -76.18599700927734,-54.98500061035156 C-76.18599700927734,-40.323001861572266 -68.46499633789062,-26.98200035095215 -55.84000015258789,-17.017000198364258 C-45.2760009765625,-8.685999870300293 -45.2760009765625,8.699000358581543 -55.84000015258789,17.017000198364258 C-68.46499633789062,26.98200035095215 -76.18599700927734,40.323001861572266 -76.18599700927734,54.98500061035156 C-76.18599700927734,85.81300354003906 -42.064998626708984,110.8010025024414 0,110.8010025024414 C42.064998626708984,110.8010025024414 76.18599700927734,85.81300354003906 76.18599700927734,54.98500061035156 C76.18599700927734,40.323001861572266 68.46499633789062,26.98200035095215 55.84000015258789,17.017000198364258z"></path><path stroke-linecap="butt" stroke-linejoin="miter" fill-opacity="0" stroke-miterlimit="10" stroke="rgb(0,0,0)" stroke-opacity="1" stroke-width="3" d=" M55.84000015258789,17.017000198364258 C45.2760009765625,8.685999870300293 45.2760009765625,-8.699000358581543 55.84000015258789,-17.017000198364258 C68.46499633789062,-26.98200035095215 76.18599700927734,-40.323001861572266 76.18599700927734,-54.98500061035156 C76.18599700927734,-85.81300354003906 42.064998626708984,-110.8010025024414 0,-110.8010025024414 C-42.064998626708984,-110.8010025024414 -76.18599700927734,-85.81300354003906 -76.18599700927734,-54.98500061035156 C-76.18599700927734,-40.323001861572266 -68.46499633789062,-26.98200035095215 -55.84000015258789,-17.017000198364258 C-45.2760009765625,-8.685999870300293 -45.2760009765625,8.699000358581543 -55.84000015258789,17.017000198364258 C-68.46499633789062,26.98200035095215 -76.18599700927734,40.323001861572266 -76.18599700927734,54.98500061035156 C-76.18599700927734,85.81300354003906 -42.064998626708984,110.8010025024414 0,110.8010025024414 C42.064998626708984,110.8010025024414 76.18599700927734,85.81300354003906 76.18599700927734,54.98500061035156 C76.18599700927734,40.323001861572266 68.46499633789062,26.98200035095215 55.84000015258789,17.017000198364258z"></path></g></g><g style="display: block;" transform="matrix(0.999981164932251,0.006135336123406887,-0.006135336123406887,0.999981164932251,41.68171691894531,-2.123046875)" opacity="1"><g opacity="1" transform="matrix(1,0,0,1,130,229.57699584960938)"><path stroke-linecap="round" stroke-linejoin="round" fill-opacity="0" stroke="rgb(0,0,0)" stroke-opacity="1" stroke-width="3" d=" M-15.748000144958496,-4.0960001945495605 C-11.899999618530273,0.925000011920929 -6.2729997634887695,4.0960001945495605 0,4.0960001945495605 C6.2729997634887695,4.0960001945495605 11.899999618530273,0.925000011920929 15.748000144958496,-4.0960001945495605"></path></g></g><g style="display: block;" transform="matrix(0.999981164932251,0.006135336123406887,-0.006135336123406887,0.999981164932251,41.681976318359375,-2.122894287109375)" opacity="1"><g opacity="1" transform="matrix(1,0,0,1,0,0)"><g opacity="1" transform="matrix(1,0,0,1,100.62699890136719,212.38099670410156)"><path fill="rgb(0,0,0)" fill-opacity="1" d=" M2.575000047683716,0 C2.575000047683716,1.4220000505447388 1.4220000505447388,2.575000047683716 0,2.575000047683716 C-1.4220000505447388,2.575000047683716 -2.575000047683716,1.4220000505447388 -2.575000047683716,0 C-2.575000047683716,-1.4220000505447388 -1.4220000505447388,-2.575000047683716 0,-2.575000047683716 C1.4220000505447388,-2.575000047683716 2.575000047683716,-1.4220000505447388 2.575000047683716,0z"></path></g><g opacity="1" transform="matrix(1,0,0,1,159.3730010986328,212.38099670410156)"><path fill="rgb(0,0,0)" fill-opacity="1" d=" M2.575000047683716,0 C2.575000047683716,1.4220000505447388 1.4220000505447388,2.575000047683716 0,2.575000047683716 C-1.4220000505447388,2.575000047683716 -2.575000047683716,1.4220000505447388 -2.575000047683716,0 C-2.575000047683716,-1.4220000505447388 -1.4220000505447388,-2.575000047683716 0,-2.575000047683716 C1.4220000505447388,-2.575000047683716 2.575000047683716,-1.4220000505447388 2.575000047683716,0z"></path></g></g></g><g style="display: none;" transform="matrix(1,0,0,1,0,0)" opacity="1"><g opacity="1" transform="matrix(1,0,0,1,199.9686737060547,348.0970764160156)"><g opacity="1" transform="matrix(-0.4519274830818176,-0.8920546770095825,-0.8920546770095825,0.4519274830818176,-28.782873153686523,-56.8141975402832)"></g><g opacity="1" transform="matrix(1,0,0,1,0,0)"><g class="10" opacity="1" transform="matrix(1,0,0,1,0,0)"></g></g><g opacity="1" transform="matrix(1,0,0,1,0,0)"><g opacity="1" transform="matrix(1,0,0,1,-200,-200)"></g></g><g opacity="1" transform="matrix(1,0,0,1,-135,0)"><g opacity="1" transform="matrix(1,0,0,1,0,0)"></g></g></g><g opacity="1" transform="matrix(1,0,0,1,0,0)"><g opacity="1" transform="matrix(1,0,0,1,199.9686737060547,348.0970764160156)"><path stroke-linecap="round" stroke-linejoin="miter" fill-opacity="0" stroke-miterlimit="4" stroke="rgb(0,0,0)" stroke-opacity="1" stroke-width="21" d=" M0,0 C0,0 2.72,-2.53 6.47,-6.84"></path><path stroke-linecap="round" stroke-linejoin="round" fill-opacity="0" stroke="rgb(255,144,232)" stroke-opacity="1" stroke-width="15" d=" M0,0 C0,0 2.72,-2.53 6.47,-6.84"></path><g opacity="1" transform="matrix(-0.4519274830818176,-0.8920546770095825,-0.8920546770095825,0.4519274830818176,-28.782873153686523,-56.8141975402832)"></g></g><g opacity="1" transform="matrix(1,0,0,1,199.9686737060547,348.0970764160156)"><path stroke-linecap="square" stroke-linejoin="round" fill-opacity="0" stroke="rgb(0,0,0)" stroke-opacity="1" stroke-width="20" d=" M6.47,-6.84 C8.59,-9.27 11.03,-12.27 13.5,-15.69"></path><path stroke-linecap="square" stroke-linejoin="round" fill-opacity="0" stroke="rgb(241,243,51)" stroke-opacity="1" stroke-width="15" d=" M6.47,-6.84 C8.59,-9.27 11.03,-12.27 13.5,-15.69"></path><g opacity="1" transform="matrix(-0.4519274830818176,-0.8920546770095825,-0.8920546770095825,0.4519274830818176,-28.782873153686523,-56.8141975402832)"></g></g><g opacity="1" transform="matrix(1,0,0,1,199.9686737060547,348.0970764160156)"><path stroke-linecap="round" stroke-linejoin="round" fill-opacity="0" stroke="rgb(241,243,51)" stroke-opacity="1" stroke-width="15" d=" M12.39,-14.17 C17.41,-20.91 22.75,-29.54 25.82,-38.93 C27.3,-43.44 28.25,-48.12 28.84,-52.7"></path><g opacity="1" transform="matrix(-0.4519274830818176,-0.8920546770095825,-0.8920546770095825,0.4519274830818176,-28.782873153686523,-56.8141975402832)"></g></g></g></g></g></svg>