<svg width="257" height="216" viewBox="0 0 257 216" fill="none" xmlns="http://www.w3.org/2000/svg">
<path d="M1 214.016L58.0177 214.016L58.0177 192.139L94.3399 192.139L94.3399 174.715L161.011 174.715L161.011 135.941L209.725 135.941L209.725 121.564L255.274 121.564L255.274 1L207.536 1L207.536 17.0103L170.381 17.0103L170.381 50.9948L74.4127 50.9948L74.4127 71.0306L50.6241 71.0306L50.6241 89.6655L1 89.6655L1 214.016Z" fill="#FFC900" stroke="black" stroke-width="2" stroke-miterlimit="10"/>
<path d="M32.8409 141.753C30.6562 141.624 28.4651 141.624 26.2803 141.753C26.2803 162.351 26.2804 185.146 26.5516 199.138L13.1592 199.138C13.4304 177.897 13.4304 123.356 13.1592 101.987L26.5516 101.987C26.416 108.466 26.2803 118.566 26.2803 129.964L32.8409 129.964C32.7053 118.695 32.7053 108.723 32.5697 101.987L45.9686 101.987C45.6974 121.674 45.6974 174.006 45.9686 199.138L32.5697 199.138C32.7053 186.957 32.8409 163.385 32.8409 141.753Z" fill="#23A094" stroke="black" stroke-width="2" stroke-miterlimit="10"/>
<path d="M88.0894 132.68C88.0894 164.284 82.3489 182.681 69.3633 182.681C56.3777 182.681 50.6372 164.284 50.6372 132.68C50.6372 101.718 56.1065 83.3213 69.3633 83.3213C82.4845 83.3091 88.0894 101.332 88.0894 132.68ZM74.4129 132.68C74.4129 106.122 71.83 94.7494 69.3568 94.7494C66.8837 94.7494 64.3008 106.147 64.3008 132.68C64.3008 159.366 66.8837 171.797 69.3568 171.797C71.83 171.797 74.4129 159.366 74.4129 132.68Z" fill="#23A094" stroke="black" stroke-width="2" stroke-miterlimit="10"/>
<path d="M155.91 66.479C151.945 95.3673 147.154 141.728 144.971 163.63L128.182 163.63C127.356 155.065 126.245 140.7 125.173 125.81C123.804 109.224 122.713 93.0364 122.029 82.1528L121.48 82.1528C121.338 91.4886 120.647 104.053 119.407 119.845C118.309 135.39 116.262 155.597 115.3 163.63L97.5298 163.63C96.0253 143.68 91.7828 88.9926 89.187 66.479L101.766 66.479C101.901 72.8293 103.542 89.794 105.731 114.149C106.686 125.546 107.506 139.409 108.191 149.902L108.875 149.902C109.424 140.058 110.244 126.323 111.335 116.351C113.273 95.3673 113.796 79.9504 115.165 66.479L128.725 66.479C130.094 79.9382 131.049 88.5032 133.374 110.393C134.33 120.236 135.563 137.984 136.383 149.902L136.932 149.902C137.752 138.498 138.295 126.709 139.392 115.44C140.626 100.935 140.761 91.091 143.086 66.4974L155.91 66.479Z" fill="#23A094" stroke="black" stroke-width="2" stroke-miterlimit="10"/>
<path d="M200.155 39.8725C199.748 65.7814 199.884 109.169 200.155 125.363L187.028 125.363C187.305 109.304 187.441 65.7814 187.441 39.8725C184.161 39.8725 180.88 39.8725 179.647 40.001L179.647 28.1997L207.536 28.1997L207.536 39.9887C206.587 39.8725 203.164 39.8725 200.155 39.8725Z" fill="#23A094" stroke="black" stroke-width="2" stroke-miterlimit="10"/>
<path d="M247.184 58.893C247.184 90.4976 241.437 108.894 228.458 108.894C215.478 108.894 209.731 90.4976 209.731 58.893C209.731 27.9368 215.201 9.54053 228.458 9.54053C241.585 9.54053 247.184 27.5453 247.184 58.893ZM233.507 58.893C233.507 32.3355 230.924 20.9625 228.451 20.9625C225.978 20.9625 223.389 32.36 223.389 58.893C223.389 85.5789 225.971 98.0103 228.451 98.0103C230.931 98.0103 233.52 85.5789 233.52 58.893L233.507 58.893Z" fill="#23A094" stroke="black" stroke-width="2" stroke-miterlimit="10"/>
<path d="M177.354 83.7678L163.407 83.7678L163.407 95.5569L177.354 95.5569L177.354 83.7678Z" fill="#23A094" stroke="black" stroke-width="2" stroke-miterlimit="10"/>
</svg>
