<svg width="224" height="160" fill="none" xmlns="http://www.w3.org/2000/svg"><path d="m209.723 74.533-21.427-30.401a14.947 14.947 0 0 0-1.257-1.56l-18.881-27.47a15.968 15.968 0 0 0-5.903-5.18 15.995 15.995 0 0 0-15.229.372 15.964 15.964 0 0 0-5.642 5.463L124.34 4.66a15.992 15.992 0 0 0-22.949 6.067 15.941 15.941 0 0 0-1.71 8.626l.313 3.76-7.227-.733a15.998 15.998 0 0 0-12.082 3.823A15.961 15.961 0 0 0 75.19 37.61H26.978a15.988 15.988 0 0 0-11.298 4.674A15.949 15.949 0 0 0 11 53.569v88.535c0 4.232 1.683 8.291 4.68 11.284a15.989 15.989 0 0 0 11.298 4.675h169.659c4.238 0 8.302-1.682 11.298-4.675a15.947 15.947 0 0 0 4.68-11.284V83.72a15.94 15.94 0 0 0-2.892-9.187Z" fill="#FF7051" stroke="#000" stroke-miterlimit="10"/><path d="M174.933 53.403v-.005l.128-.086 21.422 30.402v58.389h-21.779v-88.54l.229-.16ZM109.369 76.05v66.055H92.166v-88.54l3.973 5.266 12.996 17.22h.234Z" fill="#000"/><path d="M26.83 142.105v-88.54h65.335v88.54m17.204 0v-88.54h65.336v88.54" stroke="#000" stroke-linecap="round" stroke-linejoin="round"/><path d="m175.535 54.27-.601-.867v-.006l-20.117-29.269-3.057 17.555-36.309-23.662 1.912 22.902-26.364-2.67 12.229 17.937-6.11 1.904" stroke="#000" stroke-linecap="round" stroke-linejoin="round"/><path d="m175.061 53.313 21.421 30.401v58.389H26.829m65.337-88.538 3.973 5.266 12.996 17.22M67.26 78.757a7.744 7.744 0 0 0-4.79-7.161 7.768 7.768 0 0 0-8.457 1.68 7.749 7.749 0 0 0-1.682 8.447 7.754 7.754 0 0 0 7.17 4.784 7.764 7.764 0 0 0 5.488-2.268 7.743 7.743 0 0 0 2.272-5.482v0Z" stroke="#000" stroke-linecap="round" stroke-linejoin="round"/><path d="M149.794 78.757a7.743 7.743 0 0 0-4.792-7.162 7.768 7.768 0 0 0-8.458 1.683 7.749 7.749 0 0 0-1.678 8.448 7.75 7.75 0 0 0 2.86 3.478 7.768 7.768 0 0 0 11.479-3.482c.389-.94.589-1.948.589-2.965v0Zm11.541 55.34a3.436 3.436 0 0 1 4.114-3.37 3.436 3.436 0 0 1-.679 6.806 3.442 3.442 0 0 1-3.435-3.436v0Zm-83.961-14.183a18.503 18.503 0 0 0 0-8.277 18.285 18.285 0 0 0-7.283-10.808 18.328 18.328 0 0 0-24.219 2.773 18.273 18.273 0 0 0 0 24.347 18.327 18.327 0 0 0 24.218 2.773 18.291 18.291 0 0 0 7.284-10.808Zm-30.162-16.762v25.178m8.06-29.252v33.328m8.046-33.328v33.328m8.054-29.254v25.178m1.048-24.648H47.213m29.289 8.041H43.139m33.363 8.045H43.139m29.281 8.041H47.213m112.696-7.891a18.308 18.308 0 0 0-7.125-18.992 18.358 18.358 0 0 0-27.364 7.099 18.31 18.31 0 0 0-1.518 10.484 18.312 18.312 0 0 0 4.547 9.57 18.348 18.348 0 0 0 9.09 5.458 18.365 18.365 0 0 0 15.92-3.417 18.333 18.333 0 0 0 6.46-10.202h-.01Zm-30.152-16.766v25.178m8.048-29.252v33.328m8.053-33.328v33.328m8.047-29.254v25.178m1.055-24.648h-25.203m29.288 8.041h-33.379m33.379 8.045h-33.379m29.294 8.041h-25.203" stroke="#000" stroke-linecap="round" stroke-linejoin="round"/></svg>