<svg width="204" height="235" viewBox="0 0 204 235" fill="none" xmlns="http://www.w3.org/2000/svg">
<path d="M5.9665 139.203L5.48667 139.544L5.55269 140.13C6.38249 147.485 7.57262 150.981 10.4833 159.53C10.8322 160.554 11.2058 161.651 11.6064 162.837C16.7523 178.059 24.8742 196.137 31.684 211.294C35.1489 219.007 38.2741 225.963 40.4947 231.402L40.9493 232.515L41.961 231.865C55.2342 223.339 74.8934 212.865 92.4158 206.942C98.4163 204.913 106.678 203.095 116.306 200.975C118.079 200.585 119.899 200.185 121.759 199.771C133.683 197.118 147.207 193.928 160.682 189.373C170.209 186.153 179.391 182.127 188.497 178.134C192.746 176.271 196.979 174.415 201.223 172.652L202.017 172.322L201.81 171.488C194.955 143.784 181.299 94.5759 173.835 77.2489L173.482 76.4308L172.629 76.6867C163.028 79.5662 154.511 83.2569 145.261 87.2797L144.955 87.4128C135.783 91.4017 125.851 95.7213 113.33 99.9538C106.772 102.171 99.1629 104.053 90.8109 106.052C89.8836 106.274 88.9473 106.498 88.0025 106.723C80.4517 108.525 72.3596 110.456 63.9926 112.827C45.1589 118.164 24.8695 125.748 5.9665 139.203Z" fill="#F1F333" stroke="black" stroke-width="2"/>
<path d="M2.35084 44.639L1.94129 45.011L2.03887 45.5556C3.25222 52.3278 4.36546 55.6048 7.10858 63.6796C7.43714 64.6467 7.78908 65.6827 8.16737 66.8018C13.0229 81.1654 20.153 98.3852 26.1379 112.839C29.1871 120.204 31.939 126.85 33.9416 132.035L34.4327 133.306L35.4981 132.456C43.7962 125.836 53.1226 119.25 64.4439 115.423C68.309 114.116 74.6318 113.065 82.0656 111.828C83.4354 111.601 84.8429 111.367 86.2797 111.124C95.4446 109.573 105.7 107.667 114.534 104.681C120.778 102.57 126.737 99.6777 132.609 96.8272C135.334 95.5045 138.04 94.1907 140.748 92.9683L141.528 92.6164L141.301 91.7917C134.157 65.8097 118.484 19.1915 111.876 2.73287L111.541 1.89833L110.675 2.14328C104.331 3.93935 98.8093 6.57941 92.8629 9.43474L92.6729 9.52598C86.7699 12.3606 80.405 15.4171 72.2737 18.1659C68.0369 19.5981 63.0495 20.6379 57.5269 21.7262C56.9148 21.8469 56.2963 21.9681 55.672 22.0904C50.6839 23.0678 45.3201 24.1188 39.8074 25.5492C27.3888 28.7715 14.1329 33.9374 2.35084 44.639Z" fill="#F1F333" stroke="black" stroke-width="2"/>
<path d="M34.0474 75.1298C38.5541 86.7161 42.5987 97.4993 46.2068 107.555L39.5601 109.802C35.3197 96.9707 25.7282 68.3299 19.1086 49.2966C21.3956 48.5215 25.7811 47.0245 27.9358 46.1888C30.1429 50.8453 35.414 61.2572 41.6255 72.8792L41.6292 72.8861L41.633 72.893C43.1803 75.6818 44.6955 78.6709 46.0663 81.53L46.657 82.7621L47.6528 81.8264L47.8069 81.6816L48.3026 81.2159L48.0515 80.5837C47.97 80.3786 47.8896 80.1765 47.8106 79.9779C47.2218 78.4979 46.7094 77.2102 46.3966 76.2847L46.392 76.2712L46.3871 76.2579C44.4057 70.9035 42.442 65.7592 40.6031 60.9419C38.2259 54.7144 36.0573 49.0334 34.3289 44.1517L40.6058 42.0299C46.7245 61.2705 56.1469 89.9836 60.7618 102.588C60.6666 102.618 60.5667 102.65 60.4628 102.684C59.737 102.918 58.7993 103.229 57.8682 103.544C56.9372 103.858 56.0085 104.178 55.3011 104.429C55.1398 104.486 54.9889 104.54 54.8514 104.59C52.1229 99.8711 44.0988 85.9721 36.9567 73.3445L36.9529 73.3378L36.9489 73.331C35.5112 70.8789 34.2296 68.4437 32.9935 66.0948C32.7988 65.7248 32.6052 65.3569 32.4122 64.9914L32.0146 64.2381L31.2076 64.5109L31.0254 64.5725L30.0297 64.909L30.4154 65.8867C30.7834 66.8197 31.1453 67.7348 31.4949 68.6186C32.4963 71.1506 33.3959 73.4252 34.0452 75.1243L34.0474 75.1298ZM72.807 92.4233C75.2011 91.614 77.9442 90.6112 80.8823 89.3988L82.8343 95.1734L66.9719 100.536C62.1711 85.7797 53.3922 59.8135 46.5156 40.0321L61.9254 34.8229L63.832 40.4627C62.1689 40.9587 60.8167 41.3784 59.6695 41.737C59.4703 41.7993 59.2776 41.8596 59.0908 41.9181C57.9903 42.2626 57.0937 42.5433 56.2746 42.7811L55.2716 43.0723L55.606 44.0617C56.1671 45.7214 56.7135 47.4092 57.2751 49.1438L57.3142 49.2648C57.8889 51.0399 58.4797 52.863 59.1149 54.7419L59.4436 55.7143L60.4071 55.3604C61.7247 54.8763 63.1383 54.3758 64.4188 53.9225C65.5387 53.526 66.5568 53.1656 67.32 52.8836L69.2936 58.7218C67.5866 59.226 64.7506 60.1248 62.1821 60.9931L61.2436 61.3103L61.5521 62.2518C64.7535 72.0227 68.243 82.3453 71.5425 91.8053L71.8687 92.7405L72.807 92.4233ZM107.735 18.8481C111.32 37.9817 117.243 67.8014 120.523 82.4328L111.027 85.643C103.559 69.1115 96.5422 52.3355 89.6224 35.5532L89.2653 34.687L88.3777 34.9871L88.0132 35.1103L87.0802 35.4257L87.3814 36.3634C92.9071 53.5678 97.1015 71.3861 100.766 89.1118L90.6338 92.5368C85.1621 79.7492 71.4993 48.0185 64.8114 33.8473L71.2049 31.686C74.3588 40.255 78.0352 48.6613 81.7946 57.0111C82.6382 58.885 83.4858 60.7555 84.3326 62.6243C87.3985 69.3901 90.4546 76.1345 93.2806 82.9419L93.639 83.8052L94.5244 83.5058L94.98 83.3518L95.8743 83.0495L95.624 82.1393C94.3444 77.4871 93.0318 72.8293 91.7179 68.1667C87.9698 54.8667 84.2106 41.527 81.1748 28.1629L89.9652 25.2327C96.6774 39.8814 102.928 54.8104 109.166 69.7099C110.128 72.0077 111.09 74.3048 112.053 76.6001L112.413 77.4587L113.295 77.1605L113.66 77.0373L114.539 76.7401L114.308 75.8411C112.559 69.0317 110.73 62.253 108.902 55.4801C105.864 44.2201 102.831 32.9761 100.174 21.6332L107.735 18.8481Z" fill="#FF90E8" stroke="black" stroke-width="2"/>
<path d="M44.0884 165.747C50.6562 176.81 60.9605 193.752 66.5261 202.551L59.4207 205.431C54.9827 197.185 46.7598 183.088 39.1255 170.43L38.5574 169.488L37.6737 170.143L37.4218 170.329L36.8405 170.76L37.0679 171.447C41.8677 185.944 46.699 199.961 49.5855 208.201L42.4684 210.607C37.7206 195.412 28.509 168.172 19.9144 143.917C26.8707 141.825 32.5257 141.411 36.8435 142.649C41.2874 143.922 44.4408 146.98 46.181 152.128C47.9068 157.233 46.6053 161.427 44.1543 164.628L43.7432 165.165L44.0884 165.747ZM75.3114 192.579C77.7957 191.74 80.6419 190.694 83.6879 189.423L85.8875 195.929L69.4191 201.497C64.1505 185.334 54.4943 156.772 46.9547 135.052L62.9548 129.643L65.1042 136.002C63.3685 136.515 61.9595 136.95 60.7653 137.322C60.5594 137.386 60.3601 137.448 60.167 137.508C59.0282 137.863 58.1009 138.152 57.2533 138.396L56.247 138.685L56.5823 139.677C57.1972 141.496 57.7972 143.345 58.4135 145.244L58.4565 145.376C59.0874 147.32 59.7355 149.315 60.4308 151.372L60.76 152.346L61.7244 151.99C63.0852 151.488 64.546 150.969 65.8697 150.499C67.0432 150.083 68.1089 149.704 68.9017 149.409L71.125 155.986C69.3613 156.502 66.4079 157.434 63.7359 158.337L62.7969 158.655L63.1061 159.596C66.6176 170.295 70.439 181.599 74.0468 191.961L74.3726 192.897L75.3114 192.579ZM34.3901 163.526L34.8422 164.863L35.9538 163.993C38.9459 161.651 40.4323 158.072 39.2493 154.573C38.5811 152.596 37.6506 151.071 36.2085 150.108C34.7674 149.146 32.9737 148.852 30.805 148.995L29.5072 149.081L29.9237 150.313L34.3901 163.526ZM75.3315 125.459C79.1382 137.563 88.233 164.165 95.4242 185.136L95.7472 186.077L96.6904 185.759C98.5099 185.143 100.516 184.388 102.646 183.514L104.687 189.553C100.639 190.834 95.6947 192.434 90.4896 194.343C85.6476 178.909 72.598 140.856 68.028 127.928L75.3315 125.459ZM108.25 188.37C102.981 172.208 93.3252 143.646 85.7856 121.926L101.786 116.517L103.935 122.875C102.199 123.389 100.79 123.824 99.5963 124.195C99.3901 124.259 99.1906 124.321 98.9972 124.382C97.8588 124.736 96.9317 125.025 96.0842 125.269L95.0779 125.558L95.4132 126.55C96.0281 128.369 96.6281 130.218 97.2445 132.117L97.2875 132.25C97.9183 134.193 98.5665 136.189 99.2617 138.245L99.591 139.219L100.555 138.863C101.916 138.361 103.377 137.842 104.701 137.373C105.874 136.956 106.94 136.578 107.733 136.283L109.956 142.86C108.192 143.375 105.239 144.307 102.567 145.211L101.628 145.528L101.937 146.47C105.448 157.168 109.27 168.473 112.878 178.834L113.204 179.77L114.142 179.453C116.627 178.613 119.473 177.568 122.519 176.296L124.718 182.803L108.25 188.37ZM133.675 179.775L126.685 182.138C122.491 163.056 116.192 136.353 110.539 113.558L121.133 109.976C126.948 123.565 142.021 157.075 150.01 174.253L142.937 176.644C140.696 170.723 136.473 160.032 131.75 148.42L131.395 147.548L130.503 147.849L126.263 149.282L125.378 149.582L125.617 150.485C128.48 161.347 131.431 171.896 133.675 179.775ZM145.245 102.376L144.548 108.71C143.422 108.526 142.181 108.568 141.18 108.907C140.233 109.227 139.507 109.857 139.149 110.75C138.802 111.62 138.855 112.607 139.184 113.581C139.743 115.232 141.509 118.379 143.792 122.19C145.664 125.314 147.935 128.967 150.292 132.758C150.842 133.644 151.398 134.538 151.954 135.434C154.894 140.171 157.856 144.983 160.27 149.166C162.7 153.376 164.526 156.866 165.244 158.99C166.395 162.396 166.193 165.161 165.11 167.278C164.023 169.401 161.974 171.021 159.141 171.979C156.844 172.755 154.373 173.06 152.046 172.981L151.76 166.372C153.118 166.649 154.383 166.56 155.408 166.214C156.477 165.852 157.375 165.13 157.883 164.121C158.394 163.105 158.464 161.885 158.035 160.615C157.297 158.432 155.446 154.951 153.112 150.917C150.761 146.855 147.865 142.143 144.985 137.465L144.642 136.908C141.875 132.413 139.143 127.976 136.926 124.177C134.598 120.189 132.897 117.001 132.289 115.201C131.33 112.365 131.514 109.822 132.549 107.783C133.585 105.74 135.53 104.094 138.292 103.161C140.882 102.285 143.291 102.174 145.245 102.376ZM123.096 142.097L123.369 143.132L124.383 142.79L127.87 141.611L128.872 141.272L128.477 140.291C125.169 132.06 121.829 124.044 119.261 118.002L118.899 117.149L118.021 117.446L117.738 117.542L116.87 117.835L117.087 118.726C118.711 125.397 120.859 133.615 123.096 142.097ZM173.858 166.192C168.589 150.029 158.933 121.467 151.393 99.7472L167.393 94.3384L169.543 100.697C167.807 101.21 166.398 101.645 165.204 102.017C164.998 102.081 164.799 102.143 164.605 102.203C163.467 102.558 162.539 102.847 161.692 103.091L160.686 103.38L161.021 104.372C161.635 106.19 162.235 108.038 162.851 109.936L162.895 110.071C163.526 112.015 164.174 114.01 164.869 116.067L165.199 117.041L166.163 116.685C167.524 116.183 168.985 115.664 170.308 115.194C171.482 114.778 172.548 114.399 173.34 114.104L175.564 120.681C173.8 121.197 170.847 122.129 168.175 123.032L167.236 123.35L167.545 124.291C171.056 134.99 174.878 146.294 178.485 156.656L178.811 157.592L179.75 157.274C182.234 156.435 185.08 155.389 188.126 154.118L190.326 160.624L173.858 166.192Z" fill="#FF90E8" stroke="black" stroke-width="2"/>
</svg>
