<svg width="297" height="308" viewBox="0 0 297 308" fill="none" xmlns="http://www.w3.org/2000/svg">
<path d="M221.511 248.29C190.755 219.238 154.71 227.48 125.937 265.502C141.202 231.386 138.343 222.047 117.041 237.637C119.147 224.955 115.35 216.534 83.0856 251.936C112.052 210.521 109.791 200.025 75.2504 209.497C94.2213 177.263 81.1384 145.524 19.9299 133.794C76.6608 136.243 86.8378 123.662 64.055 97.8555C94.0105 105.929 97.732 93.1825 75.0318 59.3003C109.328 83.5279 135.301 76.073 157.74 28.7651C155.438 74.5006 169.116 75.0296 198.275 30.207C177.95 71.2373 181.077 83.2983 217.269 62.2075C207.615 105.804 217.819 138.301 272.111 163.708C222.317 158.896 212.04 171.323 241.147 201.482C206.644 190.755 200.524 206.267 221.511 248.29Z" fill="#FF90E8" stroke="black" stroke-width="2.10843" stroke-miterlimit="10"/>
<path d="M192.537 63.3038C199.944 93.7402 213.782 141.538 219.933 164.304L205.306 172.326C201.356 164.281 194.474 150.888 187.921 136.694C180.524 120.947 173.558 105.426 168.913 94.9824L168.448 95.2376C171.72 104.582 175.906 117.294 180.773 133.495C185.626 149.398 191.993 170.036 194.139 178.459L178.679 186.938C169.944 167.906 145.127 116.232 134.513 95.1364L145.424 89.1516C147.91 95.3713 155.623 111.409 166.696 134.418C171.861 145.197 178.106 158.326 182.797 168.282L183.274 168.02C179.861 158.133 175.204 144.29 172.325 133.961C166.277 112.214 160.887 96.7624 157.083 82.7572L168.856 76.2999C175.066 88.9852 179.114 96.9775 189.303 117.529C193.784 126.83 201.888 143.579 207.297 154.844L207.774 154.583C204.056 143.01 199.778 131.274 196.368 119.69C192.038 104.741 188.504 94.9201 181.341 69.4519L192.537 63.3038Z" fill="#FF90E8" stroke="black" stroke-width="2.10843" stroke-miterlimit="10"/>
<path d="M173.572 197.935L150.382 210.655C142.281 187.711 126.836 145.442 115.132 113.955L137.73 101.56L142.002 113.299C136.285 116.129 133.311 117.76 130.746 119.01C132.708 124.276 134.679 129.844 136.716 135.533C140.736 133.328 145.336 130.655 146.815 129.687L151.403 141.716C149.671 142.509 144.953 144.94 140.801 147.217C146.177 162.37 152.003 178.359 157.415 193.022C160.861 191.132 164.818 188.812 169.171 185.961L173.572 197.935Z" fill="#FF90E8" stroke="black" stroke-width="2.10843" stroke-miterlimit="10"/>
<path d="M96.6245 97.0619C106.673 114.456 139.898 170.796 149.321 185.538C148.919 185.691 140.669 192.524 140.56 192.815C136.206 187.792 119.026 168.387 103.702 150.786C100.298 146.908 97.3001 143.091 94.3256 139.494L94.013 139.755C97.5199 144.786 100.528 149.509 102.64 152.691C113.629 169.307 123.552 184.865 132.614 199.385L122.81 207.526C111.668 188.574 87.9356 149.214 69.8016 119.312L82.0062 109.174C86.0254 114.649 97.6725 129.306 111.368 145.79C114.578 149.654 117.769 153.701 120.863 157.652L121.073 157.477C119.29 154.907 117.764 152.643 116.838 151.119C105.582 133.32 94.7296 117.293 87.2147 104.845L96.6245 97.0619Z" fill="#FF90E8" stroke="black" stroke-width="2.10843" stroke-miterlimit="10"/>
</svg>
