<svg width="155" height="175" viewBox="0 0 155 175" fill="none" xmlns="http://www.w3.org/2000/svg">
<path d="M142.112 97.8601L142.112 97.8603C143.202 99.0379 144.033 100.436 144.55 101.962C145.066 103.489 145.256 105.108 145.106 106.715L145.106 106.716L140.002 162.367C139.725 165.382 138.273 168.161 135.967 170.093C133.661 172.025 130.691 172.952 127.71 172.674L100.323 170.118C88.1204 168.979 82.064 162.914 79.1185 158.081C78.5551 157.15 78.054 156.182 77.6187 155.184L77.4671 154.836L77.1231 154.676C71.7195 152.16 64.4666 148.003 60.2413 142.473C60.2396 142.471 60.2379 142.469 60.2362 142.466L59.9293 142.051L59.5977 141.602L59.0422 141.648C58.0366 141.73 57.0259 141.726 56.0211 141.634C51.6996 141.213 47.6882 139.179 44.773 135.929L44.5714 135.704L44.2794 135.628C40.3378 134.603 36.8612 132.248 34.4285 128.952L34.2661 128.732L34.0144 128.625L33.4438 128.382L33.0597 128.219L32.6739 128.377L20.7804 133.247L20.7788 133.248C18.6119 134.139 16.2247 134.33 13.9468 133.793C11.6688 133.257 9.61109 132.02 8.05861 130.251C6.50602 128.483 5.53542 126.27 5.2825 123.919C5.02958 121.568 5.50705 119.195 6.64844 117.13L14.2888 103.308C14.8962 102.213 15.6774 101.225 16.6009 100.385C16.6013 100.384 16.6018 100.384 16.6022 100.384L24.3096 93.4107L24.8311 92.939L24.5624 92.288C23.9701 90.8533 23.6031 89.334 23.4746 87.7848L22.4781 87.8659L23.4746 87.7847C23.0155 82.2537 25.7322 76.7878 31.9113 71.5705L31.912 71.5699C33.013 70.6386 34.2452 69.7085 35.5563 68.7943L35.5691 68.7853L35.5817 68.776C35.7714 68.6347 35.9444 68.5104 36.1184 68.3995L36.1298 68.3922L36.1411 68.3847C38.8813 66.5321 41.7506 64.8818 44.7265 63.4466C50.1852 60.8746 56.0591 59.3186 62.0655 58.8531L62.4062 58.8267L62.6591 58.5973L75.549 46.9034L75.797 46.6785L75.8591 46.3492C76.4902 43.0072 77.9169 39.8705 80.016 37.2092C82.1151 34.5479 84.8233 32.4419 87.9069 31.0719L88.2168 30.9342L88.3786 30.6361C90.5371 26.6608 93.9071 23.4944 97.9877 21.6048L98.2805 21.4692L98.4385 21.1877C100.057 18.3041 102.329 15.8483 105.067 14.0204C107.805 12.1926 110.932 11.0443 114.192 10.6687C117.453 10.2932 120.756 10.7008 123.83 11.8585C126.905 13.0163 129.666 14.8914 131.886 17.3316C134.106 19.7718 135.724 22.7078 136.605 25.9003C137.487 29.0927 137.607 32.4506 136.957 35.6995C136.306 38.9484 134.903 41.9954 132.863 44.5919C130.822 47.1884 128.203 49.2604 125.218 50.6396L124.925 50.7751L124.767 51.0565C123.687 52.9776 122.315 54.715 120.701 56.2053L120.699 56.2069C119.022 57.7625 117.103 59.0291 115.019 59.9563L114.709 60.0941L114.548 60.3922C113.193 62.8902 111.349 65.0832 109.127 66.838C106.906 68.5928 104.354 69.8727 101.628 70.6002L99.9299 71.0533L101.19 72.2821C102.51 73.5699 103.742 74.9473 104.876 76.4047L104.876 76.4053C107.009 79.1415 108.708 81.6716 110.22 83.9307L110.22 83.9312C113.569 88.927 115.034 90.9608 117.716 92.0136L117.717 92.014C120.326 93.0355 123.694 93.6035 126.664 93.9135C129.649 94.2248 132.319 94.2839 133.581 94.2545L133.584 94.2545C135.177 94.2126 136.761 94.5122 138.231 95.1335C139.7 95.7549 141.023 96.684 142.112 97.8601ZM100.283 146.12L98.2957 146.151L98.2945 146.164C98.2834 146.284 98.2618 146.517 98.307 146.8L100.286 146.772C100.316 146.54 100.309 146.323 100.283 146.12Z" fill="#FFC900" stroke="black" stroke-width="2"/>
<path d="M113.01 48.3761C113.937 47.5221 114.687 46.4913 115.216 45.3432C115.745 44.195 116.044 42.9524 116.094 41.6872C117.977 41.7745 119.844 41.2957 121.457 40.3116C123.07 39.3274 124.357 37.8823 125.155 36.1594C125.953 34.4365 126.225 32.5134 125.938 30.6339C125.651 28.7544 124.818 27.0032 123.543 25.6024C122.268 24.2015 120.609 23.214 118.777 22.7651C116.945 22.3163 115.022 22.4262 113.253 23.0811C111.483 23.7359 109.945 24.9061 108.836 26.4434C107.726 27.9806 107.094 29.8156 107.019 31.7158C105.732 31.652 104.446 31.853 103.239 32.3065C102.032 32.76 100.929 33.4566 99.9976 34.3537C99.0658 35.2509 98.3248 36.3299 97.8196 37.5251C97.3144 38.7203 97.0557 40.0067 97.059 41.306C95.1477 41.1371 93.2304 41.5548 91.5585 42.5043C89.8866 43.4538 88.5382 44.8908 87.6901 46.6268C86.842 48.3628 86.5337 50.3168 86.8058 52.2326C87.0779 54.1484 87.9175 55.9366 89.2147 57.3626C90.5118 58.7886 92.206 59.786 94.0749 60.2239C95.9438 60.6618 97.9002 60.5198 99.6877 59.8165C101.475 59.1132 103.01 57.8814 104.092 56.2827C105.173 54.684 105.75 52.793 105.747 50.8577C107.062 50.9759 108.388 50.8162 109.638 50.3889C110.889 49.9617 112.037 49.2761 113.01 48.3761Z" fill="black" stroke="black" stroke-width="2" stroke-linecap="round" stroke-linejoin="round"/>
<path d="M79.9083 73.3428C86.2456 75.0955 91.864 78.8405 95.9472 84.034C102.683 92.6808 105.089 99.897 113.573 103.22C122.057 106.544 133.804 106.235 133.804 106.235L128.698 161.901L101.311 159.344C86.7925 157.989 86.9569 147.041 86.9569 147.041C86.9569 147.041 73.989 142.457 69.1284 136.093C64.2679 129.73 62.5136 121.548 52.9775 116.013C43.4414 110.479 38.6948 107.504 38.9636 104.574C39.497 98.7585 47.6128 96.9396 56.3981 101.557C65.1834 106.174 74.1363 113.812 79.3951 110.879C86.7467 106.781 88.1023 96.7418 80.3306 89.9069C76.4452 86.4845 71.5035 85.7991 65.9171 85.8408" stroke="black" stroke-width="2" stroke-linecap="round" stroke-linejoin="round"/>
<path d="M93.3859 60.2479L50.4945 99.0218" stroke="black" stroke-width="2" stroke-linecap="round" stroke-linejoin="round"/>
<path d="M40.6938 108.543L31.0745 117.273L16.4629 123.284L24.1039 109.461L86.8374 52.5162" stroke="black" stroke-width="2" stroke-linecap="round" stroke-linejoin="round"/>
<path d="M66.6184 70.697C60.7368 70.5823 54.9064 71.819 49.5686 74.3133C41.8158 78.0448 34.3743 83.7688 34.6968 87.4168C34.9878 90.9771 40.5785 93.3129 45.0275 90.3743" stroke="black" stroke-width="2" stroke-linecap="round" stroke-linejoin="round"/>
<path d="M60.4816 103.851C62.1362 102.156 63.9213 100.596 65.8202 99.1862C72.3649 94.7289 77.4748 93.7956 83.812 94.6711" stroke="black" stroke-width="2" stroke-linecap="round" stroke-linejoin="round"/>
<path d="M34.3057 114.255C34.3057 114.255 36.3732 120.638 42.8244 118.708C44.8104 118.116 47.1766 116.448 49.651 114.302" stroke="black" stroke-width="2" stroke-linecap="round" stroke-linejoin="round"/>
<path d="M69.6589 109.033C75.2807 105.213 79.8379 104.003 85.0256 104.268" stroke="black" stroke-width="2" stroke-linecap="round" stroke-linejoin="round"/>
<path d="M42.2472 120.483C42.2472 120.483 44.3099 126.865 50.766 124.936C52.8687 124.31 55.3987 122.473 58.0537 120.134" stroke="black" stroke-width="2" stroke-linecap="round" stroke-linejoin="round"/>
<path d="M51.4287 126.054C51.4287 126.054 53.4914 132.436 59.9475 130.507C61.4442 129.985 62.8483 129.224 64.1064 128.254" stroke="black" stroke-width="2" stroke-linecap="round" stroke-linejoin="round"/>
<path d="M39.3282 103.606C39.3282 103.606 41.5225 99.4506 46.274 102.426C49.5954 104.51 50.9529 107.646 50.5122 109.434C50.0716 111.222 48.4199 112.478 46.1199 111.7" stroke="black" stroke-width="2" stroke-linecap="round" stroke-linejoin="round"/>
<path d="M35.2298 85.9164C35.2298 85.9164 38.0063 87.5859 41.1671 85.0653C44.3279 82.5447 42.1848 78.5474 42.1848 78.5474" stroke="black" stroke-width="2" stroke-linecap="round" stroke-linejoin="round"/>
<path d="M24.2852 109.478C24.2852 109.478 24.2217 112.701 26.6323 114.805C27.9441 116.008 29.5335 116.863 31.2559 117.289" stroke="black" stroke-width="2" stroke-linecap="round" stroke-linejoin="round"/>
<path d="M121.296 28.1634C120.519 27.3091 119.543 26.6629 118.457 26.2832C117.371 25.9035 116.208 25.802 115.073 25.988" stroke="#FFC900" stroke-width="2" stroke-linecap="round" stroke-linejoin="round"/>
</svg>
