<svg width="224" height="160" fill="none" xmlns="http://www.w3.org/2000/svg"><g clip-path="url(#a)" stroke="#000"><path d="M134.694 5.643a31.486 31.486 0 0 0-31.836 4.351 31.478 31.478 0 0 0-11.434 30.03l1.544 12.493-10.324-7.498a31.584 31.584 0 0 0-39.52.071 31.475 31.475 0 0 0-10.377 33.402 31.484 31.484 0 0 0 26.887 22.373 31.46 31.46 0 0 0 23.1-6.836l.327-.27c.226-.135.434-.301.643-.467 1.716-1.354 3.055-1.952 3.91-2.095 1.142.489 1.93.894 2.292 1.087l7.97 5.38 3.99 39.092a22.702 22.702 0 0 0 8.352 15.149 22.695 22.695 0 0 0 16.451 4.88 10.551 10.551 0 0 0 9.425-11.484l-2.188-23.31 19.342 13.058a10.554 10.554 0 0 0 14.572-2.72 22.706 22.706 0 0 0-5.412-31.311c-.038-.03-.08-.058-.122-.087l-32.16-22.301-.836-9.405c.002-.387.023-1.282.15-2.52.539-.676 1.71-1.563 3.722-2.408.248-.102.488-.214.722-.335l.395-.155a31.48 31.48 0 0 0 14.444-46.466 31.484 31.484 0 0 0-14.04-11.695l.011-.003Z" fill="#F1F333" stroke-miterlimit="10"/><path d="M76.386 53.685A20.925 20.925 0 0 0 45.459 58.6a20.924 20.924 0 0 0 8.596 30.117 20.925 20.925 0 0 0 22.208-2.599 22.36 22.36 0 0 0 1.06-.922l.006.107c4.9-3.87 9.034-4.676 12.172-4.334l7.27-12.506-20.383-14.777Zm-22.37 23.518a11.836 11.836 0 0 1 3.698-17.917 11.833 11.833 0 0 1 16.852 7.12A11.835 11.835 0 0 1 57.564 80.16a11.835 11.835 0 0 1-3.55-2.956v0Z" fill="#000" stroke-linecap="round" stroke-linejoin="round"/><path d="m96.206 68.107 60.219 41.794a12.063 12.063 0 0 1 2.886 16.695v0L95.626 83.601a38.418 38.418 0 0 0-6.586-2.936l7.166-12.558Z" stroke-linecap="round" stroke-linejoin="round"/><path d="M102.043 38.738a20.926 20.926 0 0 1 8.307-20.761 20.924 20.924 0 1 1 20.134 36.343 20.05 20.05 0 0 1-1.32.48l.093.059c-5.76 2.416-8.465 5.643-9.674 8.547l-14.454.31-3.086-24.978Zm31.396-8.198a11.846 11.846 0 0 0-10.886-7.386 11.837 11.837 0 0 0-2.47 23.433 11.836 11.836 0 0 0 10.703-3.165 11.835 11.835 0 0 0 2.653-12.882v0Z" fill="#000" stroke-linecap="round" stroke-linejoin="round"/><path d="m120.206 84.529-1.298-14.479a38.43 38.43 0 0 1 .616-7.182l-14.456.197 1.221 11.948m1.654 17.023 4.576 43.933a12.049 12.049 0 0 0 13.214 10.599l-4.217-44.95" stroke-linecap="round" stroke-linejoin="round"/><path d="M116.091 91.5a3.44 3.44 0 1 0-3.538-5.9 3.44 3.44 0 0 0 3.538 5.9Z" stroke-miterlimit="10"/></g><defs><clipPath id="a"><path fill="#fff" d="M0 0h224v160H0z"/></clipPath></defs></svg>