<svg width="224" height="160" fill="none" xmlns="http://www.w3.org/2000/svg"><path d="M189.857 72.246h-3.046l-4.077-11.325a15.088 15.088 0 0 0-7.096-8.205 15.067 15.067 0 0 0-10.762-1.318h-.111a3.26 3.26 0 0 1-3.242-1.51l-9.837-15.596a15.087 15.087 0 0 0-5.586-6.139 15.069 15.069 0 0 0-7.985-2.252c-10.244-.126-29.535 4.528-42.267 22.443a15.116 15.116 0 0 0-4.574-.559l-22.201.74-11.204-4.78a22.69 22.69 0 0 0-.81-.341l-.336-.146c-9.188-3.834-18.834-4.221-27.308-1.042a30.898 30.898 0 0 0-17.447 16.24c-.1.226-.201.453-.292.684l-3.302 8.362c-1.005 2.515-2.594 7.29-2.594 7.29-.658 2.62-3.518 15.47-.196 27.71a20.036 20.036 0 0 0-3.945 11.959 20.168 20.168 0 0 0 5.899 14.219 20.13 20.13 0 0 0 14.206 5.904h102.272c.272-.025.548-.05.814-.085h.121c.271-.04.538-.086.804-.136l.156-.03c.302-.066.598-.136.895-.216h.055c.297-.081.588-.172.88-.272h.055c.292-.106.583-.216.865-.332l.12-.05c.277-.121.543-.242.809-.373h.041c.256-.131.502-.266.754-.412l.221-.126c.231-.141.457-.282.678-.428l.237-.166.462-.342.271-.206c.191-.151.377-.312.563-.473l.277-.247c.151-.14.296-.286.442-.432a8.48 8.48 0 0 0 .714-.785c.06-.07.126-.141.186-.216.181-.217.357-.438.502-.669.036-.051.076-.101.111-.156.385-.528.734-1.081 1.046-1.656v-.04l.03-.06 21.679.196h48.756a15.07 15.07 0 0 0 10.662-4.421 15.098 15.098 0 0 0 4.417-10.672v-7.697a31.893 31.893 0 0 0-9.319-22.49 31.832 31.832 0 0 0-22.463-9.346Z" fill="#90A8ED" stroke="#000" stroke-miterlimit="10"/><path d="m167.74 66.034 7.665 21.306h13.647a16.707 16.707 0 0 1 11.836 4.899 16.732 16.732 0 0 1 4.902 11.844v7.692h-48.254l-51.942-51.99c11.636-19.319 31.792-18.75 31.792-18.75" stroke="#000" stroke-linecap="round" stroke-linejoin="round"/><path d="m137.335 41.115 10.646 16.869a18.34 18.34 0 0 0 18.215 8.356l1.508-.226M112.346 51.76l49.449 50.415 43.428-.061" stroke="#000" stroke-linecap="round" stroke-linejoin="round"/><path d="M136.818 76.543c8.515-15.339.568-35.508.568-35.508m45.7 46.897a5.118 5.118 0 0 1-5.112 5.117h-11.058l-4.067-4.694a9.73 9.73 0 0 0-10.178-3.019l-5.509 1.59m-25.106 32.661L21.578 73.137l3.323-8.407c3.915-8.639 14.702-12.326 26.102-7.124l14.43 6.178 25.544-.85a12.98 12.98 0 0 0 1.58 9.43 12.959 12.959 0 0 0 7.609 5.783l26.574 2.687s4.258 22.131-4.684 38.753Zm2.98-9.379L24.9 64.728" stroke="#000" stroke-linecap="round" stroke-linejoin="round"/><path d="M126.741 80.808s-22.564-1.706-32.355 14.489M50.375 57.328a7.186 7.186 0 0 0 3.453 8.513l9.957 5.327a13.868 13.868 0 0 1 5.8 5.893 13.886 13.886 0 0 1 1.418 8.149l-.035.281m12.49-21.446v9.66m-7.952-9.66v9.66m96.301 5.977-9.354 2.38m7.394-10.093-9.354 2.384m-140.9 4.182s-3.127 12.497.281 21.875m5.675-11.078a35.2 35.2 0 0 0 1.322 12.462" stroke="#000" stroke-linecap="round" stroke-linejoin="round"/><path d="m127.454 101.545 19.427.282 10.309 9.946-31.726-.287 1.99-9.941Zm-5.398 18.042H20.941a5.026 5.026 0 0 1-5.027-5.031 5.032 5.032 0 0 1 5.027-5.031h80.115l21 10.062Z" fill="#000" stroke="#000" stroke-linecap="round" stroke-linejoin="round"/></svg>