<svg width="158" height="161" fill="none" xmlns="http://www.w3.org/2000/svg"><path d="M26.744 157.392h-.001L9.914 144.551a13.233 13.233 0 0 1-4.982-8.057v-.001l-3.703-19.722a13.245 13.245 0 0 1 4.326-12.444l8.823-7.671.363-.315-.378-.297-.935-.734a13.235 13.235 0 0 1-4.826-12.618 13.246 13.246 0 0 1 2.968-6.343 13.227 13.227 0 0 1 5.787-3.94v-.002l6.928-2.37.362-.124-.111-.367a13.235 13.235 0 0 1 1.216-10.469 13.222 13.222 0 0 1 8.472-6.262l6.079-1.388.425-.097-.137-.414-3.556-10.771a13.245 13.245 0 0 1 5.347-15.254 13.218 13.218 0 0 1 5.384-2.013l.269-.038.062-.265a27.926 27.926 0 0 1 9.828-15.521A27.907 27.907 0 0 1 75.265 1h54.272c7.388.01 14.47 2.95 19.694 8.176a27.922 27.922 0 0 1 8.169 19.705v54.29a27.92 27.92 0 0 1-8.169 19.705 27.895 27.895 0 0 1-19.694 8.177h-3.969l-.115.201a13.23 13.23 0 0 1-16.034 5.917l-6.518-2.371-.365-.133-.14.362-1.245 3.207a13.237 13.237 0 0 1-10.712 8.331h-.558l-.075.301-3.868 15.612v.001c-.094.363-.192.713-.31 1.059l-.002.003a13.237 13.237 0 0 1-12.925 8.997 13.232 13.232 0 0 1-5.416-1.336l-.01-.005-.009-.004-12.2-5.181-.242-.103-.189.182-10.666 10.28v.001a13.229 13.229 0 0 1-9.206 3.729v.397-.397a13.177 13.177 0 0 1-8.02-2.711Z" fill="#90A8ED" stroke="#000" stroke-width="1.005"/><path d="M143.211 30.805V85.13a14.636 14.636 0 0 1-4.288 10.36 14.655 14.655 0 0 1-10.361 4.292h-18.565l-.35.172-9.173-18.746 20.399-3.559-15.83-9.9 25.032-32.11-40.856 19.065-6.052-21.077-12.152 17.447L59.5 44.33l.071-.119V30.805a14.642 14.642 0 0 1 9.042-13.537 14.647 14.647 0 0 1 5.607-1.116h54.343a14.647 14.647 0 0 1 14.649 14.653Z" fill="#000"/><path d="M81.387 65.785 85 89.193l-4.212 16.972-8.722 35.16-3.495-19.671L81.4 66.082h-.07l.058-.297Z" fill="#000"/><path d="M81.387 66.07 68.56 121.642l-.119-.664 12.875-54.884.072-.024ZM50.19 109.748l3.707 19.701L33.7 148.865l-3.714-19.701 20.203-19.416Z" fill="#000"/><path d="M59.57 44.211V30.805a14.642 14.642 0 0 1 9.042-13.537 14.65 14.65 0 0 1 5.607-1.116h54.343a14.655 14.655 0 0 1 10.361 4.292 14.655 14.655 0 0 1 4.288 10.36v54.327a14.636 14.636 0 0 1-4.288 10.36 14.661 14.661 0 0 1-10.361 4.292h-18.565" stroke="#000" stroke-linecap="round" stroke-linejoin="round"/><path d="m51.008 76.506-.03-.018L36.14 67.68l20.683-4.775-8.271-24.992 10.947 6.418 11.522 6.745L83.166 33.63l6.058 21.077 40.851-19.066-25.033 32.11 15.83 9.895-20.398 3.565 9.173 18.746 3.299 6.745-19.04-6.917-6.088 15.631-6.402-9.094" stroke="#000" stroke-linecap="round" stroke-linejoin="round"/><path d="M81.315 66.094 50.978 76.487 20.564 86.909s6.082 4.817 13.914 10.874l-21.36 18.532 16.845 12.849m20.227-19.416 18.351 11.995.018-.101M33.7 148.865l-3.714-19.701 20.203-19.416 3.708 19.701m18.168 11.876.184.112" stroke="#000" stroke-linecap="round" stroke-linejoin="round"/><path d="m13.143 116.315 3.708 19.7 16.874 12.849 20.173-19.416s13.985 9.213 18.156 11.865m9.261-75.219.071-.309 3.62 23.408-4.219 16.972-8.716 35.16-.006.017-.006-.029-3.5-19.671-.119-.664 12.875-54.884Z" stroke="#000" stroke-linecap="round" stroke-linejoin="round"/></svg>