<svg width="566" height="563" viewBox="0 0 566 563" fill="none" xmlns="http://www.w3.org/2000/svg">
<path d="M562.635 3H3V559.735H562.635V3Z" fill="black" stroke="black" stroke-width="5" stroke-miterlimit="10"/>
<path d="M425.827 59.5752V478.763L129.973 474.793L129.477 435.999V382.402L132.725 206.204L135.428 59.5752H425.827Z" fill="white" stroke="black" stroke-width="3" stroke-linecap="round" stroke-linejoin="round"/>
<path d="M239.893 435.007L244.084 306.819" stroke="black" stroke-width="3" stroke-linecap="round" stroke-linejoin="round"/>
<path d="M214.785 435.007H265.004" stroke="black" stroke-width="3" stroke-linecap="round" stroke-linejoin="round"/>
<path d="M132.725 206.205L368.665 419.374" stroke="black" stroke-width="3" stroke-linecap="round" stroke-linejoin="round"/>
<path d="M345.68 387.945C357.574 387.945 367.216 378.298 367.216 366.397C367.216 354.496 357.574 344.849 345.68 344.849C333.786 344.849 324.145 354.496 324.145 366.397C324.145 378.298 333.786 387.945 345.68 387.945Z" fill="#FF90E8" stroke="black" stroke-width="3" stroke-linecap="round" stroke-linejoin="round"/>
<path d="M278.008 109.59C278.008 167.455 231.128 214.363 173.296 214.363C159.364 214.381 145.568 211.607 132.725 206.204L135.428 59.5752H265.331C273.677 74.9212 278.036 92.119 278.008 109.59V109.59Z" fill="#FFC900" stroke="black" stroke-width="3" stroke-linecap="round" stroke-linejoin="round"/>
<path d="M386.386 478.18L388.876 59.5234" stroke="black" stroke-width="3" stroke-linecap="round" stroke-linejoin="round"/>
<path d="M398.3 59.5234L396.063 478.314" stroke="black" stroke-width="3" stroke-linecap="round" stroke-linejoin="round"/>
<path d="M406.474 478.453L408.547 59.5234" stroke="black" stroke-width="3" stroke-linecap="round" stroke-linejoin="round"/>
<path d="M417.807 59.5752L418.015 478.763" stroke="black" stroke-width="3" stroke-linecap="round" stroke-linejoin="round"/>
<path d="M358.576 257.777L161.422 255.916C160.569 255.909 159.748 256.242 159.139 256.84C158.53 257.438 158.183 258.253 158.174 259.107L157.821 296.328C157.813 297.182 158.145 298.005 158.743 298.616C159.341 299.226 160.156 299.574 161.011 299.583L358.165 301.444C358.589 301.45 359.011 301.372 359.405 301.214C359.8 301.056 360.159 300.821 360.463 300.524C360.766 300.226 361.007 299.872 361.173 299.48C361.339 299.089 361.426 298.668 361.428 298.243L361.78 261.023C361.784 260.599 361.703 260.179 361.544 259.786C361.384 259.393 361.149 259.036 360.852 258.735C360.554 258.433 360.2 258.193 359.809 258.029C359.419 257.865 359 257.779 358.576 257.777Z" fill="black"/>
<path d="M352.108 168.934L184.704 166.453C184.281 166.447 183.861 166.525 183.468 166.681C183.076 166.837 182.717 167.07 182.414 167.365C182.111 167.66 181.869 168.011 181.702 168.4C181.535 168.788 181.446 169.206 181.44 169.629L180.661 221.817C180.65 222.671 180.977 223.494 181.571 224.106C182.165 224.719 182.978 225.07 183.831 225.083L351.236 227.564C352.085 227.571 352.902 227.242 353.51 226.649C354.119 226.056 354.469 225.247 354.484 224.398L355.278 172.19C355.288 171.338 354.961 170.516 354.366 169.906C353.772 169.296 352.96 168.946 352.108 168.934Z" fill="black"/>
<path d="M311.998 91.709H224.209C223.355 91.709 222.537 92.0483 221.933 92.6523C221.329 93.2564 220.99 94.0756 220.99 94.9298V133.768C220.99 134.624 221.33 135.444 221.934 136.049C222.539 136.654 223.359 136.994 224.214 136.994H312.003C312.858 136.994 313.678 136.654 314.283 136.049C314.888 135.444 315.227 134.624 315.227 133.768V94.9348C315.227 94.5107 315.144 94.0909 314.981 93.6992C314.819 93.3075 314.581 92.9516 314.281 92.652C313.981 92.3524 313.625 92.1149 313.234 91.9531C312.842 91.7913 312.422 91.7083 311.998 91.709Z" fill="black"/>
<path d="M167.627 278.392C167.726 278.298 167.89 278.209 167.905 278.104C167.96 277.673 167.988 277.239 167.989 276.804C167.989 276.541 167.895 276.273 167.905 276.01C167.94 275.018 167.964 274.065 168.064 273.102C168.134 272.49 168.423 271.925 168.877 271.509C168.981 271.427 169.067 271.325 169.131 271.209C169.195 271.093 169.235 270.966 169.249 270.834C169.299 270.422 169.44 270.027 169.661 269.676C169.882 269.325 170.179 269.027 170.529 268.804C170.987 268.486 171.423 268.136 171.833 267.757C172.016 267.594 172.231 267.472 172.464 267.398C172.697 267.323 172.944 267.299 173.187 267.325C174.179 267.365 175.235 267.286 176.208 267.688C177.107 268.117 177.934 268.685 178.658 269.37C178.811 269.499 178.841 269.812 178.866 270.045C178.874 270.214 178.916 270.38 178.988 270.534C179.06 270.687 179.162 270.824 179.288 270.938C179.46 271.094 179.594 271.288 179.68 271.504C179.766 271.719 179.801 271.952 179.784 272.184C179.766 272.402 179.785 272.622 179.838 272.834C180.22 273.951 180.111 275.107 180.042 276.238C179.934 276.764 179.738 277.268 179.461 277.727C179.317 278.171 179.013 278.545 178.609 278.777C178.205 279.009 177.729 279.082 177.274 278.983C176.69 278.933 176.102 279.027 175.563 279.256C174.854 279.499 174.11 279.653 173.39 279.876C172.671 280.1 172.468 280.482 172.929 281.117C173.386 281.677 173.884 282.202 174.417 282.69C175.409 283.683 176.604 283.38 177.775 283.266C178.325 283.216 178.876 283.087 179.431 283.082C179.838 283.145 180.212 283.339 180.5 283.633C180.787 283.927 180.97 284.307 181.024 284.715C181.026 284.836 180.997 284.956 180.939 285.062C180.48 286.038 179.732 286.85 178.798 287.388C177.863 287.925 176.786 288.163 175.712 288.07C174.866 288.065 174.028 287.918 173.232 287.633C173.023 287.566 172.826 287.469 172.646 287.345C172.002 286.794 171.372 286.219 170.737 285.663C170.397 285.376 170.182 284.969 170.137 284.526C170.142 284.405 170.113 284.284 170.052 284.179C169.992 284.073 169.902 283.987 169.794 283.931C169.567 283.79 169.373 283.601 169.227 283.377C169.08 283.153 168.985 282.9 168.946 282.635C168.793 282.139 168.629 281.643 168.48 281.181C168.302 280.606 168.128 280.02 167.959 279.439C167.895 279.211 167.93 278.943 167.622 278.849L167.627 278.392ZM172.15 274.487C172.304 274.516 172.438 274.581 172.532 274.546C173.383 274.243 174.303 274.195 175.181 274.407C175.493 274.482 175.677 274.288 175.771 273.995C175.873 273.709 175.869 273.395 175.757 273.112C175.646 272.829 175.436 272.597 175.166 272.457L174.804 272.214C174.06 271.717 173.812 271.717 173.142 272.343C172.94 272.549 172.772 272.787 172.646 273.047C172.489 273.37 172.35 273.701 172.23 274.04C172.19 274.183 172.163 274.329 172.15 274.477V274.487Z" fill="white"/>
<path d="M250.075 102.711C250.521 103.176 250.805 103.773 250.883 104.413C251.087 105.232 250.824 105.942 250.754 106.696C250.705 107.292 249.871 107.947 249.266 107.992C249.142 107.992 249.023 107.992 248.899 107.992C247.773 107.992 247.714 108.379 247.6 109.178C247.487 110.045 247.429 110.918 247.426 111.793C247.426 115.227 247.426 118.661 247.426 122.091C247.435 122.425 247.396 122.759 247.312 123.083C247.119 123.783 246.747 124.294 245.908 124.314C245.522 124.34 245.14 124.415 244.773 124.537C243.92 124.776 243.23 124.418 243.141 123.545C243.086 122.893 242.968 122.248 242.789 121.619C242.755 121.456 242.755 121.287 242.789 121.123C242.858 120.602 243.116 120.106 242.863 119.56C242.804 119.431 242.957 119.192 243.037 119.019C243.198 118.72 243.282 118.386 243.282 118.046C243.282 117.706 243.198 117.372 243.037 117.073C242.968 116.944 242.918 116.805 242.888 116.661C242.853 116.525 242.853 116.381 242.888 116.245C243.149 115.355 243.192 114.415 243.012 113.505C242.986 113.314 242.974 113.122 242.977 112.929C243.055 112.206 243.088 111.478 243.076 110.751C242.978 110.151 242.812 109.565 242.58 109.004C242.506 108.771 242.303 108.716 242.045 108.771C241.261 108.939 240.477 109.083 239.694 109.222C239.024 109.336 238.355 109.416 237.71 109.545C236.133 109.843 234.947 107.887 235.314 106.666C235.444 106.201 235.548 105.729 235.627 105.252C235.731 104.726 236.058 104.309 236.589 104.339C237.923 104.413 239.094 103.803 240.348 103.545C241.202 103.371 242.045 103.148 242.883 102.92C242.998 102.882 243.121 102.876 243.239 102.903C243.357 102.93 243.466 102.989 243.553 103.073C243.695 103.188 243.866 103.261 244.047 103.285C244.228 103.309 244.412 103.282 244.579 103.207C244.941 103.093 245.338 103.093 245.715 103.009C246.092 102.925 246.39 102.801 246.707 102.696L250.075 102.711Z" fill="white"/>
<path d="M330.037 289.35C329.622 288.904 329.077 288.598 328.48 288.477C327.488 288.293 326.992 287.569 326.526 286.785C326.401 286.554 326.232 286.35 326.03 286.184C325.828 286.049 325.661 285.868 325.542 285.656C325.423 285.443 325.356 285.206 325.345 284.963C325.354 284.524 325.194 284.098 324.899 283.772C324.76 283.602 324.682 283.391 324.676 283.172C324.627 282.362 324.273 281.601 323.684 281.043C323.579 280.957 323.509 280.837 323.485 280.704C323.462 280.571 323.486 280.435 323.555 280.318C323.631 280.17 323.665 280.003 323.652 279.836C323.639 279.67 323.579 279.51 323.48 279.375C323.338 279.015 323.241 278.638 323.193 278.254C323.103 277.827 323.029 277.4 322.96 276.968C322.923 276.693 322.945 276.412 323.023 276.146C323.102 275.879 323.236 275.632 323.416 275.42C323.74 275.06 324.093 274.728 324.472 274.427C325.132 274.512 325.841 274.666 326.174 275.45C326.263 275.668 326.302 275.904 326.288 276.14C326.194 276.67 326.272 277.216 326.511 277.698C326.575 277.802 326.66 277.951 326.625 278.04C326.312 278.934 327.017 279.728 326.853 280.606C326.829 280.74 326.85 280.879 326.912 281.001C326.973 281.122 327.073 281.221 327.195 281.281C327.463 281.45 327.688 281.679 327.851 281.95C328.014 282.222 328.11 282.528 328.133 282.844C328.168 283.108 328.288 283.354 328.475 283.544C328.863 283.861 329.198 284.238 329.467 284.661C329.576 284.797 329.714 284.907 329.871 284.983C330.028 285.059 330.2 285.098 330.375 285.098C330.549 285.098 330.721 285.059 330.878 284.983C331.035 284.907 331.174 284.797 331.282 284.661C331.691 284.172 331.916 283.556 331.917 282.919C331.917 282.02 332.026 281.122 332.011 280.224C332.041 279.703 332.041 279.181 332.011 278.661C331.818 277.787 331.563 276.928 331.248 276.09C331.147 275.721 331.079 275.344 331.044 274.963C331 274.537 331.014 274.095 330.97 273.663C330.968 273.153 331.122 272.654 331.411 272.234C331.443 272.173 331.492 272.124 331.553 272.092C331.614 272.06 331.683 272.048 331.751 272.058C331.819 272.067 331.882 272.097 331.932 272.144C331.982 272.19 332.017 272.251 332.031 272.318C332.054 272.523 332.156 272.711 332.315 272.841C332.475 272.971 332.679 273.033 332.884 273.013C333.023 273.019 333.156 273.071 333.262 273.161C333.368 273.251 333.441 273.373 333.47 273.509C333.612 273.895 333.723 274.292 333.802 274.695C333.867 275.051 334.024 275.383 334.258 275.658C334.551 276.041 334.775 276.473 334.918 276.934C335.176 277.837 335.28 278.79 335.741 279.638C335.81 279.766 335.846 279.91 335.845 280.055C335.845 281.048 335.845 282.04 335.845 283.033C335.852 283.154 335.83 283.275 335.781 283.385C335.682 283.569 335.638 283.777 335.655 283.985C335.672 284.193 335.748 284.391 335.875 284.556C335.582 284.958 335.28 285.341 335.533 285.886C335.552 285.981 335.551 286.079 335.529 286.173C335.508 286.267 335.467 286.355 335.409 286.432C334.961 287.155 334.428 287.821 333.822 288.417C333.38 288.79 332.666 288.844 332.066 289.028C331.684 289.147 331.292 289.241 330.9 289.345L330.037 289.35Z" fill="white"/>
<path d="M352.258 275.311C351.762 275.39 351.301 275.494 351.226 276.13C351.201 276.197 351.162 276.258 351.112 276.308C351.061 276.359 351 276.398 350.934 276.423C350.545 276.559 350.147 276.665 349.743 276.74C349.222 276.836 348.695 276.902 348.166 276.939C347.398 277.034 346.659 277.288 345.993 277.683C345.756 277.803 345.533 277.949 345.329 278.12C344.501 278.844 344.114 279.683 344.674 280.765C345.418 282.209 345.607 283.827 346.078 285.355C346.233 286.141 346.278 286.944 346.212 287.743C346.212 288.065 345.998 288.239 345.666 288.308C345.24 288.464 344.802 288.587 344.357 288.675C343.879 288.692 343.403 288.618 342.953 288.457C342.76 288.393 342.601 288.075 342.517 287.842C342.135 286.745 341.778 285.633 341.411 284.527C341.38 284.462 341.358 284.394 341.346 284.323C341.35 283.395 341.104 282.482 340.632 281.683C340.568 281.5 340.538 281.306 340.543 281.112C340.542 280.918 340.501 280.725 340.424 280.547C339.799 279.638 340.012 278.636 340.062 277.648C340.12 277.388 340.145 277.121 340.136 276.854C339.947 276.025 340.364 275.365 340.736 274.735C340.869 274.535 341.055 274.376 341.272 274.274C342.15 273.807 343.042 273.351 343.945 272.924C344.232 272.798 344.54 272.725 344.853 272.71C345.685 272.695 346.514 272.612 347.333 272.462C347.953 272.318 348.612 272.274 349.252 272.13C349.595 272.038 349.953 272.016 350.304 272.063C350.656 272.111 350.994 272.228 351.301 272.408C351.451 272.487 351.581 272.599 351.68 272.737C351.779 272.875 351.844 273.034 351.871 273.202C351.97 273.698 352.139 274.219 352.278 274.725L352.258 275.311Z" fill="white"/>
<path d="M261.338 196.641C261.192 196.756 261.082 196.911 261.023 197.088C260.964 197.264 260.958 197.454 261.006 197.634C261.107 198.081 261.157 198.539 261.154 198.998C261.184 201.023 261.189 203.043 261.214 205.068C261.197 205.283 261.247 205.498 261.358 205.683C262.022 206.482 261.809 207.38 261.69 208.264C261.64 208.646 261.507 209.013 261.452 209.395C261.447 209.665 261.349 209.924 261.175 210.13C261 210.335 260.76 210.474 260.495 210.522C260.199 210.628 259.93 210.797 259.706 211.018C259.21 211.39 258.977 211.366 258.615 210.899C258.277 210.511 258.085 210.018 258.069 209.505C258.06 209.214 257.957 208.934 257.777 208.706C257.651 208.558 257.567 208.379 257.533 208.188C257.499 207.997 257.516 207.801 257.583 207.619C257.639 207.436 257.661 207.244 257.648 207.053C257.618 206.621 257.524 206.194 257.514 205.758C257.514 204.765 257.514 203.773 257.514 202.78C257.514 202.467 257.608 202.16 257.633 201.847C257.678 201.588 257.678 201.322 257.633 201.063C257.484 200.522 257.484 199.951 257.633 199.41C257.685 199.181 257.664 198.942 257.573 198.725C257.302 198.101 257.233 197.407 257.375 196.74C257.487 195.996 257.536 195.244 257.524 194.492C257.612 193.489 257.508 192.478 257.216 191.515C257.139 191.042 257.163 190.558 257.286 190.095C257.345 189.639 257.489 189.197 257.524 188.745C257.563 188.185 257.524 187.624 257.524 187.063C257.524 186.8 257.598 186.537 257.608 186.269C257.636 185.939 257.636 185.607 257.608 185.276C257.568 184.989 257.504 184.706 257.816 184.582C258.605 184.269 259.404 184.085 260.197 184.582C260.395 184.681 260.559 184.838 260.667 185.032C260.775 185.226 260.822 185.447 260.802 185.668C260.648 187.182 261.378 188.388 262.136 189.589C262.305 189.857 262.484 190.115 262.662 190.378C262.963 190.906 263.348 191.38 263.803 191.783C264.104 192.072 264.356 192.407 264.552 192.775C264.978 193.395 265.375 194.031 265.807 194.646C266.129 195.108 266.372 195.142 266.853 194.859C266.913 194.825 266.972 194.775 267.032 194.735L267.806 194.239C267.737 194.09 267.686 193.933 267.652 193.773C267.621 193.542 267.633 193.309 267.686 193.083C267.828 192.67 267.994 192.265 268.182 191.872C268.25 191.695 268.37 191.543 268.525 191.435C268.674 191.353 268.798 191.232 268.885 191.085C268.972 190.939 269.019 190.772 269.021 190.601C269.138 189.731 269.433 188.895 269.889 188.145C269.998 187.932 270.093 187.711 270.171 187.485C270.335 187.113 270.514 186.745 270.667 186.368C270.781 186.158 270.856 185.93 270.891 185.693C270.862 185.289 270.967 184.887 271.188 184.547C271.409 184.208 271.735 183.95 272.116 183.812C272.204 183.772 272.287 183.722 272.364 183.663C273.018 183.237 273.118 183.207 273.693 183.693C274.039 183.996 274.346 184.341 274.605 184.721C274.884 185.119 275.139 185.533 275.369 185.961C275.456 186.106 275.52 186.263 275.558 186.428C275.674 186.898 275.758 187.375 275.811 187.857C275.915 189.346 276.307 190.755 276.307 192.264C276.307 193.773 276.217 195.361 276.252 196.909C276.215 197.635 276.14 198.359 276.029 199.078C275.979 199.698 276.153 200.333 275.885 200.939C275.875 200.961 275.87 200.984 275.87 201.008C275.87 201.032 275.875 201.056 275.885 201.078C276.312 201.862 275.979 202.745 276.212 203.559C276.273 203.968 276.292 204.382 276.267 204.795C276.331 206.075 276.381 207.366 276.47 208.646C276.52 209.366 276.47 209.936 275.687 210.313C275.344 210.528 274.969 210.687 274.576 210.785C274.147 210.875 273.7 210.811 273.314 210.604C272.927 210.397 272.626 210.06 272.463 209.653C271.922 208.473 271.764 207.152 272.011 205.877C272.212 205.048 272.212 204.184 272.011 203.356C271.934 202.974 271.9 202.584 271.912 202.194C271.912 201.079 271.912 199.959 271.912 198.835C271.887 198.494 271.907 198.152 271.972 197.817C272.044 197.548 272.031 197.262 271.936 197C271.84 196.738 271.665 196.512 271.436 196.353C271.259 196.415 271.098 196.518 270.966 196.652C270.835 196.786 270.736 196.949 270.677 197.127C270.602 197.306 270.535 197.488 270.479 197.673C270.256 198.438 270.127 199.212 269.517 199.832C269.234 200.12 269.189 200.631 268.986 201.018C268.82 201.343 268.575 201.622 268.275 201.829C267.975 202.036 267.628 202.165 267.265 202.204C266.98 202.258 266.698 202.329 266.422 202.418C265.891 202.572 265.703 202.497 265.37 202.041C265.102 201.668 264.78 201.336 264.522 200.954C264.264 200.572 264.026 200.125 263.798 199.703C263.693 199.435 263.56 199.179 263.401 198.939C262.934 198.512 262.58 197.977 262.37 197.381C262.231 196.939 261.7 196.889 261.338 196.641Z" fill="white"/>
<path d="M230.295 199.038C230.248 199.218 230.212 199.4 230.186 199.584C230.087 200.815 229.958 202.066 229.908 203.276C229.859 204.616 229.908 205.956 229.883 207.296C229.897 207.442 229.881 207.588 229.839 207.728C229.377 208.721 229.496 209.778 229.492 210.82C229.492 211.678 229.457 211.718 228.604 211.981L227.761 212.229C227.548 212.267 227.339 212.324 227.136 212.398C226.933 212.505 226.741 212.63 226.56 212.77C226.397 212.641 226.264 212.478 226.172 212.292C226.079 212.106 226.029 211.901 226.025 211.693C226.025 211.381 225.97 211.073 225.93 210.765C225.89 210.602 225.858 210.436 225.836 210.269C225.876 208.155 225.663 206.036 225.935 203.927C226 203.43 226.054 202.969 226.114 202.487C226.121 202.44 226.121 202.391 226.114 202.343C225.975 201.599 225.876 200.855 226.377 200.195C226.441 200.11 226.377 199.907 226.337 199.778C226.176 199.24 226.176 198.667 226.337 198.13C226.463 197.61 226.558 197.083 226.62 196.552C226.609 196.316 226.543 196.087 226.426 195.882C226.343 195.761 226.291 195.622 226.276 195.476C226.26 195.331 226.281 195.184 226.337 195.048C226.385 194.963 226.411 194.868 226.411 194.77C226.292 193.197 226.511 191.624 226.411 190.056C226.453 189.523 226.399 188.987 226.253 188.473C226.216 188.334 226.216 188.189 226.253 188.051C226.367 187.311 226.491 186.562 226.585 185.832C226.591 185.724 226.635 185.62 226.709 185.54C226.784 185.461 226.884 185.409 226.992 185.396C227.443 185.296 227.889 185.197 228.341 185.113C228.553 185.05 228.779 185.053 228.989 185.123C229.199 185.192 229.383 185.323 229.516 185.5C229.883 185.996 230.275 186.448 230.627 186.939C230.72 187.11 230.772 187.3 230.781 187.495C230.844 188.297 231.104 189.071 231.54 189.748C231.722 190.091 231.869 190.452 231.976 190.825C232.039 191.003 232.127 191.17 232.239 191.321C232.905 192.146 233.41 193.089 233.727 194.1C234.03 194.974 234.764 195.589 235.027 196.443C235.06 196.536 235.112 196.62 235.18 196.691C235.883 197.501 236.434 198.43 236.807 199.435C236.902 199.678 236.976 199.961 237.303 199.986C237.463 199.991 237.62 199.943 237.75 199.848C237.879 199.754 237.973 199.619 238.017 199.465C238.106 199.22 238.153 198.962 238.156 198.701C238.186 198.205 238.191 197.733 238.211 197.252C238.211 197.058 238.211 196.865 238.211 196.671C238.171 195.867 238.107 195.068 238.072 194.269C238.033 193.718 237.962 193.169 237.859 192.626C237.693 191.956 237.712 191.253 237.913 190.592C238.395 189.569 238.482 188.404 238.156 187.321C238.108 187.183 238.096 187.034 238.122 186.89C238.224 186.309 238.117 185.711 237.819 185.202C237.753 185.1 237.717 184.981 237.717 184.86C237.717 184.738 237.753 184.619 237.819 184.517C238.231 183.922 238.623 183.306 239.069 182.736C239.327 182.408 240.319 182.463 240.711 182.765C240.886 182.897 241.052 183.042 241.207 183.197C241.579 183.569 242.109 183.897 242.268 184.349C242.57 185.152 242.548 186.042 242.209 186.83C242.132 186.983 242.09 187.152 242.085 187.323C242.08 187.494 242.112 187.665 242.179 187.823C242.3 188.088 242.335 188.385 242.278 188.671C242.171 189.184 242.186 189.714 242.323 190.22C242.427 191.212 242.432 192.259 242.437 193.277C242.442 194.294 242.561 195.232 242.119 196.155C242.075 196.244 242.119 196.383 242.149 196.497C242.294 196.905 242.367 197.335 242.362 197.768C242.119 198.855 242.486 199.937 242.258 201.028C242.174 201.43 242.179 201.867 242.09 202.294C242.053 202.653 242.078 203.015 242.164 203.366C242.289 203.957 242.379 204.555 242.432 205.157C242.432 206.299 242.407 207.445 242.338 208.582C242.283 208.861 242.159 209.123 241.975 209.341C241.812 209.551 241.631 209.747 241.435 209.927C241.187 210.185 241.073 210.616 240.646 210.636C240.091 210.636 239.53 210.636 238.975 210.606C238.952 210.613 238.928 210.613 238.905 210.606C238.518 209.966 237.74 209.668 237.477 208.894C237.261 208.355 237.009 207.831 236.723 207.326C236.651 207.228 236.591 207.121 236.544 207.008C236.336 206.016 235.657 205.301 234.937 204.631C234.447 204.198 234.068 203.653 233.831 203.043C233.553 202.533 233.206 202.064 232.8 201.649C232.676 201.534 232.572 201.4 232.492 201.252C232.175 200.373 231.391 199.907 230.801 199.267C230.646 199.163 230.475 199.086 230.295 199.038Z" fill="white"/>
<path d="M197.222 196.919C197.057 197.287 196.911 197.663 196.786 198.046C196.784 198.127 196.8 198.207 196.833 198.281C196.867 198.355 196.917 198.421 196.979 198.473C197.107 198.566 197.199 198.7 197.239 198.852C197.28 199.005 197.267 199.167 197.202 199.311C197.087 199.8 197.017 200.298 196.994 200.8C196.964 201.728 196.994 202.656 196.994 203.579C196.994 204.81 196.93 206.061 196.9 207.276C196.9 207.748 197.093 208.239 196.761 208.686C196.741 208.728 196.73 208.775 196.73 208.822C196.73 208.87 196.741 208.916 196.761 208.959C196.925 209.337 197.002 209.748 196.984 210.16C197.039 210.471 196.981 210.791 196.823 211.063C196.664 211.336 196.413 211.543 196.116 211.649C195.703 211.848 195.276 212.014 194.837 212.145C194.271 212.309 193.349 211.599 193.349 211.003C193.377 210.369 193.29 209.735 193.091 209.132C193.051 208.993 193.051 208.845 193.091 208.706C193.23 208.065 193.393 207.43 193.527 206.795C193.569 206.632 193.569 206.461 193.527 206.299C193.246 205.434 193.21 204.508 193.423 203.624C193.658 202.966 193.698 202.254 193.537 201.574C193.436 201.179 193.393 200.771 193.408 200.363C193.4 200.125 193.432 199.887 193.502 199.659C193.706 199.018 193.998 198.423 193.825 197.674C193.788 197.166 193.813 196.656 193.899 196.155C193.915 195.892 193.893 195.628 193.835 195.371C193.601 194.599 193.601 193.775 193.835 193.004C193.874 192.841 193.874 192.67 193.835 192.507C193.835 192.363 193.721 192.234 193.701 192.09C193.483 190.387 193.269 188.681 193.061 186.974C193.046 186.779 193.046 186.583 193.061 186.388C193.072 186.224 193.117 186.064 193.193 185.919C193.269 185.773 193.375 185.645 193.503 185.542C193.631 185.44 193.78 185.365 193.938 185.323C194.097 185.28 194.263 185.271 194.425 185.296C194.657 185.353 194.896 185.378 195.134 185.371C195.377 185.336 195.581 184.999 195.863 185.222C196.193 185.463 196.497 185.737 196.771 186.041C196.947 186.275 197.083 186.536 197.173 186.815C197.53 187.743 197.882 188.676 198.219 189.614C198.629 190.844 199.387 191.928 200.402 192.736C200.642 192.967 200.836 193.244 200.972 193.549C201.081 193.799 201.167 194.058 201.23 194.324C201.703 193.992 202.1 193.564 202.395 193.068C202.656 192.553 203.009 192.091 203.437 191.703C203.879 191.257 204.2 190.705 204.369 190.1C204.794 188.856 205.374 187.671 206.095 186.572C206.207 186.362 206.361 186.178 206.547 186.03C206.733 185.882 206.947 185.775 207.177 185.713C207.214 185.668 207.247 185.62 207.276 185.569C207.37 185.202 207.276 184.731 207.692 184.537C208.279 184.181 208.964 184.024 209.647 184.091C209.788 184.126 209.914 184.204 210.009 184.314C210.216 184.516 210.384 184.755 210.505 185.019C210.822 185.952 211.095 186.904 211.378 187.852C211.467 188.155 211.541 188.463 211.601 188.77C211.66 189.078 211.715 189.44 211.76 189.763C211.804 190.085 211.854 190.532 211.903 190.914C211.903 191.038 211.948 191.157 211.953 191.277C211.988 192.2 212.067 193.123 212.042 194.041C212.017 194.959 211.893 195.827 211.789 196.716C211.733 196.913 211.653 197.103 211.551 197.281C211.642 197.415 211.72 197.556 211.784 197.703C211.86 197.896 211.9 198.101 211.903 198.309C211.903 198.741 211.779 199.172 211.77 199.604C211.775 200.188 211.698 200.769 211.541 201.331C211.491 201.711 211.504 202.097 211.581 202.472C211.581 202.83 211.646 203.187 211.665 203.544C211.685 203.902 211.71 204.413 211.72 204.85C211.72 205.53 211.765 206.209 211.72 206.889C211.671 207.124 211.578 207.348 211.447 207.549C211.304 207.774 211.183 208.011 211.085 208.259C211.043 208.449 210.945 208.622 210.805 208.757C210.665 208.892 210.488 208.983 210.296 209.018C209.969 209.103 209.676 209.316 209.349 209.391C208.955 209.497 208.546 209.536 208.139 209.505C207.593 209.44 207.063 208.572 207.187 207.986C207.311 207.4 207.454 206.994 207.033 206.552C207.006 206.511 206.987 206.466 206.978 206.418C206.968 206.371 206.969 206.322 206.978 206.274C207.033 205.693 207.068 205.113 207.172 204.542C207.276 203.971 207.445 203.549 207.549 203.053C207.639 202.73 207.667 202.394 207.633 202.061C207.523 201.263 207.594 200.45 207.841 199.683C208.078 198.98 208.189 198.241 208.169 197.5C208.104 196.969 208.213 196.398 208.104 195.842C208.028 195.383 207.795 194.964 207.445 194.656C207.112 194.368 206.949 194.339 206.636 194.656C206.403 194.866 206.231 195.135 206.14 195.435C205.936 196.266 205.511 197.025 204.91 197.634C204.35 198.274 203.764 198.894 203.149 199.485C202.799 199.808 202.387 200.058 201.94 200.222C201.492 200.385 201.017 200.459 200.54 200.438C200.284 200.416 200.036 200.338 199.813 200.21C199.59 200.081 199.398 199.905 199.251 199.693C198.754 199.157 198.371 198.526 198.125 197.837C198.095 197.607 197.991 197.392 197.828 197.227C197.665 197.061 197.452 196.953 197.222 196.919ZM208.818 197.639C208.888 197.525 208.982 197.406 208.967 197.386C208.892 197.317 208.806 197.26 208.714 197.217C208.675 197.286 208.59 197.371 208.605 197.43C208.62 197.49 208.719 197.549 208.818 197.639ZM193.443 187.068L193.641 187.028C193.602 186.914 193.567 186.795 193.517 186.681C193.48 186.686 193.443 186.696 193.408 186.711C193.418 186.83 193.433 186.949 193.448 187.078L193.443 187.068Z" fill="white"/>
<path d="M288.712 119.694C288.673 120.001 288.742 120.313 288.906 120.575C289.071 120.837 289.321 121.035 289.615 121.133C291.103 121.629 292.63 121.59 294.163 121.54C294.452 121.505 294.737 121.437 295.011 121.337C295.601 121.173 295.75 121.247 296.132 121.709C296.332 121.946 296.572 122.146 296.841 122.299C297.166 122.487 297.422 122.774 297.571 123.118C297.72 123.462 297.755 123.845 297.669 124.21C297.576 124.4 297.43 124.559 297.248 124.667C296.663 125.098 296.082 125.545 295.462 125.917C294.932 126.24 294.381 126.612 293.702 126.314C293.59 126.268 293.468 126.255 293.35 126.278C293.231 126.301 293.123 126.359 293.037 126.443C292.793 126.634 292.504 126.757 292.199 126.801C291.494 126.858 290.786 126.858 290.081 126.801C289.47 126.761 288.887 126.534 288.409 126.151C288.287 126.037 288.129 125.969 287.963 125.957C287.547 125.953 287.137 125.863 286.758 125.692C286.379 125.521 286.039 125.273 285.761 124.964C284.942 124.202 284.188 123.372 283.509 122.483C282.944 121.728 282.58 120.842 282.453 119.907C282.336 119.299 282.336 118.674 282.453 118.066C282.565 117.294 282.584 116.511 282.507 115.734C282.508 114.93 282.62 114.13 282.84 113.357C282.906 113.18 282.996 113.013 283.107 112.86C283.188 112.741 283.258 112.615 283.316 112.483C283.554 111.793 283.812 111.108 284.005 110.414C284.124 110.1 284.331 109.828 284.6 109.63C285.402 108.928 286.155 108.172 286.852 107.367C287.187 106.922 287.622 106.564 288.122 106.319C288.945 105.957 289.768 105.605 290.602 105.238C291.205 104.901 291.902 104.772 292.586 104.87C292.714 104.897 292.846 104.897 292.974 104.871C293.102 104.844 293.223 104.792 293.33 104.716C293.989 104.066 294.728 104.22 295.408 104.523C296.361 105.026 297.162 105.775 297.729 106.692C297.876 106.937 298.042 107.171 298.225 107.391C298.675 107.769 298.971 108.299 299.058 108.88C299.088 109.047 299.158 109.203 299.262 109.337C299.758 110.111 300.283 110.87 300.794 111.639C301.089 112.117 301.247 112.666 301.25 113.228C301.33 114.443 301.177 115.663 300.799 116.821C300.566 117.487 300.258 118.125 299.882 118.721C299.736 118.901 299.55 119.045 299.339 119.141C299.128 119.236 298.898 119.281 298.666 119.272C298.061 119.327 297.466 119.471 296.866 119.495C295.968 119.54 295.066 119.555 294.168 119.495C293.27 119.436 292.382 119.317 291.489 119.257C291.175 119.252 290.86 119.282 290.552 119.347C289.932 119.461 289.337 119.585 288.712 119.694ZM296.449 113.491C296.17 112.971 295.921 112.436 295.705 111.888C295.411 111.089 294.949 110.363 294.351 109.759C294.166 109.532 293.911 109.372 293.627 109.302C293.343 109.232 293.043 109.257 292.774 109.372C292.195 109.615 291.634 109.897 291.093 110.215C290.283 110.591 289.538 111.094 288.886 111.704C288.626 111.906 288.417 112.166 288.275 112.464C288.133 112.761 288.062 113.087 288.067 113.416C288.102 114.101 288.514 114.409 289.143 114.2C289.696 114.017 290.279 113.943 290.86 113.982C292.048 113.933 293.238 114.007 294.411 114.2C295.145 114.384 295.958 114.329 296.454 113.491H296.449Z" fill="white"/>
<path d="M257.093 111.441C256.483 110.448 256.483 110.448 256.483 109.123C256.483 107.952 256.513 106.786 256.483 105.614C256.516 104.903 256.748 104.215 257.153 103.629C257.201 103.562 257.262 103.504 257.333 103.461C257.403 103.417 257.482 103.388 257.564 103.376C258.426 103.179 259.33 103.312 260.099 103.748C260.324 103.867 260.51 104.05 260.633 104.273C260.756 104.496 260.812 104.75 260.793 105.004C260.753 106.394 260.793 107.783 260.793 109.173C260.793 109.575 260.887 109.977 260.932 110.379C261.148 110.46 261.378 110.495 261.609 110.483C261.839 110.471 262.065 110.412 262.271 110.309C263.005 109.932 263.759 109.555 264.488 109.212C265.249 108.836 266.038 108.521 266.849 108.269C267.611 108.125 268.381 108.034 269.155 107.997C269.443 107.967 269.726 107.902 270.013 107.863C270.594 107.778 271.159 108.15 271.774 107.773C272.389 107.396 272.96 107.699 273.55 107.843C273.758 107.908 273.97 107.959 274.185 107.997C274.512 108.04 274.823 108.161 275.094 108.35C275.364 108.539 275.585 108.791 275.737 109.083C276.412 110.188 276.782 111.452 276.808 112.746C276.863 114.106 276.808 115.47 276.878 116.835C276.947 118.607 276.724 120.369 276.808 122.14C276.792 122.406 276.747 122.669 276.675 122.924C276.565 123.394 276.488 123.869 276.441 124.349C276.392 125.431 276.263 125.649 275.241 125.972C274.939 126.056 274.627 126.106 274.314 126.12C274.098 126.157 273.877 126.126 273.679 126.033C273.481 125.94 273.317 125.789 273.208 125.599C272.929 125.22 272.595 124.885 272.216 124.607C271.62 124.111 271.566 123.862 271.72 123.118C271.798 122.615 271.841 122.108 271.849 121.599C271.903 121.044 271.963 120.493 272.027 119.937C272.061 119.773 272.086 119.607 272.102 119.441C272.102 117.982 272.141 116.518 272.102 115.059C272.057 114.525 271.928 114.003 271.72 113.51C271.576 113.254 271.354 113.05 271.086 112.928C270.819 112.807 270.519 112.774 270.232 112.835C270.027 112.905 269.813 112.947 269.597 112.959C268.586 112.964 267.591 113.211 266.695 113.679C265.902 114.051 265.093 114.379 264.295 114.741C264.067 114.831 263.858 114.96 263.675 115.123C263.131 115.716 262.434 116.147 261.661 116.369C261.463 116.449 261.304 116.604 261.22 116.8C261.048 117.124 260.947 117.48 260.922 117.845C260.897 118.21 260.95 118.576 261.076 118.92C261.324 119.631 261.534 120.355 261.706 121.088C261.751 121.251 261.751 121.422 261.706 121.585C261.502 122.235 261.274 122.88 261.061 123.525C260.98 123.793 260.821 124.03 260.605 124.207C260.388 124.384 260.124 124.492 259.846 124.517C259.389 124.587 258.938 124.686 258.487 124.781C258.288 124.837 258.076 124.83 257.882 124.761C257.687 124.692 257.519 124.563 257.401 124.393C257.045 123.926 256.853 123.354 256.855 122.766C256.926 121.937 256.813 121.103 256.523 120.324C256.448 120.069 256.411 119.805 256.414 119.54C256.369 119.153 256.324 118.771 256.29 118.384C256.25 118.169 256.25 117.948 256.29 117.733C256.592 116.83 256.493 115.902 256.508 114.979C256.508 114.483 256.508 113.987 256.508 113.52C256.508 112.825 256.473 112.145 257.053 111.629C257.073 111.599 257.073 111.505 257.093 111.441Z" fill="white"/>
<path d="M263.06 277.112C263.183 276.934 263.259 276.728 263.283 276.513C263.306 276.299 263.275 276.081 263.194 275.881C263.11 275.552 263.129 275.206 263.248 274.889C263.362 274.482 263.407 274.154 263.03 273.846C262.653 273.539 262.737 273.087 262.817 272.685C263.06 271.459 263.07 271.459 262.539 270.561C263.052 269.291 263.971 268.226 265.153 267.534C265.798 267.107 266.363 266.541 266.993 266.109C267.734 265.544 268.635 265.227 269.567 265.206C270.563 265.175 271.55 264.996 272.493 264.675C272.652 264.626 272.865 264.511 272.989 264.571C273.515 264.864 274.026 264.695 274.552 264.616C274.727 264.574 274.91 264.578 275.084 264.626C275.257 264.675 275.416 264.767 275.544 264.894C275.656 265.022 275.811 265.104 275.98 265.127C276.774 265.152 277.052 265.767 277.28 266.333C277.56 267.109 277.8 267.899 277.999 268.7C278.016 268.795 278.016 268.893 277.999 268.988C277.89 270.05 277.84 271.122 277.642 272.169C277.482 272.779 277.231 273.361 276.898 273.896C276.621 274.323 276.316 274.731 275.985 275.117C275.941 275.176 275.891 275.256 275.831 275.271C275.172 275.395 274.914 275.886 274.661 276.432C274.552 276.675 274.244 276.829 274.011 277.003C273.852 277.095 273.715 277.222 273.611 277.374C273.507 277.526 273.439 277.699 273.411 277.881C273.873 278.207 274.429 278.371 274.993 278.348C275.235 278.309 275.483 278.334 275.712 278.421C275.941 278.508 276.143 278.654 276.298 278.844C276.382 278.958 276.541 279.008 276.655 279.092C276.932 279.245 277.172 279.458 277.358 279.716C277.543 279.973 277.669 280.269 277.726 280.581C277.791 280.814 277.91 281.028 278.073 281.206C278.179 281.316 278.253 281.452 278.29 281.599C278.326 281.747 278.323 281.902 278.281 282.048C278.239 282.195 278.159 282.327 278.049 282.433C277.94 282.539 277.804 282.613 277.657 282.65C277.431 282.742 277.199 282.816 276.962 282.874C276.675 282.969 276.368 282.996 276.068 282.951C275.769 282.906 275.483 282.791 275.236 282.616C274.864 282.348 274.437 282.166 273.986 282.084C272.112 281.707 270.227 281.385 268.352 281.037C268.094 280.993 267.856 280.913 267.534 280.834C267.487 281.033 267.456 281.235 267.439 281.439C267.439 282.218 267.439 282.998 267.464 283.777C267.441 284.213 267.272 284.628 266.984 284.956C266.696 285.284 266.306 285.505 265.877 285.583C264.885 285.678 264.483 285.429 264.131 284.516C263.814 283.777 263.658 282.978 263.675 282.174C263.705 281.563 263.705 280.953 263.675 280.348C263.65 279.941 263.551 279.539 263.486 279.132C263.416 278.902 263.392 278.661 263.417 278.422C263.499 278.193 263.508 277.945 263.444 277.711C263.38 277.476 263.246 277.267 263.06 277.112ZM268.273 274.63L268.302 274.71L269.661 274.273L270.485 273.995C270.878 273.885 271.263 273.746 271.635 273.578C272.057 273.355 272.409 272.978 272.841 272.789C273.041 272.706 273.218 272.574 273.357 272.406C273.495 272.239 273.59 272.04 273.634 271.827C273.778 271.261 273.922 270.7 274.071 270.134C274.135 269.876 274.224 269.608 273.981 269.39C273.873 269.292 273.735 269.232 273.59 269.218C273.444 269.205 273.298 269.239 273.173 269.315C272.999 269.39 272.766 269.509 272.627 269.449C271.829 269.092 271.09 269.345 270.381 269.658C269.126 270.209 267.722 270.596 267.172 272.09C267.141 272.156 267.093 272.212 267.033 272.253C266.834 272.374 266.69 272.568 266.633 272.793C266.575 273.019 266.608 273.258 266.725 273.459C266.767 273.599 266.795 273.741 266.809 273.886C266.833 274.082 266.929 274.262 267.079 274.391C267.228 274.519 267.421 274.587 267.618 274.581C267.836 274.566 268.054 274.596 268.273 274.611V274.63ZM264.711 268.467C264.627 268.591 264.518 268.675 264.538 268.725C264.558 268.774 264.667 268.898 264.736 268.983C264.801 268.918 264.92 268.844 264.915 268.794C264.865 268.675 264.796 268.565 264.711 268.467Z" fill="white"/>
<path d="M290.244 195.137C290.636 195.45 290.864 195.743 290.611 196.17C290.583 196.24 290.583 196.318 290.611 196.388C291.018 197.45 290.775 198.557 290.844 199.644C290.884 200.348 290.983 201.053 290.963 201.753C290.937 202.528 290.845 203.3 290.69 204.06C290.626 204.41 290.626 204.768 290.69 205.118C290.854 206.165 291.281 207.172 291.186 208.264C291.158 208.639 291.029 208.999 290.811 209.305C290.593 209.611 290.296 209.852 289.951 210.001C289.584 210.14 289.222 210.264 288.86 210.408C288.364 210.596 288.201 210.537 288.042 210.036C287.923 209.668 287.878 209.276 287.784 208.899C287.757 208.684 287.68 208.479 287.561 208.299C287.346 208.049 287.19 207.755 287.104 207.437C287.018 207.119 287.005 206.786 287.065 206.462C287.118 206.175 287.108 205.88 287.037 205.596C286.966 205.313 286.835 205.048 286.653 204.82C286.579 204.82 286.499 204.775 286.44 204.82C285.402 205.151 284.367 205.493 283.335 205.847C283.156 205.893 282.996 205.992 282.874 206.131C282.753 206.27 282.677 206.443 282.655 206.626C282.54 207.268 282.459 207.916 282.412 208.567C282.378 209.176 282.154 209.758 281.773 210.234C281.637 210.405 281.456 210.535 281.25 210.609C281.044 210.683 280.822 210.698 280.608 210.653C280.395 210.608 280.198 210.504 280.04 210.352C279.882 210.201 279.769 210.009 279.714 209.797C279.624 209.263 279.418 208.754 279.109 208.309C279.061 208.236 279.031 208.153 279.022 208.067C279.012 207.981 279.024 207.893 279.055 207.812C279.417 207.152 279.154 206.482 279.114 205.827C279.114 205.663 279.015 205.465 279.074 205.331C279.436 204.537 279.327 203.698 279.322 202.879C279.26 202.124 279.418 201.367 279.779 200.701C279.853 200.582 279.932 200.378 279.878 200.294C279.58 199.797 279.833 199.356 279.942 198.889C279.982 198.774 280.002 198.654 280.002 198.532C279.905 197.775 280.11 197.01 280.572 196.403C280.669 196.257 280.708 196.08 280.681 195.907C280.642 195.223 280.815 194.543 281.177 193.961C281.282 193.722 281.336 193.463 281.336 193.202C281.31 193.046 281.333 192.887 281.401 192.744C281.47 192.602 281.58 192.485 281.718 192.408C282.115 192.204 282.154 191.912 282.016 191.495C281.923 191.075 281.888 190.644 281.911 190.214C281.904 190.093 281.933 189.971 281.994 189.865C282.054 189.76 282.145 189.674 282.254 189.619C282.33 189.567 282.395 189.5 282.445 189.422C282.495 189.345 282.53 189.258 282.546 189.167C282.692 188.036 283.013 186.934 283.499 185.902C284.029 184.726 285.279 183.887 286.737 184.512C287.079 184.625 287.411 184.766 287.729 184.934C288.154 185.22 288.483 185.629 288.672 186.105C289.26 187.519 289.711 188.987 290.016 190.487C290.047 190.658 290.098 190.825 290.17 190.984C290.521 191.736 290.666 192.568 290.591 193.396C290.58 193.563 290.6 193.732 290.651 193.892C290.746 194.113 290.757 194.362 290.682 194.591C290.607 194.821 290.451 195.015 290.244 195.137ZM285.924 192.472C285.562 192.611 285.334 192.795 285.294 193.113C285.174 193.653 284.972 194.172 284.694 194.651C284.132 196.079 283.798 197.586 283.702 199.118C283.693 199.283 283.693 199.449 283.702 199.614C283.702 199.786 283.76 199.954 283.867 200.089C283.975 200.224 284.124 200.319 284.292 200.358C284.809 200.554 285.364 200.627 285.914 200.572C286.179 200.543 286.434 200.456 286.662 200.318C286.89 200.18 287.085 199.994 287.233 199.773C287.329 199.586 287.361 199.373 287.323 199.167C287.323 199.008 287.149 198.869 287.109 198.706C286.901 197.927 286.509 197.182 286.762 196.314C286.862 195.935 286.845 195.535 286.713 195.167C286.558 194.733 286.488 194.273 286.504 193.812C286.495 193.307 286.286 192.825 285.924 192.472Z" fill="white"/>
<path d="M255.476 281.137C253.932 281.342 252.362 281.081 250.968 280.388C250.511 280.154 250.234 280.417 250.288 281.013C250.359 281.764 250.558 282.498 250.878 283.182C251.088 283.61 251.187 284.084 251.167 284.561C251.147 285.037 251.009 285.501 250.764 285.911C250.519 286.366 250.11 286.711 249.62 286.876C249.13 287.041 248.596 287.014 248.126 286.799C247.997 286.745 247.818 286.67 247.778 286.561C247.382 285.504 246.831 284.487 246.836 283.311C246.863 283.044 246.841 282.775 246.772 282.517C246.276 281.321 246.499 280.065 246.4 278.834C246.375 278.522 246.315 278.209 246.31 277.896C246.31 277.489 246.34 277.077 246.345 276.67C246.35 276.264 246.345 275.708 246.345 275.226C246.345 274.839 246.271 274.457 246.256 274.07C246.216 272.854 246.206 271.638 246.152 270.422C246.152 270.035 246.003 269.658 245.948 269.276C245.919 269.12 245.945 268.959 246.022 268.82C246.099 268.682 246.222 268.574 246.37 268.517C246.963 268.182 247.634 268.011 248.314 268.02C248.964 268.02 249.619 267.896 250.268 267.872C250.764 267.872 251.26 267.911 251.756 267.931C251.897 267.958 252.042 267.958 252.183 267.931C252.854 267.706 253.566 267.625 254.271 267.693C254.586 267.707 254.902 267.689 255.213 267.638C255.525 267.571 255.849 267.59 256.15 267.693C256.452 267.796 256.719 267.98 256.924 268.224C257.249 268.59 257.682 268.843 258.159 268.948C258.499 268.995 258.815 269.15 259.062 269.389C259.308 269.628 259.471 269.94 259.528 270.278C259.573 270.465 259.667 270.637 259.801 270.775C260.734 271.713 260.843 272.864 260.704 274.095C260.635 274.5 260.615 274.911 260.644 275.321C260.72 275.924 260.564 276.534 260.208 277.028C259.922 277.505 259.709 278.022 259.573 278.561C259.49 278.99 259.277 279.384 258.963 279.688C258.634 279.977 258.322 280.285 258.03 280.611C257.878 280.785 257.688 280.924 257.475 281.017C257.263 281.109 257.032 281.154 256.8 281.147C256.28 281.142 255.754 281.137 255.476 281.137ZM250.199 274.809C250.174 275.173 250.174 275.538 250.199 275.901C250.237 276.108 250.339 276.297 250.491 276.442C250.808 276.712 251.139 276.964 251.483 277.197C251.657 277.368 251.867 277.497 252.099 277.575C252.33 277.652 252.576 277.676 252.818 277.643C253.239 277.544 253.661 277.42 254.087 277.326C254.532 277.255 254.95 277.067 255.298 276.782C255.647 276.497 255.914 276.125 256.071 275.703C256.131 275.57 256.204 275.443 256.29 275.326C256.473 274.99 256.559 274.611 256.538 274.229C256.517 273.848 256.389 273.48 256.17 273.167C255.999 272.919 255.773 272.715 255.51 272.569C255.247 272.424 254.953 272.341 254.653 272.328C253.562 272.298 252.545 272.631 251.478 272.715C250.486 272.8 250.184 273.291 250.179 274.298L250.199 274.809Z" fill="white"/>
<path d="M232.472 280.591C232.399 280.778 232.384 280.984 232.431 281.179C232.477 281.375 232.581 281.553 232.73 281.688C233.137 282.139 233.519 282.611 233.935 283.052C234.061 283.2 234.238 283.294 234.431 283.315C235.547 283.286 236.668 283.474 237.774 283.191C237.956 283.142 238.148 283.142 238.33 283.191C238.862 283.381 239.445 283.365 239.967 283.147C240.167 283.056 240.386 283.013 240.606 283.024C240.826 283.034 241.04 283.097 241.231 283.206C241.42 283.314 241.616 283.41 241.817 283.494C242.069 283.581 242.291 283.742 242.453 283.954C242.616 284.167 242.712 284.423 242.729 284.69C242.878 285.638 242.422 286.308 241.454 286.387C240.994 286.406 240.55 286.564 240.18 286.839C239.451 287.395 238.553 287.435 237.7 287.549C237.482 287.538 237.263 287.557 237.05 287.603C235.904 288.139 234.769 287.703 233.648 287.554C233.077 287.479 232.557 287.057 232.016 286.779C231.822 286.68 231.654 286.492 231.455 286.457C231.226 286.425 231.011 286.323 230.842 286.163C230.673 286.004 230.558 285.796 230.513 285.569C230.432 285.29 230.272 285.042 230.052 284.854C229.769 284.622 229.546 284.326 229.402 283.99C229.258 283.654 229.197 283.288 229.223 282.923C229.228 282.314 229.078 281.713 228.787 281.176C228.699 281.023 228.64 280.855 228.613 280.68C228.509 279.762 228.405 278.844 228.346 277.926C228.319 277.638 228.387 277.348 228.539 277.102C228.632 276.977 228.699 276.834 228.734 276.682C228.769 276.53 228.772 276.372 228.742 276.219C228.664 275.413 228.887 274.607 229.367 273.956C229.461 273.814 229.536 273.66 229.591 273.499C229.997 272.16 230.879 271.016 232.07 270.283C232.955 269.702 233.892 269.204 234.868 268.794C235.16 268.677 235.479 268.641 235.79 268.69C236.51 268.869 237.278 268.968 237.774 269.638C237.847 269.736 237.945 269.813 238.057 269.861C239.049 270.234 239.302 271.087 239.545 271.971C239.576 272.163 239.626 272.353 239.694 272.536C240.254 273.703 240.19 274.948 240.19 276.189C240.187 276.335 240.172 276.482 240.145 276.626C240.123 276.965 240.015 277.294 239.832 277.581C239.649 277.868 239.397 278.105 239.099 278.268C239.009 278.313 238.94 278.392 238.856 278.432C237.368 279.147 235.954 279.985 234.263 280.144C233.656 280.251 233.058 280.4 232.472 280.591ZM233.33 275.524C234.01 275.479 234.575 275.221 235.022 275.752C235.567 275.359 235.976 274.806 236.192 274.169L235.304 273.236C234.769 274.139 233.648 274.363 233.34 275.524H233.33ZM230.275 283.003C230.647 282.72 230.647 282.72 230.275 282.368C229.992 282.571 230.037 282.779 230.285 283.003H230.275Z" fill="white"/>
<path d="M332.507 186.884C332.958 186.964 333.41 187.038 333.861 187.128C334.666 187.325 335.509 187.308 336.306 187.078C336.98 186.85 337.712 186.86 338.379 187.108C338.49 187.155 338.609 187.179 338.729 187.179C338.849 187.179 338.968 187.155 339.079 187.108C339.808 186.764 340.63 186.667 341.42 186.83C341.466 186.847 341.517 186.847 341.564 186.83C342.481 186.448 342.982 187.227 343.612 187.599C343.791 187.708 343.85 188.006 343.974 188.21C344.151 188.557 344.357 188.889 344.589 189.202C344.755 189.37 344.876 189.576 344.942 189.803C345.008 190.029 345.017 190.269 344.968 190.5C344.919 190.73 344.813 190.945 344.66 191.125C344.508 191.305 344.313 191.444 344.093 191.53C343.133 192.004 342.083 192.27 341.013 192.309C340.455 192.342 339.903 192.437 339.366 192.592C339.234 192.61 339.11 192.667 339.009 192.755C338.909 192.843 338.836 192.959 338.801 193.088C338.461 193.969 338.293 194.907 338.305 195.852C338.274 196.58 338.286 197.309 338.34 198.036C338.34 198.231 338.3 198.423 338.221 198.601C338.1 199.121 338.1 199.661 338.221 200.18C338.332 200.897 338.367 201.624 338.325 202.348C338.281 203.026 338.2 203.7 338.082 204.368C338.032 204.725 337.923 205.073 337.868 205.43C337.844 205.613 337.844 205.798 337.868 205.981C337.923 206.363 338.012 206.74 338.062 207.122C338.121 207.649 338.141 208.184 338.206 208.715C338.31 209.524 337.824 210.15 337.571 210.849C337.536 210.944 337.387 211.008 337.283 211.063C336.832 211.301 336.371 211.524 335.919 211.758C335.748 211.849 335.555 211.89 335.362 211.876C335.169 211.861 334.984 211.793 334.828 211.678C334.112 211.203 333.609 210.468 333.424 209.629C333.193 208.656 333.239 207.638 333.558 206.691C333.668 206.37 333.677 206.024 333.583 205.698C333.532 205.516 333.52 205.325 333.548 205.137C333.613 204.512 333.747 203.887 333.762 203.261C333.796 202.095 333.762 200.929 333.762 199.763C333.79 199.305 333.843 198.85 333.92 198.398C333.942 198.327 333.952 198.254 333.95 198.18C333.747 197.023 334.054 195.867 333.985 194.706C333.941 194.149 333.819 193.601 333.623 193.078C333.586 192.928 333.501 192.793 333.381 192.696C333.261 192.598 333.113 192.542 332.958 192.537C332.547 192.537 332.135 192.487 331.718 192.497C331.425 192.52 331.133 192.444 330.889 192.28C330.645 192.116 330.464 191.874 330.374 191.594C330.141 191.033 329.903 190.473 329.63 189.927C329.54 189.784 329.488 189.621 329.478 189.452C329.469 189.284 329.502 189.116 329.576 188.964C329.68 188.719 329.768 188.467 329.838 188.21C329.876 188.041 329.961 187.887 330.084 187.766C330.208 187.645 330.364 187.563 330.533 187.53C330.653 187.512 330.766 187.462 330.86 187.386C331.324 187.013 331.914 186.833 332.507 186.884Z" fill="white"/>
<path d="M196.266 288.139C195.586 288.139 194.932 288.139 194.282 288.139C194.158 288.128 194.043 288.072 193.959 287.98C193.414 287.375 192.749 286.824 192.938 285.851C192.96 285.633 192.934 285.413 192.863 285.206C192.661 284.48 192.584 283.725 192.635 282.973C192.626 282.416 192.579 281.861 192.496 281.31C192.447 280.814 192.377 280.348 192.323 279.866C192.268 279.385 192.214 278.809 192.154 278.278C192.154 278.184 192.109 278.09 192.104 277.995C192.104 277.147 192.104 276.298 192.06 275.454C192.005 274.948 191.895 274.449 191.732 273.966C191.628 273.613 191.365 273.469 191.053 273.643C190.418 273.995 189.654 274.08 189.114 274.635C189.048 274.709 188.958 274.759 188.861 274.774C188.008 274.774 187.646 275.499 187.15 275.995C186.936 276.227 186.807 276.524 186.783 276.839C186.741 277.712 186.769 278.586 186.867 279.454C186.966 280.397 187.239 281.31 187.308 282.238C187.383 283.081 187.549 283.913 187.804 284.72C187.878 285.074 187.906 285.436 187.889 285.797C187.889 285.96 187.824 286.129 187.814 286.293C187.765 287.181 187.77 287.186 186.961 287.454C186.5 287.608 186.039 287.782 185.567 287.896C184.903 288.06 184.734 287.96 184.456 287.335C184.179 286.71 183.931 286.238 183.732 285.668C183.63 285.318 183.58 284.955 183.583 284.591C183.583 283.886 183.618 283.176 183.583 282.472C183.542 281.178 183.376 279.892 183.087 278.63C182.949 278.134 182.83 277.598 182.74 277.072C182.739 276.883 182.764 276.694 182.815 276.511C182.859 276.204 183.023 275.836 182.919 275.593C182.547 274.745 182.919 273.911 182.869 273.077C182.844 272.343 183.073 272.159 184.07 271.648L184.466 272.283C184.732 272.178 184.979 272.032 185.2 271.851C185.824 271.234 186.581 270.769 187.412 270.492C188.404 270.055 189.396 269.569 190.388 269.102C190.473 269.062 190.567 268.973 190.646 268.978C191.41 269.038 192.035 268.586 192.734 268.427C192.913 268.363 193.103 268.336 193.292 268.348C193.481 268.36 193.666 268.41 193.835 268.495C194.005 268.58 194.155 268.699 194.277 268.845C194.399 268.99 194.49 269.159 194.545 269.34C194.594 269.449 194.674 269.593 194.639 269.683C194.445 270.209 194.837 270.526 195.001 270.943C195.497 272.149 196.082 273.33 196.122 274.675C196.122 275.107 196.231 275.534 196.281 275.965C196.33 276.397 196.395 276.69 196.405 277.052C196.429 278.606 196.439 280.164 196.459 281.722C196.444 281.819 196.444 281.918 196.459 282.015C196.92 283.241 196.648 284.526 196.757 285.777C196.782 286.592 196.614 287.402 196.266 288.139Z" fill="white"/>
<path d="M305.159 271.846C305.422 271.605 305.766 271.471 306.124 271.471C306.481 271.471 306.825 271.605 307.088 271.846C307.247 271.956 307.416 272.06 307.584 272.159C307.834 272.263 308.039 272.452 308.163 272.693C308.288 272.933 308.323 273.21 308.264 273.474C308.244 273.712 308.3 273.95 308.423 274.154C308.769 274.797 308.958 275.513 308.973 276.243C308.973 277.142 308.854 278.045 309.231 278.913C309.31 279.102 309.167 279.38 309.137 279.618C309.057 279.968 309.02 280.326 309.028 280.685C309.077 281.132 309.365 281.558 309.057 282.01C309.051 282.021 309.048 282.033 309.048 282.045C309.048 282.057 309.051 282.069 309.057 282.08C309.479 282.943 309.221 283.951 309.712 284.824C310 285.441 310.197 286.096 310.297 286.769C310.506 287.762 310.114 288.343 308.914 288.591C308.58 288.673 308.232 288.674 307.898 288.596C307.564 288.517 307.254 288.36 306.992 288.137C306.731 287.915 306.526 287.633 306.394 287.316C306.262 286.999 306.208 286.655 306.235 286.313C306.214 285.903 306.155 285.496 306.057 285.097C305.998 284.863 305.952 284.626 305.918 284.387C305.915 283.244 305.748 282.108 305.422 281.013C305.39 280.946 305.376 280.873 305.382 280.799C305.64 279.742 305.328 278.73 305.164 277.702C305.114 277.395 305.089 277.077 305.065 276.764C305.071 276.589 305.043 276.414 304.982 276.25C304.92 276.085 304.827 275.935 304.708 275.807C303.17 276.367 301.831 277.191 301.027 278.68C300.902 278.996 300.833 279.332 300.824 279.673C300.76 280.204 300.71 280.735 300.665 281.266C300.626 281.554 300.626 281.846 300.665 282.134C300.874 283.181 301.127 284.219 301.36 285.256C301.399 285.444 301.513 285.668 301.454 285.812C301.164 286.55 301.164 287.371 301.454 288.109C300.348 288.869 299.291 289.638 297.779 289.102C298.275 288.462 297.962 287.906 297.625 287.375C297.035 286.442 297.099 285.424 297.218 284.397C297.315 284.087 297.461 283.793 297.65 283.529C297.436 283.181 297.01 282.809 297.213 282.328C297.565 281.489 297.357 280.7 297.213 279.846C297.13 278.954 297.103 278.057 297.134 277.162C297.134 276.948 297.059 276.735 297.045 276.516C297.045 276.209 297.045 275.896 297 275.593C296.982 275.311 296.921 275.033 296.816 274.769C296.726 274.641 296.672 274.491 296.659 274.335C296.646 274.179 296.675 274.023 296.742 273.881C296.777 273.817 296.836 273.717 296.811 273.678C296.375 272.908 296.921 271.995 296.449 271.196C296.32 270.989 296.274 270.741 296.32 270.502C296.41 270.199 296.568 269.787 296.816 269.673C297.033 269.552 297.282 269.503 297.527 269.533C297.773 269.562 298.003 269.668 298.185 269.837C298.707 270.437 299.168 271.089 299.559 271.782C299.698 272.07 299.941 272.296 300.238 272.415C300.536 272.533 300.867 272.536 301.166 272.422C301.397 272.34 301.616 272.226 301.816 272.085C302.565 271.489 303.443 271.588 304.296 271.588C304.593 271.64 304.882 271.727 305.159 271.846Z" fill="white"/>
<path d="M289.961 270.864C290.109 270.937 290.262 271.002 290.418 271.057C290.676 271.137 290.71 271.325 290.74 271.554C290.878 272.81 290.811 274.08 290.542 275.315C290.502 275.494 290.426 275.663 290.319 275.812C289.736 276.501 289.034 277.08 288.245 277.519C288.121 277.603 287.918 277.573 287.749 277.608C286.733 277.827 285.716 278.04 284.704 278.278C284.495 278.326 284.3 278.422 284.133 278.557C283.966 278.692 283.833 278.863 283.742 279.057C284.011 279.573 284.467 279.967 285.016 280.159C285.974 280.516 286.975 280.743 287.992 280.834C288.208 280.859 288.421 280.905 288.627 280.973C288.766 281.003 288.935 281.102 289.044 281.062C289.566 280.933 290.115 280.963 290.621 281.147C290.894 281.204 291.144 281.34 291.34 281.537C291.537 281.735 291.671 281.985 291.727 282.258C291.73 282.423 291.674 282.583 291.568 282.71C291.337 283.023 291.089 283.323 290.824 283.608C290.696 283.78 290.525 283.915 290.328 284C289.589 284.184 288.89 284.536 288.072 284.402C287.471 284.36 286.867 284.36 286.266 284.402C284.714 284.368 283.19 283.988 281.803 283.291C281.361 283.072 281.044 282.621 280.523 282.511C280.489 282.499 280.458 282.478 280.433 282.452C280.408 282.425 280.389 282.393 280.379 282.358C280.168 281.783 279.798 281.281 279.313 280.908C279.2 280.813 279.121 280.683 279.088 280.539C279.055 280.395 279.07 280.245 279.129 280.109C279.182 279.945 279.2 279.772 279.18 279.601C279.16 279.429 279.104 279.264 279.015 279.117C278.643 278.292 278.553 277.368 278.757 276.487C278.941 275.782 279.119 275.077 279.253 274.368C279.381 273.82 279.69 273.332 280.131 272.983C280.491 272.66 280.74 272.231 280.84 271.757C281.118 270.705 281.46 269.633 282.616 269.152C283.236 268.387 284.168 268.159 285.012 267.837C285.462 267.643 285.956 267.575 286.442 267.637C286.928 267.7 287.388 267.892 287.774 268.194C288.221 268.531 288.692 268.824 289.143 269.152C289.679 269.573 290.125 270.035 289.961 270.864ZM286.797 272.784C286.589 272.526 286.43 272.333 286.108 272.506C285.785 272.68 285.503 272.76 285.582 273.167C285.617 273.33 285.711 273.613 285.8 273.623C286.024 273.643 286.248 273.581 286.43 273.449C286.59 273.251 286.714 273.026 286.797 272.784Z" fill="white"/>
<path d="M298.72 207.202C299.39 207.314 300.074 207.314 300.744 207.202C301.24 207.108 301.696 207.048 302.177 206.999C302.658 206.949 303.045 206.934 303.482 206.904C304.756 206.82 305.262 207.222 305.193 208.602C305.147 209.117 304.922 209.599 304.558 209.966C304.216 210.345 303.898 210.745 303.606 211.162C303.53 211.285 303.423 211.384 303.295 211.451C303.168 211.517 303.025 211.548 302.882 211.54C302.643 211.523 302.407 211.59 302.212 211.728C301.632 212.294 300.883 212.383 300.154 212.557C299.108 212.766 298.049 212.903 296.984 212.969C295.992 213.068 295.367 212.671 295.298 211.649C295.305 211.398 295.241 211.149 295.114 210.933C294.987 210.716 294.802 210.539 294.579 210.423C294.053 210.13 294.083 209.927 294.237 209.326C294.39 208.726 294.415 208.031 294.504 207.386C294.636 206.693 294.646 205.983 294.534 205.287C294.508 204.877 294.579 204.467 294.742 204.091C294.82 203.927 294.862 203.748 294.866 203.567C294.871 203.386 294.837 203.206 294.767 203.038C294.733 202.979 294.678 202.89 294.698 202.835C294.966 202.205 294.782 201.574 294.698 200.939C294.668 200.631 294.698 200.319 294.698 200.011C294.698 199.887 294.658 199.768 294.658 199.649C294.688 198.681 294.733 197.718 294.762 196.756C294.792 195.793 294.837 194.969 294.802 194.081C294.802 193.505 294.564 192.929 294.881 192.368C294.916 192.279 294.916 192.18 294.881 192.091C294.597 190.956 294.49 189.784 294.564 188.617C294.564 187.892 294.653 187.163 294.643 186.433C294.633 185.704 294.554 185.078 294.509 184.403C294.493 184.238 294.493 184.072 294.509 183.907C294.648 183.083 295.11 182.85 295.908 183.039C296.9 183.272 297.495 183.952 298.105 184.646C298.252 184.867 298.331 185.126 298.333 185.391C298.368 185.887 298.333 186.413 298.333 186.924C298.333 187.356 298.443 187.783 298.487 188.215C298.519 188.4 298.519 188.59 298.487 188.775C298.365 189.319 298.331 189.879 298.388 190.433C298.354 191.151 298.458 191.869 298.695 192.547C298.741 192.736 298.75 192.931 298.72 193.123C298.72 195.604 298.72 198.046 298.72 200.507C298.72 201.004 298.601 201.475 298.586 201.957C298.518 203.167 298.556 204.381 298.7 205.584C298.746 206.122 298.753 206.663 298.72 207.202Z" fill="white"/>
<path d="M201.453 277.931C200.867 277.931 200.282 277.961 199.702 277.931C199.469 277.927 199.241 277.86 199.042 277.738C198.843 277.616 198.68 277.443 198.571 277.236C198.48 277.12 198.436 276.975 198.447 276.828C198.458 276.681 198.523 276.543 198.631 276.442C198.795 276.261 198.895 276.03 198.914 275.786C198.934 275.542 198.873 275.298 198.74 275.092C198.412 274.318 198.437 274.348 198.998 273.713C199.209 273.462 199.477 273.266 199.781 273.142C200.084 273.017 200.412 272.968 200.739 272.998C201.128 273.03 201.52 273.03 201.909 272.998C202.039 273.007 202.169 272.981 202.285 272.922C202.401 272.864 202.499 272.775 202.569 272.665C202.639 272.556 202.678 272.429 202.683 272.299C202.687 272.169 202.656 272.04 202.594 271.926C202.491 271.605 202.481 271.261 202.564 270.934C202.632 270.264 202.644 269.59 202.598 268.919C202.598 268.244 202.47 267.569 202.455 266.894C202.448 266.667 202.519 266.445 202.656 266.264C202.794 266.084 202.988 265.956 203.209 265.901C203.438 265.815 203.684 265.783 203.927 265.808C204.171 265.833 204.405 265.914 204.612 266.045C204.801 266.154 204.964 266.308 205.163 266.403C205.363 266.494 205.53 266.648 205.637 266.84C205.744 267.033 205.786 267.256 205.758 267.474C205.751 267.743 205.76 268.011 205.783 268.278C205.767 268.451 205.805 268.624 205.892 268.775C206.246 269.24 206.447 269.803 206.467 270.388C206.528 270.699 206.614 271.004 206.725 271.301C206.792 271.642 206.986 271.945 207.268 272.148C207.55 272.351 207.898 272.438 208.243 272.393C208.896 272.399 209.548 272.471 210.187 272.606C210.584 272.739 211.011 272.754 211.416 272.65C211.822 272.546 212.189 272.328 212.474 272.02C212.57 271.934 212.686 271.874 212.812 271.845C212.937 271.815 213.068 271.818 213.193 271.852C213.689 272.052 214.098 272.421 214.348 272.894C214.457 273.162 214.596 273.39 214.715 273.678C214.918 274.149 214.943 274.678 214.785 275.167C214.621 275.708 214.512 276.313 213.828 276.522C213.684 276.566 213.585 276.755 213.451 276.859C213.228 277.101 212.959 277.296 212.66 277.433C212.361 277.571 212.038 277.647 211.71 277.658C211.564 277.64 211.417 277.668 211.288 277.737C210.395 278.353 209.428 278.055 208.481 277.971C207.816 277.916 207.608 278.03 207.672 278.715C207.747 279.484 207.95 280.239 208.099 280.998C208.177 281.304 208.228 281.616 208.253 281.931C208.263 282.66 208.406 283.382 208.674 284.06C208.762 284.304 208.775 284.569 208.709 284.819C208.63 285.042 208.63 285.286 208.709 285.509C208.77 285.724 208.788 285.948 208.763 286.169C208.737 286.391 208.668 286.605 208.559 286.8C208.45 286.994 208.304 287.165 208.129 287.303C207.954 287.441 207.753 287.543 207.538 287.603C207.186 287.693 206.839 287.802 206.482 287.871C205.897 287.981 205.698 287.837 205.574 287.241C205.573 287.218 205.573 287.195 205.574 287.172C205.602 286.388 205.337 285.621 204.83 285.023C204.744 284.905 204.691 284.766 204.679 284.621C204.667 284.475 204.695 284.329 204.761 284.199C204.834 283.953 204.848 283.692 204.801 283.44C204.756 283.038 204.662 282.636 204.602 282.234C204.558 281.946 204.553 281.648 204.493 281.365C204.426 281.017 204.406 280.662 204.434 280.308C204.471 279.704 204.382 279.099 204.171 278.532C204.007 278.09 203.466 277.976 202.995 277.951C202.524 277.926 201.974 277.951 201.463 277.951L201.453 277.931Z" fill="white"/>
<path d="M320.946 194.19C321.768 194.965 322.695 195.622 323.698 196.14C324.839 196.636 325.499 197.579 326.213 198.498C326.293 198.646 326.386 198.787 326.491 198.919C326.744 199.106 326.948 199.352 327.085 199.636C327.221 199.92 327.287 200.232 327.275 200.547C327.275 200.83 327.582 201.133 327.741 201.43C327.83 201.599 327.994 201.798 327.964 201.927C327.893 202.458 327.963 202.999 328.167 203.495C328.362 204.275 328.443 205.079 328.405 205.882C328.406 206.343 328.27 206.794 328.014 207.177C327.847 207.469 327.752 207.795 327.736 208.13C327.714 208.501 327.563 208.852 327.309 209.123C326.883 209.589 326.501 210.115 326.089 210.572C325.977 210.729 325.829 210.859 325.658 210.949C325.169 211.194 324.635 211.337 324.089 211.368C323.544 211.4 322.997 211.32 322.483 211.133C322.321 211.082 322.177 210.986 322.068 210.856C321.959 210.726 321.889 210.567 321.868 210.398C321.775 209.799 321.649 209.206 321.491 208.621C321.354 208.252 321.188 207.893 320.995 207.55L321.987 206.751C322.181 206.885 322.349 207.009 322.528 207.123C322.608 207.191 322.702 207.241 322.803 207.268C322.904 207.296 323.01 207.302 323.114 207.284C323.217 207.267 323.316 207.227 323.402 207.167C323.489 207.108 323.561 207.03 323.614 206.939C324.185 206.18 324.606 205.361 324.383 204.373C324.296 204.098 324.276 203.807 324.322 203.523C324.369 203.238 324.481 202.969 324.651 202.736C324.542 202.502 324.438 202.309 324.358 202.105C324.303 201.904 324.187 201.726 324.025 201.595C323.863 201.464 323.663 201.387 323.455 201.376C323.2 201.369 322.952 201.286 322.743 201.137C322.535 200.989 322.375 200.782 322.285 200.542C322.131 200.302 321.906 200.116 321.64 200.011C321.329 199.873 321.007 199.76 320.678 199.674C320.534 199.643 320.4 199.578 320.288 199.484C320.175 199.39 320.088 199.269 320.033 199.133C319.964 198.963 319.859 198.81 319.727 198.684C319.594 198.557 319.437 198.46 319.264 198.398C318.798 198.185 318.337 197.966 317.861 197.793C317.676 197.756 317.509 197.658 317.387 197.515C317.264 197.372 317.194 197.192 317.186 197.004C317.117 196.21 316.998 195.416 316.918 194.622C316.867 194.408 316.888 194.182 316.978 193.981C317.221 193.562 317.352 193.087 317.36 192.602C317.411 192.268 317.558 191.956 317.781 191.704C317.899 191.601 317.986 191.468 318.032 191.319C318.078 191.17 318.083 191.011 318.044 190.86C318.01 190.694 318.018 190.522 318.068 190.361C318.119 190.199 318.209 190.053 318.332 189.937C318.558 189.687 318.718 189.385 318.798 189.058C318.92 188.484 319.178 187.947 319.551 187.494C319.924 187.04 320.401 186.683 320.941 186.453C321.102 186.402 321.246 186.307 321.357 186.18C321.799 185.396 322.632 185.455 323.341 185.257C323.522 185.192 323.719 185.192 323.9 185.257C324.081 185.321 324.234 185.445 324.333 185.609C324.399 185.712 324.477 185.805 324.566 185.887C324.834 186.115 325.226 186.22 325.251 186.676C325.344 187.256 325.27 187.85 325.038 188.388C324.784 188.95 324.339 189.404 323.783 189.669C322.92 190.021 322.498 190.736 322.067 191.475C321.513 192.295 321.132 193.218 320.946 194.19Z" fill="white"/>
<path d="M223.242 271.559C222.888 271.896 222.557 272.256 222.25 272.636C221.541 273.628 221.144 274.73 221.506 275.996C221.652 276.432 221.72 276.89 221.709 277.35C221.712 278.445 221.82 279.537 222.032 280.611C222.037 280.756 222.093 280.895 222.19 281.003C222.567 281.286 222.567 281.678 222.627 282.095C222.755 282.813 222.921 283.523 223.123 284.224C223.316 284.968 223.282 285.777 223.728 286.457C223.75 286.525 223.758 286.596 223.752 286.667C223.746 286.737 223.726 286.806 223.693 286.869C223.434 287.447 223.143 288.011 222.82 288.556C222.662 288.767 222.453 288.935 222.213 289.044C221.974 289.154 221.71 289.201 221.447 289.182C221.184 289.164 220.93 289.079 220.708 288.937C220.486 288.795 220.304 288.599 220.177 288.368C219.616 287.128 219.157 285.845 218.803 284.532C218.777 284.462 218.767 284.387 218.773 284.313C218.927 283.355 218.48 282.502 218.302 281.603C218.21 281.331 218.076 281.075 217.905 280.844C217.7 280.551 217.521 280.24 217.369 279.916C216.919 278.836 216.65 277.689 216.571 276.522C216.568 276.399 216.538 276.278 216.482 276.169C216.127 275.288 215.973 274.339 216.03 273.39C216.014 273.245 216.045 273.099 216.118 272.973C216.191 272.847 216.303 272.748 216.437 272.69C216.706 272.549 216.941 272.351 217.126 272.11C217.312 271.87 217.444 271.592 217.513 271.296C217.732 270.5 218.066 269.741 218.505 269.043C218.698 268.747 218.959 268.503 219.267 268.33C219.574 268.157 219.919 268.061 220.271 268.05C220.833 268.074 221.39 267.938 221.878 267.658C222.068 267.554 222.281 267.498 222.498 267.494C223.659 267.494 224.819 267.494 225.92 266.998C226.699 266.666 227.334 267.063 227.904 267.494C228.044 267.654 228.125 267.858 228.132 268.07C228.129 268.264 228.116 268.458 228.093 268.651C228.157 269.971 227.289 270.586 226.277 271.097C226.168 271.152 226.024 271.172 225.955 271.256C225.826 271.436 225.64 271.566 225.426 271.624C225.213 271.682 224.986 271.664 224.784 271.574C224.713 271.567 224.641 271.575 224.574 271.598C224.506 271.621 224.444 271.659 224.393 271.708C223.996 272.095 223.663 271.976 223.336 271.618C223.313 271.588 223.279 271.567 223.242 271.559Z" fill="white"/>
<path d="M220.202 185.038C221.328 184.939 221.834 185.907 221.834 186.76C221.834 187.316 221.769 187.872 221.739 188.428C221.69 189.391 221.64 190.353 221.601 191.316C221.601 191.505 221.665 191.698 221.665 191.892C221.667 192.275 221.649 192.657 221.611 193.038C221.561 193.495 221.417 193.946 221.412 194.398C221.362 195.517 221.392 196.638 221.501 197.753C221.688 198.878 221.766 200.018 221.735 201.157C221.716 202.082 221.459 202.986 220.991 203.783C220.931 203.887 220.817 204.016 220.842 204.105C221.025 204.76 220.683 205.44 220.966 206.09C221.079 206.335 221.124 206.606 221.095 206.874C220.931 207.986 220.926 209.142 220.38 210.165C220.232 210.41 220.012 210.604 219.751 210.72C219.431 210.839 219.159 211.058 218.977 211.346C218.759 211.743 218.406 211.748 218.025 211.648C217.643 211.549 217.3 211.43 217.201 210.949C217.063 210.278 216.889 209.616 216.68 208.964C216.581 208.636 216.517 208.373 216.839 208.125C216.905 208.079 216.961 208.019 217.002 207.95C217.042 207.881 217.068 207.804 217.077 207.724C217.085 207.643 217.076 207.563 217.051 207.486C217.025 207.41 216.983 207.34 216.928 207.281C216.831 207.138 216.762 206.976 216.727 206.805C216.692 206.635 216.692 206.459 216.725 206.289C216.765 205.827 216.725 205.361 216.775 204.904C216.834 204.254 216.928 203.609 217.008 202.959C217.043 202.843 217.056 202.722 217.047 202.601C216.75 201.663 217.097 200.79 217.29 199.902C217.312 199.832 217.329 199.761 217.34 199.688C217.385 198.75 217.395 197.802 217.489 196.869C217.568 196.13 217.33 195.381 217.623 194.651C217.704 194.327 217.734 193.992 217.712 193.659C217.676 193.051 217.774 192.442 218 191.877C218.033 191.785 218.048 191.687 218.044 191.589C218.139 190.259 218.248 188.934 218.322 187.619C218.294 187.205 218.404 186.793 218.635 186.448C218.702 186.348 218.748 186.234 218.769 186.115C219.012 185.237 219.274 185.033 220.202 185.038Z" fill="white"/>
<path d="M311.418 195.718C311.463 196.259 311.567 197.058 311.582 197.857C311.521 198.482 311.538 199.112 311.631 199.733C311.83 200.464 311.809 201.237 311.572 201.956C311.477 202.452 311.504 202.963 311.651 203.445C311.783 203.838 311.792 204.263 311.676 204.661C311.463 205.387 311.463 206.159 311.676 206.884C311.874 207.934 311.924 209.007 311.825 210.07C311.814 210.275 311.751 210.473 311.642 210.647C311.534 210.82 311.383 210.963 311.205 211.063C310.817 211.294 310.386 211.445 309.939 211.505C309.491 211.566 309.036 211.535 308.601 211.415C308.368 211.317 308.176 211.144 308.054 210.924C307.931 210.703 307.886 210.448 307.926 210.199C308.035 209.878 308.035 209.529 307.926 209.207C307.858 208.949 307.825 208.684 307.827 208.418C307.787 207.639 307.748 206.864 307.738 206.085C307.738 205.673 307.832 205.261 307.817 204.855C307.782 203.763 307.713 202.666 307.643 201.574C307.643 201.391 307.509 201.207 307.485 201.018C307.436 200.814 307.447 200.601 307.514 200.403C307.599 200.243 307.648 200.067 307.66 199.887C307.672 199.706 307.646 199.525 307.584 199.356C307.414 198.794 307.386 198.199 307.505 197.624C307.547 197.334 307.515 197.039 307.41 196.765C307.05 195.678 306.892 194.535 306.944 193.391C306.974 192.78 306.944 192.17 306.944 191.564C306.961 190.835 306.867 190.107 306.666 189.405C306.546 188.935 306.523 188.446 306.597 187.966C306.706 187.152 307.886 186.477 308.675 186.736C309.211 186.904 309.781 187.028 309.885 187.728C310.604 188.497 310.674 189.505 310.947 190.458C311.219 191.41 311.18 192.482 311.443 193.475C311.51 194.222 311.501 194.973 311.418 195.718ZM308.189 194.601C308.07 194.502 307.996 194.393 307.946 194.403C307.896 194.413 307.787 194.512 307.708 194.577C307.762 194.641 307.817 194.765 307.867 194.765C307.916 194.765 308.045 194.681 308.189 194.601Z" fill="white"/>
<path d="M320.261 275.415C320.186 275.792 320.097 276.169 320.048 276.551C319.998 276.933 319.993 277.32 319.958 277.707C319.859 278.864 319.125 279.633 318.312 280.343C318.183 280.411 318.041 280.45 317.895 280.457C317.751 280.472 317.608 280.501 317.468 280.541C316.972 280.725 316.377 280.943 316.323 281.429C316.28 281.744 316.331 282.065 316.469 282.351C316.608 282.637 316.828 282.876 317.101 283.037C317.865 283.504 318.589 284.085 319.309 284.591C319.376 284.62 319.436 284.664 319.484 284.719C319.533 284.775 319.568 284.84 319.588 284.911C319.608 284.982 319.612 285.056 319.599 285.129C319.587 285.201 319.559 285.27 319.517 285.33C319.461 285.465 319.418 285.604 319.388 285.747C319.284 286.134 319.338 286.616 318.892 286.799C318.198 287.072 317.508 287.529 316.729 287.295C316.068 287.064 315.428 286.776 314.815 286.437C314.435 286.262 314.136 285.948 313.982 285.558C313.868 285.348 313.696 285.176 313.486 285.062C313.176 284.83 312.937 284.515 312.796 284.154C312.355 283.403 312.134 282.543 312.156 281.673C312.157 281.478 312.091 281.288 311.968 281.137C311.358 280.392 311.507 279.534 311.556 278.69C311.619 278.331 311.646 277.967 311.636 277.603C311.403 276.005 312.236 274.794 313.074 273.598C313.283 273.398 313.551 273.273 313.838 273.241C314.294 273.152 314.592 272.988 314.602 272.452C314.602 272.114 314.84 271.956 315.172 271.792C315.855 271.518 316.6 271.439 317.325 271.564C317.717 271.682 318.085 271.87 318.411 272.119C318.998 272.438 319.484 272.917 319.811 273.5C320.138 274.083 320.294 274.747 320.261 275.415Z" fill="white"/>
<path d="M249.564 204.894C248.879 204.398 248.909 203.768 248.894 203.167C248.875 201.566 248.645 199.974 248.21 198.433C248.126 198.135 248.126 197.807 248.051 197.5C247.901 196.669 247.689 195.851 247.416 195.053C247.066 194.143 247.019 193.143 247.282 192.204C247.353 191.998 247.403 191.785 247.431 191.569C247.457 191.059 247.6 190.562 247.848 190.115C247.963 189.851 248.011 189.563 247.987 189.276C247.957 188.78 247.853 188.284 247.773 187.763C247.684 187.172 247.773 186.859 248.329 186.641C248.966 186.413 249.617 186.228 250.278 186.085C250.546 186.021 250.725 186.18 250.868 186.413C251.379 187.134 251.616 188.014 251.538 188.894C251.5 189.158 251.421 189.414 251.305 189.653C251.224 189.805 251.176 189.971 251.165 190.143C251.153 190.314 251.179 190.486 251.24 190.646C251.357 190.989 251.412 191.351 251.404 191.713C251.4 192.734 251.497 193.753 251.692 194.755C251.826 195.519 251.85 196.299 251.955 197.068C252.024 197.564 252.153 198.06 252.237 198.557C252.398 199.29 252.512 200.032 252.579 200.78C252.624 201.696 252.744 202.608 252.937 203.504C253.305 205.193 253.422 206.928 253.284 208.651C253.258 208.895 253.162 209.127 253.008 209.319C252.854 209.511 252.649 209.654 252.416 209.733C251.762 209.987 251.091 210.195 250.407 210.353C250.07 210.437 249.762 210.184 249.609 209.743C249.534 209.519 249.564 209.246 249.509 209.033C249.479 208.777 249.387 208.531 249.242 208.318C249.111 208.191 249.013 208.035 248.955 207.862C248.897 207.69 248.881 207.506 248.909 207.326C248.927 206.985 248.927 206.644 248.909 206.303C248.869 206.03 248.909 205.751 249.026 205.501C249.142 205.25 249.329 205.039 249.564 204.894Z" fill="white"/>
<path d="M3 465.279C3 465.279 50.8625 460.316 74.6698 456.842C98.4771 453.369 128.98 450.639 129.476 435.999C129.972 421.359 129.476 382.401 129.476 382.401C129.476 382.401 141.38 373.592 153.531 370.243C165.683 366.893 184.902 357.339 187.382 348.034C189.862 338.729 182.298 333.27 162.211 335.752C142.124 338.233 114.101 342.699 98.3531 353.741C82.6056 364.784 76.4057 377.935 68.222 384.635C60.0382 391.334 34.743 392.699 27.9232 392.947C21.1034 393.195 3 393.94 3 393.94" fill="#FFC900"/>
<path d="M3 465.279C3 465.279 50.8625 460.316 74.6698 456.842C98.4771 453.369 128.98 450.639 129.476 435.999C129.972 421.359 129.476 382.401 129.476 382.401C129.476 382.401 141.38 373.592 153.531 370.243C165.683 366.893 184.902 357.339 187.382 348.034C189.862 338.729 182.298 333.27 162.211 335.752C142.124 338.233 114.101 342.699 98.3531 353.741C82.6055 364.784 76.4057 377.935 68.222 384.635C60.0382 391.334 34.743 392.699 27.9232 392.947C21.1034 393.195 3 393.94 3 393.94" stroke="black" stroke-width="3" stroke-linecap="round" stroke-linejoin="round"/>
<path d="M469.722 337.985C468.978 337.985 446.163 340.963 437.731 348.407C429.299 355.851 425.827 362.362 425.827 362.362L435.251 390.089C435.251 390.089 437.235 402.302 450.378 404.015C463.522 405.727 492.041 410.466 492.041 410.466L525.768 402.526L540.295 382.675C540.295 382.675 528.169 377.811 518.909 368.581C509.649 359.35 469.722 337.985 469.722 337.985Z" fill="#FFC900"/>
<path d="M562.634 388.938V467.017L479.849 416.729L486.088 396.546C486.088 396.546 482.78 390.824 465.971 390.154L485.097 378.347C485.097 378.347 483.941 370.739 467.241 369.414C462.609 369.047 457.411 368.784 452.094 368.655L464.935 362.362L541.852 383.285C548.573 385.858 555.535 387.752 562.634 388.938Z" fill="#FFC900"/>
<path d="M562.634 388.938C516.344 380.834 509.4 355.027 507.416 347.747C505.432 340.467 502.124 333.355 482.285 329.549C462.446 325.742 436.158 325.911 434.174 326.075C432.19 326.239 419.627 326.244 418.139 333.851C416.651 341.459 428.882 345.598 428.882 345.598" fill="#FFC900"/>
<path d="M562.634 388.938C516.344 380.834 509.4 355.027 507.416 347.747C505.432 340.467 502.124 333.355 482.285 329.549C462.446 325.742 436.158 325.911 434.174 326.075C432.19 326.239 419.627 326.244 418.139 333.851C416.651 341.459 428.882 345.598 428.882 345.598" stroke="black" stroke-width="3" stroke-linecap="round" stroke-linejoin="round"/>
<path d="M481.579 354.25C481.579 354.25 476.783 348.627 469.343 347.138C461.904 345.649 439.584 344.324 428.177 345.982C416.769 347.639 411.978 353.093 411.482 357.892C410.986 362.691 422.225 370.031 422.225 370.031" fill="#FFC900"/>
<path d="M481.579 354.25C481.579 354.25 476.783 348.627 469.343 347.138C461.904 345.649 439.584 344.324 428.177 345.982C416.769 347.639 411.978 353.093 411.482 357.892C410.986 362.691 422.225 370.031 422.225 370.031" stroke="black" stroke-width="3" stroke-linecap="round" stroke-linejoin="round"/>
<path d="M485.097 378.352C485.097 378.352 483.936 370.739 467.242 369.419C450.547 368.099 426.571 368.094 415.986 370.908C405.402 373.722 407.059 381.99 414.171 385.96C421.284 389.93 436.138 391.543 436.138 391.543" fill="#FFC900"/>
<path d="M485.097 378.352C485.097 378.352 483.936 370.739 467.242 369.419C450.547 368.099 426.571 368.094 415.986 370.908C405.402 373.722 407.059 381.99 414.171 385.96C421.284 389.93 436.138 391.543 436.138 391.543" stroke="black" stroke-width="3" stroke-linecap="round" stroke-linejoin="round"/>
<path d="M479.472 417.945C479.472 417.945 435.33 416.566 423.59 416.149C411.85 415.732 409.206 401.841 413.005 397.375C416.805 392.908 444.421 389.931 463.432 390.094C482.443 390.258 486.084 396.546 486.084 396.546" fill="#FFC900"/>
<path d="M479.472 417.945C479.472 417.945 435.33 416.566 423.59 416.149C411.85 415.732 409.206 401.841 413.005 397.375C416.805 392.908 444.421 389.931 463.432 390.094C482.443 390.258 486.084 396.546 486.084 396.546" stroke="black" stroke-width="3" stroke-linecap="round" stroke-linejoin="round"/>
<path d="M562.635 467.017C562.635 467.017 508.409 460.813 496.257 447.414C484.105 434.014 478.897 416.148 478.897 416.148" fill="#FFC900"/>
<path d="M562.635 467.017C562.635 467.017 508.409 460.813 496.257 447.414C484.105 434.014 478.897 416.148 478.897 416.148" stroke="black" stroke-width="3" stroke-linecap="round" stroke-linejoin="round"/>
<path d="M562.635 3H3V559.735H562.635V3Z" stroke="black" stroke-width="5" stroke-miterlimit="10"/>
</svg>
