<svg width="224" height="160" fill="none" xmlns="http://www.w3.org/2000/svg"><path d="M166.199 81.107h.001a11.38 11.38 0 0 1 8.911 2.801 11.412 11.412 0 0 1 3.823 8.537v53.644a11.406 11.406 0 0 1-11.407 11.407h-26.63c-12.035 0-18.543-5.344-21.885-9.802a23.84 23.84 0 0 1-1.735-2.686l-.092-.165-.178-.063c-5.448-1.928-12.902-5.286-17.545-10.283l-.003-.002-.337-.376-.186-.205-.272.047c-.99.174-1.99.262-2.995.264A17.348 17.348 0 0 1 84 129.651l-.11-.101-.148-.024a17.73 17.73 0 0 1-10.363-5.651l-.091-.101-.13-.042-.571-.181-.198-.062-.183.095-11.036 5.715v.001a11.413 11.413 0 0 1-13.072-1.803 11.41 11.41 0 0 1-2.625-12.93l6.143-13.893a11.486 11.486 0 0 1 2.054-3.126l6.815-7.353.242-.26-.166-.314a14.808 14.808 0 0 1-1.493-4.34c-.967-5.44 1.267-11.049 6.826-16.649a48.447 48.447 0 0 1 3.3-3.008l.006-.004.006-.006c.173-.154.339-.297.51-.429l.01-.008a66.74 66.74 0 0 1 7.898-5.525 48.907 48.907 0 0 1 16.472-5.996l.168-.029.115-.125 11.393-12.326.114-.124.017-.167a20.59 20.59 0 0 1 10.499-16.033l.149-.083.067-.156a20.698 20.698 0 0 1 8.66-9.705l.14-.08.066-.148a20.628 20.628 0 0 1 24.207-11.44 20.625 20.625 0 0 1 15.104 22.107 20.616 20.616 0 0 1-10.225 15.674l-.14.081-.066.147a20.687 20.687 0 0 1-3.544 5.404l.37.336-.371-.335a20.569 20.569 0 0 1-5.264 4.185l-.148.082-.067.156a20.582 20.582 0 0 1-11.821 11.16l-.832.304.691.555a39.533 39.533 0 0 1 3.965 3.655c2.311 2.438 4.182 4.717 5.84 6.74 3.699 4.512 5.198 6.186 7.708 6.904 2.544.726 5.79.968 8.669 1 2.885.03 5.445-.15 6.639-.289Z" fill="#23A094"/><path d="M175.111 83.908a11.385 11.385 0 0 0-8.911-2.8h-.001c-1.194.138-3.754.318-6.639.287-2.879-.03-6.125-.273-8.669-1-2.51-.717-4.009-2.39-7.708-6.902-1.658-2.024-3.529-4.303-5.84-6.741a39.533 39.533 0 0 0-3.965-3.655l-.691-.555.832-.304a20.584 20.584 0 0 0 11.821-11.16l.067-.156.148-.082a20.569 20.569 0 0 0 5.264-4.185l.371.335-.37-.336a20.687 20.687 0 0 0 3.544-5.404l.066-.147.14-.08a20.62 20.62 0 0 0 3.564-33.164 20.625 20.625 0 0 0-32.651 6.82l-.066.148-.14.08a20.698 20.698 0 0 0-8.66 9.706l-.067.156-.149.083a20.601 20.601 0 0 0-10.499 16.033l-.017.167-.114.124-11.393 12.326-.115.125-.168.029a48.907 48.907 0 0 0-16.472 5.996 66.74 66.74 0 0 0-7.897 5.525l-.011.008a9.142 9.142 0 0 0-.51.43l-.006.005-.006.004a48.447 48.447 0 0 0-3.3 3.008c-5.559 5.6-7.793 11.208-6.826 16.65m116.044-1.374.332-.373m-.332.373a11.412 11.412 0 0 1 3.823 8.537v53.644a11.406 11.406 0 0 1-11.407 11.407h-26.63c-12.035 0-18.543-5.344-21.885-9.802a23.84 23.84 0 0 1-1.735-2.686l-.092-.165-.178-.063c-5.448-1.928-12.902-5.286-17.545-10.283l-.003-.002-.337-.376-.186-.205-.272.047c-.99.174-1.99.262-2.995.264A17.348 17.348 0 0 1 84 129.651l-.11-.101-.148-.024a17.73 17.73 0 0 1-10.363-5.651l-.091-.101-.13-.042-.571-.181-.198-.062-.183.095-11.036 5.715v.001a11.413 11.413 0 0 1-13.072-1.803 11.41 11.41 0 0 1-2.625-12.93l6.143-13.893a11.486 11.486 0 0 1 2.054-3.126l6.815-7.353.242-.26-.166-.314a14.808 14.808 0 0 1-1.493-4.34m0 0-.426.076m107.5-4.746c-2.343.271-10.155.719-15.113-.696-2.329-.666-3.729-2.19-7.459-6.74-1.657-2.023-3.539-4.314-5.863-6.767a39.918 39.918 0 0 0-3.566-3.335l-.277.104-.172-.47.313-.39.227.184a21.085 21.085 0 0 0 11.567-11.224" stroke="#000"/><path d="M142.364 39.549a9.198 9.198 0 0 0 2.382-6.668 9.215 9.215 0 1 0-9.631-8.72 9.195 9.195 0 0 0-8.355 6.372 9.182 9.182 0 0 0-.399 3.682 9.213 9.213 0 0 0-8.562 5.92 9.21 9.21 0 0 0 7.358 12.426 9.216 9.216 0 0 0 10.425-9.992 9.196 9.196 0 0 0 6.782-3.02Z" fill="#000" stroke="#000" stroke-linecap="round" stroke-linejoin="round"/><path d="M112.658 66.363a29.918 29.918 0 0 1 16.409 8.788c7.258 7.663 10.216 14.345 18.689 16.765 8.474 2.42 19.771 1.076 19.771 1.076v53.657h-26.629c-14.118 0-14.927-10.478-14.927-10.478s-12.908-3.224-18.157-8.873c-5.248-5.648-7.663-13.312-17.346-17.751-9.684-4.439-14.523-6.858-14.523-9.682 0-5.606 7.664-8.069 16.542-4.44 8.878 3.63 18.185 10.131 22.996 6.859 6.725-4.572 7.144-14.288-.953-20.127-4.048-2.925-8.873-3.139-14.256-2.6m24.22-26.91L86.571 93.53" stroke="#000" stroke-linecap="round" stroke-linejoin="round"/><path d="m77.965 103.505-8.502 9.201-13.556 7.049 6.144-13.893 55.446-60.02m-17.885 19.18a37.547 37.547 0 0 0-16.118 4.977c-7.144 4.258-13.812 10.392-13.179 13.85.596 3.377 6.192 5.11 10.222 1.905m16.089 11.501a43.253 43.253 0 0 1 4.734-4.935c5.916-4.843 10.76-6.191 16.947-5.92" stroke="#000" stroke-linecap="round" stroke-linejoin="round"/><path d="M72.31 109.533s2.558 5.915 8.607 3.496c1.862-.743 3.996-2.548 6.192-4.82m18.824-6.819c5.082-4.153 9.368-5.716 14.393-5.925m-39.808 19.313s2.552 5.916 8.606 3.496c1.972-.786 4.249-2.767 6.602-5.239m-5.864 6.248s2.553 5.916 8.607 3.496a14.348 14.348 0 0 0 3.81-2.524M76.212 98.907s1.748-4.167 6.592-1.747c3.386 1.695 4.972 4.572 4.706 6.32-.267 1.748-1.748 3.096-4.035 2.557M70.696 82.366s2.825 1.348 5.65-1.343c2.824-2.69.404-6.32.404-6.32m-14.523 31.158s.224 3.087 2.735 4.882a10.297 10.297 0 0 0 4.677 1.962" stroke="#000" stroke-linecap="round" stroke-linejoin="round"/><path d="M148.566 19.494a6.716 6.716 0 0 0-6.192-1.524" stroke="#fff" stroke-linecap="round" stroke-linejoin="round"/></svg>