<?xml version="1.0" encoding="UTF-8"?>
<svg width="84px" height="84px" viewBox="0 0 84 84" version="1.1" xmlns="http://www.w3.org/2000/svg" xmlns:xlink="http://www.w3.org/1999/xlink">
    <defs></defs>
    <g id="WeWork" stroke="none" stroke-width="1" fill="none" fill-rule="evenodd" transform="translate(-1458.000000, -304.000000)">
        <g id="WeWork-Logo-Copy" transform="translate(1260.000000, 226.000000)" fill="#252729">
            <g id="On-White">
                <path d="M257.412777,110.731009 C261.052581,110.731009 261.857568,114.713721 262.035928,117.339794 L252.18115,117.339794 C252.582855,113.589107 254.297398,110.731009 257.412777,110.731009 Z M266.980679,119.148647 C267.827493,119.148647 268.515284,118.467565 268.515678,117.682308 C268.516073,114.161279 263.416638,109.173122 257.093149,109.173122 C250.496991,109.173122 245.150141,114.382651 245.150141,120.809525 C245.150141,127.236794 250.496991,132.446322 257.093149,132.446322 C262.383966,132.446322 266.867823,129.093788 268.437153,124.450513 L266.98936,124.450513 C265.878557,126.519014 263.950928,128.685376 260.744791,128.685376 C255.173019,128.685376 252.058824,124.888915 252.085262,119.149437 L252.085657,119.149042 L266.980679,119.148647 Z M244.902331,109.562199 L238.382331,109.562199 L238.382331,110.626045 L238.642374,110.626045 C241.515072,110.626045 243.465587,113.546885 242.364255,116.20058 L239.325823,123.519253 L234.549567,112.295603 C234.212577,111.504428 234.793431,110.626045 235.653662,110.626045 L235.672603,110.626045 L235.672603,109.562199 L223.905192,109.562199 L223.905192,110.626045 L224.062638,110.626045 C225.030596,110.626045 225.904638,111.204136 226.28385,112.094357 L227.97748,116.074307 L224.888145,123.519253 L220.111888,112.295603 C219.774899,111.504428 220.355752,110.626045 221.215589,110.626045 L221.234924,110.626045 L221.234924,109.562199 L209.467513,109.562199 L209.467513,110.626045 L209.624959,110.626045 C210.592917,110.626045 211.466959,111.204136 211.846171,112.094357 L219.828564,130.851343 C220.163187,131.637389 220.935422,132.14682 221.789734,132.145242 C222.647992,132.144058 223.421411,131.626735 223.750509,130.833981 L228.939123,118.333795 L234.266638,130.851343 C234.600865,131.637389 235.3731,132.14682 236.227413,132.145242 C237.085671,132.144058 237.859484,131.626735 238.188187,130.833981 L246.207279,111.51666 C246.593199,110.586584 245.909354,109.562199 244.902331,109.562199 Z M267.104583,147.104583 C259.864436,154.344337 250.238922,158.331785 239.999803,158.331785 C229.761473,158.331785 220.135564,154.344337 212.895417,147.104583 C205.655663,139.864436 201.668215,130.238527 201.668215,120.000197 C201.668215,109.761078 205.655663,100.13517 212.895417,92.8954165 C220.135564,85.6556632 229.761473,81.6682153 239.999803,81.6682153 C250.238922,81.6682153 259.864436,85.6556632 267.104583,92.8954165 C274.344731,100.13517 278.33139,109.761078 278.33139,120.000197 C278.33139,130.238527 274.344731,139.864436 267.104583,147.104583 Z M278.698764,103.651069 C276.582911,98.6494952 273.555134,94.1581412 269.698299,90.3013064 C265.841859,86.4448662 261.350505,83.4166945 256.348931,81.3012359 C251.169787,79.1108032 245.669437,78 239.999803,78 C234.330958,78 228.830213,79.1108032 223.651069,81.3012359 C218.64989,83.4166945 214.158141,86.4448662 210.301306,90.3013064 C206.444866,94.1581412 203.416694,98.6494952 201.301236,103.651069 C199.110803,108.830213 198,114.330958 198,120.000197 C198,125.669042 199.110803,131.169787 201.301236,136.348931 C203.416694,141.350505 206.444866,145.841859 210.301306,149.698299 C214.158141,153.555134 218.64989,156.583306 223.651069,158.698764 C228.830213,160.889197 234.330958,162 239.999803,162 C245.669437,162 251.169787,160.889197 256.348931,158.698764 C261.350505,156.583306 265.841859,153.555134 269.698299,149.698299 C273.555134,145.841859 276.582911,141.350505 278.698764,136.348931 C280.889197,131.169787 282,125.669042 282,120.000197 C282,114.330958 280.889197,108.830213 278.698764,103.651069 L278.698764,103.651069 Z" id="we-logo"></path>
            </g>
        </g>
    </g>
</svg>
