<svg xmlns="http://www.w3.org/2000/svg" width="94px" height="20px" viewBox="0 0 94 20">
              <title>WeWork logo</title>
              <g class="a">
                <g class="b" style="fill:currentColor;">
                  <path d="M7.89163003,9.63464435 C8.46577229,9.63464435 8.96719489,9.65523013 9.41096058,9.73623431 C10.0425924,9.84736402 10.5784083,10.7279498 10.5784083,11.1579079 C10.5784083,11.3774895 10.5784083,11.6221757 10.4822576,11.9779916 C10.3255212,12.5244351 9.25422418,14.4875314 8.80769698,15.2267782 C8.27062585,14.3556485 7.00694384,11.8958159 6.5703748,10.9383264 C6.38075137,10.5358159 6.2843497,10.201841 6.2843497,10.03841 C6.2843497,9.73623431 6.88334551,9.63464435 7.89163003,9.63464435 Z M0.729454301,9.63464435 C1.2652702,9.76786611 1.57832459,9.87916318 2.01815723,10.6674477 C3.56752961,13.5096234 5.11949614,16.6438494 6.62778066,19.7278661 C6.81740409,19.887364 7.03983087,19.9228452 7.36142083,19.9228452 C7.6717974,19.9228452 7.89163003,19.887364 8.0894543,19.7278661 C8.80769698,18.3708787 10.7048518,14.729205 11.5234292,13.3146444 C12.4753957,15.0633473 14.1140568,18.252887 14.7789104,19.7278661 C14.9630945,19.887364 15.1911279,19.9228452 15.5015045,19.9228452 C15.8173204,19.9228452 16.044015,19.887364 16.2266928,19.7278661 C17.5549773,16.8366527 19.0027597,13.8351464 20.4599982,11.0441841 C20.965856,10.03841 21.1854376,9.76786611 22.2281991,9.57414226 L22.6704585,9.49589958 C22.9218392,9.24317992 22.857153,8.64962343 22.5769857,8.53556485 C21.8820903,8.59062762 21.0620066,8.61941423 20.1414208,8.61941423 C19.3531363,8.61941423 18.6002493,8.59062762 17.5549773,8.53556485 C17.2391614,8.64962343 17.2391614,9.30066946 17.4315464,9.49589958 L17.9643497,9.59874477 C18.5068602,9.71012552 18.7554794,9.84736402 18.7554794,9.98610879 C18.7554794,10.1769874 18.6594961,10.5589121 18.4630108,11.0441841 C17.9643497,12.307364 17.4685338,13.6457741 16.7020066,15.2267782 C16.0098727,13.9133891 15.1277807,12.1426778 14.5564836,10.831046 C14.369538,10.3696234 14.3063581,10.201841 14.3063581,9.98610879 C14.3063581,9.84736402 14.7430945,9.71012552 15.4740568,9.57414226 L15.9437639,9.49589958 C16.1717974,9.38460251 16.1964836,8.56861925 15.8503748,8.53556485 C13.8310443,8.59062762 12.2529689,8.61941423 10.262425,8.61941423 L3.88485179,8.61941423 C2.55916141,8.61941423 1.55079321,8.59062762 0.256985682,8.53556485 C-0.0657758246,8.67297071 -0.0657758246,9.27330544 0.152801581,9.49589958 L0.729454301,9.63464435 L0.729454301,9.63464435 Z"></path>
                  <path d="M27.1010042,9.45933054 C28.1696234,9.45933054 28.7740586,10.0554812 28.7740586,10.9579079 C28.7740586,11.2323849 28.7107113,11.507364 28.5541423,11.5856067 C28.2011715,11.7779916 27.6971548,11.8286192 27.2562343,11.8286192 L26.0885356,11.8286192 C25.0734728,11.8286192 24.6366527,11.8095397 24.6366527,11.4221757 C24.6366527,10.5456904 25.7740586,9.45933054 27.1010042,9.45933054 Z M27.0679498,19.8862762 C28.9607531,19.8862762 31.3041004,19.0925523 32.5953975,16.7741423 C32.5953975,16.3093724 32.1159833,16.0885356 31.7727197,16.1395816 C30.9195816,17.4014226 29.7164854,17.5596653 28.8345607,17.5596653 C25.9005021,17.5596653 24.3811715,15.5714644 24.3811715,13.523682 C24.3811715,13.0882845 24.447113,13.0333891 25.1750628,13.0333891 L31.2299582,13.0333891 C32.2162343,13.0333891 32.3701255,12.6516318 32.3701255,12.1338075 C32.3701255,10.0292887 30.6009205,8.20083682 27.3164854,8.20083682 C23.3755649,8.20083682 20.5020921,10.87841 20.5020921,14.3190795 C20.5020921,17.2941423 22.8069456,19.8862762 27.0679498,19.8862762 L27.0679498,19.8862762 Z"></path>
                  <path d="M40.4351611,9.63464435 C41.0118138,9.63464435 41.5132364,9.65523013 41.9570858,9.73623431 C42.5888849,9.84736402 43.1245335,10.7279498 43.1245335,11.1579079 C43.1245335,11.3774895 43.1245335,11.6221757 43.0310607,11.9779916 C42.8689686,12.5244351 41.7977552,14.4875314 41.3580899,15.2267782 C40.8154958,14.3556485 39.5570858,11.8958159 39.1164163,10.9383264 C38.9296381,10.5358159 38.8306422,10.201841 38.8306422,10.03841 C38.8306422,9.73623431 39.4267092,9.63464435 40.4351611,9.63464435 Z M33.2729017,9.63464435 C33.8143242,9.76786611 34.1247845,9.87916318 34.5667929,10.6674477 C36.1107259,13.5096234 37.665956,16.6438494 39.1769184,19.7278661 C39.3690523,19.887364 39.5888849,19.9228452 39.9048682,19.9228452 C40.2178389,19.9228452 40.4351611,19.887364 40.6288012,19.7278661 C41.3580899,18.3708787 43.2481318,14.729205 44.0723159,13.3146444 C45.0216046,15.0633473 46.6561653,18.252887 47.3208514,19.7278661 C47.5118975,19.887364 47.7303075,19.9228452 48.0445335,19.9228452 C48.3635293,19.9228452 48.5862071,19.887364 48.7729853,19.7278661 C50.1010188,16.8366527 51.553069,13.8351464 53.0077971,11.0441841 C53.5131527,10.03841 53.7306422,9.76786611 54.7716464,9.57414226 L55.2177552,9.49589958 C55.4667929,9.24317992 55.4006004,8.64962343 55.1205167,8.53556485 C54.4226924,8.59062762 53.6065418,8.61941423 52.6874623,8.61941423 C51.8963326,8.61941423 51.1441987,8.59062762 50.1010188,8.53556485 C49.7811025,8.64962343 49.7811025,9.30066946 49.9748263,9.49589958 L50.5108096,9.59874477 C51.0490523,9.71012552 51.2989268,9.84736402 51.2989268,9.98610879 C51.2989268,10.1769874 51.2041987,10.5589121 51.0175042,11.0441841 C50.5108096,12.307364 50.0050355,13.6457741 49.245454,15.2267782 C48.5529853,13.9133891 47.6710607,12.1426778 47.1025251,10.831046 C46.9114791,10.3696234 46.8483828,10.201841 46.8483828,9.98610879 C46.8483828,9.84736402 47.2867092,9.71012552 48.0173368,9.57414226 L48.4872113,9.49589958 C48.7098891,9.38460251 48.7426924,8.56861925 48.3938222,8.53556485 C46.3758305,8.59062762 44.7923159,8.61941423 42.8058724,8.61941423 L36.4282991,8.61941423 C35.1082991,8.61941423 34.0942406,8.59062762 32.800433,8.53556485 C32.4872113,8.67297071 32.4872113,9.27330544 32.7070439,9.49589958 L33.2729017,9.63464435 L33.2729017,9.63464435 Z"></path>
                  <path d="M60.3017804,9.45933054 C62.0954206,9.45933054 62.9803578,11.7477824 63.0145001,14.3999163 C63.0417804,16.8575732 62.4386842,18.6313808 60.6381821,18.6313808 C58.8150858,18.6313808 57.7688934,16.5251046 57.7688934,13.6628452 C57.7688934,10.6913808 58.9110691,9.45933054 60.3017804,9.45933054 Z M60.3017804,19.8862762 C64.1796047,19.8862762 67.5610273,18.0044351 67.5610273,14.0129707 C67.5610273,10.165272 64.2093955,8.20083682 60.486885,8.20083682 C56.7603578,8.20083682 53.1917386,10.3561506 53.2219478,14.2628452 C53.2591026,18.0265272 56.5377637,19.8862762 60.3017804,19.8862762 L60.3017804,19.8862762 Z"></path>
                  <path d="M72.9409338,10.5143933 C73.1349924,10.5143933 73.4147413,10.5433473 74.1375865,11.059749 C74.5426075,11.3908787 74.9230259,11.5543096 75.3678794,11.5543096 C76.3764987,11.5543096 77.3914778,11.0364017 77.3914778,9.77949791 C77.3914778,8.74803347 76.5069589,8.16953975 75.6484652,8.16953975 C74.3268752,8.16953975 73.4147413,9.06945607 72.556666,9.53087866 C72.3062895,9.48008368 72.2414359,9.39782427 72.2414359,9.20543933 C72.2414359,8.9609205 72.3062895,8.58175732 72.363779,8.03104603 C72.2414359,7.86887029 72.0469589,7.78242678 71.803528,7.78242678 C70.8213522,8.33606695 68.6442811,9.06945607 67.1869589,9.42803347 C66.9673773,9.58736402 66.9673773,10.0804184 67.1869589,10.2451046 L67.6374192,10.491046 C68.2335698,10.8194142 68.2335698,11.1449372 68.2335698,12.2394979 L68.2335698,16.3589958 C68.2335698,18.2684519 68.1068752,18.514477 67.0632769,18.6000837 L66.4628585,18.6501255 C66.2086326,18.8140586 66.2086326,19.4456067 66.4960803,19.6094561 C67.5397623,19.5502092 68.9287162,19.5264435 70.2226075,19.5264435 C71.7031932,19.5264435 72.9694694,19.5502092 74.4864568,19.6094561 C74.7704736,19.4456067 74.7704736,18.8140586 74.5149924,18.6501255 L73.5055363,18.5736402 C72.4631932,18.4867782 72.3353271,18.2684519 72.3353271,16.3589958 L72.3353271,12.1560669 C72.3353271,11.1203347 72.4956619,10.5143933 72.9409338,10.5143933"></path>
                  <path d="M85.3281569,18.5590795 L84.9189519,18.6446862 C84.6628849,18.8901255 84.7248096,19.46 85.0419644,19.5948117 C85.9264833,19.5411715 87.0587008,19.5148954 88.9298305,19.5148954 C90.7607929,19.5148954 91.9256464,19.5411715 92.9022155,19.5948117 C93.2193703,19.4902092 93.2838054,18.8339749 93.0269017,18.6446862 L92.5582824,18.5590795 C91.7390356,18.4241841 91.1398724,18.2832636 90.6971946,17.9343933 C89.9038891,17.3074477 87.1248096,13.5918828 86.564977,12.7185774 C86.4017971,12.5011715 86.3348515,12.3389958 86.3348515,12.2543096 C86.3348515,12.1743096 86.3683243,12.0657741 86.523136,11.8984937 C86.9666506,11.5206695 87.448659,11.1043515 88.6444749,10.3132218 C89.4930105,9.74460251 90.1616297,9.47263598 90.7607929,9.36133891 L91.7666506,9.16895397 C91.992592,8.95598326 91.9624665,8.34627615 91.639454,8.21414226 C89.7808766,8.46167364 87.1591192,8.59615063 85.6729268,8.59615063 L84.9189519,8.59615063 C84.6043075,8.71029289 84.5683243,9.30619247 84.8528431,9.55087866 L85.6453117,9.66502092 C85.9264833,9.68686192 86.2411276,9.79531381 86.2411276,9.93414226 C86.2411276,10.0988285 86.0888264,10.3969038 85.4846423,11.0209205 L84.1633033,12.3666946 C83.5287427,12.9917992 82.8664833,13.1292887 82.3294958,13.1292887 C81.9858138,13.1292887 81.8842238,13.0466946 81.8842238,12.7462762 L81.8842238,4.17732218 C81.8842238,2.45481172 81.9240565,1.30644351 81.9858138,0.189539749 C81.8622155,0.0494560669 81.6343494,0 81.4458975,0 C79.83209,0.594811715 77.9105,1.25690377 76.6179477,1.52343096 C76.3940146,1.69112971 76.3940146,2.1841841 76.6179477,2.33941423 L77.1535125,2.61958159 C77.7825502,2.94786611 77.7825502,3.2474477 77.7825502,4.34485356 L77.7825502,16.3486192 C77.7825502,18.258159 77.6563577,18.4777406 76.5146004,18.591046 L75.9158556,18.6446862 C75.6659812,18.8050209 75.6659812,19.4353138 75.9474038,19.5948117 C77.0532615,19.5411715 78.3484079,19.5148954 79.8005418,19.5148954 C81.2551862,19.5148954 82.5789519,19.5411715 83.594433,19.5948117 C83.8737636,19.4353138 83.8737636,18.8050209 83.623387,18.6446862 L83.1218807,18.591046 C82.0117552,18.4777406 81.8842238,18.258159 81.8842238,16.3486192 L81.8842238,14.7681172 C81.8842238,14.2459414 82.0438054,14.1128033 82.2621318,14.1128033 C82.5789519,14.1128033 82.8331778,14.2238494 83.0575293,14.5152301 L85.2955209,17.4696234 C85.5490774,17.7938075 85.8310858,18.2296234 85.8310858,18.3476151 C85.8310858,18.449205 85.6453117,18.500251 85.3281569,18.5590795"></path>
                </g>
              </g>
            </svg>