<?xml version="1.0" standalone="no"?>
<!DOCTYPE svg PUBLIC "-//W3C//DTD SVG 20010904//EN"
 "http://www.w3.org/TR/2001/REC-SVG-20010904/DTD/svg10.dtd">
<svg version="1.0" xmlns="http://www.w3.org/2000/svg"
 width="64.000000pt" height="64.000000pt" viewBox="0 0 64.000000 64.000000"
 preserveAspectRatio="xMidYMid meet">

<g transform="translate(0.000000,64.000000) scale(0.100000,-0.100000)"
fill="#000000" stroke="none">
<path d="M190 590 c0 -38 4 -50 15 -50 11 0 15 12 15 50 0 38 -4 50 -15 50
-11 0 -15 -12 -15 -50z"/>
<path d="M302 593 c2 -35 7 -48 18 -48 11 0 16 13 18 48 3 42 1 47 -18 47 -19
0 -21 -5 -18 -47z"/>
<path d="M420 590 c0 -38 4 -50 15 -50 11 0 15 12 15 50 0 38 -4 50 -15 50
-11 0 -15 -12 -15 -50z"/>
<path d="M274 407 c-56 -70 -71 -115 -54 -156 30 -73 114 -95 170 -43 47 42
50 89 11 149 -30 46 -77 104 -83 103 -2 -1 -22 -24 -44 -53z m85 -36 c57 -71
51 -140 -14 -161 -61 -20 -114 27 -101 90 6 32 60 110 76 110 5 0 22 -18 39
-39z"/>
<path d="M0 435 c0 -11 12 -15 50 -15 38 0 50 4 50 15 0 11 -12 15 -50 15 -38
0 -50 -4 -50 -15z"/>
<path d="M540 435 c0 -11 12 -15 50 -15 38 0 50 4 50 15 0 11 -12 15 -50 15
-38 0 -50 -4 -50 -15z"/>
<path d="M0 320 c0 -19 5 -21 48 -18 34 2 47 7 47 18 0 11 -13 16 -47 18 -43
3 -48 1 -48 -18z"/>
<path d="M545 330 c-12 -19 6 -30 51 -30 37 0 44 3 44 20 0 17 -7 20 -44 20
-25 0 -48 -4 -51 -10z"/>
<path d="M0 205 c0 -11 12 -15 50 -15 38 0 50 4 50 15 0 11 -12 15 -50 15 -38
0 -50 -4 -50 -15z"/>
<path d="M540 205 c0 -11 12 -15 50 -15 38 0 50 4 50 15 0 11 -12 15 -50 15
-38 0 -50 -4 -50 -15z"/>
<path d="M190 50 c0 -38 4 -50 15 -50 11 0 15 12 15 50 0 38 -4 50 -15 50 -11
0 -15 -12 -15 -50z"/>
<path d="M307 94 c-4 -4 -7 -27 -7 -51 0 -37 3 -43 21 -43 18 0 20 5 17 47 -3
44 -15 62 -31 47z"/>
<path d="M420 50 c0 -38 4 -50 15 -50 11 0 15 12 15 50 0 38 -4 50 -15 50 -11
0 -15 -12 -15 -50z"/>
</g>
</svg>
