<?xml version="1.0" encoding="UTF-8"?>
<svg width="26px" height="28px" viewBox="0 0 26 28" version="1.1" xmlns="http://www.w3.org/2000/svg" xmlns:xlink="http://www.w3.org/1999/xlink">
    <!-- Generator: Sketch 59.1 (86144) - https://sketch.com -->
    <title>cloud firewalls</title>
    <desc>Created with Sketch.</desc>
    <defs>
        <linearGradient x1="49.953%" y1="97.607%" x2="49.953%" y2="-29.302%" id="linearGradient-1">
            <stop stop-color="#0069FF" stop-opacity="0.6" offset="0%"></stop>
            <stop stop-color="#0069FF" stop-opacity="0" offset="100%"></stop>
        </linearGradient>
        <linearGradient x1="49.648%" y1="99.559%" x2="49.648%" y2="4.357%" id="linearGradient-2">
            <stop stop-color="#0069FF" stop-opacity="0.6" offset="0%"></stop>
            <stop stop-color="#0069FF" stop-opacity="0" offset="100%"></stop>
        </linearGradient>
    </defs>
    <g id="Page-1" stroke="none" stroke-width="1" fill="none" fill-rule="evenodd">
        <g id="cloud-firewalls" transform="translate(0.000000, 1.000000)">
            <path d="M22.1621622,14.1891892 C21.6891892,13.7837838 21.0135135,13.5135135 20.3378378,13.5135135 L2.77027027,13.5135135 C1.28378378,13.5135135 0,14.7972973 0,16.3513514 L0,22.0945946 C0,22.8378378 0.27027027,23.5135135 0.743243243,23.9864865 L3.04054054,26.5540541 L24.3243243,15.9459459 L22.1621622,14.1891892 Z" id="Path" fill="url(#linearGradient-1)" fill-rule="nonzero"></path>
            <g id="Group" transform="translate(2.702703, 16.216216)" stroke="#120078">
                <path d="M0.405405405,9.05405405 L0.405405405,1.28378378 C0.405405405,0.675675676 1.08108108,0.135135135 1.82432432,0.135135135 L20.472973,0.135135135 C21.2837838,0.135135135 21.8918919,0.675675676 21.8918919,1.28378378 L21.8918919,9.05405405 C21.8918919,9.66216216 21.2162162,10.2027027 20.472973,10.2027027 L1.82432432,10.2027027 C1.08108108,10.2027027 0.405405405,9.72972973 0.405405405,9.05405405 Z" id="Path" fill="#FFFFFF" fill-rule="nonzero"></path>
                <path d="M0.405405405,5.2027027 L21.9594595,5.2027027 M11.0135135,0.0675675676 L11.0135135,5.47297297 M5.87837838,4.7972973 L5.87837838,10.2702703 M16.3513514,4.7972973 L16.3513514,10.2702703" id="Shape"></path>
            </g>
            <path d="M13.1081081,0.135135135 C13.1081081,0.135135135 8.31081081,3.64864865 8.31081081,7.22972973 C8.31081081,9.86486486 10.472973,12.027027 13.1081081,12.027027 C15.7432432,12.027027 17.9054054,9.86486486 17.9054054,7.22972973 C17.9054054,3.85135135 13.1081081,0.135135135 13.1081081,0.135135135 Z" id="Path" fill="#FFFFFF" fill-rule="nonzero"></path>
            <path d="M13.1081081,0.608108108 C13.1081081,0.608108108 8.64864865,3.91891892 8.64864865,7.22972973 C8.64864865,9.72972973 10.6756757,11.6891892 13.1081081,11.6891892 C15.6081081,11.6891892 17.5675676,9.66216216 17.5675676,7.22972973 C17.5675676,3.98648649 13.1081081,0.608108108 13.1081081,0.608108108 Z" id="Path" fill="url(#linearGradient-2)" fill-rule="nonzero"></path>
            <path d="M13.1081081,0.135135135 C13.1081081,0.135135135 8.31081081,3.64864865 8.31081081,7.22972973 C8.31081081,9.86486486 10.472973,12.027027 13.1081081,12.027027 C15.7432432,12.027027 17.9054054,9.86486486 17.9054054,7.22972973 C17.9054054,3.85135135 13.1081081,0.135135135 13.1081081,0.135135135 Z" id="Path" stroke="#0069FF"></path>
            <path d="M13.1081081,6.62162162 C13.1081081,6.62162162 11.3513514,7.90540541 11.3513514,9.25675676 C11.3513514,10.2702703 12.1621622,11.0135135 13.1081081,11.0135135 C14.1216216,11.0135135 14.8648649,10.2027027 14.8648649,9.25675676 C14.8648649,7.97297297 13.1081081,6.62162162 13.1081081,6.62162162 Z" id="Path" stroke="#120078" fill="#FFFFFF" fill-rule="nonzero"></path>
        </g>
    </g>
</svg>