<svg width="286" height="64" viewBox="0 0 286 64" fill="none" xmlns="http://www.w3.org/2000/svg">
<g clip-path="url(#clip0_8_15)">
<path d="M144 28.16C72.045 28.16 71.955 -9.3469e-07 0 0V64H1440V0C1368.05 -7.47754e-06 1367.95 28.16 1296 28.16C1224.05 28.16 1223.96 7.47754e-06 1152 0C1080.05 -7.47754e-06 1079.95 28.16 1008 28.16C936.045 28.16 935.955 0 864 0C792.045 0 791.955 28.16 720 28.16C648.045 28.16 647.955 3.73877e-06 576 0C504.045 -3.73877e-06 503.955 28.16 432 28.16C360.045 28.16 359.955 -3.73877e-06 288 0C216.045 3.73877e-06 215.955 28.16 144 28.16Z" fill="#0069FF"/>
</g>
<defs>
<clipPath id="clip0_8_15">
<rect width="1440" height="64" fill="white"/>
</clipPath>
</defs>
</svg>
