<svg width="52" height="13" viewBox="0 0 52 13" fill="none" xmlns="http://www.w3.org/2000/svg">
<rect width="52" height="13" fill="white"/>
<path d="M50.1231 9.60399C50.1231 9.60399 49.2366 10.5042 48.0452 10.5042C46.7018 10.5042 45.8431 9.47913 45.8431 8.28801C45.8431 7.08293 46.6881 6.09959 47.99 6.09959C49.098 6.09959 49.832 6.86154 49.832 6.86154L50.6078 5.65646C50.6078 5.65646 49.7351 4.60378 47.893 4.60378C45.5521 4.60378 44.0563 6.29379 44.0563 8.30194C44.0563 10.3518 45.5521 12 47.893 12C49.7906 12 50.8016 10.8505 50.8016 10.8505L50.1231 9.60399Z" fill="#29B9D2"/>
<path d="M40.0768 11.4848L39.9877 11.829C39.9874 11.8307 39.9869 11.8323 39.9864 11.8339H41.3293V9.0377C41.3293 8.79854 41.3455 8.5699 41.3782 8.35169C41.0532 8.91706 40.7728 9.51029 40.536 10.1182C40.3595 10.5678 40.2045 11.0258 40.0768 11.4848" fill="#29B9D2"/>
<path d="M41.2601 6.21324L41.2591 6.39577C41.2596 6.30297 41.2601 6.1533 41.2601 5.99264V4.77442H39.5713V9.72854C39.5776 9.71606 39.583 9.70305 39.5893 9.69056C40.0675 8.76796 40.6343 7.88478 41.3582 7.12486C41.7157 6.7436 42.1218 6.40053 42.5706 6.1243C42.9535 5.88886 43.3821 5.72196 43.8208 5.6507V4.7052C43.8208 4.7052 43.6685 4.67744 43.5025 4.67744C42.4228 4.67744 41.5784 5.20304 41.2601 6.21324Z" fill="#122F5B"/>
<path d="M0 2.00001V3.53739H3.227V11.8338H5.01376V3.53739H8.24104V2.00001H0" fill="#122F5B"/>
<path d="M17.2414 8.0111C17.2414 9.27147 16.535 10.3934 15.2609 10.3934C14.3882 10.3934 14.1667 9.81169 14.1667 8.95299V4.76999H12.4077V9.31317C12.4077 11.2381 13.3495 12 14.8593 12C16.0642 12 16.9645 11.509 17.3107 10.7748V11.8339H19.0005V4.76999H17.2414V8.0111" fill="#122F5B"/>
<path d="M21.6859 6.73668C21.6859 6.29379 22.1292 6.09959 22.5863 6.09959C23.6665 6.09959 24.3176 6.70904 24.3176 6.70904L24.9685 5.40732C24.9685 5.40732 24.1928 4.60367 22.6 4.60367C21.0764 4.60367 19.8992 5.36562 19.8992 6.68139C19.8992 8.95299 23.334 8.81451 23.334 9.8671C23.334 10.2826 22.9047 10.5042 22.406 10.5042C21.2565 10.5042 20.4808 9.72862 20.4808 9.72862L19.6776 10.9613C19.6776 10.9613 20.6609 12 22.4199 12C24.0958 12 25.1208 11.0582 25.1208 9.88091C25.1208 7.60944 21.6859 7.73407 21.6859 6.73668" fill="#122F5B"/>
<path d="M27.5253 9.02208V6.27974H29.132V4.88092H27.5253V2.84489H25.7802V6.27974V9.24382C25.7802 11.6124 27.7191 11.9031 28.7028 11.9031C29.035 11.9031 29.2429 11.8614 29.2429 11.8614L29.7836 10.3242C29.7836 10.3242 29.1183 10.3518 28.9243 10.3518C28.4396 10.3518 27.5253 10.1856 27.5253 9.02208" fill="#122F5B"/>
<path d="M35.4383 2H33.5685L30.1059 11.8339H31.9479L32.779 9.31317H36.2278L37.0589 11.8339H38.7053H38.9008L38.8101 11.5764L35.4383 2ZM33.2083 7.85871L34.0809 5.22706C34.2748 4.67313 34.4964 3.7036 34.4964 3.7036H34.524C34.524 3.7036 34.7318 4.67313 34.9119 5.22706L35.7844 7.85871H33.2083" fill="#122F5B"/>
<path d="M9.21328 6.21323L9.21237 6.40143C9.21283 6.30943 9.21328 6.15635 9.21328 5.99263V4.77442H7.52452V11.8339H9.28239V9.0377C9.28239 8.62248 9.32409 8.23476 9.43478 7.88874C9.7671 6.83673 10.6113 6.40788 11.3588 6.40788C11.5942 6.40788 11.774 6.43553 11.774 6.43553V4.70519C11.774 4.70519 11.6217 4.67743 11.4557 4.67743C10.376 4.67743 9.53166 5.20304 9.21328 6.21323" fill="#122F5B"/>
</svg>
