<svg xmlns="http://www.w3.org/2000/svg" version="1.1" xmlns:xlink="http://www.w3.org/1999/xlink" xmlns:svgjs="http://svgjs.dev/svgjs" viewBox="0 0 2400 800"><defs><linearGradient x1="50%" y1="0%" x2="50%" y2="100%" id="sssurf-grad"><stop stop-color="" stop-opacity="1" offset="0%"></stop><stop stop-color="#eadeff" stop-opacity="1" offset="100%"></stop></linearGradient></defs><g fill="#eadeff" transform="matrix(1,0,0,1,8.247314453125,368.0885314941406)"><path d="M-10,10C47.63888888888889,15.625,153.47222222222223,41.791666666666664,266.6666666666667,37C379.86111111111114,32.208333333333336,422.2222222222223,-26.958333333333332,533.3333333333334,-13C644.4444444444445,0.9583333333333321,688.8888888888889,123.375,800,104C911.1111111111111,84.625,955.5555555555557,-99.33333333333333,1066.6666666666667,-106C1177.7777777777778,-112.66666666666667,1222.2222222222224,71.16666666666667,1333.3333333333335,72C1444.4444444444446,72.83333333333333,1488.888888888889,-95.33333333333333,1600,-102C1711.111111111111,-108.66666666666667,1755.5555555555557,28.125,1866.6666666666667,40C1977.7777777777778,51.875,2022.2222222222224,-49.583333333333336,2133.3333333333335,-45C2244.4444444444443,-40.416666666666664,2292.3611111111113,-30.708333333333343,2400,62C2507.6388888888887,154.70833333333334,3254.1666666666665,225.41666666666669,2650,400C2045.8333333333335,574.5833333333333,156.25,795.8333333333334,-500,900" transform="matrix(1,0,0,1,0,35)" opacity="NaN"></path></g></svg>