<svg xmlns="http://www.w3.org/2000/svg" viewBox="0 0 150 150"><title>Artboard 1 copy</title><path d="M150,28.6a64.3,64.3,0,0,1-15.4,15.8c0,.9.1,2.3.1,4a87.4,87.4,0,0,1-3.6,24.7,92.5,92.5,0,0,1-11,23.7,96.1,96.1,0,0,1-17.6,20A77.9,77.9,0,0,1,78,130.7a89.3,89.3,0,0,1-30.8,5.2A85.4,85.4,0,0,1,0,122.1a56,56,0,0,0,7.4.4,60.6,60.6,0,0,0,38.2-13.1,30.3,30.3,0,0,1-17.9-6.2A29.7,29.7,0,0,1,16.8,88a31.3,31.3,0,0,0,5.9.5,30.8,30.8,0,0,0,8-1A30.5,30.5,0,0,1,13.1,76.9a29.8,29.8,0,0,1-7-19.6v-.4A30.5,30.5,0,0,0,20,60.8,30.8,30.8,0,0,1,10,49.9,29.7,29.7,0,0,1,6.3,35.2a30.1,30.1,0,0,1,4.2-15.5,86,86,0,0,0,28,22.7,86.4,86.4,0,0,0,35.4,9.5,35.1,35.1,0,0,1-.8-7.1,29.5,29.5,0,0,1,9-21.7,29.5,29.5,0,0,1,21.7-9,29.6,29.6,0,0,1,22.5,9.7,60,60,0,0,0,19.5-7.4,29.4,29.4,0,0,1-13.5,16.9A61.2,61.2,0,0,0,150,28.6Z"/></svg>